<svg width="209" height="68" viewBox="0 0 209 68" fill="none" xmlns="http://www.w3.org/2000/svg">
<rect x="0.736847" width="207.579" height="68" rx="14.3158" fill="white"/>
<path d="M74.7163 36.8126L72.7394 42.7988H70.1978L76.6641 23.7663H79.6292L86.124 42.7988H83.4979L81.4649 36.8126H74.7163ZM80.9574 34.8923L79.0937 29.4142C78.6702 28.1717 78.3878 27.0423 78.1055 25.941H78.0489C77.7666 27.0703 77.4556 28.2283 77.0887 29.3862L75.225 34.8923H80.9574Z" fill="black"/>
<path d="M88.7439 33.5989C88.7439 31.8483 88.6874 30.436 88.6308 29.1375H90.8615L90.9746 31.4814H91.0312C92.048 29.8154 93.6574 28.8272 95.888 28.8272C99.1921 28.8272 101.677 31.6225 101.677 35.7735C101.677 40.687 98.6834 43.1154 95.464 43.1154C93.6568 43.1154 92.0754 42.325 91.2564 40.9693H91.1998V48.3958H88.7434L88.7439 33.5989ZM91.2004 37.2412C91.2004 37.6082 91.2569 37.9471 91.3135 38.258C91.765 39.9806 93.2619 41.1665 95.041 41.1665C97.6672 41.1665 99.1921 39.0204 99.1921 35.8861C99.1921 33.1474 97.7518 30.8035 95.1256 30.8035C93.4316 30.8035 91.8502 32.018 91.3701 33.8812C91.2855 34.1916 91.2009 34.5591 91.2009 34.898L91.2004 37.2412Z" fill="black"/>
<path d="M104.821 33.5989C104.821 31.8483 104.765 30.436 104.708 29.1375H106.939L107.052 31.4814H107.108C108.125 29.8154 109.735 28.8272 111.965 28.8272C115.269 28.8272 117.754 31.6225 117.754 35.7735C117.754 40.687 114.761 43.1154 111.542 43.1154C109.735 43.1154 108.153 42.325 107.334 40.9693H107.278V48.3958H104.821V33.5989ZM107.278 37.2412C107.278 37.6082 107.335 37.9471 107.391 38.258C107.843 39.9806 109.34 41.1665 111.119 41.1665C113.745 41.1665 115.27 39.0204 115.27 35.8861C115.27 33.1474 113.83 30.8035 111.204 30.8035C109.509 30.8035 107.928 32.018 107.448 33.8812C107.363 34.1916 107.279 34.5591 107.279 34.898L107.278 37.2412Z" fill="black"/>
<path d="M126.614 39.812C127.716 40.4898 129.325 41.0545 131.02 41.0545C133.533 41.0545 135.001 39.7274 135.001 37.8071C135.001 36.0279 133.984 35.0117 131.415 34.023C128.308 32.9216 126.388 31.3122 126.388 28.6295C126.388 25.6644 128.844 23.4623 132.544 23.4623C134.492 23.4623 135.904 23.9138 136.751 24.3939L136.074 26.3988C135.452 26.0599 134.182 25.4952 132.459 25.4952C129.862 25.4952 128.873 27.048 128.873 28.3471C128.873 30.1263 130.031 31.0013 132.657 32.0181C135.876 33.2606 137.514 34.8134 137.514 37.6093C137.514 40.5459 135.34 43.0874 130.85 43.0874C129.014 43.0874 127.01 42.5508 125.993 41.8735L126.614 39.812Z" fill="black"/>
<path d="M143.695 25.2098V29.1351H147.253V31.0268H143.695V38.3967C143.695 40.0907 144.175 41.0509 145.559 41.0509C146.208 41.0509 146.688 40.9663 146.999 40.8817L147.112 42.7455C146.632 42.9432 145.87 43.0844 144.909 43.0844C143.752 43.0844 142.82 42.7175 142.227 42.0396C141.521 41.3052 141.267 40.0913 141.267 38.4819V31.0274H139.148V29.1356H141.267V25.8602L143.695 25.2098Z" fill="black"/>
<path d="M162.249 35.8581C162.249 40.9127 158.748 43.1154 155.444 43.1154C151.745 43.1154 148.893 40.4047 148.893 36.0845C148.893 31.5099 151.886 28.8272 155.67 28.8272C159.454 28.8272 162.249 31.6791 162.249 35.8581ZM151.406 35.9993C151.406 38.9924 153.128 41.2517 155.557 41.2517C157.985 41.2517 159.708 39.021 159.708 35.9427C159.708 33.6275 158.55 30.6904 155.613 30.6904C152.677 30.6904 151.406 33.4011 151.406 35.9993Z" fill="black"/>
<path d="M165.398 33.4017C165.398 31.7923 165.37 30.4086 165.285 29.1375H167.459L167.543 31.8203H167.656C168.278 29.9845 169.774 28.8272 171.44 28.8272C171.723 28.8272 171.921 28.8552 172.146 28.9118V31.2556C171.892 31.199 171.638 31.171 171.299 31.171C169.549 31.171 168.306 32.4981 167.967 34.3619C167.911 34.7008 167.854 35.0963 167.854 35.5198V42.8051H165.398V33.4017Z" fill="black"/>
<path d="M175.716 36.4228C175.773 39.7828 177.919 41.1665 180.404 41.1665C182.183 41.1665 183.256 40.8562 184.188 40.4607L184.611 42.2398C183.736 42.6353 182.239 43.0868 180.065 43.0868C175.857 43.0868 173.344 40.3195 173.344 36.1971C173.344 32.0746 175.773 28.8272 179.754 28.8272C184.216 28.8272 185.402 32.7524 185.402 35.2655C185.402 35.7736 185.346 36.1691 185.318 36.4234L175.716 36.4228ZM183.001 34.6436C183.029 33.0622 182.352 30.6058 179.556 30.6058C177.043 30.6058 175.942 32.921 175.744 34.6436H183.001Z" fill="black"/>
<path d="M50.4104 38.589C48.6318 43.6699 45.0231 48.2038 41.7528 48.2038C40.4372 48.2038 39.9548 46.9007 37.1932 46.9007C34.4316 46.9007 33.2976 48.2038 31.982 48.2038C27.4223 48.2038 22.2105 39.4034 22.2105 32.5696C22.2105 25.7359 26.7702 22.7982 30.6789 22.7982C32.7827 22.7982 35.05 24.1013 37.1932 24.1013C39.3364 24.1013 40.9521 22.7982 43.0559 22.7982C45.1597 22.7982 47.655 23.7229 49.3359 25.749C47.1338 26.9995 45.6615 29.2925 45.6615 31.9181C45.6615 34.9535 47.6287 37.5471 50.4104 38.589Z" fill="black"/>
<path d="M41.7236 19.5257C42.1768 18.9576 42.5414 18.3112 42.7918 17.5985C43.1547 16.5635 43.2941 15.4073 43.0472 14.3305C43.0301 14.2562 42.0105 14.4837 41.9179 14.5094C41.3601 14.6649 40.8177 14.8752 40.2999 15.1347C38.0464 16.2629 35.9729 18.4564 35.818 21.0814C35.7974 21.4301 35.7963 21.8061 35.8814 22.1479C35.8951 22.2016 36.6341 22.1399 36.6861 22.1365C38.6728 21.9942 40.5142 21.0397 41.7236 19.5257Z" fill="black"/>
</svg>
