<svg width="222" height="55" viewBox="0 0 222 55" fill="none" xmlns="http://www.w3.org/2000/svg">
<rect x="0.0494385" y="0.305603" width="71.951" height="54.4084" rx="8.67821" fill="white"/>
<rect x="75.9937" y="1.01959" width="70.0626" height="52.9804" rx="8.45045" fill="white"/>
<rect x="151" y="1" width="70.0626" height="52.9804" rx="8.45045" fill="white"/>
<path d="M11.2818 49.4028H9.08249V42.276H11.3792C12.0706 42.276 12.6621 42.4187 13.154 42.704C13.6458 42.9871 14.0228 43.3942 14.2849 43.9255C14.5471 44.4544 14.6782 45.0878 14.6782 45.8255C14.6782 46.5679 14.5459 47.207 14.2814 47.7429C14.017 48.2765 13.6319 48.6871 13.1261 48.9748C12.6204 49.2602 12.0056 49.4028 11.2818 49.4028ZM9.94551 48.6373H11.2261C11.8154 48.6373 12.3037 48.5236 12.6911 48.2962C13.0786 48.0689 13.3674 47.7452 13.5576 47.3253C13.7479 46.9054 13.843 46.4055 13.843 45.8255C13.843 45.2502 13.749 44.7549 13.5611 44.3396C13.3732 43.922 13.0925 43.6019 12.719 43.3791C12.3455 43.1541 11.8803 43.0416 11.3235 43.0416H9.94551V48.6373ZM18.2555 49.5142C17.7405 49.5142 17.2962 49.4005 16.9227 49.1732C16.5515 48.9435 16.265 48.6233 16.0631 48.2127C15.8636 47.7998 15.7639 47.3195 15.7639 46.772C15.7639 46.2245 15.8636 45.742 16.0631 45.3244C16.265 44.9045 16.5457 44.5774 16.9053 44.3431C17.2672 44.1064 17.6894 43.9881 18.172 43.9881C18.4504 43.9881 18.7253 44.0345 18.9967 44.1273C19.2681 44.2201 19.5152 44.3709 19.7379 44.5797C19.9606 44.7862 20.1381 45.0599 20.2703 45.401C20.4026 45.742 20.4687 46.1619 20.4687 46.6607V47.0087H16.3485V46.2988H19.6335C19.6335 45.9972 19.5732 45.7281 19.4526 45.4914C19.3342 45.2548 19.1649 45.0681 18.9445 44.9312C18.7264 44.7943 18.4689 44.7259 18.172 44.7259C17.8449 44.7259 17.5618 44.8071 17.3229 44.9695C17.0862 45.1295 16.9041 45.3383 16.7765 45.5958C16.6489 45.8533 16.5851 46.1294 16.5851 46.424V46.8973C16.5851 47.301 16.6547 47.6432 16.7939 47.9239C16.9354 48.2023 17.1315 48.4145 17.382 48.5607C17.6326 48.7045 17.9237 48.7765 18.2555 48.7765C18.4712 48.7765 18.6661 48.7463 18.8401 48.686C19.0164 48.6233 19.1684 48.5305 19.296 48.4076C19.4236 48.2823 19.5222 48.1269 19.5918 47.9413L20.3852 48.164C20.3017 48.4331 20.1613 48.6697 19.9641 48.8739C19.7669 49.0757 19.5233 49.2335 19.2333 49.3472C18.9433 49.4585 18.6174 49.5142 18.2555 49.5142ZM21.718 51.4072V44.0577H22.5114V44.9068H22.6088C22.6691 44.814 22.7527 44.6957 22.8594 44.5519C22.9684 44.4057 23.1238 44.2758 23.3257 44.1621C23.5298 44.0461 23.8059 43.9881 24.1539 43.9881C24.604 43.9881 25.0007 44.1006 25.344 44.3257C25.6874 44.5507 25.9553 44.8697 26.1479 45.2826C26.3404 45.6956 26.4367 46.1828 26.4367 46.7442C26.4367 47.3103 26.3404 47.8009 26.1479 48.2162C25.9553 48.6291 25.6885 48.9493 25.3475 49.1766C25.0065 49.4017 24.6132 49.5142 24.1678 49.5142C23.8245 49.5142 23.5495 49.4574 23.3431 49.3437C23.1366 49.2277 22.9777 49.0966 22.8663 48.9504C22.755 48.802 22.6691 48.679 22.6088 48.5816H22.5392V51.4072H21.718ZM22.5253 46.7303C22.5253 47.1339 22.5845 47.4901 22.7028 47.7986C22.8211 48.1048 22.9939 48.3449 23.2213 48.5189C23.4486 48.6906 23.727 48.7765 24.0565 48.7765C24.3998 48.7765 24.6863 48.686 24.916 48.505C25.148 48.3217 25.322 48.0758 25.438 47.7673C25.5563 47.4564 25.6154 47.1107 25.6154 46.7303C25.6154 46.3545 25.5574 46.0157 25.4414 45.7142C25.3278 45.4102 25.1549 45.1701 24.9229 44.9938C24.6933 44.8152 24.4044 44.7259 24.0565 44.7259C23.7224 44.7259 23.4417 44.8105 23.2143 44.9799C22.987 45.1469 22.8153 45.3812 22.6993 45.6828C22.5833 45.9821 22.5253 46.3313 22.5253 46.7303ZM27.6895 49.4028V44.0577H28.4829V44.8651H28.5385C28.636 44.6006 28.8123 44.386 29.0675 44.2213C29.3227 44.0566 29.6104 43.9742 29.9305 43.9742C29.9908 43.9742 30.0662 43.9754 30.1567 43.9777C30.2472 43.98 30.3156 43.9835 30.362 43.9881V44.8233C30.3342 44.8163 30.2704 44.8059 30.1706 44.792C30.0732 44.7757 29.9699 44.7676 29.8609 44.7676C29.6011 44.7676 29.3691 44.8221 29.1649 44.9312C28.9631 45.0379 28.803 45.1864 28.6847 45.3766C28.5687 45.5645 28.5107 45.7791 28.5107 46.0204V49.4028H27.6895ZM33.4139 49.5142C32.8988 49.5142 32.4546 49.4005 32.0811 49.1732C31.7099 48.9435 31.4234 48.6233 31.2215 48.2127C31.022 47.7998 30.9223 47.3195 30.9223 46.772C30.9223 46.2245 31.022 45.742 31.2215 45.3244C31.4234 44.9045 31.7041 44.5774 32.0637 44.3431C32.4256 44.1064 32.8478 43.9881 33.3304 43.9881C33.6087 43.9881 33.8837 44.0345 34.1551 44.1273C34.4265 44.2201 34.6736 44.3709 34.8963 44.5797C35.119 44.7862 35.2965 45.0599 35.4287 45.401C35.561 45.742 35.6271 46.1619 35.6271 46.6607V47.0087H31.5069V46.2988H34.7919C34.7919 45.9972 34.7316 45.7281 34.611 45.4914C34.4926 45.2548 34.3233 45.0681 34.1029 44.9312C33.8848 44.7943 33.6273 44.7259 33.3304 44.7259C33.0032 44.7259 32.7202 44.8071 32.4813 44.9695C32.2446 45.1295 32.0625 45.3383 31.9349 45.5958C31.8073 45.8533 31.7435 46.1294 31.7435 46.424V46.8973C31.7435 47.301 31.8131 47.6432 31.9523 47.9239C32.0938 48.2023 32.2899 48.4145 32.5404 48.5607C32.791 48.7045 33.0821 48.7765 33.4139 48.7765C33.6296 48.7765 33.8245 48.7463 33.9985 48.686C34.1748 48.6233 34.3268 48.5305 34.4544 48.4076C34.582 48.2823 34.6806 48.1269 34.7501 47.9413L35.5436 48.164C35.46 48.4331 35.3197 48.6697 35.1225 48.8739C34.9253 49.0757 34.6817 49.2335 34.3917 49.3472C34.1017 49.4585 33.7758 49.5142 33.4139 49.5142ZM39.0478 49.5142C38.5467 49.5142 38.1152 49.3959 37.7533 49.1592C37.3914 48.9226 37.113 48.5967 36.9181 48.1814C36.7232 47.7661 36.6258 47.2917 36.6258 46.7581C36.6258 46.2153 36.7256 45.7362 36.9251 45.3209C37.1269 44.9033 37.4076 44.5774 37.7672 44.3431C38.1291 44.1064 38.5513 43.9881 39.0339 43.9881C39.4097 43.9881 39.7484 44.0577 40.05 44.1969C40.3516 44.3361 40.5987 44.531 40.7912 44.7815C40.9838 45.0321 41.1033 45.3244 41.1497 45.6585H40.3284C40.2658 45.4149 40.1266 45.1991 39.9108 45.0112C39.6974 44.821 39.4097 44.7259 39.0478 44.7259C38.7277 44.7259 38.4469 44.8094 38.2057 44.9764C37.9667 45.1411 37.78 45.3743 37.6454 45.6759C37.5132 45.9751 37.4471 46.3266 37.4471 46.7303C37.4471 47.1432 37.512 47.5028 37.6419 47.809C37.7742 48.1153 37.9598 48.3531 38.1987 48.5224C38.44 48.6918 38.723 48.7765 39.0478 48.7765C39.2612 48.7765 39.455 48.7393 39.6289 48.6651C39.8029 48.5909 39.9503 48.4841 40.0709 48.3449C40.1915 48.2058 40.2774 48.0387 40.3284 47.8438H41.1497C41.1033 48.1594 40.9884 48.4435 40.8052 48.6964C40.6242 48.947 40.3841 49.1465 40.0848 49.295C39.7879 49.4411 39.4422 49.5142 39.0478 49.5142ZM42.3502 49.4028V44.0577H43.1715V49.4028H42.3502ZM42.7678 43.1669C42.6077 43.1669 42.4697 43.1124 42.3537 43.0033C42.24 42.8943 42.1832 42.7632 42.1832 42.6101C42.1832 42.457 42.24 42.3259 42.3537 42.2169C42.4697 42.1078 42.6077 42.0533 42.7678 42.0533C42.9279 42.0533 43.0648 42.1078 43.1784 42.2169C43.2944 42.3259 43.3524 42.457 43.3524 42.6101C43.3524 42.7632 43.2944 42.8943 43.1784 43.0033C43.0648 43.1124 42.9279 43.1669 42.7678 43.1669ZM46.2486 49.5281C45.9099 49.5281 45.6025 49.4643 45.3264 49.3367C45.0503 49.2068 44.8311 49.02 44.6687 48.7765C44.5063 48.5305 44.4251 48.2336 44.4251 47.8856C44.4251 47.5794 44.4854 47.3311 44.6061 47.1409C44.7267 46.9484 44.8879 46.7976 45.0898 46.6885C45.2916 46.5795 45.5143 46.4983 45.7579 46.4449C46.0038 46.3892 46.2509 46.3452 46.4991 46.3127C46.8239 46.2709 47.0872 46.2396 47.2891 46.2187C47.4932 46.1955 47.6417 46.1573 47.7345 46.1039C47.8296 46.0505 47.8772 45.9577 47.8772 45.8255V45.7977C47.8772 45.4543 47.7832 45.1875 47.5953 44.9973C47.4097 44.8071 47.1278 44.7119 46.7497 44.7119C46.3576 44.7119 46.0502 44.7978 45.8275 44.9695C45.6048 45.1411 45.4482 45.3244 45.3577 45.5193L44.5782 45.2409C44.7174 44.9161 44.903 44.6632 45.135 44.4823C45.3693 44.299 45.6245 44.1714 45.9006 44.0995C46.179 44.0252 46.4527 43.9881 46.7218 43.9881C46.8935 43.9881 47.0907 44.009 47.3134 44.0508C47.5384 44.0902 47.7554 44.1726 47.9641 44.2978C48.1753 44.4231 48.3504 44.6122 48.4896 44.8651C48.6288 45.1179 48.6984 45.4566 48.6984 45.8812V49.4028H47.8772V48.679H47.8354C47.7797 48.795 47.6869 48.9191 47.557 49.0514C47.4271 49.1836 47.2543 49.2961 47.0385 49.3889C46.8227 49.4817 46.5594 49.5281 46.2486 49.5281ZM46.3738 48.7904C46.6986 48.7904 46.9724 48.7266 47.1951 48.599C47.4201 48.4714 47.5895 48.3067 47.7032 48.1048C47.8192 47.903 47.8772 47.6907 47.8772 47.468V46.7164C47.8424 46.7581 47.7658 46.7964 47.6475 46.8312C47.5315 46.8637 47.3969 46.8927 47.2438 46.9182C47.093 46.9414 46.9457 46.9623 46.8019 46.9808C46.6604 46.9971 46.5455 47.011 46.4574 47.0226C46.2439 47.0504 46.0444 47.0957 45.8588 47.1583C45.6755 47.2186 45.5271 47.3103 45.4134 47.4332C45.302 47.5539 45.2464 47.7186 45.2464 47.9274C45.2464 48.2127 45.3519 48.4285 45.563 48.5746C45.7765 48.7185 46.0467 48.7904 46.3738 48.7904ZM52.5219 44.0577V44.7537H49.7519V44.0577H52.5219ZM50.5593 42.7771H51.3805V47.8717C51.3805 48.1037 51.4142 48.2777 51.4814 48.3937C51.551 48.5073 51.6392 48.5839 51.7459 48.6233C51.855 48.6605 51.9698 48.679 52.0904 48.679C52.1809 48.679 52.2551 48.6744 52.3131 48.6651C52.3711 48.6535 52.4175 48.6442 52.4523 48.6373L52.6194 49.375C52.5637 49.3959 52.486 49.4168 52.3862 49.4376C52.2865 49.4608 52.16 49.4724 52.0069 49.4724C51.7749 49.4724 51.5476 49.4226 51.3249 49.3228C51.1045 49.223 50.9212 49.0711 50.775 48.8669C50.6312 48.6628 50.5593 48.4053 50.5593 48.0944V42.7771ZM53.7573 49.4028V44.0577H54.5785V49.4028H53.7573ZM54.1749 43.1669C54.0148 43.1669 53.8768 43.1124 53.7608 43.0033C53.6471 42.8943 53.5903 42.7632 53.5903 42.6101C53.5903 42.457 53.6471 42.3259 53.7608 42.2169C53.8768 42.1078 54.0148 42.0533 54.1749 42.0533C54.335 42.0533 54.4718 42.1078 54.5855 42.2169C54.7015 42.3259 54.7595 42.457 54.7595 42.6101C54.7595 42.7632 54.7015 42.8943 54.5855 43.0033C54.4718 43.1124 54.335 43.1669 54.1749 43.1669ZM58.2542 49.5142C57.7716 49.5142 57.3482 49.3994 56.984 49.1697C56.6221 48.94 56.3391 48.6187 56.1349 48.2058C55.9331 47.7928 55.8322 47.3103 55.8322 46.7581C55.8322 46.2013 55.9331 45.7153 56.1349 45.3C56.3391 44.8848 56.6221 44.5623 56.984 44.3326C57.3482 44.103 57.7716 43.9881 58.2542 43.9881C58.7367 43.9881 59.159 44.103 59.5209 44.3326C59.8851 44.5623 60.1681 44.8848 60.37 45.3C60.5741 45.7153 60.6762 46.2013 60.6762 46.7581C60.6762 47.3103 60.5741 47.7928 60.37 48.2058C60.1681 48.6187 59.8851 48.94 59.5209 49.1697C59.159 49.3994 58.7367 49.5142 58.2542 49.5142ZM58.2542 48.7765C58.6207 48.7765 58.9223 48.6825 59.159 48.4946C59.3956 48.3067 59.5707 48.0596 59.6844 47.7534C59.7981 47.4471 59.8549 47.1154 59.8549 46.7581C59.8549 46.4008 59.7981 46.0679 59.6844 45.7594C59.5707 45.4508 59.3956 45.2014 59.159 45.0112C58.9223 44.821 58.6207 44.7259 58.2542 44.7259C57.8876 44.7259 57.586 44.821 57.3494 45.0112C57.1128 45.2014 56.9376 45.4508 56.8239 45.7594C56.7103 46.0679 56.6534 46.4008 56.6534 46.7581C56.6534 47.1154 56.7103 47.4471 56.8239 47.7534C56.9376 48.0596 57.1128 48.3067 57.3494 48.4946C57.586 48.6825 57.8876 48.7765 58.2542 48.7765ZM62.7511 46.1874V49.4028H61.9298V44.0577H62.7232V44.8929H62.7928C62.9181 44.6215 63.1083 44.4034 63.3635 44.2387C63.6187 44.0716 63.9481 43.9881 64.3518 43.9881C64.7137 43.9881 65.0304 44.0624 65.3018 44.2108C65.5733 44.357 65.7844 44.5797 65.9352 44.879C66.086 45.1759 66.1614 45.5518 66.1614 46.0065V49.4028H65.3401V46.0621C65.3401 45.6422 65.2311 45.3151 65.013 45.0808C64.7949 44.8442 64.4956 44.7259 64.1152 44.7259C63.853 44.7259 63.6187 44.7827 63.4122 44.8964C63.2081 45.0101 63.0469 45.1759 62.9285 45.394C62.8102 45.6121 62.7511 45.8765 62.7511 46.1874Z" fill="black"/>
<path d="M90.4352 47.4028H88.2359V40.276H90.5326C91.224 40.276 91.8155 40.4187 92.3074 40.704C92.7992 40.9871 93.1762 41.3942 93.4383 41.9255C93.7005 42.4544 93.8316 43.0878 93.8316 43.8255C93.8316 44.5679 93.6993 45.207 93.4348 45.7429C93.1704 46.2765 92.7853 46.6871 92.2795 46.9748C91.7738 47.2602 91.159 47.4028 90.4352 47.4028ZM89.0989 46.6373H90.3795C90.9688 46.6373 91.4571 46.5236 91.8445 46.2962C92.232 46.0689 92.5208 45.7452 92.711 45.3253C92.9013 44.9054 92.9964 44.4055 92.9964 43.8255C92.9964 43.2502 92.9024 42.7549 92.7145 42.3396C92.5266 41.922 92.2459 41.6019 91.8724 41.3791C91.4989 41.1541 91.0337 41.0416 90.4769 41.0416H89.0989V46.6373ZM97.4089 47.5142C96.8939 47.5142 96.4496 47.4005 96.0761 47.1732C95.7049 46.9435 95.4184 46.6233 95.2165 46.2127C95.017 45.7998 94.9173 45.3195 94.9173 44.772C94.9173 44.2245 95.017 43.742 95.2165 43.3244C95.4184 42.9045 95.6991 42.5774 96.0587 42.3431C96.4206 42.1064 96.8428 41.9881 97.3254 41.9881C97.6037 41.9881 97.8787 42.0345 98.1501 42.1273C98.4215 42.2201 98.6686 42.3709 98.8913 42.5797C99.114 42.7862 99.2915 43.0599 99.4237 43.401C99.556 43.742 99.6221 44.1619 99.6221 44.6607V45.0087H95.5019V44.2988H98.7869C98.7869 43.9972 98.7266 43.7281 98.606 43.4914C98.4876 43.2548 98.3183 43.0681 98.0979 42.9312C97.8798 42.7943 97.6223 42.7259 97.3254 42.7259C96.9982 42.7259 96.7152 42.8071 96.4763 42.9695C96.2396 43.1295 96.0575 43.3383 95.9299 43.5958C95.8023 43.8533 95.7385 44.1294 95.7385 44.424V44.8973C95.7385 45.301 95.8081 45.6432 95.9473 45.9239C96.0888 46.2023 96.2849 46.4145 96.5354 46.5607C96.786 46.7045 97.0771 46.7765 97.4089 46.7765C97.6246 46.7765 97.8195 46.7463 97.9935 46.686C98.1698 46.6233 98.3218 46.5305 98.4494 46.4076C98.577 46.2823 98.6756 46.1269 98.7452 45.9413L99.5386 46.164C99.455 46.4331 99.3147 46.6697 99.1175 46.8739C98.9203 47.0757 98.6767 47.2335 98.3867 47.3472C98.0967 47.4585 97.7708 47.5142 97.4089 47.5142ZM102.89 47.5142C102.444 47.5142 102.051 47.4017 101.71 47.1766C101.369 46.9493 101.102 46.6291 100.91 46.2162C100.717 45.8009 100.621 45.3103 100.621 44.7442C100.621 44.1828 100.717 43.6956 100.91 43.2826C101.102 42.8697 101.37 42.5507 101.713 42.3257C102.057 42.1006 102.454 41.9881 102.904 41.9881C103.252 41.9881 103.527 42.0461 103.728 42.1621C103.933 42.2758 104.088 42.4057 104.195 42.5519C104.304 42.6957 104.388 42.814 104.449 42.9068H104.518V40.276H105.34V47.4028H104.546V46.5816H104.449C104.388 46.679 104.303 46.802 104.191 46.9504C104.08 47.0966 103.921 47.2277 103.714 47.3437C103.508 47.4574 103.233 47.5142 102.89 47.5142ZM103.001 46.7765C103.33 46.7765 103.609 46.6906 103.836 46.5189C104.064 46.3449 104.236 46.1048 104.355 45.7986C104.473 45.4901 104.532 45.1339 104.532 44.7303C104.532 44.3313 104.474 43.9821 104.358 43.6828C104.242 43.3812 104.071 43.1469 103.843 42.9799C103.616 42.8105 103.335 42.7259 103.001 42.7259C102.653 42.7259 102.363 42.8152 102.131 42.9938C101.901 43.1701 101.729 43.4102 101.613 43.7142C101.499 44.0157 101.442 44.3545 101.442 44.7303C101.442 45.1107 101.5 45.4564 101.616 45.7673C101.734 46.0758 101.908 46.3217 102.138 46.505C102.37 46.686 102.658 46.7765 103.001 46.7765ZM110.326 45.2175V42.0577H111.147V47.4028H110.326V46.4981H110.271C110.145 46.7695 109.95 47.0003 109.686 47.1906C109.421 47.3785 109.087 47.4724 108.684 47.4724C108.35 47.4724 108.053 47.3994 107.793 47.2532C107.533 47.1047 107.329 46.882 107.18 46.5851C107.032 46.2858 106.958 45.9088 106.958 45.4541V42.0577H107.779V45.3984C107.779 45.7882 107.888 46.099 108.106 46.331C108.326 46.563 108.607 46.679 108.948 46.679C109.152 46.679 109.36 46.6268 109.571 46.5224C109.785 46.418 109.963 46.2579 110.107 46.0422C110.253 45.8264 110.326 45.5515 110.326 45.2175ZM114.823 47.5142C114.322 47.5142 113.89 47.3959 113.529 47.1592C113.167 46.9226 112.888 46.5967 112.693 46.1814C112.499 45.7661 112.401 45.2917 112.401 44.7581C112.401 44.2153 112.501 43.7362 112.7 43.3209C112.902 42.9033 113.183 42.5774 113.543 42.3431C113.904 42.1064 114.327 41.9881 114.809 41.9881C115.185 41.9881 115.524 42.0577 115.825 42.1969C116.127 42.3361 116.374 42.531 116.567 42.7815C116.759 43.0321 116.879 43.3244 116.925 43.6585H116.104C116.041 43.4149 115.902 43.1991 115.686 43.0112C115.473 42.821 115.185 42.7259 114.823 42.7259C114.503 42.7259 114.222 42.8094 113.981 42.9764C113.742 43.1411 113.555 43.3743 113.421 43.6759C113.288 43.9751 113.222 44.3266 113.222 44.7303C113.222 45.1432 113.287 45.5028 113.417 45.809C113.549 46.1153 113.735 46.3531 113.974 46.5224C114.215 46.6918 114.498 46.7765 114.823 46.7765C115.037 46.7765 115.23 46.7393 115.404 46.6651C115.578 46.5909 115.726 46.4841 115.846 46.3449C115.967 46.2058 116.053 46.0387 116.104 45.8438H116.925C116.879 46.1594 116.764 46.4435 116.58 46.6964C116.399 46.947 116.159 47.1465 115.86 47.295C115.563 47.4411 115.217 47.5142 114.823 47.5142ZM120.45 42.0577V42.7537H117.68V42.0577H120.45ZM118.487 40.7771H119.309V45.8717C119.309 46.1037 119.342 46.2777 119.41 46.3937C119.479 46.5073 119.567 46.5839 119.674 46.6233C119.783 46.6605 119.898 46.679 120.019 46.679C120.109 46.679 120.183 46.6744 120.241 46.6651C120.299 46.6535 120.346 46.6442 120.38 46.6373L120.548 47.375C120.492 47.3959 120.414 47.4168 120.314 47.4376C120.215 47.4608 120.088 47.4724 119.935 47.4724C119.703 47.4724 119.476 47.4226 119.253 47.3228C119.033 47.223 118.849 47.0711 118.703 46.8669C118.559 46.6628 118.487 46.4053 118.487 46.0944V40.7771ZM121.685 47.4028V42.0577H122.507V47.4028H121.685ZM122.103 41.1669C121.943 41.1669 121.805 41.1124 121.689 41.0033C121.575 40.8943 121.518 40.7632 121.518 40.6101C121.518 40.457 121.575 40.3259 121.689 40.2169C121.805 40.1078 121.943 40.0533 122.103 40.0533C122.263 40.0533 122.4 40.1078 122.514 40.2169C122.63 40.3259 122.688 40.457 122.688 40.6101C122.688 40.7632 122.63 40.8943 122.514 41.0033C122.4 41.1124 122.263 41.1669 122.103 41.1669ZM126.182 47.5142C125.7 47.5142 125.276 47.3994 124.912 47.1697C124.55 46.94 124.267 46.6187 124.063 46.2058C123.861 45.7928 123.76 45.3103 123.76 44.7581C123.76 44.2013 123.861 43.7153 124.063 43.3C124.267 42.8848 124.55 42.5623 124.912 42.3326C125.276 42.103 125.7 41.9881 126.182 41.9881C126.665 41.9881 127.087 42.103 127.449 42.3326C127.813 42.5623 128.096 42.8848 128.298 43.3C128.502 43.7153 128.604 44.2013 128.604 44.7581C128.604 45.3103 128.502 45.7928 128.298 46.2058C128.096 46.6187 127.813 46.94 127.449 47.1697C127.087 47.3994 126.665 47.5142 126.182 47.5142ZM126.182 46.7765C126.549 46.7765 126.85 46.6825 127.087 46.4946C127.324 46.3067 127.499 46.0596 127.613 45.7534C127.726 45.4471 127.783 45.1154 127.783 44.7581C127.783 44.4008 127.726 44.0679 127.613 43.7594C127.499 43.4508 127.324 43.2014 127.087 43.0112C126.85 42.821 126.549 42.7259 126.182 42.7259C125.816 42.7259 125.514 42.821 125.278 43.0112C125.041 43.2014 124.866 43.4508 124.752 43.7594C124.638 44.0679 124.582 44.4008 124.582 44.7581C124.582 45.1154 124.638 45.4471 124.752 45.7534C124.866 46.0596 125.041 46.3067 125.278 46.4946C125.514 46.6825 125.816 46.7765 126.182 46.7765ZM130.679 44.1874V47.4028H129.858V42.0577H130.651V42.8929H130.721C130.846 42.6215 131.036 42.4034 131.292 42.2387C131.547 42.0716 131.876 41.9881 132.28 41.9881C132.642 41.9881 132.959 42.0624 133.23 42.2108C133.501 42.357 133.713 42.5797 133.863 42.879C134.014 43.1759 134.09 43.5518 134.09 44.0065V47.4028H133.268V44.0621C133.268 43.6422 133.159 43.3151 132.941 43.0808C132.723 42.8442 132.424 42.7259 132.043 42.7259C131.781 42.7259 131.547 42.7827 131.34 42.8964C131.136 43.0101 130.975 43.1759 130.857 43.394C130.738 43.6121 130.679 43.8765 130.679 44.1874Z" fill="black"/>
<path d="M165.331 46.4028H163.132V39.276H165.429C166.12 39.276 166.712 39.4187 167.203 39.704C167.695 39.9871 168.072 40.3942 168.334 40.9255C168.597 41.4544 168.728 42.0878 168.728 42.8255C168.728 43.5679 168.595 44.207 168.331 44.7429C168.067 45.2765 167.681 45.6871 167.176 45.9748C166.67 46.2602 166.055 46.4028 165.331 46.4028ZM163.995 45.6373H165.276C165.865 45.6373 166.353 45.5236 166.741 45.2962C167.128 45.0689 167.417 44.7452 167.607 44.3253C167.797 43.9054 167.893 43.4055 167.893 42.8255C167.893 42.2502 167.799 41.7549 167.611 41.3396C167.423 40.922 167.142 40.6019 166.769 40.3791C166.395 40.1541 165.93 40.0416 165.373 40.0416H163.995V45.6373ZM173.432 44.2175V41.0577H174.254V46.4028H173.432V45.4981H173.377C173.252 45.7695 173.057 46.0003 172.792 46.1906C172.528 46.3785 172.194 46.4724 171.79 46.4724C171.456 46.4724 171.159 46.3994 170.899 46.2532C170.639 46.1047 170.435 45.882 170.287 45.5851C170.138 45.2858 170.064 44.9088 170.064 44.4541V41.0577H170.885V44.3984C170.885 44.7882 170.994 45.099 171.212 45.331C171.433 45.563 171.713 45.679 172.054 45.679C172.259 45.679 172.466 45.6268 172.677 45.5224C172.891 45.418 173.069 45.2579 173.213 45.0422C173.359 44.8264 173.432 44.5515 173.432 44.2175ZM178.082 41.0577V41.7537H175.313V41.0577H178.082ZM176.12 39.7771H176.941V44.8717C176.941 45.1037 176.975 45.2777 177.042 45.3937C177.112 45.5073 177.2 45.5839 177.306 45.6233C177.416 45.6605 177.53 45.679 177.651 45.679C177.741 45.679 177.816 45.6744 177.874 45.6651C177.932 45.6535 177.978 45.6442 178.013 45.6373L178.18 46.375C178.124 46.3959 178.047 46.4168 177.947 46.4376C177.847 46.4608 177.721 46.4724 177.567 46.4724C177.335 46.4724 177.108 46.4226 176.885 46.3228C176.665 46.223 176.482 46.0711 176.336 45.8669C176.192 45.6628 176.12 45.4053 176.12 45.0944V39.7771ZM179.847 48.4072C179.708 48.4072 179.583 48.3956 179.474 48.3724C179.365 48.3516 179.29 48.3307 179.248 48.3098L179.457 47.586C179.657 47.637 179.833 47.6556 179.986 47.6417C180.139 47.6278 180.275 47.5593 180.393 47.4364C180.514 47.3157 180.624 47.1197 180.724 46.8483L180.877 46.4307L178.9 41.0577H179.791L181.267 45.3171H181.322L182.798 41.0577H183.689L181.42 47.1823C181.318 47.4584 181.191 47.6869 181.04 47.8679C180.89 48.0511 180.714 48.1869 180.515 48.275C180.318 48.3632 180.095 48.4072 179.847 48.4072ZM189.547 46.5003C189.078 46.5003 188.675 46.4144 188.336 46.2428C187.997 46.0711 187.736 45.8356 187.553 45.5363C187.37 45.2371 187.278 44.8949 187.278 44.5098C187.278 44.2128 187.341 43.9495 187.466 43.7198C187.594 43.4878 187.769 43.2733 187.991 43.0761C188.217 42.8765 188.475 42.677 188.767 42.4775L189.798 41.7119C189.999 41.5797 190.161 41.4382 190.281 41.2874C190.404 41.1366 190.466 40.9394 190.466 40.6958C190.466 40.5149 190.386 40.3397 190.226 40.1704C190.068 40.001 189.86 39.9163 189.603 39.9163C189.422 39.9163 189.262 39.9627 189.122 40.0555C188.986 40.146 188.878 40.262 188.799 40.4035C188.722 40.5427 188.684 40.6865 188.684 40.835C188.684 41.002 188.729 41.1714 188.82 41.3431C188.912 41.5124 189.03 41.6864 189.171 41.8651C189.315 42.0414 189.463 42.2223 189.617 42.4079L192.888 46.4028H191.899L189.199 43.1457C188.948 42.8441 188.721 42.5703 188.517 42.3244C188.313 42.0785 188.15 41.8361 188.03 41.5971C187.909 41.3582 187.849 41.0995 187.849 40.8211C187.849 40.5009 187.92 40.2202 188.061 39.979C188.205 39.7354 188.406 39.5463 188.663 39.4117C188.923 39.2749 189.227 39.2064 189.575 39.2064C189.932 39.2064 190.239 39.276 190.497 39.4152C190.755 39.5521 190.953 39.7342 191.092 39.9616C191.231 40.1866 191.301 40.4313 191.301 40.6958C191.301 41.0368 191.216 41.3326 191.047 41.5832C190.877 41.8337 190.647 42.0669 190.354 42.2826L188.935 43.3405C188.614 43.5772 188.397 43.8068 188.284 44.0295C188.17 44.2523 188.113 44.4123 188.113 44.5098C188.113 44.7325 188.171 44.9401 188.287 45.1327C188.403 45.3252 188.567 45.4807 188.778 45.599C188.989 45.7173 189.236 45.7765 189.519 45.7765C189.788 45.7765 190.05 45.7196 190.306 45.6059C190.561 45.4899 190.792 45.3229 190.998 45.1048C191.207 44.8868 191.372 44.6246 191.492 44.3184C191.615 44.0121 191.677 43.6676 191.677 43.2849H192.47C192.47 43.7581 192.416 44.1444 192.307 44.4437C192.198 44.7429 192.075 44.9772 191.938 45.1466C191.801 45.3159 191.691 45.4424 191.607 45.5259C191.579 45.5607 191.554 45.5955 191.531 45.6303C191.507 45.6651 191.482 45.6999 191.454 45.7347C191.224 45.9922 190.934 46.1848 190.584 46.3124C190.234 46.4376 189.888 46.5003 189.547 46.5003ZM196.274 40.0416V39.276H201.62V40.0416H199.379V46.4028H198.516V40.0416H196.274ZM203.686 46.5281C203.347 46.5281 203.04 46.4643 202.764 46.3367C202.488 46.2068 202.268 46.02 202.106 45.7765C201.944 45.5305 201.862 45.2336 201.862 44.8856C201.862 44.5794 201.923 44.3311 202.043 44.1409C202.164 43.9484 202.325 43.7976 202.527 43.6885C202.729 43.5795 202.952 43.4983 203.195 43.4449C203.441 43.3892 203.688 43.3452 203.936 43.3127C204.261 43.2709 204.524 43.2396 204.726 43.2187C204.93 43.1955 205.079 43.1573 205.172 43.1039C205.267 43.0505 205.314 42.9577 205.314 42.8255V42.7977C205.314 42.4543 205.22 42.1875 205.032 41.9973C204.847 41.8071 204.565 41.7119 204.187 41.7119C203.795 41.7119 203.487 41.7978 203.265 41.9695C203.042 42.1411 202.885 42.3244 202.795 42.5193L202.015 42.2409C202.155 41.9161 202.34 41.6632 202.572 41.4823C202.807 41.299 203.062 41.1714 203.338 41.0995C203.616 41.0252 203.89 40.9881 204.159 40.9881C204.331 40.9881 204.528 41.009 204.751 41.0508C204.976 41.0902 205.193 41.1726 205.401 41.2978C205.612 41.4231 205.788 41.6122 205.927 41.8651C206.066 42.1179 206.136 42.4566 206.136 42.8812V46.4028H205.314V45.679H205.273C205.217 45.795 205.124 45.9191 204.994 46.0514C204.864 46.1836 204.691 46.2961 204.476 46.3889C204.26 46.4817 203.997 46.5281 203.686 46.5281ZM203.811 45.7904C204.136 45.7904 204.41 45.7266 204.632 45.599C204.857 45.4714 205.027 45.3067 205.14 45.1048C205.256 44.903 205.314 44.6907 205.314 44.468V43.7164C205.28 43.7581 205.203 43.7964 205.085 43.8312C204.969 43.8637 204.834 43.8927 204.681 43.9182C204.53 43.9414 204.383 43.9623 204.239 43.9808C204.098 43.9971 203.983 44.011 203.895 44.0226C203.681 44.0504 203.482 44.0957 203.296 44.1583C203.113 44.2186 202.964 44.3103 202.851 44.4332C202.739 44.5539 202.684 44.7186 202.684 44.9274C202.684 45.2127 202.789 45.4285 203 45.5746C203.214 45.7185 203.484 45.7904 203.811 45.7904ZM208.247 41.0577L209.528 43.2431L210.808 41.0577H211.755L210.029 43.7303L211.755 46.4028H210.808L209.528 44.3288L208.247 46.4028H207.301L208.999 43.7303L207.301 41.0577H208.247Z" fill="black"/>
<path d="M29.2437 7.09082C29.527 7.18387 29.7463 7.36998 29.9473 7.58401C30.9067 8.57039 31.8753 9.53815 32.8256 10.5245C32.9901 10.7013 33.0815 10.6734 33.2277 10.5245C33.5475 10.1709 33.8947 9.83593 34.2237 9.50093C34.7263 8.98913 35.2928 8.98913 35.7954 9.50093C37.1112 10.8409 38.427 12.1809 39.752 13.5302C39.8159 13.5953 39.8799 13.6512 39.9895 13.7535C39.9895 13.5395 39.9895 13.372 39.9895 13.2138C39.9895 12.6183 40.419 12.1716 40.9764 12.1623C41.5338 12.1623 41.9724 12.5996 41.9724 13.1952C41.9724 14.1909 41.9724 15.1866 41.9724 16.1822C41.9724 16.7871 41.5521 17.2151 40.9581 17.2245C39.9804 17.2245 39.0027 17.2245 38.025 17.2245C37.4401 17.2245 37.0015 16.7778 37.0107 16.2102C37.0107 15.6425 37.4493 15.2145 38.0341 15.2052C38.1986 15.2052 38.3539 15.2052 38.5641 15.2052C38.4818 15.1121 38.4361 15.0563 38.3813 15.0098C37.3122 13.921 36.2431 12.8416 35.1832 11.7528C35.0461 11.604 34.9638 11.6133 34.8359 11.7528C34.5161 12.0972 34.1871 12.4228 33.8582 12.7578C33.2917 13.3255 32.7617 13.3348 32.2043 12.7578C30.9707 11.5016 29.7645 10.2268 28.5035 9.00774C27.8365 8.36567 27.937 7.3979 28.8508 7.10013H29.2528L29.2437 7.09082Z" fill="#F3771E"/>
<path d="M24.0718 23.8964C24.0718 21.9051 24.0718 19.9137 24.0718 17.9223C24.0718 16.0985 25.3693 14.7864 27.1603 14.7771C28.4304 14.7771 29.6914 14.7771 30.9616 14.7771C32.7068 14.7771 34.0135 16.1078 34.0135 17.8758C34.0135 21.8772 34.0135 25.8878 34.0135 29.8891C34.0135 31.6572 32.7068 32.9879 30.9616 32.9972C29.6823 32.9972 28.4122 32.9972 27.1329 32.9972C25.3785 32.9972 24.0718 31.6758 24.0718 29.8891C24.0718 27.8885 24.0718 25.8878 24.0718 23.8964ZM29.0426 22.8821C29.7006 22.8821 30.3676 22.8821 31.0255 22.8821C31.5646 22.8821 31.9941 22.4541 32.0124 21.9144C32.0215 21.5608 32.0124 21.2072 32.0124 20.8536C32.0124 20.7233 31.985 20.6954 31.857 20.7326C31.5098 20.8443 31.1443 20.8629 30.7788 20.8629C29.6 20.8629 28.4304 20.8629 27.2517 20.8629C26.9044 20.8629 26.5572 20.8443 26.2191 20.7326C26.0455 20.6768 26.0455 20.7512 26.0455 20.8815C26.0455 21.1886 26.0455 21.4863 26.0455 21.7934C26.0455 22.4634 26.4567 22.8821 27.1146 22.8821C27.7542 22.8821 28.3939 22.8821 29.0244 22.8821H29.0426ZM29.0426 26.93C29.7006 26.93 30.3676 26.93 31.0255 26.93C31.592 26.93 32.0124 26.4927 32.0215 25.9157C32.0215 25.59 32.0215 25.255 32.0215 24.9293C32.0215 24.7991 32.0215 24.7246 31.8479 24.7805C31.5281 24.8828 31.1991 24.9014 30.8702 24.9014C29.6914 24.9014 28.5218 24.9014 27.343 24.9014C26.9593 24.9014 26.5846 24.9014 26.21 24.7711C26.0821 24.7246 26.0546 24.7711 26.0546 24.8921C26.0546 25.2085 26.0546 25.5156 26.0546 25.832C26.0546 26.502 26.4658 26.9207 27.1237 26.93C27.7634 26.93 28.403 26.93 29.0335 26.93H29.0426ZM29.0426 30.9779C29.7006 30.9779 30.3676 30.9779 31.0255 30.9779C31.5738 30.9779 31.9941 30.5591 32.0215 30.0194C32.0398 29.6658 32.0215 29.3122 32.0215 28.9586C32.0215 28.8097 31.9758 28.8004 31.8479 28.8376C31.5281 28.94 31.1991 28.9586 30.8702 28.9586C29.7006 28.9586 28.5309 28.9586 27.3705 28.9586C26.9775 28.9586 26.5938 28.9586 26.2191 28.8283C26.0912 28.7818 26.0638 28.8283 26.0638 28.9493C26.0638 29.2657 26.0638 29.5728 26.0638 29.8891C26.0638 30.5591 26.475 30.9779 27.1329 30.9872C27.7725 30.9872 28.4122 30.9872 29.0426 30.9872V30.9779ZM29.0244 18.8343C29.6731 18.8343 30.3128 18.8343 30.9616 18.8343C31.5829 18.8343 32.0307 18.4062 32.0307 17.82C32.0307 17.2337 31.5829 16.8057 30.9616 16.8057C29.6914 16.8057 28.4122 16.8057 27.142 16.8057C26.5207 16.8057 26.0729 17.2337 26.0729 17.82C26.0729 18.4062 26.5207 18.8343 27.142 18.8343C27.7725 18.8343 28.403 18.8343 29.0244 18.8343Z" fill="#7738CF"/>
<path d="M35.9964 25.9157C35.9964 24.5944 35.9964 23.2637 35.9964 21.9423C35.9964 20.165 37.3031 18.8343 39.0392 18.8343C40.3276 18.8343 41.6252 18.8343 42.9136 18.8343C44.6223 18.8343 45.929 20.1743 45.9381 21.9144C45.9381 24.5851 45.9381 27.2557 45.9381 29.9357C45.9381 31.6572 44.6223 32.9972 42.9319 33.0065C41.6252 33.0065 40.3185 33.0065 39.0118 33.0065C37.3214 33.0065 36.0055 31.6572 36.0055 29.9357C36.0055 28.5957 36.0055 27.2557 36.0055 25.9157H35.9964ZM40.9673 26.93C41.6252 26.93 42.2922 26.93 42.9501 26.93C43.4984 26.93 43.9187 26.5113 43.937 25.9623C43.9461 25.6087 43.937 25.255 43.937 24.9014C43.937 24.7805 43.9096 24.7339 43.7817 24.7805C43.4344 24.8921 43.0689 24.9107 42.7034 24.9107C41.5155 24.9107 40.3368 24.9107 39.1489 24.9107C38.8108 24.9107 38.4727 24.8921 38.1437 24.7805C37.9793 24.7246 37.9701 24.7991 37.9701 24.9294C37.9701 25.2364 37.9701 25.5342 37.9701 25.8413C37.9701 26.5113 38.3813 26.93 39.0392 26.93C39.6789 26.93 40.3185 26.93 40.949 26.93H40.9673ZM40.9673 30.9779C41.6252 30.9779 42.274 30.9779 42.9319 30.9779C43.5258 30.9779 43.9461 30.5405 43.9461 29.9357C43.9461 29.6193 43.9461 29.2936 43.9461 28.9772C43.9461 28.8283 43.9279 28.7818 43.7634 28.8376C43.4527 28.94 43.1329 28.9586 42.8039 28.9586C41.5886 28.9586 40.3733 28.9586 39.1489 28.9586C38.8108 28.9586 38.4727 28.94 38.1437 28.8283C37.9793 28.7725 37.961 28.8376 37.9701 28.9772C37.9701 29.2843 37.9701 29.5821 37.9701 29.8892C37.9701 30.5592 38.3813 30.9779 39.0392 30.9779C39.6789 30.9779 40.3185 30.9779 40.949 30.9779H40.9673ZM40.9947 20.8536C40.3459 20.8536 39.7063 20.8536 39.0575 20.8536C38.4361 20.8536 37.9884 21.2816 37.9884 21.8586C37.9884 22.4448 38.4361 22.8729 39.0575 22.8729C40.3276 22.8729 41.6069 22.8729 42.877 22.8729C43.4984 22.8729 43.9461 22.4448 43.9461 21.8586C43.9461 21.2723 43.4984 20.8443 42.877 20.8443C42.2465 20.8443 41.616 20.8443 40.9947 20.8443V20.8536Z" fill="#7738CF"/>
<path d="M188.022 9.42828C188.413 8.73047 188.032 8.09082 187.241 8.09082H181.987C181.176 8.09082 180.805 8.73047 181.196 9.43797C181.665 10.3005 182.133 11.1534 182.612 12.0063C182.709 12.1807 182.709 12.2583 182.543 12.3843C181.606 13.0627 181.293 14.2838 181.791 15.3208C181.879 15.505 181.87 15.5631 181.655 15.6504C178.891 16.8231 177.114 18.8486 176.479 21.7755C175.961 24.1888 175.502 26.6214 175.063 29.0443C174.643 31.3607 176.059 33.3959 178.373 33.9193C178.442 33.9387 178.53 33.9193 178.569 34.0065H182.7C182.749 33.929 182.836 33.9387 182.895 33.9096C183.237 33.7157 183.413 33.3378 183.315 32.9598C183.227 32.5915 182.895 32.3395 182.485 32.3395C181.362 32.3298 180.239 32.3492 179.125 32.3298C177.602 32.3008 176.43 30.8858 176.703 29.4126C177.172 26.98 177.631 24.5474 178.12 22.1244C178.715 19.1782 181.245 16.9781 184.262 16.7358C185.151 16.6583 186.02 16.7746 186.879 17.0266C187.309 17.1429 187.719 16.9491 187.895 16.5614C188.061 16.1737 187.924 15.7279 187.544 15.5147C187.397 15.4275 187.407 15.3693 187.465 15.2433C187.905 14.1869 187.583 13.0336 186.645 12.3649C186.499 12.2583 186.499 12.1807 186.577 12.045C187.065 11.1728 187.544 10.3005 188.022 9.42828ZM185.913 9.77718C185.717 10.1358 185.532 10.475 185.346 10.8045C185.17 11.134 184.995 11.4635 184.809 11.7834C184.711 11.9384 184.506 11.9578 184.428 11.8028C184.047 11.1437 183.686 10.475 183.295 9.77718H185.913ZM185.288 15.0301C185.063 15.0301 184.829 15.0301 184.604 15.0301C184.379 15.0301 184.155 15.0301 183.94 15.0301C183.569 15.0107 183.286 14.7393 183.247 14.3807C183.217 14.0028 183.442 13.6539 183.823 13.6054C184.35 13.5376 184.877 13.5376 185.395 13.6054C185.766 13.6539 185.991 13.9931 185.971 14.3614C185.942 14.72 185.659 15.0107 185.288 15.0301Z" fill="#7738CF"/>
<path d="M197.583 24.8769C196.938 20.3508 192.553 17.2786 188.003 18.1702C183.823 19.0037 181 23.0161 181.645 27.2126C182.143 30.4496 184.624 33.0858 187.837 33.8126C188.149 33.8805 188.471 33.8805 188.774 34.0065H190.405C190.444 33.9192 190.522 33.958 190.581 33.9483C195.102 33.3377 198.218 29.306 197.583 24.8769ZM189.594 32.3298C186.098 32.3298 183.247 29.4998 183.237 26.0205C183.237 22.5315 186.108 19.6724 189.633 19.6918C193.13 19.6918 195.971 22.5315 195.971 26.0108C195.971 29.4901 193.11 32.3395 189.594 32.3298Z" fill="#F3771E"/>
<path d="M187.524 28.899C187.182 28.899 186.928 28.7342 186.772 28.4241C186.616 28.1043 186.655 27.7941 186.889 27.5324C187.133 27.2611 187.397 27.0188 187.661 26.7571C188.784 25.6329 189.917 24.5183 191.05 23.3941C191.303 23.1421 191.606 23.0355 191.948 23.1518C192.28 23.2584 192.466 23.491 192.514 23.8302C192.553 24.1016 192.475 24.3342 192.28 24.5183C190.893 25.8945 189.507 27.2708 188.12 28.647C187.954 28.8118 187.758 28.8893 187.524 28.8893V28.899Z" fill="#7738CF"/>
<path d="M192.446 28.0751C192.446 28.6857 191.948 29.1897 191.333 29.1897C190.727 29.1897 190.21 28.676 190.219 28.0751C190.219 27.4646 190.727 26.9703 191.342 26.9703C191.967 26.9703 192.456 27.4549 192.456 28.0751H192.446Z" fill="#7738CF"/>
<path d="M188.989 23.9562C188.989 24.5765 188.491 25.061 187.876 25.061C187.251 25.061 186.762 24.5668 186.762 23.9562C186.762 23.3456 187.27 22.8416 187.885 22.8513C188.501 22.8513 188.999 23.3553 188.999 23.9659L188.989 23.9562Z" fill="#7738CF"/>
<path d="M128.361 26.1963C128.164 26.7119 127.795 26.8816 127.268 26.8816C122.8 26.8686 118.331 26.8751 113.863 26.8816C113.742 26.8816 113.564 26.8033 113.501 26.9534C113.418 27.1753 113.361 27.4168 113.336 27.6583C113.323 27.7692 113.469 27.717 113.545 27.7235C114.511 27.7627 115.363 28.089 116.088 28.7482C117.759 30.2624 117.874 32.8925 116.342 34.5503C114.797 36.2211 112.23 36.2472 110.666 34.609C110.48 34.4176 110.299 34.4132 110.126 34.596C108.924 35.8686 107.056 36.1819 105.511 35.3792C103.954 34.5699 103.115 32.8208 103.426 31.026C103.719 29.3356 105.104 27.9911 106.795 27.7627C107.119 27.717 107.437 27.704 107.761 27.7627C107.92 27.7953 107.996 27.7562 108.041 27.58C108.213 26.8751 108.219 26.8751 107.507 26.8751C105.104 26.8751 102.708 26.8751 100.306 26.8751C99.4984 26.8751 99.2061 26.5683 99.2061 25.7395C99.2061 22.0455 99.2061 18.358 99.2061 14.664C99.2061 13.8873 99.5175 13.574 100.28 13.574C101.768 13.574 103.261 13.574 104.749 13.574C104.946 13.574 105.003 13.5414 104.965 13.326C104.59 11.0809 105.975 8.93368 108.028 8.33977C108.657 8.15702 109.083 8.40503 109.242 9.06421C109.585 10.4674 109.929 11.8771 110.259 13.2869C110.31 13.4957 110.38 13.6067 110.615 13.574C110.863 13.5414 111.187 13.6785 111.352 13.5153C111.505 13.3652 111.499 13.0454 111.556 12.8039C111.861 11.5508 112.153 10.2912 112.458 9.0381C112.611 8.41156 113.037 8.16355 113.641 8.33977C115.694 8.92063 117.041 11.0222 116.749 13.1955C116.736 13.2738 116.736 13.3521 116.717 13.4239C116.685 13.5414 116.717 13.5871 116.838 13.5806C116.914 13.5806 116.99 13.5806 117.067 13.5806C120.442 13.5806 123.823 13.5871 127.198 13.574C127.726 13.574 128.12 13.7241 128.348 14.2202V26.1963H128.361ZM120.295 25.126C122.317 25.126 124.338 25.126 126.359 25.126C126.601 25.126 126.658 25.0607 126.658 24.8192C126.651 21.7518 126.651 18.6778 126.658 15.6103C126.658 15.3884 126.607 15.3166 126.378 15.3166C123.092 15.3231 119.812 15.3231 116.526 15.3166C116.323 15.3166 116.259 15.3819 116.208 15.5842C115.471 18.6713 114.727 21.7648 113.977 24.8453C113.92 25.0868 113.984 25.126 114.2 25.126C116.234 25.126 118.261 25.126 120.295 25.126ZM105.937 15.3231C104.354 15.3231 102.772 15.3231 101.183 15.3231C100.979 15.3231 100.909 15.3558 100.909 15.5907C100.916 18.6778 100.916 21.7648 100.909 24.8519C100.909 25.0672 100.96 25.1325 101.176 25.1325C102.079 25.1195 102.982 25.1325 103.878 25.1325C105.359 25.1325 106.84 25.126 108.314 25.139C108.556 25.139 108.645 25.0607 108.689 24.8323C108.766 24.4407 108.855 24.0556 108.963 23.6706C109.013 23.4878 108.963 23.4552 108.797 23.4552C108.2 23.4617 107.602 23.4552 107.005 23.4552C106.427 23.4552 106.039 23.1028 106.032 22.5872C106.032 22.065 106.42 21.7061 106.992 21.7061C107.723 21.7061 108.454 21.6996 109.185 21.7061C109.369 21.7061 109.446 21.6539 109.49 21.4646C109.948 19.5066 110.412 17.5552 110.888 15.5973C110.946 15.3688 110.908 15.3166 110.679 15.3231C109.096 15.3297 107.513 15.3231 105.924 15.3231H105.937ZM113.914 10.3891C113.888 10.4739 113.863 10.5523 113.844 10.6371C112.465 16.4066 111.085 22.176 109.694 27.9454C109.611 28.2979 109.579 28.5655 109.935 28.7743C110.062 28.8461 110.164 28.9832 110.259 29.1006C110.361 29.2312 110.424 29.2507 110.533 29.1072C110.717 28.8722 110.933 28.6634 111.181 28.5002C111.34 28.3958 111.416 28.2718 111.454 28.089C111.645 27.2536 111.848 26.4248 112.052 25.5959C113.037 21.4972 114.022 17.3986 115.007 13.2999C115.287 12.1447 114.829 10.9177 113.914 10.3891ZM115.713 31.783C115.719 30.5299 114.715 29.4857 113.494 29.4792C112.261 29.4661 111.238 30.5169 111.244 31.7765C111.244 33.0296 112.255 34.0673 113.475 34.0673C114.696 34.0673 115.706 33.0361 115.713 31.783ZM109.528 31.783C109.528 30.5169 108.543 29.4922 107.316 29.4792C106.096 29.4727 105.079 30.4973 105.073 31.7504C105.066 33.0231 106.064 34.0608 107.304 34.0673C108.53 34.0673 109.528 33.0427 109.535 31.783H109.528ZM107.806 10.376C106.84 10.9569 106.363 12.3601 106.725 13.4305C106.763 13.5479 106.827 13.574 106.935 13.574C107.418 13.574 107.901 13.574 108.384 13.574C108.518 13.574 108.575 13.5414 108.543 13.3913C108.302 12.3927 108.06 11.4007 107.806 10.376Z" fill="#7738CF"/>
<path d="M122.386 17.5943C120.982 17.5943 119.831 18.7625 119.825 20.2049C119.812 21.6538 120.969 22.8547 122.38 22.8547C123.791 22.8612 124.948 21.6669 124.948 20.2114C124.942 18.7691 123.798 17.6008 122.386 17.5943ZM122.374 21.099C121.916 21.099 121.528 20.6944 121.528 20.2245C121.528 19.7546 121.91 19.3565 122.38 19.3499C122.844 19.3499 123.232 19.735 123.238 20.2114C123.245 20.6944 122.844 21.1056 122.374 21.099Z" fill="#F3771E"/>
<path d="M104.564 18.756C104.221 18.756 103.884 18.7625 103.541 18.756C102.994 18.743 102.613 18.3644 102.626 17.8553C102.638 17.3528 103.007 17.0069 103.554 17.0069C104.246 17.0069 104.939 17.0069 105.626 17.0069C106.147 17.0069 106.515 17.3593 106.528 17.8488C106.547 18.3448 106.172 18.7364 105.645 18.756C105.282 18.7691 104.926 18.756 104.564 18.756Z" fill="#F3771E"/>
<path d="M103.477 23.4486C103.013 23.4486 102.626 23.057 102.626 22.5806C102.626 22.0976 103.02 21.6864 103.49 21.6929C103.948 21.6995 104.335 22.1041 104.329 22.574C104.329 23.0505 103.941 23.4421 103.477 23.4421V23.4486Z" fill="#F3771E"/>
<path d="M109.191 21.6995C108.46 21.6864 107.736 21.6929 107.005 21.6995C106.433 21.6995 106.039 22.0584 106.045 22.5805C106.045 23.0961 106.433 23.4486 107.011 23.4486C107.59 23.4486 108.206 23.4551 108.804 23.4486C108.931 23.442 108.988 23.4616 108.988 23.553L109.484 21.5037C109.446 21.6538 109.369 21.706 109.191 21.6995Z" fill="#F3771E"/>
<path d="M108.842 24.1534L108.88 24.0033L108.988 23.553L109.484 21.5037L109.776 20.2832L109.821 20.107" fill="#F3771E"/>
</svg>
