<svg width="233" height="89" viewBox="0 0 233 89" fill="none" xmlns="http://www.w3.org/2000/svg">
<path d="M0.000488281 21C0.000488281 9.40202 9.40251 0 21.0005 0H233V89H21.0005C9.40251 89 0.000488281 79.598 0.000488281 68V21Z" fill="white"/>
<rect x="103.98" y="53.2968" width="78.1288" height="24.3987" rx="7.80759" fill="#7738CF"/>
<rect x="22.2445" y="53.5408" width="77.6408" height="23.9107" rx="7.5636" stroke="#7738CF" stroke-width="0.487974"/>
<path d="M131.698 64.1594C131.672 63.9173 131.563 63.7287 131.371 63.5938C131.18 63.4589 130.933 63.3914 130.628 63.3914C130.413 63.3914 130.229 63.4237 130.076 63.4884C129.923 63.5531 129.805 63.6409 129.724 63.7518C129.643 63.8627 129.601 63.9893 129.599 64.1317C129.599 64.25 129.626 64.3525 129.68 64.4394C129.735 64.5263 129.81 64.6002 129.904 64.6612C129.998 64.7204 130.103 64.7703 130.217 64.8109C130.332 64.8516 130.448 64.8858 130.564 64.9135L131.096 65.0466C131.311 65.0965 131.517 65.164 131.715 65.249C131.914 65.334 132.093 65.4412 132.25 65.5706C132.409 65.7 132.534 65.8562 132.627 66.0392C132.719 66.2222 132.765 66.4366 132.765 66.6824C132.765 67.0151 132.68 67.3081 132.51 67.5613C132.34 67.8127 132.094 68.0096 131.773 68.1519C131.453 68.2924 131.066 68.3626 130.611 68.3626C130.169 68.3626 129.786 68.2942 129.46 68.1575C129.137 68.0207 128.884 67.821 128.701 67.5586C128.52 67.2961 128.422 66.9763 128.407 66.5993H129.419C129.434 66.797 129.495 66.9615 129.602 67.0928C129.709 67.224 129.849 67.322 130.021 67.3867C130.194 67.4514 130.388 67.4837 130.603 67.4837C130.826 67.4837 131.022 67.4504 131.191 67.3839C131.361 67.3155 131.494 67.2212 131.59 67.1011C131.686 66.9791 131.735 66.8368 131.737 66.6741C131.735 66.5262 131.691 66.4043 131.606 66.3081C131.521 66.2102 131.402 66.1288 131.249 66.0642C131.097 65.9976 130.92 65.9385 130.716 65.8867L130.07 65.7204C129.603 65.6002 129.233 65.4181 128.961 65.1742C128.692 64.9283 128.557 64.6021 128.557 64.1954C128.557 63.8609 128.647 63.5679 128.828 63.3165C129.011 63.0651 129.26 62.8701 129.574 62.7315C129.888 62.591 130.244 62.5208 130.642 62.5208C131.045 62.5208 131.398 62.591 131.701 62.7315C132.006 62.8701 132.245 63.0633 132.419 63.311C132.593 63.5568 132.682 63.8396 132.688 64.1594H131.698ZM136.399 66.4856V64.018H137.403V68.2767H136.43V67.5198H136.385C136.289 67.7582 136.131 67.9532 135.911 68.1048C135.693 68.2563 135.424 68.3321 135.104 68.3321C134.825 68.3321 134.579 68.2702 134.364 68.1464C134.152 68.0207 133.985 67.8386 133.865 67.6002C133.745 67.3599 133.685 67.0697 133.685 66.7296V64.018H134.689V66.5743C134.689 66.8442 134.763 67.0586 134.91 67.2175C135.058 67.3765 135.252 67.456 135.493 67.456C135.64 67.456 135.784 67.4199 135.922 67.3479C136.061 67.2758 136.175 67.1686 136.263 67.0262C136.354 66.8821 136.399 66.7018 136.399 66.4856ZM138.526 68.2767V62.5984H139.53V64.7222H139.571C139.623 64.6187 139.696 64.5087 139.791 64.3923C139.885 64.274 140.012 64.1733 140.173 64.0901C140.334 64.005 140.539 63.9625 140.789 63.9625C141.118 63.9625 141.414 64.0466 141.679 64.2148C141.945 64.3812 142.156 64.628 142.311 64.9551C142.468 65.2804 142.546 65.6797 142.546 66.1529C142.546 66.6205 142.47 67.0179 142.316 67.3451C142.163 67.6722 141.954 67.9218 141.69 68.0937C141.425 68.2656 141.126 68.3515 140.791 68.3515C140.547 68.3515 140.345 68.3109 140.184 68.2295C140.023 68.1482 139.894 68.0502 139.796 67.9356C139.7 67.8192 139.625 67.7092 139.571 67.6057H139.513V68.2767H138.526ZM139.511 66.1473C139.511 66.4227 139.549 66.664 139.627 66.871C139.706 67.078 139.82 67.2397 139.968 67.3562C140.118 67.4708 140.299 67.5281 140.511 67.5281C140.733 67.5281 140.919 67.4689 141.069 67.3506C141.218 67.2305 141.331 67.0669 141.407 66.8599C141.485 66.651 141.523 66.4135 141.523 66.1473C141.523 65.883 141.486 65.6483 141.41 65.4431C141.334 65.2379 141.221 65.0771 141.071 64.9607C140.922 64.8442 140.735 64.786 140.511 64.786C140.297 64.786 140.115 64.8424 139.965 64.9551C139.815 65.0679 139.702 65.2259 139.624 65.4292C139.548 65.6326 139.511 65.8719 139.511 66.1473ZM143.447 68.2767V64.018H144.406V64.7416H144.456C144.545 64.4976 144.691 64.3073 144.897 64.1705C145.102 64.0319 145.347 63.9625 145.631 63.9625C145.92 63.9625 146.163 64.0328 146.361 64.1733C146.56 64.3119 146.701 64.5013 146.782 64.7416H146.826C146.921 64.505 147.08 64.3165 147.303 64.176C147.529 64.0337 147.796 63.9625 148.105 63.9625C148.496 63.9625 148.816 64.0864 149.064 64.3341C149.312 64.5817 149.435 64.9431 149.435 65.4181V68.2767H148.429V65.5734C148.429 65.3091 148.359 65.1159 148.218 64.9939C148.078 64.8701 147.906 64.8082 147.702 64.8082C147.46 64.8082 147.271 64.884 147.134 65.0355C146.999 65.1852 146.932 65.3802 146.932 65.6205V68.2767H145.947V65.5318C145.947 65.3119 145.881 65.1363 145.748 65.005C145.617 64.8738 145.445 64.8082 145.232 64.8082C145.088 64.8082 144.957 64.8451 144.838 64.9191C144.72 64.9912 144.626 65.0937 144.556 65.2268C144.485 65.3581 144.45 65.5115 144.45 65.6871V68.2767H143.447ZM150.5 68.2767V64.018H151.504V68.2767H150.5ZM151.005 63.4136C150.846 63.4136 150.709 63.3609 150.595 63.2555C150.48 63.1483 150.423 63.0199 150.423 62.8701C150.423 62.7186 150.48 62.5901 150.595 62.4848C150.709 62.3775 150.846 62.3239 151.005 62.3239C151.166 62.3239 151.303 62.3775 151.415 62.4848C151.53 62.5901 151.587 62.7186 151.587 62.8701C151.587 63.0199 151.53 63.1483 151.415 63.2555C151.303 63.3609 151.166 63.4136 151.005 63.4136ZM154.71 64.018V64.7943H152.261V64.018H154.71ZM152.866 62.9977H153.87V66.9957C153.87 67.1307 153.89 67.2342 153.931 67.3063C153.973 67.3765 154.028 67.4246 154.097 67.4504C154.165 67.4763 154.241 67.4893 154.324 67.4893C154.387 67.4893 154.444 67.4846 154.496 67.4754C154.55 67.4662 154.59 67.4578 154.618 67.4504L154.787 68.2351C154.734 68.2536 154.657 68.2739 154.557 68.2961C154.459 68.3183 154.339 68.3312 154.197 68.3349C153.945 68.3423 153.719 68.3044 153.517 68.2212C153.316 68.1362 153.156 68.005 153.038 67.8275C152.921 67.6501 152.864 67.4283 152.866 67.1621V62.9977Z" fill="white"/>
<path d="M52.822 64.5143H51.7851C51.7555 64.3442 51.701 64.1936 51.6215 64.0623C51.542 63.9293 51.4431 63.8165 51.3248 63.7241C51.2065 63.6317 51.0716 63.5624 50.92 63.5162C50.7703 63.4681 50.6086 63.4441 50.4348 63.4441C50.1261 63.4441 49.8526 63.5217 49.6141 63.677C49.3757 63.8304 49.189 64.0559 49.0541 64.3535C48.9191 64.6492 48.8517 65.0106 48.8517 65.4375C48.8517 65.8719 48.9191 66.2379 49.0541 66.5355C49.1909 66.8312 49.3775 67.0549 49.6141 67.2065C49.8526 67.3562 50.1252 67.431 50.432 67.431C50.6021 67.431 50.7611 67.4089 50.9089 67.3645C51.0586 67.3183 51.1927 67.2508 51.311 67.1621C51.4311 67.0734 51.5318 66.9643 51.6132 66.8349C51.6963 66.7055 51.7536 66.5577 51.7851 66.3913L52.822 66.3969C52.7832 66.6667 52.6991 66.92 52.5697 67.1565C52.4422 67.3931 52.2749 67.602 52.0679 67.7832C51.8608 67.9624 51.6187 68.1029 51.3414 68.2046C51.0642 68.3044 50.7564 68.3543 50.4182 68.3543C49.9191 68.3543 49.4737 68.2388 49.0818 68.0077C48.6899 67.7767 48.3813 67.443 48.1558 67.0068C47.9303 66.5706 47.8175 66.0475 47.8175 65.4375C47.8175 64.8257 47.9312 64.3026 48.1585 63.8683C48.3859 63.432 48.6955 63.0984 49.0873 62.8674C49.4792 62.6363 49.9228 62.5208 50.4182 62.5208C50.7343 62.5208 51.0281 62.5652 51.2999 62.6539C51.5716 62.7426 51.8137 62.8729 52.0263 63.0448C52.2388 63.2149 52.4135 63.4237 52.5503 63.6714C52.6889 63.9173 52.7795 64.1982 52.822 64.5143ZM54.992 68.3626C54.7221 68.3626 54.479 68.3146 54.2628 68.2184C54.0484 68.1205 53.8783 67.9763 53.7526 67.7859C53.6288 67.5955 53.5669 67.3608 53.5669 67.0817C53.5669 66.8414 53.6112 66.6427 53.6999 66.4856C53.7887 66.3285 53.9097 66.2028 54.0631 66.1085C54.2166 66.0142 54.3894 65.9431 54.5816 65.895C54.7757 65.8451 54.9762 65.8091 55.1833 65.7869C55.4328 65.761 55.6352 65.7379 55.7905 65.7176C55.9457 65.6954 56.0585 65.6621 56.1287 65.6178C56.2008 65.5716 56.2368 65.5004 56.2368 65.4043V65.3876C56.2368 65.1788 56.1749 65.017 56.0511 64.9024C55.9272 64.7878 55.7489 64.7305 55.516 64.7305C55.2701 64.7305 55.0751 64.7841 54.931 64.8914C54.7886 64.9986 54.6925 65.1252 54.6426 65.2712L53.7055 65.1381C53.7794 64.8793 53.9014 64.6631 54.0715 64.4893C54.2415 64.3137 54.4495 64.1825 54.6953 64.0956C54.9411 64.0069 55.2128 63.9625 55.5104 63.9625C55.7156 63.9625 55.9198 63.9866 56.1232 64.0346C56.3265 64.0827 56.5123 64.1622 56.6805 64.2731C56.8487 64.3821 56.9836 64.5309 57.0853 64.7195C57.1888 64.908 57.2405 65.1437 57.2405 65.4265V68.2767H56.2757V67.6917H56.2424C56.1814 67.81 56.0954 67.9209 55.9845 68.0244C55.8755 68.126 55.7378 68.2083 55.5714 68.2711C55.4069 68.3321 55.2138 68.3626 54.992 68.3626ZM55.2526 67.6251C55.4541 67.6251 55.6287 67.5854 55.7766 67.5059C55.9245 67.4246 56.0381 67.3174 56.1176 67.1843C56.199 67.0512 56.2396 66.9061 56.2396 66.749V66.2471C56.2082 66.273 56.1546 66.297 56.0788 66.3192C56.0049 66.3414 55.9217 66.3608 55.8293 66.3775C55.7369 66.3941 55.6454 66.4089 55.5548 66.4218C55.4642 66.4348 55.3857 66.4458 55.3191 66.4551C55.1694 66.4754 55.0354 66.5087 54.9171 66.5549C54.7988 66.6011 54.7055 66.6658 54.6371 66.749C54.5687 66.8303 54.5345 66.9357 54.5345 67.0651C54.5345 67.2499 54.6019 67.3894 54.7369 67.4837C54.8718 67.578 55.0437 67.6251 55.2526 67.6251ZM59.3003 65.7813V68.2767H58.2966V64.018H59.2559V64.7416H59.3058C59.4038 64.5032 59.56 64.3137 59.7744 64.1733C59.9906 64.0328 60.2577 63.9625 60.5756 63.9625C60.8695 63.9625 61.1255 64.0254 61.3437 64.1511C61.5636 64.2768 61.7337 64.4588 61.8538 64.6973C61.9758 64.9357 62.0359 65.225 62.034 65.5651V68.2767H61.0303V65.7204C61.0303 65.4357 60.9564 65.213 60.8085 65.0522C60.6625 64.8914 60.4601 64.8109 60.2013 64.8109C60.0258 64.8109 59.8696 64.8498 59.7328 64.9274C59.5978 65.0032 59.4916 65.1132 59.4139 65.2573C59.3382 65.4015 59.3003 65.5762 59.3003 65.7813ZM64.9588 68.3598C64.5337 68.3598 64.1686 68.2665 63.8636 68.0798C63.5605 67.8931 63.3267 67.6353 63.1622 67.3063C62.9995 66.9754 62.9182 66.5946 62.9182 66.164C62.9182 65.7314 63.0014 65.3498 63.1677 65.0189C63.3341 64.6862 63.5688 64.4274 63.872 64.2426C64.1769 64.0559 64.5374 63.9625 64.9533 63.9625C65.2989 63.9625 65.6048 64.0263 65.871 64.1538C66.139 64.2795 66.3525 64.4579 66.5115 64.689C66.6704 64.9182 66.761 65.1862 66.7832 65.493H65.8239C65.785 65.2878 65.6926 65.1169 65.5466 64.9801C65.4024 64.8414 65.2093 64.7721 64.9671 64.7721C64.762 64.7721 64.5817 64.8276 64.4265 64.9385C64.2712 65.0475 64.1501 65.2047 64.0633 65.4098C63.9782 65.615 63.9357 65.8608 63.9357 66.1473C63.9357 66.4375 63.9782 66.6871 64.0633 66.8959C64.1483 67.1029 64.2675 67.2628 64.4209 67.3756C64.5762 67.4865 64.7583 67.5419 64.9671 67.5419C65.115 67.5419 65.2472 67.5142 65.3636 67.4588C65.4819 67.4015 65.5808 67.3192 65.6603 67.212C65.7398 67.1048 65.7943 66.9745 65.8239 66.8211H66.7832C66.7591 67.1224 66.6704 67.3894 66.517 67.6223C66.3636 67.8534 66.1547 68.0345 65.8904 68.1658C65.6261 68.2952 65.3155 68.3598 64.9588 68.3598ZM69.5395 68.3598C69.1125 68.3598 68.7438 68.2711 68.4333 68.0937C68.1246 67.9144 67.8871 67.6612 67.7207 67.334C67.5543 67.005 67.4712 66.6177 67.4712 66.1723C67.4712 65.7342 67.5543 65.3498 67.7207 65.0189C67.8889 64.6862 68.1237 64.4274 68.4249 64.2426C68.7262 64.0559 69.0802 63.9625 69.4868 63.9625C69.7493 63.9625 69.997 64.005 70.2299 64.0901C70.4646 64.1733 70.6717 64.3026 70.8509 64.4782C71.0321 64.6538 71.1744 64.8775 71.2779 65.1492C71.3814 65.4191 71.4332 65.7407 71.4332 66.1141V66.4218H67.9425V65.7453H70.4711C70.4693 65.5531 70.4277 65.3821 70.3463 65.2324C70.265 65.0808 70.1513 64.9616 70.0053 64.8747C69.8611 64.7878 69.6929 64.7444 69.5007 64.7444C69.2955 64.7444 69.1153 64.7943 68.96 64.8941C68.8048 64.9921 68.6837 65.1215 68.5968 65.2823C68.5118 65.4412 68.4684 65.6159 68.4665 65.8063V66.3969C68.4665 66.6445 68.5118 66.8571 68.6024 67.0346C68.693 67.2102 68.8196 67.3451 68.9822 67.4394C69.1449 67.5318 69.3353 67.578 69.5534 67.578C69.6994 67.578 69.8316 67.5576 69.9499 67.517C70.0682 67.4745 70.1707 67.4126 70.2576 67.3312C70.3445 67.2499 70.4101 67.1492 70.4545 67.029L71.3916 67.1344C71.3325 67.3821 71.2197 67.5983 71.0533 67.7832C70.8888 67.9661 70.6781 68.1085 70.4212 68.2101C70.1643 68.3099 69.8704 68.3598 69.5395 68.3598ZM73.3328 62.5984V68.2767H72.3291V62.5984H73.3328Z" fill="#7738CF"/>
<rect x="22.0005" y="9" width="78.0759" height="21.4709" rx="5.85569" fill="#F3771E"/>
<path d="M44.9952 16.9738V17.4793H43.6972V21.7354H43.0755V17.4793H41.7707V16.9738H44.9952ZM45.5692 19.8499C45.5692 19.4673 45.6466 19.1326 45.8015 18.8456C45.9563 18.5541 46.1681 18.3287 46.4368 18.1693C46.7101 18.0099 47.0129 17.9302 47.3454 17.9302C47.6733 17.9302 47.958 18.0008 48.1994 18.142C48.4408 18.2832 48.6207 18.4608 48.7391 18.6748V17.9917H49.3676V21.7354H48.7391V21.0386C48.6161 21.2572 48.4317 21.4394 48.1857 21.5851C47.9443 21.7263 47.662 21.7969 47.3386 21.7969C47.0061 21.7969 46.7055 21.7149 46.4368 21.551C46.1681 21.387 45.9563 21.157 45.8015 20.861C45.6466 20.5649 45.5692 20.2279 45.5692 19.8499ZM48.7391 19.8567C48.7391 19.5743 48.6821 19.3284 48.5683 19.1189C48.4544 18.9094 48.2996 18.75 48.1037 18.6407C47.9124 18.5268 47.7007 18.4699 47.4684 18.4699C47.2361 18.4699 47.0243 18.5245 46.833 18.6338C46.6418 18.7432 46.4892 18.9026 46.3753 19.1121C46.2615 19.3216 46.2045 19.5675 46.2045 19.8499C46.2045 20.1368 46.2615 20.3873 46.3753 20.6014C46.4892 20.8109 46.6418 20.9725 46.833 21.0864C47.0243 21.1957 47.2361 21.2504 47.4684 21.2504C47.7007 21.2504 47.9124 21.1957 48.1037 21.0864C48.2996 20.9725 48.4544 20.8109 48.5683 20.6014C48.6821 20.3873 48.7391 20.1391 48.7391 19.8567ZM52.413 21.7354L51.5249 20.3418L50.6709 21.7354H50.0219L51.2311 19.8772L50.0219 17.9917H50.7256L51.6137 19.3785L52.4608 17.9917H53.1098L51.9075 19.843L53.1167 21.7354H52.413ZM56.2532 16.9738V21.7354H55.6315V16.9738H56.2532ZM59.1778 17.9234C59.6332 17.9234 60.0021 18.0623 60.2845 18.3401C60.5669 18.6134 60.7081 19.0096 60.7081 19.5288V21.7354H60.0932V19.6176C60.0932 19.2441 59.9998 18.9595 59.8131 18.7636C59.6264 18.5633 59.3713 18.4631 59.048 18.4631C58.72 18.4631 58.4582 18.5655 58.2623 18.7705C58.071 18.9754 57.9754 19.2737 57.9754 19.6654V21.7354H57.3537V17.9917H57.9754V18.5245C58.0984 18.3333 58.2646 18.1852 58.4741 18.0805C58.6882 17.9757 58.9227 17.9234 59.1778 17.9234ZM63.1582 21.1616L64.3196 17.9917H64.9823L63.5135 21.7354H62.7893L61.3205 17.9917H61.99L63.1582 21.1616ZM67.2678 21.7969C66.9171 21.7969 66.5983 21.7172 66.3113 21.5578C66.029 21.3984 65.8058 21.1729 65.6418 20.8815C65.4824 20.5854 65.4027 20.2438 65.4027 19.8567C65.4027 19.4741 65.4847 19.1371 65.6487 18.8456C65.8172 18.5496 66.0449 18.3241 66.3318 18.1693C66.6188 18.0099 66.9398 17.9302 67.2951 17.9302C67.6503 17.9302 67.9714 18.0099 68.2584 18.1693C68.5453 18.3241 68.7707 18.5473 68.9347 18.8388C69.1032 19.1303 69.1875 19.4696 69.1875 19.8567C69.1875 20.2438 69.1009 20.5854 68.9279 20.8815C68.7593 21.1729 68.5293 21.3984 68.2379 21.5578C67.9464 21.7172 67.623 21.7969 67.2678 21.7969ZM67.2678 21.2504C67.4909 21.2504 67.7004 21.198 67.8963 21.0932C68.0921 20.9885 68.2492 20.8314 68.3677 20.6219C68.4906 20.4124 68.5521 20.1573 68.5521 19.8567C68.5521 19.5561 68.4929 19.3011 68.3745 19.0916C68.2561 18.8821 68.1012 18.7272 67.9099 18.627C67.7187 18.5223 67.5114 18.4699 67.2883 18.4699C67.0605 18.4699 66.851 18.5223 66.6597 18.627C66.473 18.7272 66.3227 18.8821 66.2089 19.0916C66.095 19.3011 66.0381 19.5561 66.0381 19.8567C66.0381 20.1619 66.0927 20.4192 66.202 20.6287C66.3159 20.8382 66.4662 20.9953 66.6529 21.1001C66.8396 21.2003 67.0446 21.2504 67.2678 21.2504ZM70.3669 17.3837C70.2485 17.3837 70.1483 17.3427 70.0663 17.2607C69.9844 17.1787 69.9434 17.0785 69.9434 16.9601C69.9434 16.8417 69.9844 16.7415 70.0663 16.6595C70.1483 16.5775 70.2485 16.5365 70.3669 16.5365C70.4808 16.5365 70.5764 16.5775 70.6539 16.6595C70.7358 16.7415 70.7768 16.8417 70.7768 16.9601C70.7768 17.0785 70.7358 17.1787 70.6539 17.2607C70.5764 17.3427 70.4808 17.3837 70.3669 17.3837ZM70.6675 17.9917V21.7354H70.0458V17.9917H70.6675ZM71.5358 19.8567C71.5358 19.4696 71.6132 19.1326 71.7681 18.8456C71.9229 18.5541 72.137 18.3287 72.4102 18.1693C72.688 18.0099 73.0046 17.9302 73.3598 17.9302C73.8198 17.9302 74.1978 18.0418 74.4939 18.2649C74.7945 18.4881 74.9926 18.7978 75.0882 19.194H74.4187C74.355 18.9663 74.2297 18.7864 74.043 18.6543C73.8608 18.5223 73.6331 18.4562 73.3598 18.4562C73.0046 18.4562 72.7177 18.5792 72.499 18.8251C72.2804 19.0665 72.1711 19.4104 72.1711 19.8567C72.1711 20.3076 72.2804 20.656 72.499 20.902C72.7177 21.1479 73.0046 21.2709 73.3598 21.2709C73.6331 21.2709 73.8608 21.2071 74.043 21.0796C74.2252 20.9521 74.3504 20.7699 74.4187 20.533H75.0882C74.988 20.9156 74.7876 21.223 74.487 21.4553C74.1865 21.683 73.8107 21.7969 73.3598 21.7969C73.0046 21.7969 72.688 21.7172 72.4102 21.5578C72.137 21.3984 71.9229 21.1729 71.7681 20.8815C71.6132 20.59 71.5358 20.2484 71.5358 19.8567ZM79.3745 19.7201C79.3745 19.8385 79.3677 19.9637 79.3541 20.0958H76.3618C76.3846 20.4647 76.5098 20.7539 76.7375 20.9634C76.9698 21.1684 77.2499 21.2709 77.5778 21.2709C77.8465 21.2709 78.0697 21.2094 78.2473 21.0864C78.4295 20.9589 78.557 20.7904 78.6299 20.5809H79.2994C79.1992 20.9407 78.9988 21.2344 78.6982 21.4621C78.3976 21.6853 78.0242 21.7969 77.5778 21.7969C77.2226 21.7969 76.9038 21.7172 76.6214 21.5578C76.3436 21.3984 76.125 21.1729 75.9656 20.8815C75.8062 20.5854 75.7265 20.2438 75.7265 19.8567C75.7265 19.4696 75.8039 19.1303 75.9587 18.8388C76.1136 18.5473 76.3299 18.3241 76.6077 18.1693C76.8901 18.0099 77.2135 17.9302 77.5778 17.9302C77.9331 17.9302 78.2473 18.0076 78.5206 18.1625C78.7939 18.3173 79.0034 18.5314 79.1491 18.8046C79.2994 19.0734 79.3745 19.3785 79.3745 19.7201ZM78.7324 19.5903C78.7324 19.3534 78.68 19.1508 78.5752 18.9823C78.4705 18.8092 78.327 18.6794 78.1449 18.5929C77.9672 18.5018 77.7691 18.4562 77.5505 18.4562C77.2362 18.4562 76.9675 18.5564 76.7444 18.7568C76.5258 18.9572 76.4005 19.235 76.3686 19.5903H78.7324Z" fill="white"/>
<rect x="103.98" y="9" width="78.0759" height="21.4709" rx="5.85569" fill="white"/>
<path d="M117.027 16.9738C117.546 16.9738 117.994 17.0717 118.372 17.2675C118.755 17.4588 119.046 17.7343 119.247 18.0941C119.452 18.4539 119.554 18.8775 119.554 19.3648C119.554 19.8522 119.452 20.2757 119.247 20.6355C119.046 20.9908 118.755 21.264 118.372 21.4553C117.994 21.642 117.546 21.7354 117.027 21.7354H115.544V16.9738H117.027ZM117.027 21.223C117.641 21.223 118.11 21.0614 118.434 20.738C118.757 20.4101 118.919 19.9524 118.919 19.3648C118.919 18.7728 118.755 18.3105 118.427 17.978C118.104 17.6455 117.637 17.4793 117.027 17.4793H116.166V21.223H117.027ZM123.831 19.7201C123.831 19.8385 123.824 19.9637 123.811 20.0958H120.818C120.841 20.4647 120.966 20.7539 121.194 20.9634C121.426 21.1684 121.706 21.2709 122.034 21.2709C122.303 21.2709 122.526 21.2094 122.704 21.0864C122.886 20.9589 123.014 20.7904 123.086 20.5809H123.756C123.656 20.9407 123.455 21.2344 123.155 21.4621C122.854 21.6853 122.481 21.7969 122.034 21.7969C121.679 21.7969 121.36 21.7172 121.078 21.5578C120.8 21.3984 120.581 21.1729 120.422 20.8815C120.263 20.5854 120.183 20.2438 120.183 19.8567C120.183 19.4696 120.26 19.1303 120.415 18.8388C120.57 18.5473 120.786 18.3241 121.064 18.1693C121.347 18.0099 121.67 17.9302 122.034 17.9302C122.39 17.9302 122.704 18.0076 122.977 18.1625C123.25 18.3173 123.46 18.5314 123.606 18.8046C123.756 19.0734 123.831 19.3785 123.831 19.7201ZM123.189 19.5903C123.189 19.3534 123.137 19.1508 123.032 18.9823C122.927 18.8092 122.784 18.6794 122.601 18.5929C122.424 18.5018 122.226 18.4562 122.007 18.4562C121.693 18.4562 121.424 18.5564 121.201 18.7568C120.982 18.9572 120.857 19.235 120.825 19.5903H123.189ZM125.314 16.68V21.7354H124.693V16.68H125.314ZM126.736 17.3837C126.618 17.3837 126.517 17.3427 126.435 17.2607C126.353 17.1787 126.312 17.0785 126.312 16.9601C126.312 16.8417 126.353 16.7415 126.435 16.6595C126.517 16.5775 126.618 16.5365 126.736 16.5365C126.85 16.5365 126.945 16.5775 127.023 16.6595C127.105 16.7415 127.146 16.8417 127.146 16.9601C127.146 17.0785 127.105 17.1787 127.023 17.2607C126.945 17.3427 126.85 17.3837 126.736 17.3837ZM127.037 17.9917V21.7354H126.415V17.9917H127.037ZM129.531 21.1616L130.692 17.9917H131.355L129.886 21.7354H129.162L127.693 17.9917H128.363L129.531 21.1616ZM135.423 19.7201C135.423 19.8385 135.417 19.9637 135.403 20.0958H132.411C132.433 20.4647 132.559 20.7539 132.786 20.9634C133.019 21.1684 133.299 21.2709 133.627 21.2709C133.895 21.2709 134.119 21.2094 134.296 21.0864C134.478 20.9589 134.606 20.7904 134.679 20.5809H135.348C135.248 20.9407 135.048 21.2344 134.747 21.4621C134.446 21.6853 134.073 21.7969 133.627 21.7969C133.271 21.7969 132.953 21.7172 132.67 21.5578C132.392 21.3984 132.174 21.1729 132.014 20.8815C131.855 20.5854 131.775 20.2438 131.775 19.8567C131.775 19.4696 131.853 19.1303 132.008 18.8388C132.162 18.5473 132.379 18.3241 132.657 18.1693C132.939 18.0099 133.262 17.9302 133.627 17.9302C133.982 17.9302 134.296 18.0076 134.569 18.1625C134.843 18.3173 135.052 18.5314 135.198 18.8046C135.348 19.0734 135.423 19.3785 135.423 19.7201ZM134.781 19.5903C134.781 19.3534 134.729 19.1508 134.624 18.9823C134.519 18.8092 134.376 18.6794 134.194 18.5929C134.016 18.5018 133.818 18.4562 133.599 18.4562C133.285 18.4562 133.016 18.5564 132.793 18.7568C132.575 18.9572 132.449 19.235 132.417 19.5903H134.781ZM136.907 18.5997C137.016 18.3856 137.171 18.2194 137.371 18.101C137.576 17.9826 137.824 17.9234 138.116 17.9234V18.5655H137.952C137.255 18.5655 136.907 18.9435 136.907 19.6996V21.7354H136.285V17.9917H136.907V18.5997ZM142.099 17.9917L139.845 23.498H139.202L139.94 21.6944L138.43 17.9917H139.12L140.295 21.0249L141.457 17.9917H142.099ZM144.395 19.3512C144.395 18.8866 144.5 18.4699 144.709 18.101C144.919 17.7275 145.203 17.436 145.563 17.2265C145.928 17.017 146.331 16.9123 146.772 16.9123C147.292 16.9123 147.745 17.0375 148.132 17.288C148.519 17.5385 148.801 17.8938 148.979 18.3538H148.234C148.102 18.0668 147.911 17.8459 147.66 17.6911C147.415 17.5362 147.118 17.4588 146.772 17.4588C146.44 17.4588 146.142 17.5362 145.877 17.6911C145.613 17.8459 145.406 18.0668 145.256 18.3538C145.105 18.6361 145.03 18.9686 145.03 19.3512C145.03 19.7292 145.105 20.0617 145.256 20.3486C145.406 20.631 145.613 20.8496 145.877 21.0044C146.142 21.1593 146.44 21.2367 146.772 21.2367C147.118 21.2367 147.415 21.1616 147.66 21.0113C147.911 20.8564 148.102 20.6355 148.234 20.3486H148.979C148.801 20.804 148.519 21.157 148.132 21.4075C147.745 21.6534 147.292 21.7764 146.772 21.7764C146.331 21.7764 145.928 21.6739 145.563 21.469C145.203 21.2595 144.919 20.9703 144.709 20.6014C144.5 20.2325 144.395 19.8157 144.395 19.3512ZM151.804 17.9234C152.086 17.9234 152.341 17.9848 152.569 18.1078C152.796 18.2262 152.974 18.4061 153.102 18.6475C153.234 18.8889 153.3 19.1827 153.3 19.5288V21.7354H152.685V19.6176C152.685 19.2441 152.592 18.9595 152.405 18.7636C152.218 18.5633 151.963 18.4631 151.64 18.4631C151.312 18.4631 151.05 18.5655 150.854 18.7705C150.663 18.9754 150.567 19.2737 150.567 19.6654V21.7354H149.945V16.68H150.567V18.5245C150.69 18.3333 150.859 18.1852 151.073 18.0805C151.291 17.9757 151.535 17.9234 151.804 17.9234ZM154.124 19.8499C154.124 19.4673 154.201 19.1326 154.356 18.8456C154.511 18.5541 154.723 18.3287 154.992 18.1693C155.265 18.0099 155.568 17.9302 155.9 17.9302C156.228 17.9302 156.513 18.0008 156.754 18.142C156.996 18.2832 157.175 18.4608 157.294 18.6748V17.9917H157.922V21.7354H157.294V21.0386C157.171 21.2572 156.986 21.4394 156.74 21.5851C156.499 21.7263 156.217 21.7969 155.893 21.7969C155.561 21.7969 155.26 21.7149 154.992 21.551C154.723 21.387 154.511 21.157 154.356 20.861C154.201 20.5649 154.124 20.2279 154.124 19.8499ZM157.294 19.8567C157.294 19.5743 157.237 19.3284 157.123 19.1189C157.009 18.9094 156.854 18.75 156.658 18.6407C156.467 18.5268 156.255 18.4699 156.023 18.4699C155.791 18.4699 155.579 18.5245 155.388 18.6338C155.197 18.7432 155.044 18.9026 154.93 19.1121C154.816 19.3216 154.759 19.5675 154.759 19.8499C154.759 20.1368 154.816 20.3873 154.93 20.6014C155.044 20.8109 155.197 20.9725 155.388 21.0864C155.579 21.1957 155.791 21.2504 156.023 21.2504C156.255 21.2504 156.467 21.1957 156.658 21.0864C156.854 20.9725 157.009 20.8109 157.123 20.6014C157.237 20.3873 157.294 20.1391 157.294 19.8567ZM159.636 16.68V21.7354H159.014V16.68H159.636ZM161.358 16.68V21.7354H160.736V16.68H161.358ZM162.226 19.8499C162.226 19.4673 162.303 19.1326 162.458 18.8456C162.613 18.5541 162.825 18.3287 163.094 18.1693C163.367 18.0099 163.67 17.9302 164.002 17.9302C164.33 17.9302 164.615 18.0008 164.856 18.142C165.098 18.2832 165.278 18.4608 165.396 18.6748V17.9917H166.024V21.7354H165.396V21.0386C165.273 21.2572 165.089 21.4394 164.843 21.5851C164.601 21.7263 164.319 21.7969 163.995 21.7969C163.663 21.7969 163.362 21.7149 163.094 21.551C162.825 21.387 162.613 21.157 162.458 20.861C162.303 20.5649 162.226 20.2279 162.226 19.8499ZM165.396 19.8567C165.396 19.5743 165.339 19.3284 165.225 19.1189C165.111 18.9094 164.956 18.75 164.761 18.6407C164.569 18.5268 164.358 18.4699 164.125 18.4699C163.893 18.4699 163.681 18.5245 163.49 18.6338C163.299 18.7432 163.146 18.9026 163.032 19.1121C162.918 19.3216 162.861 19.5675 162.861 19.8499C162.861 20.1368 162.918 20.3873 163.032 20.6014C163.146 20.8109 163.299 20.9725 163.49 21.0864C163.681 21.1957 163.893 21.2504 164.125 21.2504C164.358 21.2504 164.569 21.1957 164.761 21.0864C164.956 20.9725 165.111 20.8109 165.225 20.6014C165.339 20.3873 165.396 20.1391 165.396 19.8567ZM168.94 17.9234C169.396 17.9234 169.764 18.0623 170.047 18.3401C170.329 18.6134 170.47 19.0096 170.47 19.5288V21.7354H169.856V19.6176C169.856 19.2441 169.762 18.9595 169.575 18.7636C169.389 18.5633 169.134 18.4631 168.81 18.4631C168.482 18.4631 168.22 18.5655 168.025 18.7705C167.833 18.9754 167.738 19.2737 167.738 19.6654V21.7354H167.116V17.9917H167.738V18.5245C167.861 18.3333 168.027 18.1852 168.236 18.0805C168.45 17.9757 168.685 17.9234 168.94 17.9234Z" fill="#7A767A"/>
<path d="M39.6688 44.2545H39.02C38.9951 44.1158 38.9486 43.9938 38.8807 43.8885C38.8128 43.7831 38.7296 43.6937 38.6312 43.6202C38.5327 43.5468 38.4225 43.4913 38.3005 43.4539C38.1799 43.4164 38.0517 43.3977 37.9158 43.3977C37.6705 43.3977 37.4507 43.4594 37.2567 43.5828C37.064 43.7062 36.9115 43.8871 36.7992 44.1255C36.6883 44.364 36.6328 44.6551 36.6328 44.9989C36.6328 45.3455 36.6883 45.638 36.7992 45.8764C36.9115 46.1149 37.0647 46.2951 37.2587 46.4171C37.4528 46.5391 37.6712 46.6001 37.9138 46.6001C38.0482 46.6001 38.1758 46.582 38.2964 46.546C38.4184 46.5086 38.5286 46.4538 38.627 46.3817C38.7254 46.3096 38.8086 46.2216 38.8765 46.1176C38.9459 46.0123 38.9937 45.8917 39.02 45.7558L39.6688 45.7579C39.6342 45.9672 39.5669 46.1599 39.4671 46.336C39.3687 46.5106 39.2418 46.6617 39.0866 46.7893C38.9327 46.9154 38.7566 47.0132 38.5584 47.0825C38.3602 47.1518 38.1439 47.1865 37.9096 47.1865C37.5409 47.1865 37.2123 47.0991 36.924 46.9245C36.6356 46.7484 36.4083 46.4968 36.2419 46.1696C36.0769 45.8425 35.9944 45.4522 35.9944 44.9989C35.9944 44.5442 36.0776 44.1539 36.244 43.8282C36.4103 43.501 36.6377 43.2501 36.926 43.0754C37.2144 42.8994 37.5422 42.8113 37.9096 42.8113C38.1356 42.8113 38.3463 42.8439 38.5418 42.9091C38.7386 42.9728 38.9154 43.0671 39.072 43.1919C39.2287 43.3152 39.3583 43.4663 39.4609 43.6452C39.5635 43.8226 39.6328 44.0257 39.6688 44.2545ZM41.2587 47.1989C41.0563 47.1989 40.8733 47.1615 40.7098 47.0866C40.5462 47.0104 40.4166 46.9002 40.3209 46.756C40.2266 46.6118 40.1795 46.4351 40.1795 46.2258C40.1795 46.0455 40.2142 45.8972 40.2835 45.7808C40.3528 45.6643 40.4464 45.5721 40.5642 45.5042C40.682 45.4363 40.8137 45.385 40.9593 45.3503C41.1048 45.3157 41.2532 45.2893 41.4043 45.2713C41.5956 45.2491 41.7509 45.2311 41.8701 45.2172C41.9893 45.202 42.0759 45.1777 42.13 45.1445C42.1841 45.1112 42.2111 45.0571 42.2111 44.9823V44.9677C42.2111 44.7861 42.1598 44.6454 42.0572 44.5456C41.956 44.4458 41.8049 44.3959 41.6039 44.3959C41.3946 44.3959 41.2296 44.4423 41.109 44.5352C40.9898 44.6267 40.9073 44.7286 40.8616 44.8409L40.2772 44.7078C40.3465 44.5137 40.4477 44.357 40.5808 44.2378C40.7153 44.1172 40.8699 44.0299 41.0445 43.9758C41.2192 43.9204 41.4029 43.8926 41.5956 43.8926C41.7231 43.8926 41.8583 43.9079 42.0011 43.9384C42.1453 43.9675 42.2797 44.0216 42.4045 44.1006C42.5306 44.1796 42.6339 44.2926 42.7143 44.4395C42.7947 44.5851 42.8349 44.7743 42.8349 45.0072V47.1282H42.2277V46.6916H42.2028C42.1626 46.772 42.1023 46.851 42.0219 46.9286C41.9415 47.0062 41.8382 47.0707 41.712 47.122C41.5859 47.1733 41.4348 47.1989 41.2587 47.1989ZM41.3939 46.6999C41.5658 46.6999 41.7127 46.6659 41.8347 46.598C41.9581 46.5301 42.0517 46.4413 42.1155 46.3318C42.1806 46.2209 42.2132 46.1024 42.2132 45.9762V45.5645C42.191 45.5867 42.148 45.6075 42.0843 45.6269C42.0219 45.6449 41.9505 45.6608 41.8701 45.6747C41.7897 45.6872 41.7114 45.699 41.6351 45.7101C41.5589 45.7198 41.4951 45.7281 41.4438 45.735C41.3232 45.7503 41.213 45.7759 41.1132 45.812C41.0147 45.848 40.9357 45.9 40.8761 45.9679C40.8179 46.0345 40.7888 46.1232 40.7888 46.2341C40.7888 46.388 40.8456 46.5044 40.9593 46.5834C41.073 46.6611 41.2178 46.6999 41.3939 46.6999ZM45.9979 44.714L45.4344 44.8138C45.4109 44.7417 45.3734 44.6731 45.3221 44.608C45.2722 44.5428 45.2043 44.4894 45.1183 44.4478C45.0324 44.4063 44.925 44.3855 44.796 44.3855C44.62 44.3855 44.473 44.425 44.3552 44.504C44.2374 44.5816 44.1784 44.6821 44.1784 44.8055C44.1784 44.9122 44.218 44.9982 44.297 45.0634C44.376 45.1285 44.5035 45.1819 44.6796 45.2235L45.187 45.3399C45.4809 45.4078 45.6999 45.5125 45.8441 45.6539C45.9882 45.7953 46.0603 45.979 46.0603 46.205C46.0603 46.3963 46.0049 46.5668 45.894 46.7165C45.7845 46.8648 45.6313 46.9813 45.4344 47.0659C45.239 47.1504 45.0123 47.1927 44.7544 47.1927C44.3968 47.1927 44.105 47.1165 43.879 46.964C43.653 46.8101 43.5144 46.5917 43.4631 46.3089L44.0641 46.2174C44.1015 46.3741 44.1784 46.4926 44.2949 46.573C44.4113 46.652 44.5631 46.6916 44.7503 46.6916C44.9541 46.6916 45.117 46.6493 45.239 46.5647C45.3609 46.4788 45.4219 46.3741 45.4219 46.2507C45.4219 46.1509 45.3845 46.067 45.3097 45.9991C45.2362 45.9312 45.1232 45.8799 44.9707 45.8452L44.4301 45.7267C44.132 45.6588 43.9116 45.5506 43.7688 45.4023C43.6274 45.254 43.5567 45.0661 43.5567 44.8388C43.5567 44.6502 43.6094 44.4853 43.7147 44.3439C43.8201 44.2025 43.9656 44.0923 44.1514 44.0132C44.3372 43.9328 44.55 43.8926 44.7898 43.8926C45.135 43.8926 45.4067 43.9675 45.6049 44.1172C45.8032 44.2655 45.9342 44.4645 45.9979 44.714ZM47.3071 45.2318V47.1282H46.6854V42.8696H47.2988V44.4541H47.3383C47.4132 44.2822 47.5276 44.1456 47.6814 44.0444C47.8353 43.9432 48.0363 43.8926 48.2845 43.8926C48.5035 43.8926 48.6948 43.9377 48.8584 44.0278C49.0234 44.1179 49.1509 44.2524 49.241 44.4312C49.3325 44.6087 49.3783 44.8305 49.3783 45.0966V47.1282H48.7565V45.1715C48.7565 44.9372 48.6962 44.7556 48.5756 44.6267C48.455 44.4964 48.2872 44.4312 48.0724 44.4312C47.9254 44.4312 47.7937 44.4624 47.6773 44.5248C47.5622 44.5872 47.4714 44.6787 47.4049 44.7993C47.3397 44.9185 47.3071 45.0627 47.3071 45.2318Z" fill="black" fill-opacity="0.7"/>
<rect x="66.8942" y="40.7364" width="8.78354" height="8.78354" rx="4.39177" stroke="#7738CF" stroke-width="0.975949"/>
<rect x="25.4644" y="40.4639" width="8.78354" height="8.78354" rx="4.39177" stroke="#7738CF" stroke-width="0.975949"/>
<path d="M81.1467 44.2545H80.4979C80.473 44.1158 80.4265 43.9938 80.3586 43.8885C80.2907 43.7831 80.2075 43.6937 80.1091 43.6202C80.0107 43.5468 79.9004 43.4913 79.7784 43.4539C79.6578 43.4164 79.5296 43.3977 79.3938 43.3977C79.1484 43.3977 78.9287 43.4594 78.7346 43.5828C78.5419 43.7062 78.3894 43.8871 78.2771 44.1255C78.1662 44.364 78.1107 44.6551 78.1107 44.9989C78.1107 45.3455 78.1662 45.638 78.2771 45.8764C78.3894 46.1149 78.5426 46.2951 78.7367 46.4171C78.9307 46.5391 79.1491 46.6001 79.3917 46.6001C79.5261 46.6001 79.6537 46.582 79.7743 46.546C79.8963 46.5086 80.0065 46.4538 80.1049 46.3817C80.2033 46.3096 80.2865 46.2216 80.3545 46.1176C80.4238 46.0123 80.4716 45.8917 80.4979 45.7558L81.1467 45.7579C81.1121 45.9672 81.0448 46.1599 80.945 46.336C80.8466 46.5106 80.7197 46.6617 80.5645 46.7893C80.4106 46.9154 80.2345 47.0132 80.0363 47.0825C79.8381 47.1518 79.6218 47.1865 79.3875 47.1865C79.0188 47.1865 78.6902 47.0991 78.4019 46.9245C78.1135 46.7484 77.8862 46.4968 77.7198 46.1696C77.5548 45.8425 77.4724 45.4522 77.4724 44.9989C77.4724 44.5442 77.5555 44.1539 77.7219 43.8282C77.8882 43.501 78.1156 43.2501 78.4039 43.0754C78.6923 42.8994 79.0201 42.8113 79.3875 42.8113C79.6135 42.8113 79.8242 42.8439 80.0197 42.9091C80.2165 42.9728 80.3933 43.0671 80.5499 43.1919C80.7066 43.3152 80.8362 43.4663 80.9388 43.6452C81.0414 43.8226 81.1107 44.0257 81.1467 44.2545ZM82.7366 47.1989C82.5342 47.1989 82.3512 47.1615 82.1877 47.0866C82.0241 47.0104 81.8945 46.9002 81.7988 46.756C81.7045 46.6118 81.6574 46.4351 81.6574 46.2258C81.6574 46.0455 81.6921 45.8972 81.7614 45.7808C81.8307 45.6643 81.9243 45.5721 82.0421 45.5042C82.1599 45.4363 82.2916 45.385 82.4372 45.3503C82.5828 45.3157 82.7311 45.2893 82.8822 45.2713C83.0735 45.2491 83.2288 45.2311 83.348 45.2172C83.4672 45.202 83.5539 45.1777 83.6079 45.1445C83.662 45.1112 83.689 45.0571 83.689 44.9823V44.9677C83.689 44.7861 83.6377 44.6454 83.5351 44.5456C83.4339 44.4458 83.2828 44.3959 83.0818 44.3959C82.8725 44.3959 82.7075 44.4423 82.5869 44.5352C82.4677 44.6267 82.3852 44.7286 82.3395 44.8409L81.7551 44.7078C81.8245 44.5137 81.9257 44.357 82.0587 44.2378C82.1932 44.1172 82.3478 44.0299 82.5225 43.9758C82.6971 43.9204 82.8808 43.8926 83.0735 43.8926C83.201 43.8926 83.3362 43.9079 83.479 43.9384C83.6232 43.9675 83.7576 44.0216 83.8824 44.1006C84.0086 44.1796 84.1118 44.2926 84.1922 44.4395C84.2726 44.5851 84.3128 44.7743 84.3128 45.0072V47.1282H83.7056V46.6916H83.6807C83.6405 46.772 83.5802 46.851 83.4998 46.9286C83.4194 47.0062 83.3161 47.0707 83.1899 47.122C83.0638 47.1733 82.9127 47.1989 82.7366 47.1989ZM82.8718 46.6999C83.0437 46.6999 83.1906 46.6659 83.3126 46.598C83.436 46.5301 83.5296 46.4413 83.5934 46.3318C83.6585 46.2209 83.6911 46.1024 83.6911 45.9762V45.5645C83.6689 45.5867 83.6259 45.6075 83.5622 45.6269C83.4998 45.6449 83.4284 45.6608 83.348 45.6747C83.2676 45.6872 83.1893 45.699 83.113 45.7101C83.0368 45.7198 82.973 45.7281 82.9217 45.735C82.8011 45.7503 82.6909 45.7759 82.5911 45.812C82.4926 45.848 82.4136 45.9 82.354 45.9679C82.2958 46.0345 82.2667 46.1232 82.2667 46.2341C82.2667 46.388 82.3235 46.5044 82.4372 46.5834C82.5509 46.6611 82.6957 46.6999 82.8718 46.6999ZM85.0824 47.1282V43.9342H85.6834V44.4416H85.7167C85.7749 44.2697 85.8775 44.1345 86.0244 44.0361C86.1727 43.9363 86.3405 43.8864 86.5276 43.8864C86.5664 43.8864 86.6122 43.8878 86.6649 43.8906C86.7189 43.8933 86.7612 43.8968 86.7917 43.901V44.4957C86.7668 44.4887 86.7224 44.4811 86.6586 44.4728C86.5949 44.4631 86.5311 44.4582 86.4673 44.4582C86.3204 44.4582 86.1894 44.4894 86.0743 44.5518C85.9606 44.6128 85.8705 44.6981 85.804 44.8076C85.7374 44.9157 85.7042 45.0391 85.7042 45.1777V47.1282H85.0824ZM88.3525 47.1906C88.0947 47.1906 87.8645 47.1248 87.6622 46.9931C87.4611 46.86 87.3031 46.6708 87.188 46.4254C87.0744 46.1786 87.0175 45.8827 87.0175 45.5375C87.0175 45.1923 87.0751 44.897 87.1901 44.6516C87.3066 44.4063 87.466 44.2184 87.6684 44.0881C87.8708 43.9578 88.1002 43.8926 88.3567 43.8926C88.5549 43.8926 88.7143 43.9259 88.835 43.9924C88.9569 44.0576 89.0512 44.1338 89.1178 44.2212C89.1857 44.3085 89.2384 44.3855 89.2758 44.452H89.3132V42.8696H89.935V47.1282H89.3278V46.6312H89.2758C89.2384 46.6992 89.1843 46.7768 89.1136 46.8641C89.0443 46.9515 88.9486 47.0277 88.8266 47.0929C88.7046 47.158 88.5466 47.1906 88.3525 47.1906ZM88.4898 46.6604C88.6686 46.6604 88.8197 46.6132 88.9431 46.519C89.0678 46.4233 89.1621 46.2909 89.2259 46.1218C89.291 45.9527 89.3236 45.7558 89.3236 45.5312C89.3236 45.3094 89.2917 45.1153 89.228 44.949C89.1642 44.7826 89.0706 44.653 88.9472 44.5601C88.8239 44.4673 88.6714 44.4208 88.4898 44.4208C88.3026 44.4208 88.1467 44.4693 88.0219 44.5664C87.8971 44.6634 87.8029 44.7958 87.7391 44.9635C87.6767 45.1313 87.6455 45.3205 87.6455 45.5312C87.6455 45.7447 87.6774 45.9367 87.7412 46.1072C87.8049 46.2777 87.8992 46.4129 88.024 46.5127C88.1501 46.6111 88.3054 46.6604 88.4898 46.6604Z" fill="black" fill-opacity="0.7"/>
<rect x="107.396" y="40.7364" width="8.78354" height="8.78354" rx="4.39177" stroke="#7738CF" stroke-width="0.975949"/>
<path d="M118.111 47.1282V42.8696H119.671C119.973 42.8696 120.223 42.9195 120.422 43.0193C120.62 43.1177 120.768 43.2515 120.867 43.4206C120.965 43.5883 121.014 43.7776 121.014 43.9883C121.014 44.1657 120.982 44.3155 120.917 44.4374C120.851 44.5581 120.764 44.6551 120.655 44.7286C120.546 44.8007 120.427 44.8533 120.297 44.8866V44.9282C120.438 44.9351 120.576 44.9809 120.711 45.0654C120.847 45.1486 120.959 45.2671 121.048 45.421C121.136 45.5749 121.181 45.762 121.181 45.9825C121.181 46.2001 121.129 46.3956 121.027 46.5689C120.926 46.7408 120.769 46.8773 120.557 46.9785C120.345 47.0783 120.074 47.1282 119.744 47.1282H118.111ZM118.754 46.5772H119.681C119.989 46.5772 120.21 46.5176 120.343 46.3984C120.476 46.2791 120.542 46.1301 120.542 45.9513C120.542 45.8168 120.508 45.6934 120.44 45.5811C120.372 45.4688 120.275 45.3794 120.149 45.3129C120.024 45.2463 119.876 45.2131 119.704 45.2131H118.754V46.5772ZM118.754 44.7119H119.615C119.759 44.7119 119.889 44.6842 120.004 44.6288C120.12 44.5733 120.212 44.4957 120.28 44.3959C120.35 44.2947 120.384 44.1754 120.384 44.0382C120.384 43.8621 120.323 43.7145 120.199 43.5953C120.076 43.4761 119.887 43.4164 119.631 43.4164H118.754V44.7119ZM123.18 47.1927C122.88 47.1927 122.619 47.1241 122.396 46.9868C122.173 46.8496 121.999 46.6576 121.876 46.4108C121.753 46.1641 121.691 45.8757 121.691 45.5458C121.691 45.2145 121.753 44.9247 121.876 44.6766C121.999 44.4284 122.173 44.2357 122.396 44.0985C122.619 43.9613 122.88 43.8926 123.18 43.8926C123.479 43.8926 123.74 43.9613 123.964 44.0985C124.187 44.2357 124.36 44.4284 124.483 44.6766C124.607 44.9247 124.669 45.2145 124.669 45.5458C124.669 45.8757 124.607 46.1641 124.483 46.4108C124.36 46.6576 124.187 46.8496 123.964 46.9868C123.74 47.1241 123.479 47.1927 123.18 47.1927ZM123.182 46.6708C123.376 46.6708 123.537 46.6195 123.664 46.5169C123.792 46.4143 123.886 46.2777 123.947 46.1072C124.009 45.9367 124.041 45.7489 124.041 45.5437C124.041 45.3399 124.009 45.1528 123.947 44.9823C123.886 44.8104 123.792 44.6724 123.664 44.5684C123.537 44.4645 123.376 44.4125 123.182 44.4125C122.986 44.4125 122.824 44.4645 122.695 44.5684C122.568 44.6724 122.473 44.8104 122.41 44.9823C122.349 45.1528 122.319 45.3399 122.319 45.5437C122.319 45.7489 122.349 45.9367 122.41 46.1072C122.473 46.2777 122.568 46.4143 122.695 46.5169C122.824 46.6195 122.986 46.6708 123.182 46.6708ZM126.795 43.9342V44.4333H125.05V43.9342H126.795ZM125.518 43.169H126.14V46.1904C126.14 46.311 126.158 46.4018 126.194 46.4628C126.23 46.5224 126.277 46.5633 126.333 46.5855C126.392 46.6063 126.455 46.6167 126.523 46.6167C126.572 46.6167 126.616 46.6132 126.654 46.6063C126.691 46.5994 126.72 46.5938 126.741 46.5897L126.853 47.1033C126.817 47.1171 126.766 47.131 126.699 47.1449C126.633 47.1601 126.55 47.1684 126.45 47.1698C126.286 47.1726 126.134 47.1435 125.992 47.0825C125.851 47.0215 125.737 46.9272 125.649 46.7997C125.562 46.6721 125.518 46.512 125.518 46.3193V43.169ZM128.115 45.2318V47.1282H127.493V42.8696H128.106V44.4541H128.146C128.221 44.2822 128.335 44.1456 128.489 44.0444C128.643 43.9432 128.844 43.8926 129.092 43.8926C129.311 43.8926 129.502 43.9377 129.666 44.0278C129.831 44.1179 129.958 44.2524 130.048 44.4312C130.14 44.6087 130.186 44.8305 130.186 45.0966V47.1282H129.564V45.1715C129.564 44.9372 129.504 44.7556 129.383 44.6267C129.262 44.4964 129.095 44.4312 128.88 44.4312C128.733 44.4312 128.601 44.4624 128.485 44.5248C128.37 44.5872 128.279 44.6787 128.212 44.7993C128.147 44.9185 128.115 45.0627 128.115 45.2318Z" fill="black" fill-opacity="0.7"/>
<rect x="151.802" y="40.7364" width="8.78354" height="8.78354" rx="4.39177" stroke="#7738CF" stroke-width="0.975949"/>
<path d="M166.054 44.2545H165.405C165.38 44.1158 165.334 43.9938 165.266 43.8885C165.198 43.7831 165.115 43.6937 165.017 43.6202C164.918 43.5468 164.808 43.4913 164.686 43.4539C164.565 43.4164 164.437 43.3977 164.301 43.3977C164.056 43.3977 163.836 43.4594 163.642 43.5828C163.449 43.7062 163.297 43.8871 163.185 44.1255C163.074 44.364 163.018 44.6551 163.018 44.9989C163.018 45.3455 163.074 45.638 163.185 45.8764C163.297 46.1149 163.45 46.2951 163.644 46.4171C163.838 46.5391 164.057 46.6001 164.299 46.6001C164.434 46.6001 164.561 46.582 164.682 46.546C164.804 46.5086 164.914 46.4538 165.012 46.3817C165.111 46.3096 165.194 46.2216 165.262 46.1176C165.331 46.0123 165.379 45.8917 165.405 45.7558L166.054 45.7579C166.019 45.9672 165.952 46.1599 165.852 46.336C165.754 46.5106 165.627 46.6617 165.472 46.7893C165.318 46.9154 165.142 47.0132 164.944 47.0825C164.745 47.1518 164.529 47.1865 164.295 47.1865C163.926 47.1865 163.598 47.0991 163.309 46.9245C163.021 46.7484 162.794 46.4968 162.627 46.1696C162.462 45.8425 162.38 45.4522 162.38 44.9989C162.38 44.5442 162.463 44.1539 162.629 43.8282C162.796 43.501 163.023 43.2501 163.311 43.0754C163.6 42.8994 163.928 42.8113 164.295 42.8113C164.521 42.8113 164.732 42.8439 164.927 42.9091C165.124 42.9728 165.301 43.0671 165.457 43.1919C165.614 43.3152 165.744 43.4663 165.846 43.6452C165.949 43.8226 166.018 44.0257 166.054 44.2545ZM166.715 47.1282V43.9342H167.316V44.4416H167.349C167.407 44.2697 167.51 44.1345 167.657 44.0361C167.805 43.9363 167.973 43.8864 168.16 43.8864C168.199 43.8864 168.244 43.8878 168.297 43.8906C168.351 43.8933 168.393 43.8968 168.424 43.901V44.4957C168.399 44.4887 168.355 44.4811 168.291 44.4728C168.227 44.4631 168.163 44.4582 168.099 44.4582C167.953 44.4582 167.822 44.4894 167.706 44.5518C167.593 44.6128 167.503 44.6981 167.436 44.8076C167.37 44.9157 167.336 45.0391 167.336 45.1777V47.1282H166.715ZM170.166 47.1927C169.851 47.1927 169.58 47.1255 169.353 46.991C169.127 46.8551 168.952 46.6645 168.828 46.4191C168.707 46.1724 168.646 45.8833 168.646 45.552C168.646 45.2249 168.707 44.9365 168.828 44.687C168.952 44.4374 169.124 44.2427 169.344 44.1027C169.566 43.9626 169.825 43.8926 170.122 43.8926C170.302 43.8926 170.477 43.9224 170.646 43.982C170.815 44.0417 170.967 44.1352 171.101 44.2628C171.236 44.3903 171.342 44.556 171.419 44.7598C171.497 44.9622 171.536 45.2082 171.536 45.498V45.7184H168.997V45.2526H170.927C170.927 45.089 170.893 44.9441 170.827 44.818C170.76 44.6904 170.667 44.5899 170.546 44.5165C170.427 44.443 170.287 44.4063 170.126 44.4063C169.951 44.4063 169.799 44.4492 169.669 44.5352C169.54 44.6197 169.44 44.7306 169.369 44.8679C169.3 45.0037 169.265 45.1514 169.265 45.3108V45.6747C169.265 45.8882 169.303 46.0698 169.377 46.2195C169.454 46.3692 169.56 46.4836 169.696 46.5626C169.831 46.6403 169.99 46.6791 170.172 46.6791C170.29 46.6791 170.397 46.6624 170.494 46.6292C170.591 46.5945 170.675 46.5432 170.746 46.4753C170.816 46.4074 170.871 46.3235 170.908 46.2237L171.496 46.3297C171.449 46.503 171.365 46.6548 171.243 46.7851C171.122 46.9141 170.97 47.0146 170.787 47.0866C170.606 47.1573 170.398 47.1927 170.166 47.1927ZM173.363 47.1906C173.105 47.1906 172.875 47.1248 172.673 46.9931C172.472 46.86 172.313 46.6708 172.198 46.4254C172.085 46.1786 172.028 45.8827 172.028 45.5375C172.028 45.1923 172.085 44.897 172.2 44.6516C172.317 44.4063 172.476 44.2184 172.679 44.0881C172.881 43.9578 173.111 43.8926 173.367 43.8926C173.565 43.8926 173.725 43.9259 173.845 43.9924C173.967 44.0576 174.062 44.1338 174.128 44.2212C174.196 44.3085 174.249 44.3855 174.286 44.452H174.324V42.8696H174.945V47.1282H174.338V46.6312H174.286C174.249 46.6992 174.195 46.7768 174.124 46.8641C174.055 46.9515 173.959 47.0277 173.837 47.0929C173.715 47.158 173.557 47.1906 173.363 47.1906ZM173.5 46.6604C173.679 46.6604 173.83 46.6132 173.953 46.519C174.078 46.4233 174.172 46.2909 174.236 46.1218C174.301 45.9527 174.334 45.7558 174.334 45.5312C174.334 45.3094 174.302 45.1153 174.238 44.949C174.175 44.7826 174.081 44.653 173.958 44.5601C173.834 44.4673 173.682 44.4208 173.5 44.4208C173.313 44.4208 173.157 44.4693 173.032 44.5664C172.907 44.6634 172.813 44.7958 172.749 44.9635C172.687 45.1313 172.656 45.3205 172.656 45.5312C172.656 45.7447 172.688 45.9367 172.752 46.1072C172.815 46.2777 172.91 46.4129 173.034 46.5127C173.16 46.6111 173.316 46.6604 173.5 46.6604ZM175.774 47.1282V43.9342H176.396V47.1282H175.774ZM176.088 43.4414C175.98 43.4414 175.887 43.4054 175.81 43.3333C175.733 43.2598 175.695 43.1725 175.695 43.0713C175.695 42.9687 175.733 42.8813 175.81 42.8092C175.887 42.7358 175.98 42.699 176.088 42.699C176.196 42.699 176.289 42.7358 176.365 42.8092C176.442 42.8813 176.481 42.9687 176.481 43.0713C176.481 43.1725 176.442 43.2598 176.365 43.3333C176.289 43.4054 176.196 43.4414 176.088 43.4414ZM178.665 43.9342V44.4333H176.92V43.9342H178.665ZM177.388 43.169H178.01V46.1904C178.01 46.311 178.028 46.4018 178.064 46.4628C178.1 46.5224 178.146 46.5633 178.203 46.5855C178.261 46.6063 178.324 46.6167 178.392 46.6167C178.442 46.6167 178.486 46.6132 178.523 46.6063C178.561 46.5994 178.59 46.5938 178.611 46.5897L178.723 47.1033C178.687 47.1171 178.636 47.131 178.569 47.1449C178.503 47.1601 178.419 47.1684 178.32 47.1698C178.156 47.1726 178.004 47.1435 177.862 47.0825C177.721 47.0215 177.606 46.9272 177.519 46.7997C177.432 46.6721 177.388 46.512 177.388 46.3193V43.169Z" fill="black" fill-opacity="0.7"/>
<circle cx="30.0005" cy="45" r="2" fill="#7738CF"/>
</svg>
