<svg width="244" height="55" viewBox="0 0 244 55" fill="none" xmlns="http://www.w3.org/2000/svg">
<rect x="0.000488281" width="118.28" height="54.5662" rx="8.92683" fill="#F9F8FB"/>
<rect x="125.72" width="118.28" height="54.5662" rx="8.92683" fill="#F9F8FB"/>
<path d="M18.4514 34.4485C25.8874 34.4485 31.9154 28.4205 31.9154 20.9845C31.9154 13.5485 25.8874 7.52039 18.4514 7.52039C11.0154 7.52039 4.9873 13.5485 4.9873 20.9845C4.9873 28.4205 11.0154 34.4485 18.4514 34.4485Z" fill="#10AC84" fill-opacity="0.1"/>
<path d="M23.8512 18.6703H16.1374C15.2854 18.6703 14.5947 19.361 14.5947 20.213V24.8413C14.5947 25.6934 15.2854 26.3841 16.1374 26.3841H23.8512C24.7033 26.3841 25.394 25.6934 25.394 24.8413V20.213C25.394 19.361 24.7033 18.6703 23.8512 18.6703Z" stroke="#10AC84" stroke-width="1.11585" stroke-linecap="round" stroke-linejoin="round"/>
<path d="M19.9943 24.0699C20.8463 24.0699 21.537 23.3792 21.537 22.5271C21.537 21.6751 20.8463 20.9844 19.9943 20.9844C19.1422 20.9844 18.4515 21.6751 18.4515 22.5271C18.4515 23.3792 19.1422 24.0699 19.9943 24.0699Z" stroke="#10AC84" stroke-width="1.11585" stroke-linecap="round" stroke-linejoin="round"/>
<path d="M22.3085 18.6704V17.1276C22.3085 16.7184 22.1459 16.326 21.8566 16.0367C21.5673 15.7474 21.1749 15.5848 20.7657 15.5848H13.0519C12.6427 15.5848 12.2503 15.7474 11.961 16.0367C11.6717 16.326 11.5092 16.7184 11.5092 17.1276V21.7559C11.5092 22.165 11.6717 22.5574 11.961 22.8468C12.2503 23.1361 12.6427 23.2986 13.0519 23.2986H14.5947" stroke="#10AC84" stroke-width="1.11585" stroke-linecap="round" stroke-linejoin="round"/>
<path d="M45.9871 11.4423H45.0805C45.0456 11.2486 44.9807 11.0781 44.8858 10.9309C44.7909 10.7837 44.6747 10.6587 44.5371 10.5561C44.3996 10.4534 44.2456 10.3759 44.0751 10.3236C43.9065 10.2713 43.7273 10.2451 43.5375 10.2451C43.1946 10.2451 42.8876 10.3313 42.6163 10.5037C42.3471 10.6762 42.134 10.929 41.977 11.2622C41.8221 11.5954 41.7446 12.0022 41.7446 12.4826C41.7446 12.967 41.8221 13.3757 41.977 13.7089C42.134 14.0421 42.348 14.294 42.6192 14.4644C42.8905 14.6349 43.1956 14.7202 43.5346 14.7202C43.7225 14.7202 43.9007 14.695 44.0693 14.6446C44.2397 14.5923 44.3938 14.5158 44.5313 14.415C44.6688 14.3143 44.7851 14.1913 44.88 14.046C44.9769 13.8988 45.0437 13.7302 45.0805 13.5404L45.9871 13.5433C45.9387 13.8358 45.8448 14.1051 45.7053 14.3511C45.5677 14.5952 45.3905 14.8064 45.1735 14.9846C44.9585 15.1609 44.7124 15.2975 44.4354 15.3943C44.1584 15.4912 43.8562 15.5396 43.5288 15.5396C43.0135 15.5396 42.5543 15.4176 42.1514 15.1735C41.7485 14.9274 41.4307 14.5758 41.1983 14.1186C40.9677 13.6615 40.8525 13.1161 40.8525 12.4826C40.8525 11.8472 40.9687 11.3019 41.2012 10.8466C41.4336 10.3894 41.7514 10.0388 42.1543 9.79471C42.5573 9.54868 43.0154 9.42567 43.5288 9.42567C43.8446 9.42567 44.139 9.47119 44.4122 9.56224C44.6873 9.65136 44.9343 9.78309 45.1532 9.95744C45.3721 10.1299 45.5532 10.341 45.6966 10.5909C45.8399 10.8389 45.9368 11.1227 45.9871 11.4423ZM47.8963 15.4583H46.9432L49.0848 9.50703H50.1222L52.2638 15.4583H51.3107L49.6282 10.588H49.5817L47.8963 15.4583ZM48.0561 13.1277H51.148V13.8833H48.0561V13.1277ZM56.6931 11.0704C56.6621 10.7953 56.5342 10.5822 56.3095 10.4311C56.0848 10.2781 55.802 10.2015 55.461 10.2015C55.2169 10.2015 55.0058 10.2403 54.8275 10.3178C54.6493 10.3933 54.5108 10.4979 54.412 10.6316C54.3151 10.7633 54.2667 10.9135 54.2667 11.082C54.2667 11.2234 54.2996 11.3455 54.3655 11.4482C54.4333 11.5508 54.5214 11.637 54.6299 11.7068C54.7403 11.7746 54.8585 11.8317 54.9844 11.8782C55.1104 11.9228 55.2314 11.9596 55.3477 11.9886L55.9288 12.1397C56.1187 12.1862 56.3134 12.2492 56.5129 12.3286C56.7125 12.4081 56.8975 12.5127 57.068 12.6425C57.2384 12.7723 57.376 12.9331 57.4806 13.1248C57.5871 13.3166 57.6404 13.5462 57.6404 13.8135C57.6404 14.1506 57.5532 14.4499 57.3789 14.7114C57.2065 14.973 56.9556 15.1793 56.6263 15.3304C56.2989 15.4815 55.9027 15.5571 55.4378 15.5571C54.9922 15.5571 54.6067 15.4863 54.2812 15.3449C53.9558 15.2035 53.701 15.003 53.517 14.7434C53.3329 14.4819 53.2312 14.1719 53.2119 13.8135H54.1127C54.1301 14.0286 54.1999 14.2078 54.3219 14.3511C54.4459 14.4925 54.6038 14.5981 54.7956 14.6679C54.9893 14.7357 55.2014 14.7696 55.4319 14.7696C55.6857 14.7696 55.9114 14.7298 56.109 14.6504C56.3085 14.5691 56.4655 14.4567 56.5798 14.3133C56.6941 14.168 56.7512 13.9985 56.7512 13.8048C56.7512 13.6285 56.7008 13.4842 56.6001 13.3718C56.5013 13.2595 56.3667 13.1665 56.1962 13.0929C56.0276 13.0193 55.8368 12.9544 55.6237 12.8982L54.9205 12.7064C54.444 12.5766 54.0662 12.3858 53.7872 12.1339C53.5102 11.8821 53.3717 11.5489 53.3717 11.1343C53.3717 10.7914 53.4647 10.4921 53.6506 10.2364C53.8366 9.98069 54.0885 9.78212 54.4062 9.6407C54.7239 9.49735 55.0823 9.42567 55.4813 9.42567C55.8843 9.42567 56.2398 9.49638 56.5478 9.6378C56.8578 9.77922 57.1019 9.97391 57.2801 10.2219C57.4583 10.4679 57.5513 10.7507 57.559 11.0704H56.6931ZM59.0854 15.4583V9.50703H59.9833V12.0933H62.9502V9.50703H63.851V15.4583H62.9502V12.8633H59.9833V15.4583H59.0854ZM68.966 9.50703V15.4583H68.0681V9.50703H68.966ZM75.449 9.50703V15.4583H74.6238L71.5987 11.0936H71.5435V15.4583H70.6456V9.50703H71.4767L74.5046 13.8775H74.5598V9.50703H75.449ZM79.6683 15.4583V9.50703H80.5663V12.0933H83.5332V9.50703H84.434V15.4583H83.5332V12.8633H80.5663V15.4583H79.6683ZM86.6163 15.4583H85.6632L87.8048 9.50703H88.8422L90.9838 15.4583H90.0307L88.3482 10.588H88.3017L86.6163 15.4583ZM86.7761 13.1277H89.8679V13.8833H86.7761V13.1277ZM97.0186 9.50703V15.4583H96.1933L93.1683 11.0936H93.1131V15.4583H92.2152V9.50703H93.0462L96.0742 13.8775H96.1294V9.50703H97.0186ZM100.627 15.4583H98.7003V9.50703H100.688C101.271 9.50703 101.772 9.62617 102.19 9.86445C102.609 10.1008 102.929 10.4408 103.152 10.8844C103.377 11.3261 103.489 11.8559 103.489 12.4739C103.489 13.0938 103.376 13.6266 103.149 14.0722C102.925 14.5177 102.599 14.8606 102.173 15.1008C101.747 15.3391 101.231 15.4583 100.627 15.4583ZM99.5983 14.6737H100.578C101.031 14.6737 101.408 14.5884 101.708 14.418C102.008 14.2455 102.233 13.9966 102.382 13.6711C102.531 13.3437 102.606 12.9447 102.606 12.4739C102.606 12.007 102.531 11.6109 102.382 11.2854C102.235 10.96 102.015 10.713 101.722 10.5444C101.43 10.3759 101.067 10.2916 100.633 10.2916H99.5983V14.6737Z" fill="black"/>
<path d="M20.5542 47.6584V47.1259L22.2019 45.4188C22.3778 45.2334 22.5228 45.0709 22.637 44.9314C22.7527 44.7904 22.8391 44.6564 22.8961 44.5296C22.9532 44.4028 22.9817 44.2681 22.9817 44.1254C22.9817 43.9638 22.9437 43.8243 22.8676 43.707C22.7915 43.5881 22.6877 43.497 22.5561 43.4336C22.4246 43.3686 22.2764 43.3361 22.1115 43.3361C21.9372 43.3361 21.785 43.3718 21.655 43.4431C21.5251 43.5144 21.4252 43.6151 21.3555 43.745C21.2857 43.875 21.2509 44.0272 21.2509 44.2015H20.5495C20.5495 43.9051 20.6177 43.646 20.754 43.4241C20.8903 43.2022 21.0773 43.0302 21.3151 42.9081C21.5528 42.7845 21.8231 42.7227 22.1258 42.7227C22.4317 42.7227 22.7012 42.7837 22.9342 42.9058C23.1687 43.0262 23.3518 43.1911 23.4834 43.4003C23.6149 43.6079 23.6807 43.8425 23.6807 44.104C23.6807 44.2847 23.6466 44.4615 23.5785 44.6342C23.5119 44.807 23.3954 44.9996 23.229 45.212C23.0625 45.4228 22.8311 45.6788 22.5347 45.9799L21.5671 46.9927V47.0284H23.7592V47.6584H20.5542ZM25.0322 47.6584V47.1259L26.6798 45.4188C26.8558 45.2334 27.0008 45.0709 27.1149 44.9314C27.2306 44.7904 27.317 44.6564 27.3741 44.5296C27.4311 44.4028 27.4597 44.2681 27.4597 44.1254C27.4597 43.9638 27.4216 43.8243 27.3455 43.707C27.2694 43.5881 27.1656 43.497 27.0341 43.4336C26.9025 43.3686 26.7543 43.3361 26.5895 43.3361C26.4151 43.3361 26.263 43.3718 26.133 43.4431C26.003 43.5144 25.9032 43.6151 25.8334 43.745C25.7637 43.875 25.7288 44.0272 25.7288 44.2015H25.0274C25.0274 43.9051 25.0956 43.646 25.2319 43.4241C25.3682 43.2022 25.5552 43.0302 25.793 42.9081C26.0308 42.7845 26.301 42.7227 26.6037 42.7227C26.9096 42.7227 27.1791 42.7837 27.4121 42.9058C27.6467 43.0262 27.8298 43.1911 27.9613 43.4003C28.0929 43.6079 28.1586 43.8425 28.1586 44.104C28.1586 44.2847 28.1246 44.4615 28.0564 44.6342C27.9898 44.807 27.8733 44.9996 27.7069 45.212C27.5405 45.4228 27.3091 45.6788 27.0127 45.9799L26.045 46.9927V47.0284H28.2371V47.6584H25.0322ZM31.6713 44.9148V45.5329H29.5125V44.9148H31.6713ZM34.8285 42.7893V47.6584H34.0915V43.5263H34.063L32.898 44.2871V43.5834L34.1129 42.7893H34.8285ZM38.365 42.7893V47.6584H37.6279V43.5263H37.5994L36.4344 44.2871V43.5834L37.6493 42.7893H38.365ZM42.2153 44.9148V45.5329H40.0565V44.9148H42.2153ZM43.329 47.6584V47.1259L44.9766 45.4188C45.1526 45.2334 45.2976 45.0709 45.4117 44.9314C45.5274 44.7904 45.6138 44.6564 45.6709 44.5296C45.7279 44.4028 45.7565 44.2681 45.7565 44.1254C45.7565 43.9638 45.7184 43.8243 45.6423 43.707C45.5663 43.5881 45.4624 43.497 45.3309 43.4336C45.1993 43.3686 45.0511 43.3361 44.8863 43.3361C44.7119 43.3361 44.5598 43.3718 44.4298 43.4431C44.2998 43.5144 44.2 43.6151 44.1302 43.745C44.0605 43.875 44.0256 44.0272 44.0256 44.2015H43.3242C43.3242 43.9051 43.3924 43.646 43.5287 43.4241C43.665 43.2022 43.8521 43.0302 44.0898 42.9081C44.3276 42.7845 44.5978 42.7227 44.9005 42.7227C45.2065 42.7227 45.4759 42.7837 45.7089 42.9058C45.9435 43.0262 46.1266 43.1911 46.2581 43.4003C46.3897 43.6079 46.4554 43.8425 46.4554 44.104C46.4554 44.2847 46.4214 44.4615 46.3532 44.6342C46.2866 44.807 46.1701 44.9996 46.0037 45.212C45.8373 45.4228 45.6059 45.6788 45.3095 45.9799L44.3418 46.9927V47.0284H46.5339V47.6584H43.329ZM49.5021 47.7393C49.1265 47.7377 48.8055 47.6386 48.5392 47.4421C48.2729 47.2455 48.0693 46.9595 47.9282 46.5838C47.7871 46.2082 47.7166 45.7556 47.7166 45.2262C47.7166 44.6984 47.7871 44.2475 47.9282 43.8734C48.0708 43.4994 48.2753 43.2141 48.5416 43.0175C48.8095 42.821 49.1296 42.7227 49.5021 42.7227C49.8746 42.7227 50.194 42.8218 50.4603 43.0199C50.7265 43.2164 50.9302 43.5017 51.0713 43.8758C51.2139 44.2483 51.2853 44.6984 51.2853 45.2262C51.2853 45.7572 51.2147 46.2105 51.0737 46.5862C50.9326 46.9602 50.7289 47.2463 50.4626 47.4445C50.1964 47.641 49.8762 47.7393 49.5021 47.7393ZM49.5021 47.1045C49.8318 47.1045 50.0894 46.9436 50.2748 46.6218C50.4618 46.3001 50.5554 45.8349 50.5554 45.2262C50.5554 44.8221 50.5126 44.4805 50.427 44.2015C50.343 43.921 50.2217 43.7086 50.0632 43.5643C49.9063 43.4185 49.7193 43.3456 49.5021 43.3456C49.174 43.3456 48.9165 43.5073 48.7294 43.8306C48.5424 44.154 48.4481 44.6192 48.4465 45.2262C48.4465 45.632 48.4885 45.9752 48.5725 46.2557C48.6581 46.5347 48.7794 46.7463 48.9363 46.8905C49.0932 47.0332 49.2818 47.1045 49.5021 47.1045ZM52.5006 47.6584V47.1259L54.1483 45.4188C54.3242 45.2334 54.4692 45.0709 54.5834 44.9314C54.6991 44.7904 54.7855 44.6564 54.8425 44.5296C54.8996 44.4028 54.9281 44.2681 54.9281 44.1254C54.9281 43.9638 54.8901 43.8243 54.814 43.707C54.7379 43.5881 54.6341 43.497 54.5025 43.4336C54.371 43.3686 54.2228 43.3361 54.0579 43.3361C53.8836 43.3361 53.7314 43.3718 53.6014 43.4431C53.4715 43.5144 53.3716 43.6151 53.3019 43.745C53.2321 43.875 53.1973 44.0272 53.1973 44.2015H52.4959C52.4959 43.9051 52.564 43.646 52.7004 43.4241C52.8367 43.2022 53.0237 43.0302 53.2615 42.9081C53.4992 42.7845 53.7695 42.7227 54.0722 42.7227C54.3781 42.7227 54.6476 42.7837 54.8806 42.9058C55.1151 43.0262 55.2982 43.1911 55.4298 43.4003C55.5613 43.6079 55.6271 43.8425 55.6271 44.104C55.6271 44.2847 55.593 44.4615 55.5249 44.6342C55.4583 44.807 55.3418 44.9996 55.1754 45.212C55.0089 45.4228 54.7775 45.6788 54.4811 45.9799L53.5135 46.9927V47.0284H55.7056V47.6584H52.5006ZM56.9786 47.6584V47.1259L58.6262 45.4188C58.8022 45.2334 58.9472 45.0709 59.0613 44.9314C59.177 44.7904 59.2634 44.6564 59.3205 44.5296C59.3775 44.4028 59.406 44.2681 59.406 44.1254C59.406 43.9638 59.368 43.8243 59.2919 43.707C59.2158 43.5881 59.112 43.497 58.9805 43.4336C58.8489 43.3686 58.7007 43.3361 58.5359 43.3361C58.3615 43.3361 58.2094 43.3718 58.0794 43.4431C57.9494 43.5144 57.8496 43.6151 57.7798 43.745C57.7101 43.875 57.6752 44.0272 57.6752 44.2015H56.9738C56.9738 43.9051 57.042 43.646 57.1783 43.4241C57.3146 43.2022 57.5016 43.0302 57.7394 42.9081C57.9772 42.7845 58.2474 42.7227 58.5501 42.7227C58.856 42.7227 59.1255 42.7837 59.3585 42.9058C59.5931 43.0262 59.7761 43.1911 59.9077 43.4003C60.0393 43.6079 60.105 43.8425 60.105 44.104C60.105 44.2847 60.071 44.4615 60.0028 44.6342C59.9362 44.807 59.8197 44.9996 59.6533 45.212C59.4869 45.4228 59.2555 45.6788 58.9591 45.9799L57.9914 46.9927V47.0284H60.1835V47.6584H56.9786ZM67.4393 47.7393C67.0637 47.7377 66.7427 47.6386 66.4764 47.4421C66.2101 47.2455 66.0065 46.9595 65.8654 46.5838C65.7243 46.2082 65.6538 45.7556 65.6538 45.2262C65.6538 44.6984 65.7243 44.2475 65.8654 43.8734C66.0081 43.4994 66.2125 43.2141 66.4788 43.0175C66.7467 42.821 67.0668 42.7227 67.4393 42.7227C67.8118 42.7227 68.1312 42.8218 68.3975 43.0199C68.6638 43.2164 68.8674 43.5017 69.0085 43.8758C69.1511 44.2483 69.2225 44.6984 69.2225 45.2262C69.2225 45.7572 69.1519 46.2105 69.0109 46.5862C68.8698 46.9602 68.6661 47.2463 68.3998 47.4445C68.1336 47.641 67.8134 47.7393 67.4393 47.7393ZM67.4393 47.1045C67.769 47.1045 68.0266 46.9436 68.212 46.6218C68.3991 46.3001 68.4926 45.8349 68.4926 45.2262C68.4926 44.8221 68.4498 44.4805 68.3642 44.2015C68.2802 43.921 68.1589 43.7086 68.0004 43.5643C67.8435 43.4185 67.6565 43.3456 67.4393 43.3456C67.1112 43.3456 66.8537 43.5073 66.6666 43.8306C66.4796 44.154 66.3853 44.6192 66.3837 45.2262C66.3837 45.632 66.4257 45.9752 66.5097 46.2557C66.5953 46.5347 66.7166 46.7463 66.8735 46.8905C67.0304 47.0332 67.219 47.1045 67.4393 47.1045ZM72.133 47.7393C71.7574 47.7377 71.4364 47.6386 71.1701 47.4421C70.9038 47.2455 70.7002 46.9595 70.5591 46.5838C70.418 46.2082 70.3475 45.7556 70.3475 45.2262C70.3475 44.6984 70.418 44.2475 70.5591 43.8734C70.7018 43.4994 70.9062 43.2141 71.1725 43.0175C71.4404 42.821 71.7605 42.7227 72.133 42.7227C72.5055 42.7227 72.8249 42.8218 73.0912 43.0199C73.3575 43.2164 73.5611 43.5017 73.7022 43.8758C73.8448 44.2483 73.9162 44.6984 73.9162 45.2262C73.9162 45.7572 73.8456 46.2105 73.7046 46.5862C73.5635 46.9602 73.3598 47.2463 73.0935 47.4445C72.8273 47.641 72.5071 47.7393 72.133 47.7393ZM72.133 47.1045C72.4627 47.1045 72.7203 46.9436 72.9057 46.6218C73.0928 46.3001 73.1863 45.8349 73.1863 45.2262C73.1863 44.8221 73.1435 44.4805 73.0579 44.2015C72.9739 43.921 72.8526 43.7086 72.6941 43.5643C72.5372 43.4185 72.3502 43.3456 72.133 43.3456C71.8049 43.3456 71.5474 43.5073 71.3603 43.8306C71.1733 44.154 71.079 44.6192 71.0774 45.2262C71.0774 45.632 71.1194 45.9752 71.2034 46.2557C71.289 46.5347 71.4103 46.7463 71.5672 46.8905C71.7241 47.0332 71.9127 47.1045 72.133 47.1045ZM75.6094 47.0546C75.4795 47.0546 75.3677 47.0086 75.2742 46.9167C75.1807 46.8231 75.1339 46.7106 75.1339 46.579C75.1339 46.4491 75.1807 46.3381 75.2742 46.2462C75.3677 46.1527 75.4795 46.1059 75.6094 46.1059C75.7394 46.1059 75.8512 46.1527 75.9447 46.2462C76.0382 46.3381 76.0849 46.4491 76.0849 46.579C76.0849 46.6662 76.0628 46.7463 76.0184 46.8192C75.9756 46.8905 75.9185 46.9476 75.8472 46.9904C75.7759 47.0332 75.6966 47.0546 75.6094 47.0546ZM75.6094 44.6152C75.4795 44.6152 75.3677 44.5692 75.2742 44.4773C75.1807 44.3838 75.1339 44.2713 75.1339 44.1397C75.1339 44.0097 75.1807 43.8988 75.2742 43.8069C75.3677 43.7133 75.4795 43.6666 75.6094 43.6666C75.7394 43.6666 75.8512 43.7133 75.9447 43.8069C76.0382 43.8988 76.0849 44.0097 76.0849 44.1397C76.0849 44.2269 76.0628 44.3069 76.0184 44.3798C75.9756 44.4512 75.9185 44.5082 75.8472 44.551C75.7759 44.5938 75.6966 44.6152 75.6094 44.6152ZM79.0948 47.7393C78.7191 47.7377 78.3981 47.6386 78.1319 47.4421C77.8656 47.2455 77.6619 46.9595 77.5208 46.5838C77.3798 46.2082 77.3092 45.7556 77.3092 45.2262C77.3092 44.6984 77.3798 44.2475 77.5208 43.8734C77.6635 43.4994 77.868 43.2141 78.1342 43.0175C78.4021 42.821 78.7223 42.7227 79.0948 42.7227C79.4672 42.7227 79.7866 42.8218 80.0529 43.0199C80.3192 43.2164 80.5229 43.5017 80.6639 43.8758C80.8066 44.2483 80.8779 44.6984 80.8779 45.2262C80.8779 45.7572 80.8074 46.2105 80.6663 46.5862C80.5252 46.9602 80.3216 47.2463 80.0553 47.4445C79.789 47.641 79.4688 47.7393 79.0948 47.7393ZM79.0948 47.1045C79.4244 47.1045 79.682 46.9436 79.8675 46.6218C80.0545 46.3001 80.148 45.8349 80.148 45.2262C80.148 44.8221 80.1052 44.4805 80.0196 44.2015C79.9356 43.921 79.8144 43.7086 79.6559 43.5643C79.4989 43.4185 79.3119 43.3456 79.0948 43.3456C78.7667 43.3456 78.5091 43.5073 78.3221 43.8306C78.135 44.154 78.0407 44.6192 78.0391 45.2262C78.0391 45.632 78.0811 45.9752 78.1651 46.2557C78.2507 46.5347 78.372 46.7463 78.5289 46.8905C78.6858 47.0332 78.8744 47.1045 79.0948 47.1045ZM83.7885 47.7393C83.4128 47.7377 83.0919 47.6386 82.8256 47.4421C82.5593 47.2455 82.3556 46.9595 82.2145 46.5838C82.0735 46.2082 82.0029 45.7556 82.0029 45.2262C82.0029 44.6984 82.0735 44.2475 82.2145 43.8734C82.3572 43.4994 82.5617 43.2141 82.8279 43.0175C83.0958 42.821 83.416 42.7227 83.7885 42.7227C84.1609 42.7227 84.4803 42.8218 84.7466 43.0199C85.0129 43.2164 85.2166 43.5017 85.3576 43.8758C85.5003 44.2483 85.5716 44.6984 85.5716 45.2262C85.5716 45.7572 85.5011 46.2105 85.36 46.5862C85.2189 46.9602 85.0153 47.2463 84.749 47.4445C84.4827 47.641 84.1625 47.7393 83.7885 47.7393ZM83.7885 47.1045C84.1182 47.1045 84.3757 46.9436 84.5612 46.6218C84.7482 46.3001 84.8417 45.8349 84.8417 45.2262C84.8417 44.8221 84.7989 44.4805 84.7133 44.2015C84.6293 43.921 84.5081 43.7086 84.3496 43.5643C84.1926 43.4185 84.0056 43.3456 83.7885 43.3456C83.4604 43.3456 83.2028 43.5073 83.0158 43.8306C82.8287 44.154 82.7344 44.6192 82.7328 45.2262C82.7328 45.632 82.7748 45.9752 82.8589 46.2557C82.9444 46.5347 83.0657 46.7463 83.2226 46.8905C83.3795 47.0332 83.5681 47.1045 83.7885 47.1045ZM87.2649 47.0546C87.1349 47.0546 87.0232 47.0086 86.9296 46.9167C86.8361 46.8231 86.7894 46.7106 86.7894 46.579C86.7894 46.4491 86.8361 46.3381 86.9296 46.2462C87.0232 46.1527 87.1349 46.1059 87.2649 46.1059C87.3948 46.1059 87.5066 46.1527 87.6001 46.2462C87.6936 46.3381 87.7404 46.4491 87.7404 46.579C87.7404 46.6662 87.7182 46.7463 87.6738 46.8192C87.631 46.8905 87.574 46.9476 87.5026 46.9904C87.4313 47.0332 87.3521 47.0546 87.2649 47.0546ZM87.2649 44.6152C87.1349 44.6152 87.0232 44.5692 86.9296 44.4773C86.8361 44.3838 86.7894 44.2713 86.7894 44.1397C86.7894 44.0097 86.8361 43.8988 86.9296 43.8069C87.0232 43.7133 87.1349 43.6666 87.2649 43.6666C87.3948 43.6666 87.5066 43.7133 87.6001 43.8069C87.6936 43.8988 87.7404 44.0097 87.7404 44.1397C87.7404 44.2269 87.7182 44.3069 87.6738 44.3798C87.631 44.4512 87.574 44.5082 87.5026 44.551C87.4313 44.5938 87.3521 44.6152 87.2649 44.6152ZM90.7502 47.7393C90.3745 47.7377 90.0536 47.6386 89.7873 47.4421C89.521 47.2455 89.3173 46.9595 89.1763 46.5838C89.0352 46.2082 88.9647 45.7556 88.9647 45.2262C88.9647 44.6984 89.0352 44.2475 89.1763 43.8734C89.3189 43.4994 89.5234 43.2141 89.7897 43.0175C90.0575 42.821 90.3777 42.7227 90.7502 42.7227C91.1227 42.7227 91.4421 42.8218 91.7083 43.0199C91.9746 43.2164 92.1783 43.5017 92.3194 43.8758C92.462 44.2483 92.5333 44.6984 92.5333 45.2262C92.5333 45.7572 92.4628 46.2105 92.3217 46.5862C92.1807 46.9602 91.977 47.2463 91.7107 47.4445C91.4444 47.641 91.1243 47.7393 90.7502 47.7393ZM90.7502 47.1045C91.0799 47.1045 91.3374 46.9436 91.5229 46.6218C91.7099 46.3001 91.8034 45.8349 91.8034 45.2262C91.8034 44.8221 91.7606 44.4805 91.6751 44.2015C91.5911 43.921 91.4698 43.7086 91.3113 43.5643C91.1544 43.4185 90.9673 43.3456 90.7502 43.3456C90.4221 43.3456 90.1645 43.5073 89.9775 43.8306C89.7905 44.154 89.6962 44.6192 89.6946 45.2262C89.6946 45.632 89.7366 45.9752 89.8206 46.2557C89.9062 46.5347 90.0274 46.7463 90.1843 46.8905C90.3413 47.0332 90.5299 47.1045 90.7502 47.1045ZM95.4439 47.7393C95.0683 47.7377 94.7473 47.6386 94.481 47.4421C94.2147 47.2455 94.0111 46.9595 93.87 46.5838C93.7289 46.2082 93.6584 45.7556 93.6584 45.2262C93.6584 44.6984 93.7289 44.2475 93.87 43.8734C94.0126 43.4994 94.2171 43.2141 94.4834 43.0175C94.7513 42.821 95.0714 42.7227 95.4439 42.7227C95.8164 42.7227 96.1358 42.8218 96.4021 43.0199C96.6683 43.2164 96.872 43.5017 97.0131 43.8758C97.1557 44.2483 97.2271 44.6984 97.2271 45.2262C97.2271 45.7572 97.1565 46.2105 97.0155 46.5862C96.8744 46.9602 96.6707 47.2463 96.4044 47.4445C96.1381 47.641 95.818 47.7393 95.4439 47.7393ZM95.4439 47.1045C95.7736 47.1045 96.0312 46.9436 96.2166 46.6218C96.4036 46.3001 96.4972 45.8349 96.4972 45.2262C96.4972 44.8221 96.4544 44.4805 96.3688 44.2015C96.2848 43.921 96.1635 43.7086 96.005 43.5643C95.8481 43.4185 95.6611 43.3456 95.4439 43.3456C95.1158 43.3456 94.8582 43.5073 94.6712 43.8306C94.4842 44.154 94.3899 44.6192 94.3883 45.2262C94.3883 45.632 94.4303 45.9752 94.5143 46.2557C94.5999 46.5347 94.7211 46.7463 94.8781 46.8905C95.035 47.0332 95.2236 47.1045 95.4439 47.1045Z" fill="black" fill-opacity="0.4"/>
<path d="M146.274 47.6584V47.1259L147.921 45.4188C148.097 45.2334 148.242 45.0709 148.357 44.9314C148.472 44.7904 148.559 44.6564 148.616 44.5296C148.673 44.4028 148.701 44.2681 148.701 44.1254C148.701 43.9638 148.663 43.8243 148.587 43.707C148.511 43.5881 148.407 43.497 148.276 43.4336C148.144 43.3686 147.996 43.3361 147.831 43.3361C147.657 43.3361 147.505 43.3718 147.375 43.4431C147.245 43.5144 147.145 43.6151 147.075 43.745C147.005 43.875 146.97 44.0272 146.97 44.2015H146.269C146.269 43.9051 146.337 43.646 146.474 43.4241C146.61 43.2022 146.797 43.0302 147.035 42.9081C147.272 42.7845 147.543 42.7227 147.845 42.7227C148.151 42.7227 148.421 42.7837 148.654 42.9058C148.888 43.0262 149.071 43.1911 149.203 43.4003C149.334 43.6079 149.4 43.8425 149.4 44.104C149.4 44.2847 149.366 44.4615 149.298 44.6342C149.231 44.807 149.115 44.9996 148.949 45.212C148.782 45.4228 148.551 45.6788 148.254 45.9799L147.287 46.9927V47.0284H149.479V47.6584H146.274ZM150.752 47.6584V47.1259L152.399 45.4188C152.575 45.2334 152.72 45.0709 152.834 44.9314C152.95 44.7904 153.037 44.6564 153.094 44.5296C153.151 44.4028 153.179 44.2681 153.179 44.1254C153.179 43.9638 153.141 43.8243 153.065 43.707C152.989 43.5881 152.885 43.497 152.754 43.4336C152.622 43.3686 152.474 43.3361 152.309 43.3361C152.135 43.3361 151.983 43.3718 151.853 43.4431C151.723 43.5144 151.623 43.6151 151.553 43.745C151.483 43.875 151.448 44.0272 151.448 44.2015H150.747C150.747 43.9051 150.815 43.646 150.951 43.4241C151.088 43.2022 151.275 43.0302 151.513 42.9081C151.75 42.7845 152.021 42.7227 152.323 42.7227C152.629 42.7227 152.899 42.7837 153.132 42.9058C153.366 43.0262 153.549 43.1911 153.681 43.4003C153.812 43.6079 153.878 43.8425 153.878 44.104C153.878 44.2847 153.844 44.4615 153.776 44.6342C153.709 44.807 153.593 44.9996 153.426 45.212C153.26 45.4228 153.029 45.6788 152.732 45.9799L151.765 46.9927V47.0284H153.957V47.6584H150.752ZM157.391 44.9148V45.5329H155.232V44.9148H157.391ZM160.548 42.7893V47.6584H159.811V43.5263H159.783L158.618 44.2871V43.5834L159.832 42.7893H160.548ZM164.085 42.7893V47.6584H163.347V43.5263H163.319L162.154 44.2871V43.5834L163.369 42.7893H164.085ZM167.935 44.9148V45.5329H165.776V44.9148H167.935ZM169.049 47.6584V47.1259L170.696 45.4188C170.872 45.2334 171.017 45.0709 171.131 44.9314C171.247 44.7904 171.333 44.6564 171.39 44.5296C171.447 44.4028 171.476 44.2681 171.476 44.1254C171.476 43.9638 171.438 43.8243 171.362 43.707C171.286 43.5881 171.182 43.497 171.05 43.4336C170.919 43.3686 170.771 43.3361 170.606 43.3361C170.431 43.3361 170.279 43.3718 170.149 43.4431C170.019 43.5144 169.92 43.6151 169.85 43.745C169.78 43.875 169.745 44.0272 169.745 44.2015H169.044C169.044 43.9051 169.112 43.646 169.248 43.4241C169.385 43.2022 169.572 43.0302 169.809 42.9081C170.047 42.7845 170.317 42.7227 170.62 42.7227C170.926 42.7227 171.195 42.7837 171.428 42.9058C171.663 43.0262 171.846 43.1911 171.978 43.4003C172.109 43.6079 172.175 43.8425 172.175 44.104C172.175 44.2847 172.141 44.4615 172.073 44.6342C172.006 44.807 171.89 44.9996 171.723 45.212C171.557 45.4228 171.325 45.6788 171.029 45.9799L170.061 46.9927V47.0284H172.253V47.6584H169.049ZM175.222 47.7393C174.846 47.7377 174.525 47.6386 174.259 47.4421C173.992 47.2455 173.789 46.9595 173.648 46.5838C173.507 46.2082 173.436 45.7556 173.436 45.2262C173.436 44.6984 173.507 44.2475 173.648 43.8734C173.79 43.4994 173.995 43.2141 174.261 43.0175C174.529 42.821 174.849 42.7227 175.222 42.7227C175.594 42.7227 175.914 42.8218 176.18 43.0199C176.446 43.2164 176.65 43.5017 176.791 43.8758C176.933 44.2483 177.005 44.6984 177.005 45.2262C177.005 45.7572 176.934 46.2105 176.793 46.5862C176.652 46.9602 176.448 47.2463 176.182 47.4445C175.916 47.641 175.596 47.7393 175.222 47.7393ZM175.222 47.1045C175.551 47.1045 175.809 46.9436 175.994 46.6218C176.181 46.3001 176.275 45.8349 176.275 45.2262C176.275 44.8221 176.232 44.4805 176.147 44.2015C176.063 43.921 175.941 43.7086 175.783 43.5643C175.626 43.4185 175.439 43.3456 175.222 43.3456C174.894 43.3456 174.636 43.5073 174.449 43.8306C174.262 44.154 174.168 44.6192 174.166 45.2262C174.166 45.632 174.208 45.9752 174.292 46.2557C174.378 46.5347 174.499 46.7463 174.656 46.8905C174.813 47.0332 175.001 47.1045 175.222 47.1045ZM178.22 47.6584V47.1259L179.868 45.4188C180.044 45.2334 180.189 45.0709 180.303 44.9314C180.419 44.7904 180.505 44.6564 180.562 44.5296C180.619 44.4028 180.648 44.2681 180.648 44.1254C180.648 43.9638 180.61 43.8243 180.534 43.707C180.457 43.5881 180.354 43.497 180.222 43.4336C180.091 43.3686 179.942 43.3361 179.777 43.3361C179.603 43.3361 179.451 43.3718 179.321 43.4431C179.191 43.5144 179.091 43.6151 179.021 43.745C178.952 43.875 178.917 44.0272 178.917 44.2015H178.215C178.215 43.9051 178.284 43.646 178.42 43.4241C178.556 43.2022 178.743 43.0302 178.981 42.9081C179.219 42.7845 179.489 42.7227 179.792 42.7227C180.098 42.7227 180.367 42.7837 180.6 42.9058C180.835 43.0262 181.018 43.1911 181.149 43.4003C181.281 43.6079 181.347 43.8425 181.347 44.104C181.347 44.2847 181.313 44.4615 181.244 44.6342C181.178 44.807 181.061 44.9996 180.895 45.212C180.728 45.4228 180.497 45.6788 180.201 45.9799L179.233 46.9927V47.0284H181.425V47.6584H178.22ZM182.698 47.6584V47.1259L184.346 45.4188C184.522 45.2334 184.667 45.0709 184.781 44.9314C184.897 44.7904 184.983 44.6564 185.04 44.5296C185.097 44.4028 185.126 44.2681 185.126 44.1254C185.126 43.9638 185.088 43.8243 185.011 43.707C184.935 43.5881 184.832 43.497 184.7 43.4336C184.568 43.3686 184.42 43.3361 184.255 43.3361C184.081 43.3361 183.929 43.3718 183.799 43.4431C183.669 43.5144 183.569 43.6151 183.499 43.745C183.43 43.875 183.395 44.0272 183.395 44.2015H182.693C182.693 43.9051 182.762 43.646 182.898 43.4241C183.034 43.2022 183.221 43.0302 183.459 42.9081C183.697 42.7845 183.967 42.7227 184.27 42.7227C184.576 42.7227 184.845 42.7837 185.078 42.9058C185.313 43.0262 185.496 43.1911 185.627 43.4003C185.759 43.6079 185.825 43.8425 185.825 44.104C185.825 44.2847 185.791 44.4615 185.722 44.6342C185.656 44.807 185.539 44.9996 185.373 45.212C185.206 45.4228 184.975 45.6788 184.679 45.9799L183.711 46.9927V47.0284H185.903V47.6584H182.698ZM193.159 47.7393C192.783 47.7377 192.462 47.6386 192.196 47.4421C191.93 47.2455 191.726 46.9595 191.585 46.5838C191.444 46.2082 191.373 45.7556 191.373 45.2262C191.373 44.6984 191.444 44.2475 191.585 43.8734C191.728 43.4994 191.932 43.2141 192.198 43.0175C192.466 42.821 192.786 42.7227 193.159 42.7227C193.531 42.7227 193.851 42.8218 194.117 43.0199C194.383 43.2164 194.587 43.5017 194.728 43.8758C194.871 44.2483 194.942 44.6984 194.942 45.2262C194.942 45.7572 194.871 46.2105 194.73 46.5862C194.589 46.9602 194.386 47.2463 194.119 47.4445C193.853 47.641 193.533 47.7393 193.159 47.7393ZM193.159 47.1045C193.489 47.1045 193.746 46.9436 193.932 46.6218C194.119 46.3001 194.212 45.8349 194.212 45.2262C194.212 44.8221 194.169 44.4805 194.084 44.2015C194 43.921 193.878 43.7086 193.72 43.5643C193.563 43.4185 193.376 43.3456 193.159 43.3456C192.831 43.3456 192.573 43.5073 192.386 43.8306C192.199 44.154 192.105 44.6192 192.103 45.2262C192.103 45.632 192.145 45.9752 192.229 46.2557C192.315 46.5347 192.436 46.7463 192.593 46.8905C192.75 47.0332 192.939 47.1045 193.159 47.1045ZM197.853 47.7393C197.477 47.7377 197.156 47.6386 196.89 47.4421C196.623 47.2455 196.42 46.9595 196.279 46.5838C196.138 46.2082 196.067 45.7556 196.067 45.2262C196.067 44.6984 196.138 44.2475 196.279 43.8734C196.421 43.4994 196.626 43.2141 196.892 43.0175C197.16 42.821 197.48 42.7227 197.853 42.7227C198.225 42.7227 198.544 42.8218 198.811 43.0199C199.077 43.2164 199.281 43.5017 199.422 43.8758C199.564 44.2483 199.636 44.6984 199.636 45.2262C199.636 45.7572 199.565 46.2105 199.424 46.5862C199.283 46.9602 199.079 47.2463 198.813 47.4445C198.547 47.641 198.227 47.7393 197.853 47.7393ZM197.853 47.1045C198.182 47.1045 198.44 46.9436 198.625 46.6218C198.812 46.3001 198.906 45.8349 198.906 45.2262C198.906 44.8221 198.863 44.4805 198.777 44.2015C198.693 43.921 198.572 43.7086 198.414 43.5643C198.257 43.4185 198.07 43.3456 197.853 43.3456C197.524 43.3456 197.267 43.5073 197.08 43.8306C196.893 44.154 196.799 44.6192 196.797 45.2262C196.797 45.632 196.839 45.9752 196.923 46.2557C197.009 46.5347 197.13 46.7463 197.287 46.8905C197.444 47.0332 197.632 47.1045 197.853 47.1045ZM201.329 47.0546C201.199 47.0546 201.087 47.0086 200.994 46.9167C200.9 46.8231 200.853 46.7106 200.853 46.579C200.853 46.4491 200.9 46.3381 200.994 46.2462C201.087 46.1527 201.199 46.1059 201.329 46.1059C201.459 46.1059 201.571 46.1527 201.664 46.2462C201.758 46.3381 201.804 46.4491 201.804 46.579C201.804 46.6662 201.782 46.7463 201.738 46.8192C201.695 46.8905 201.638 46.9476 201.567 46.9904C201.495 47.0332 201.416 47.0546 201.329 47.0546ZM201.329 44.6152C201.199 44.6152 201.087 44.5692 200.994 44.4773C200.9 44.3838 200.853 44.2713 200.853 44.1397C200.853 44.0097 200.9 43.8988 200.994 43.8069C201.087 43.7133 201.199 43.6666 201.329 43.6666C201.459 43.6666 201.571 43.7133 201.664 43.8069C201.758 43.8988 201.804 44.0097 201.804 44.1397C201.804 44.2269 201.782 44.3069 201.738 44.3798C201.695 44.4512 201.638 44.5082 201.567 44.551C201.495 44.5938 201.416 44.6152 201.329 44.6152ZM204.814 47.7393C204.439 47.7377 204.118 47.6386 203.851 47.4421C203.585 47.2455 203.381 46.9595 203.24 46.5838C203.099 46.2082 203.029 45.7556 203.029 45.2262C203.029 44.6984 203.099 44.2475 203.24 43.8734C203.383 43.4994 203.587 43.2141 203.854 43.0175C204.122 42.821 204.442 42.7227 204.814 42.7227C205.187 42.7227 205.506 42.8218 205.772 43.0199C206.039 43.2164 206.242 43.5017 206.383 43.8758C206.526 44.2483 206.597 44.6984 206.597 45.2262C206.597 45.7572 206.527 46.2105 206.386 46.5862C206.245 46.9602 206.041 47.2463 205.775 47.4445C205.509 47.641 205.188 47.7393 204.814 47.7393ZM204.814 47.1045C205.144 47.1045 205.402 46.9436 205.587 46.6218C205.774 46.3001 205.868 45.8349 205.868 45.2262C205.868 44.8221 205.825 44.4805 205.739 44.2015C205.655 43.921 205.534 43.7086 205.375 43.5643C205.218 43.4185 205.031 43.3456 204.814 43.3456C204.486 43.3456 204.229 43.5073 204.042 43.8306C203.855 44.154 203.76 44.6192 203.759 45.2262C203.759 45.632 203.801 45.9752 203.885 46.2557C203.97 46.5347 204.092 46.7463 204.248 46.8905C204.405 47.0332 204.594 47.1045 204.814 47.1045ZM209.508 47.7393C209.132 47.7377 208.811 47.6386 208.545 47.4421C208.279 47.2455 208.075 46.9595 207.934 46.5838C207.793 46.2082 207.722 45.7556 207.722 45.2262C207.722 44.6984 207.793 44.2475 207.934 43.8734C208.077 43.4994 208.281 43.2141 208.547 43.0175C208.815 42.821 209.136 42.7227 209.508 42.7227C209.88 42.7227 210.2 42.8218 210.466 43.0199C210.732 43.2164 210.936 43.5017 211.077 43.8758C211.22 44.2483 211.291 44.6984 211.291 45.2262C211.291 45.7572 211.221 46.2105 211.08 46.5862C210.938 46.9602 210.735 47.2463 210.469 47.4445C210.202 47.641 209.882 47.7393 209.508 47.7393ZM209.508 47.1045C209.838 47.1045 210.095 46.9436 210.281 46.6218C210.468 46.3001 210.561 45.8349 210.561 45.2262C210.561 44.8221 210.518 44.4805 210.433 44.2015C210.349 43.921 210.228 43.7086 210.069 43.5643C209.912 43.4185 209.725 43.3456 209.508 43.3456C209.18 43.3456 208.922 43.5073 208.735 43.8306C208.548 44.154 208.454 44.6192 208.452 45.2262C208.452 45.632 208.494 45.9752 208.578 46.2557C208.664 46.5347 208.785 46.7463 208.942 46.8905C209.099 47.0332 209.288 47.1045 209.508 47.1045ZM212.984 47.0546C212.854 47.0546 212.743 47.0086 212.649 46.9167C212.556 46.8231 212.509 46.7106 212.509 46.579C212.509 46.4491 212.556 46.3381 212.649 46.2462C212.743 46.1527 212.854 46.1059 212.984 46.1059C213.114 46.1059 213.226 46.1527 213.32 46.2462C213.413 46.3381 213.46 46.4491 213.46 46.579C213.46 46.6662 213.438 46.7463 213.393 46.8192C213.351 46.8905 213.293 46.9476 213.222 46.9904C213.151 47.0332 213.072 47.0546 212.984 47.0546ZM212.984 44.6152C212.854 44.6152 212.743 44.5692 212.649 44.4773C212.556 44.3838 212.509 44.2713 212.509 44.1397C212.509 44.0097 212.556 43.8988 212.649 43.8069C212.743 43.7133 212.854 43.6666 212.984 43.6666C213.114 43.6666 213.226 43.7133 213.32 43.8069C213.413 43.8988 213.46 44.0097 213.46 44.1397C213.46 44.2269 213.438 44.3069 213.393 44.3798C213.351 44.4512 213.293 44.5082 213.222 44.551C213.151 44.5938 213.072 44.6152 212.984 44.6152ZM216.47 47.7393C216.094 47.7377 215.773 47.6386 215.507 47.4421C215.241 47.2455 215.037 46.9595 214.896 46.5838C214.755 46.2082 214.684 45.7556 214.684 45.2262C214.684 44.6984 214.755 44.2475 214.896 43.8734C215.038 43.4994 215.243 43.2141 215.509 43.0175C215.777 42.821 216.097 42.7227 216.47 42.7227C216.842 42.7227 217.162 42.8218 217.428 43.0199C217.694 43.2164 217.898 43.5017 218.039 43.8758C218.182 44.2483 218.253 44.6984 218.253 45.2262C218.253 45.7572 218.182 46.2105 218.041 46.5862C217.9 46.9602 217.697 47.2463 217.43 47.4445C217.164 47.641 216.844 47.7393 216.47 47.7393ZM216.47 47.1045C216.799 47.1045 217.057 46.9436 217.242 46.6218C217.429 46.3001 217.523 45.8349 217.523 45.2262C217.523 44.8221 217.48 44.4805 217.395 44.2015C217.311 43.921 217.189 43.7086 217.031 43.5643C216.874 43.4185 216.687 43.3456 216.47 43.3456C216.142 43.3456 215.884 43.5073 215.697 43.8306C215.51 44.154 215.416 44.6192 215.414 45.2262C215.414 45.632 215.456 45.9752 215.54 46.2557C215.626 46.5347 215.747 46.7463 215.904 46.8905C216.061 47.0332 216.249 47.1045 216.47 47.1045ZM221.163 47.7393C220.788 47.7377 220.467 47.6386 220.201 47.4421C219.934 47.2455 219.731 46.9595 219.59 46.5838C219.448 46.2082 219.378 45.7556 219.378 45.2262C219.378 44.6984 219.448 44.2475 219.59 43.8734C219.732 43.4994 219.937 43.2141 220.203 43.0175C220.471 42.821 220.791 42.7227 221.163 42.7227C221.536 42.7227 221.855 42.8218 222.122 43.0199C222.388 43.2164 222.592 43.5017 222.733 43.8758C222.875 44.2483 222.947 44.6984 222.947 45.2262C222.947 45.7572 222.876 46.2105 222.735 46.5862C222.594 46.9602 222.39 47.2463 222.124 47.4445C221.858 47.641 221.538 47.7393 221.163 47.7393ZM221.163 47.1045C221.493 47.1045 221.751 46.9436 221.936 46.6218C222.123 46.3001 222.217 45.8349 222.217 45.2262C222.217 44.8221 222.174 44.4805 222.088 44.2015C222.004 43.921 221.883 43.7086 221.725 43.5643C221.568 43.4185 221.381 43.3456 221.163 43.3456C220.835 43.3456 220.578 43.5073 220.391 43.8306C220.204 44.154 220.109 44.6192 220.108 45.2262C220.108 45.632 220.15 45.9752 220.234 46.2557C220.319 46.5347 220.441 46.7463 220.598 46.8905C220.755 47.0332 220.943 47.1045 221.163 47.1045Z" fill="black" fill-opacity="0.4"/>
<path d="M162.929 10.28V9.50703H167.535V10.28H165.678V15.4583H164.783V10.28H162.929ZM173.838 12.4826C173.838 13.1181 173.722 13.6644 173.49 14.1216C173.257 14.5768 172.938 14.9274 172.534 15.1735C172.131 15.4176 171.672 15.5396 171.159 15.5396C170.644 15.5396 170.184 15.4176 169.779 15.1735C169.376 14.9274 169.058 14.5758 168.826 14.1186C168.593 13.6615 168.477 13.1161 168.477 12.4826C168.477 11.8472 168.593 11.3019 168.826 10.8466C169.058 10.3894 169.376 10.0388 169.779 9.79471C170.184 9.54868 170.644 9.42567 171.159 9.42567C171.672 9.42567 172.131 9.54868 172.534 9.79471C172.938 10.0388 173.257 10.3894 173.49 10.8466C173.722 11.3019 173.838 11.8472 173.838 12.4826ZM172.949 12.4826C172.949 11.9983 172.871 11.5905 172.714 11.2593C172.559 10.9261 172.346 10.6742 172.074 10.5037C171.805 10.3313 171.5 10.2451 171.159 10.2451C170.816 10.2451 170.51 10.3313 170.241 10.5037C169.972 10.6742 169.758 10.9261 169.602 11.2593C169.447 11.5905 169.369 11.9983 169.369 12.4826C169.369 12.967 169.447 13.3757 169.602 13.7089C169.758 14.0402 169.972 14.292 170.241 14.4644C170.51 14.6349 170.816 14.7202 171.159 14.7202C171.5 14.7202 171.805 14.6349 172.074 14.4644C172.346 14.292 172.559 14.0402 172.714 13.7089C172.871 13.3757 172.949 12.967 172.949 12.4826ZM174.781 10.28V9.50703H179.386V10.28H177.529V15.4583H176.634V10.28H174.781ZM180.576 15.4583H179.622L181.764 9.50703H182.801L184.943 15.4583H183.99L182.307 10.588H182.261L180.576 15.4583ZM180.735 13.1277H183.827V13.8833H180.735V13.1277ZM186.174 15.4583V9.50703H187.072V14.6853H189.769V15.4583H186.174ZM193.703 15.4583V9.50703H197.434V10.28H194.601V12.0933H197.239V12.8633H194.601V14.6853H197.469V15.4583H193.703ZM199.63 9.50703L201.054 11.8346H201.1L202.524 9.50703H203.565L201.711 12.4826L203.576 15.4583H202.53L201.1 13.1626H201.054L199.624 15.4583H198.578L200.476 12.4826L198.59 9.50703H199.63ZM204.827 15.4583V9.50703H206.948C207.411 9.50703 207.795 9.5913 208.099 9.75984C208.403 9.92838 208.631 10.1589 208.782 10.4514C208.933 10.742 209.009 11.0694 209.009 11.4336C209.009 11.7998 208.932 12.1291 208.779 12.4216C208.628 12.7122 208.399 12.9427 208.093 13.1132C207.789 13.2818 207.407 13.366 206.946 13.366H205.487V12.6047H206.864C207.157 12.6047 207.394 12.5543 207.576 12.4536C207.758 12.3509 207.892 12.2114 207.977 12.0351C208.062 11.8588 208.105 11.6583 208.105 11.4336C208.105 11.2089 208.062 11.0094 207.977 10.835C207.892 10.6607 207.757 10.5241 207.573 10.4253C207.391 10.3265 207.151 10.2771 206.853 10.2771H205.725V15.4583H204.827ZM210.433 15.4583V9.50703H214.164V10.28H211.331V12.0933H213.97V12.8633H211.331V14.6853H214.199V15.4583H210.433ZM220.539 9.50703V15.4583H219.714L216.689 11.0936H216.634V15.4583H215.736V9.50703H216.567L219.595 13.8775H219.65V9.50703H220.539ZM225.467 11.0704C225.436 10.7953 225.308 10.5822 225.083 10.4311C224.859 10.2781 224.576 10.2015 224.235 10.2015C223.991 10.2015 223.78 10.2403 223.601 10.3178C223.423 10.3933 223.285 10.4979 223.186 10.6316C223.089 10.7633 223.04 10.9135 223.04 11.082C223.04 11.2234 223.073 11.3455 223.139 11.4482C223.207 11.5508 223.295 11.637 223.404 11.7068C223.514 11.7746 223.632 11.8317 223.758 11.8782C223.884 11.9228 224.005 11.9596 224.121 11.9886L224.703 12.1397C224.892 12.1862 225.087 12.2492 225.287 12.3286C225.486 12.4081 225.671 12.5127 225.842 12.6425C226.012 12.7723 226.15 12.9331 226.254 13.1248C226.361 13.3166 226.414 13.5462 226.414 13.8135C226.414 14.1506 226.327 14.4499 226.153 14.7114C225.98 14.973 225.729 15.1793 225.4 15.3304C225.073 15.4815 224.676 15.5571 224.212 15.5571C223.766 15.5571 223.38 15.4863 223.055 15.3449C222.73 15.2035 222.475 15.003 222.291 14.7434C222.107 14.4819 222.005 14.1719 221.986 13.8135H222.886C222.904 14.0286 222.974 14.2078 223.096 14.3511C223.22 14.4925 223.378 14.5981 223.569 14.6679C223.763 14.7357 223.975 14.7696 224.206 14.7696C224.459 14.7696 224.685 14.7298 224.883 14.6504C225.082 14.5691 225.239 14.4567 225.354 14.3133C225.468 14.168 225.525 13.9985 225.525 13.8048C225.525 13.6285 225.475 13.4842 225.374 13.3718C225.275 13.2595 225.14 13.1665 224.97 13.0929C224.801 13.0193 224.611 12.9544 224.397 12.8982L223.694 12.7064C223.218 12.5766 222.84 12.3858 222.561 12.1339C222.284 11.8821 222.145 11.5489 222.145 11.1343C222.145 10.7914 222.238 10.4921 222.424 10.2364C222.61 9.98069 222.862 9.78212 223.18 9.6407C223.498 9.49735 223.856 9.42567 224.255 9.42567C224.658 9.42567 225.014 9.49638 225.322 9.6378C225.632 9.77922 225.876 9.97391 226.054 10.2219C226.232 10.4679 226.325 10.7507 226.333 11.0704H225.467ZM227.859 15.4583V9.50703H231.59V10.28H228.757V12.0933H231.396V12.8633H228.757V14.6853H231.625V15.4583H227.859ZM236.407 11.0704C236.376 10.7953 236.249 10.5822 236.024 10.4311C235.799 10.2781 235.516 10.2015 235.175 10.2015C234.931 10.2015 234.72 10.2403 234.542 10.3178C234.364 10.3933 234.225 10.4979 234.126 10.6316C234.029 10.7633 233.981 10.9135 233.981 11.082C233.981 11.2234 234.014 11.3455 234.08 11.4482C234.148 11.5508 234.236 11.637 234.344 11.7068C234.455 11.7746 234.573 11.8317 234.699 11.8782C234.825 11.9228 234.946 11.9596 235.062 11.9886L235.643 12.1397C235.833 12.1862 236.028 12.2492 236.227 12.3286C236.427 12.4081 236.612 12.5127 236.782 12.6425C236.953 12.7723 237.09 12.9331 237.195 13.1248C237.301 13.3166 237.355 13.5462 237.355 13.8135C237.355 14.1506 237.268 14.4499 237.093 14.7114C236.921 14.973 236.67 15.1793 236.341 15.3304C236.013 15.4815 235.617 15.5571 235.152 15.5571C234.707 15.5571 234.321 15.4863 233.996 15.3449C233.67 15.2035 233.415 15.003 233.231 14.7434C233.047 14.4819 232.946 14.1719 232.926 13.8135H233.827C233.844 14.0286 233.914 14.2078 234.036 14.3511C234.16 14.4925 234.318 14.5981 234.51 14.6679C234.704 14.7357 234.916 14.7696 235.146 14.7696C235.4 14.7696 235.626 14.7298 235.823 14.6504C236.023 14.5691 236.18 14.4567 236.294 14.3133C236.408 14.168 236.466 13.9985 236.466 13.8048C236.466 13.6285 236.415 13.4842 236.314 13.3718C236.216 13.2595 236.081 13.1665 235.911 13.0929C235.742 13.0193 235.551 12.9544 235.338 12.8982L234.635 12.7064C234.158 12.5766 233.781 12.3858 233.502 12.1339C233.225 11.8821 233.086 11.5489 233.086 11.1343C233.086 10.7914 233.179 10.4921 233.365 10.2364C233.551 9.98069 233.803 9.78212 234.121 9.6407C234.438 9.49735 234.797 9.42567 235.196 9.42567C235.599 9.42567 235.954 9.49638 236.262 9.6378C236.572 9.77922 236.816 9.97391 236.994 10.2219C237.173 10.4679 237.266 10.7507 237.273 11.0704H236.407Z" fill="black"/>
<path d="M48.3635 25.8059L48.0259 27.0517H41.7159L42.0583 25.8059H48.3635ZM45.1918 33.1667L41.8633 29.163L41.8585 28.1074H43.5038C43.8969 28.1074 44.225 28.0424 44.4881 27.9124C44.7544 27.7793 44.9557 27.5938 45.092 27.3561C45.2315 27.1151 45.3012 26.833 45.3012 26.5097C45.3012 26.0247 45.1586 25.6347 44.8733 25.3399C44.588 25.0451 44.1315 24.8977 43.5038 24.8977H41.7159L42.0868 23.4284H43.5038C44.3026 23.4284 44.9636 23.552 45.4867 23.7993C46.0129 24.0434 46.406 24.3889 46.6659 24.8359C46.929 25.2829 47.0606 25.8059 47.0606 26.4051C47.0606 26.9345 46.9639 27.4068 46.7705 27.8221C46.5772 28.2373 46.2728 28.5781 45.8576 28.8444C45.4423 29.1107 44.8986 29.2882 44.2266 29.377L44.1695 29.396L47.1747 33.0812V33.1667H45.1918ZM48.373 23.4284L48.0259 24.6932L42.9094 24.6742L43.2565 23.4284H48.373ZM53.5234 33.1667V31.8924L56.9042 28.5781C57.2276 28.2516 57.497 27.9615 57.7126 27.7079C57.9281 27.4543 58.0898 27.2087 58.1976 26.9709C58.3054 26.7332 58.3593 26.4796 58.3593 26.2101C58.3593 25.9026 58.2895 25.6395 58.15 25.4208C58.0106 25.1989 57.8188 25.0277 57.5747 24.9072C57.3306 24.7868 57.0532 24.7265 56.7425 24.7265C56.4224 24.7265 56.1418 24.7931 55.9009 24.9262C55.66 25.0562 55.4729 25.2417 55.3398 25.4826C55.2098 25.7235 55.1448 26.0104 55.1448 26.3432H53.4663C53.4663 25.7251 53.6074 25.1878 53.8895 24.7313C54.1716 24.2748 54.56 23.9213 55.0545 23.6709C55.5522 23.4205 56.1228 23.2952 56.7663 23.2952C57.4193 23.2952 57.9931 23.4173 58.4877 23.6614C58.9822 23.9055 59.3658 24.2399 59.6384 24.6647C59.9142 25.0895 60.0521 25.5745 60.0521 26.1198C60.0521 26.4843 59.9823 26.8425 59.8428 27.1944C59.7034 27.5463 59.4577 27.9362 59.1058 28.3641C58.7571 28.7921 58.2673 29.3104 57.6365 29.919L55.958 31.6261V31.6927H60.1995V33.1667H53.5234ZM65.7074 33.3522C64.9244 33.3522 64.2523 33.1541 63.6912 32.7578C63.1333 32.3584 62.7037 31.783 62.4026 31.0317C62.1046 30.2773 61.9556 29.369 61.9556 28.3071C61.9588 27.2451 62.1094 26.3417 62.4073 25.5967C62.7085 24.8486 63.138 24.278 63.696 23.8849C64.2571 23.4918 64.9275 23.2952 65.7074 23.2952C66.4872 23.2952 67.1576 23.4918 67.7187 23.8849C68.2798 24.278 68.7094 24.8486 69.0074 25.5967C69.3085 26.3448 69.4591 27.2483 69.4591 28.3071C69.4591 29.3722 69.3085 30.282 69.0074 31.0365C68.7094 31.7878 68.2798 32.3616 67.7187 32.7578C67.1608 33.1541 66.4904 33.3522 65.7074 33.3522ZM65.7074 31.8639C66.316 31.8639 66.7963 31.5643 67.1481 30.9652C67.5032 30.3628 67.6807 29.4768 67.6807 28.3071C67.6807 27.5336 67.5999 26.8837 67.4382 26.3575C67.2765 25.8313 67.0483 25.435 66.7535 25.1687C66.4587 24.8993 66.1099 24.7646 65.7074 24.7646C65.1019 24.7646 64.6232 25.0657 64.2713 25.668C63.9194 26.2672 63.7419 27.1468 63.7388 28.3071C63.7356 29.0837 63.8133 29.7368 63.9718 30.2662C64.1334 30.7956 64.3617 31.195 64.6565 31.4644C64.9513 31.7307 65.3016 31.8639 65.7074 31.8639ZM74.9063 33.3522C74.1233 33.3522 73.4513 33.1541 72.8902 32.7578C72.3323 32.3584 71.9027 31.783 71.6016 31.0317C71.3036 30.2773 71.1546 29.369 71.1546 28.3071C71.1578 27.2451 71.3084 26.3417 71.6063 25.5967C71.9075 24.8486 72.337 24.278 72.895 23.8849C73.4561 23.4918 74.1265 23.2952 74.9063 23.2952C75.6862 23.2952 76.3566 23.4918 76.9177 23.8849C77.4788 24.278 77.9084 24.8486 78.2064 25.5967C78.5075 26.3448 78.6581 27.2483 78.6581 28.3071C78.6581 29.3722 78.5075 30.282 78.2064 31.0365C77.9084 31.7878 77.4788 32.3616 76.9177 32.7578C76.3598 33.1541 75.6893 33.3522 74.9063 33.3522ZM74.9063 31.8639C75.515 31.8639 75.9953 31.5643 76.3471 30.9652C76.7022 30.3628 76.8797 29.4768 76.8797 28.3071C76.8797 27.5336 76.7989 26.8837 76.6372 26.3575C76.4755 25.8313 76.2473 25.435 75.9525 25.1687C75.6576 24.8993 75.3089 24.7646 74.9063 24.7646C74.3009 24.7646 73.8222 25.0657 73.4703 25.668C73.1184 26.2672 72.9409 27.1468 72.9378 28.3071C72.9346 29.0837 73.0122 29.7368 73.1707 30.2662C73.3324 30.7956 73.5607 31.195 73.8555 31.4644C74.1503 31.7307 74.5006 31.8639 74.9063 31.8639ZM84.1053 33.3522C83.3223 33.3522 82.6503 33.1541 82.0892 32.7578C81.5313 32.3584 81.1017 31.783 80.8006 31.0317C80.5026 30.2773 80.3536 29.369 80.3536 28.3071C80.3568 27.2451 80.5073 26.3417 80.8053 25.5967C81.1065 24.8486 81.536 24.278 82.0939 23.8849C82.655 23.4918 83.3255 23.2952 84.1053 23.2952C84.8852 23.2952 85.5556 23.4918 86.1167 23.8849C86.6778 24.278 87.1074 24.8486 87.4053 25.5967C87.7065 26.3448 87.8571 27.2483 87.8571 28.3071C87.8571 29.3722 87.7065 30.282 87.4053 31.0365C87.1074 31.7878 86.6778 32.3616 86.1167 32.7578C85.5588 33.1541 84.8883 33.3522 84.1053 33.3522ZM84.1053 31.8639C84.714 31.8639 85.1942 31.5643 85.5461 30.9652C85.9012 30.3628 86.0787 29.4768 86.0787 28.3071C86.0787 27.5336 85.9979 26.8837 85.8362 26.3575C85.6745 25.8313 85.4463 25.435 85.1515 25.1687C84.8566 24.8993 84.5079 24.7646 84.1053 24.7646C83.4999 24.7646 83.0212 25.0657 82.6693 25.668C82.3174 26.2672 82.1399 27.1468 82.1367 28.3071C82.1336 29.0837 82.2112 29.7368 82.3697 30.2662C82.5314 30.7956 82.7597 31.195 83.0545 31.4644C83.3493 31.7307 83.6996 31.8639 84.1053 31.8639ZM93.3043 33.3522C92.5213 33.3522 91.8493 33.1541 91.2882 32.7578C90.7303 32.3584 90.3007 31.783 89.9996 31.0317C89.7016 30.2773 89.5526 29.369 89.5526 28.3071C89.5558 27.2451 89.7063 26.3417 90.0043 25.5967C90.3055 24.8486 90.735 24.278 91.2929 23.8849C91.854 23.4918 92.5245 23.2952 93.3043 23.2952C94.0842 23.2952 94.7546 23.4918 95.3157 23.8849C95.8768 24.278 96.3064 24.8486 96.6043 25.5967C96.9055 26.3448 97.0561 27.2483 97.0561 28.3071C97.0561 29.3722 96.9055 30.282 96.6043 31.0365C96.3064 31.7878 95.8768 32.3616 95.3157 32.7578C94.7578 33.1541 94.0873 33.3522 93.3043 33.3522ZM93.3043 31.8639C93.913 31.8639 94.3932 31.5643 94.7451 30.9652C95.1002 30.3628 95.2777 29.4768 95.2777 28.3071C95.2777 27.5336 95.1968 26.8837 95.0352 26.3575C94.8735 25.8313 94.6453 25.435 94.3504 25.1687C94.0556 24.8993 93.7069 24.7646 93.3043 24.7646C92.6989 24.7646 92.2202 25.0657 91.8683 25.668C91.5164 26.2672 91.3389 27.1468 91.3357 28.3071C91.3326 29.0837 91.4102 29.7368 91.5687 30.2662C91.7304 30.7956 91.9586 31.195 92.2535 31.4644C92.5483 31.7307 92.8986 31.8639 93.3043 31.8639ZM102.503 33.3522C101.72 33.3522 101.048 33.1541 100.487 32.7578C99.9293 32.3584 99.4997 31.783 99.1986 31.0317C98.9006 30.2773 98.7516 29.369 98.7516 28.3071C98.7548 27.2451 98.9053 26.3417 99.2033 25.5967C99.5045 24.8486 99.934 24.278 100.492 23.8849C101.053 23.4918 101.723 23.2952 102.503 23.2952C103.283 23.2952 103.954 23.4918 104.515 23.8849C105.076 24.278 105.505 24.8486 105.803 25.5967C106.104 26.3448 106.255 27.2483 106.255 28.3071C106.255 29.3722 106.104 30.282 105.803 31.0365C105.505 31.7878 105.076 32.3616 104.515 32.7578C103.957 33.1541 103.286 33.3522 102.503 33.3522ZM102.503 31.8639C103.112 31.8639 103.592 31.5643 103.944 30.9652C104.299 30.3628 104.477 29.4768 104.477 28.3071C104.477 27.5336 104.396 26.8837 104.234 26.3575C104.072 25.8313 103.844 25.435 103.549 25.1687C103.255 24.8993 102.906 24.7646 102.503 24.7646C101.898 24.7646 101.419 25.0657 101.067 25.668C100.715 26.2672 100.538 27.1468 100.535 28.3071C100.532 29.0837 100.609 29.7368 100.768 30.2662C100.929 30.7956 101.158 31.195 101.452 31.4644C101.747 31.7307 102.098 31.8639 102.503 31.8639Z" fill="black"/>
<path d="M175.94 25.8059L175.602 27.0517H169.292L169.635 25.8059H175.94ZM172.768 33.1667L169.44 29.163L169.435 28.1074H171.08C171.473 28.1074 171.801 28.0424 172.064 27.9124C172.331 27.7793 172.532 27.5938 172.668 27.3561C172.808 27.1151 172.878 26.833 172.878 26.5097C172.878 26.0247 172.735 25.6347 172.45 25.3399C172.164 25.0451 171.708 24.8977 171.08 24.8977H169.292L169.663 23.4284H171.08C171.879 23.4284 172.54 23.552 173.063 23.7993C173.589 24.0434 173.982 24.3889 174.242 24.8359C174.505 25.2829 174.637 25.8059 174.637 26.4051C174.637 26.9345 174.54 27.4068 174.347 27.8221C174.153 28.2373 173.849 28.5781 173.434 28.8444C173.019 29.1107 172.475 29.2882 171.803 29.377L171.746 29.396L174.751 33.0812V33.1667H172.768ZM175.949 23.4284L175.602 24.6932L170.486 24.6742L170.833 23.4284H175.949ZM181.1 33.1667V31.8924L184.481 28.5781C184.804 28.2516 185.073 27.9615 185.289 27.7079C185.504 27.4543 185.666 27.2087 185.774 26.9709C185.882 26.7332 185.936 26.4796 185.936 26.2101C185.936 25.9026 185.866 25.6395 185.726 25.4208C185.587 25.1989 185.395 25.0277 185.151 24.9072C184.907 24.7868 184.63 24.7265 184.319 24.7265C183.999 24.7265 183.718 24.7931 183.477 24.9262C183.236 25.0562 183.049 25.2417 182.916 25.4826C182.786 25.7235 182.721 26.0104 182.721 26.3432H181.043C181.043 25.7251 181.184 25.1878 181.466 24.7313C181.748 24.2748 182.136 23.9213 182.631 23.6709C183.128 23.4205 183.699 23.2952 184.343 23.2952C184.996 23.2952 185.569 23.4173 186.064 23.6614C186.558 23.9055 186.942 24.2399 187.215 24.6647C187.49 25.0895 187.628 25.5745 187.628 26.1198C187.628 26.4843 187.559 26.8425 187.419 27.1944C187.28 27.5463 187.034 27.9362 186.682 28.3641C186.333 28.7921 185.844 29.3104 185.213 29.919L183.534 31.6261V31.6927H187.776V33.1667H181.1ZM193.284 33.3522C192.501 33.3522 191.829 33.1541 191.268 32.7578C190.71 32.3584 190.28 31.783 189.979 31.0317C189.681 30.2773 189.532 29.369 189.532 28.3071C189.535 27.2451 189.686 26.3417 189.984 25.5967C190.285 24.8486 190.714 24.278 191.272 23.8849C191.833 23.4918 192.504 23.2952 193.284 23.2952C194.063 23.2952 194.734 23.4918 195.295 23.8849C195.856 24.278 196.286 24.8486 196.584 25.5967C196.885 26.3448 197.035 27.2483 197.035 28.3071C197.035 29.3722 196.885 30.282 196.584 31.0365C196.286 31.7878 195.856 32.3616 195.295 32.7578C194.737 33.1541 194.067 33.3522 193.284 33.3522ZM193.284 31.8639C193.892 31.8639 194.373 31.5643 194.724 30.9652C195.079 30.3628 195.257 29.4768 195.257 28.3071C195.257 27.5336 195.176 26.8837 195.014 26.3575C194.853 25.8313 194.625 25.435 194.33 25.1687C194.035 24.8993 193.686 24.7646 193.284 24.7646C192.678 24.7646 192.199 25.0657 191.848 25.668C191.496 26.2672 191.318 27.1468 191.315 28.3071C191.312 29.0837 191.39 29.7368 191.548 30.2662C191.71 30.7956 191.938 31.195 192.233 31.4644C192.528 31.7307 192.878 31.8639 193.284 31.8639ZM202.483 33.3522C201.7 33.3522 201.028 33.1541 200.466 32.7578C199.909 32.3584 199.479 31.783 199.178 31.0317C198.88 30.2773 198.731 29.369 198.731 28.3071C198.734 27.2451 198.885 26.3417 199.183 25.5967C199.484 24.8486 199.913 24.278 200.471 23.8849C201.032 23.4918 201.703 23.2952 202.483 23.2952C203.262 23.2952 203.933 23.4918 204.494 23.8849C205.055 24.278 205.485 24.8486 205.783 25.5967C206.084 26.3448 206.234 27.2483 206.234 28.3071C206.234 29.3722 206.084 30.282 205.783 31.0365C205.485 31.7878 205.055 32.3616 204.494 32.7578C203.936 33.1541 203.266 33.3522 202.483 33.3522ZM202.483 31.8639C203.091 31.8639 203.572 31.5643 203.923 30.9652C204.278 30.3628 204.456 29.4768 204.456 28.3071C204.456 27.5336 204.375 26.8837 204.213 26.3575C204.052 25.8313 203.824 25.435 203.529 25.1687C203.234 24.8993 202.885 24.7646 202.483 24.7646C201.877 24.7646 201.398 25.0657 201.047 25.668C200.695 26.2672 200.517 27.1468 200.514 28.3071C200.511 29.0837 200.589 29.7368 200.747 30.2662C200.909 30.7956 201.137 31.195 201.432 31.4644C201.727 31.7307 202.077 31.8639 202.483 31.8639ZM211.682 33.3522C210.899 33.3522 210.227 33.1541 209.665 32.7578C209.108 32.3584 208.678 31.783 208.377 31.0317C208.079 30.2773 207.93 29.369 207.93 28.3071C207.933 27.2451 208.084 26.3417 208.382 25.5967C208.683 24.8486 209.112 24.278 209.67 23.8849C210.231 23.4918 210.902 23.2952 211.682 23.2952C212.461 23.2952 213.132 23.4918 213.693 23.8849C214.254 24.278 214.684 24.8486 214.982 25.5967C215.283 26.3448 215.433 27.2483 215.433 28.3071C215.433 29.3722 215.283 30.282 214.982 31.0365C214.684 31.7878 214.254 32.3616 213.693 32.7578C213.135 33.1541 212.465 33.3522 211.682 33.3522ZM211.682 31.8639C212.29 31.8639 212.771 31.5643 213.122 30.9652C213.477 30.3628 213.655 29.4768 213.655 28.3071C213.655 27.5336 213.574 26.8837 213.412 26.3575C213.251 25.8313 213.023 25.435 212.728 25.1687C212.433 24.8993 212.084 24.7646 211.682 24.7646C211.076 24.7646 210.597 25.0657 210.246 25.668C209.894 26.2672 209.716 27.1468 209.713 28.3071C209.71 29.0837 209.788 29.7368 209.946 30.2662C210.108 30.7956 210.336 31.195 210.631 31.4644C210.926 31.7307 211.276 31.8639 211.682 31.8639ZM220.881 33.3522C220.098 33.3522 219.426 33.1541 218.864 32.7578C218.307 32.3584 217.877 31.783 217.576 31.0317C217.278 30.2773 217.129 29.369 217.129 28.3071C217.132 27.2451 217.283 26.3417 217.581 25.5967C217.882 24.8486 218.311 24.278 218.869 23.8849C219.43 23.4918 220.101 23.2952 220.881 23.2952C221.66 23.2952 222.331 23.4918 222.892 23.8849C223.453 24.278 223.883 24.8486 224.181 25.5967C224.482 26.3448 224.632 27.2483 224.632 28.3071C224.632 29.3722 224.482 30.282 224.181 31.0365C223.883 31.7878 223.453 32.3616 222.892 32.7578C222.334 33.1541 221.664 33.3522 220.881 33.3522ZM220.881 31.8639C221.489 31.8639 221.97 31.5643 222.321 30.9652C222.676 30.3628 222.854 29.4768 222.854 28.3071C222.854 27.5336 222.773 26.8837 222.611 26.3575C222.45 25.8313 222.222 25.435 221.927 25.1687C221.632 24.8993 221.283 24.7646 220.881 24.7646C220.275 24.7646 219.796 25.0657 219.445 25.668C219.093 26.2672 218.915 27.1468 218.912 28.3071C218.909 29.0837 218.987 29.7368 219.145 30.2662C219.307 30.7956 219.535 31.195 219.83 31.4644C220.125 31.7307 220.475 31.8639 220.881 31.8639ZM230.08 33.3522C229.297 33.3522 228.625 33.1541 228.063 32.7578C227.506 32.3584 227.076 31.783 226.775 31.0317C226.477 30.2773 226.328 29.369 226.328 28.3071C226.331 27.2451 226.482 26.3417 226.78 25.5967C227.081 24.8486 227.51 24.278 228.068 23.8849C228.629 23.4918 229.3 23.2952 230.08 23.2952C230.859 23.2952 231.53 23.4918 232.091 23.8849C232.652 24.278 233.082 24.8486 233.38 25.5967C233.681 26.3448 233.831 27.2483 233.831 28.3071C233.831 29.3722 233.681 30.282 233.38 31.0365C233.082 31.7878 232.652 32.3616 232.091 32.7578C231.533 33.1541 230.863 33.3522 230.08 33.3522ZM230.08 31.8639C230.688 31.8639 231.169 31.5643 231.52 30.9652C231.875 30.3628 232.053 29.4768 232.053 28.3071C232.053 27.5336 231.972 26.8837 231.81 26.3575C231.649 25.8313 231.421 25.435 231.126 25.1687C230.831 24.8993 230.482 24.7646 230.08 24.7646C229.474 24.7646 228.995 25.0657 228.644 25.668C228.292 26.2672 228.114 27.1468 228.111 28.3071C228.108 29.0837 228.186 29.7368 228.344 30.2662C228.506 30.7956 228.734 31.195 229.029 31.4644C229.324 31.7307 229.674 31.8639 230.08 31.8639Z" fill="black"/>
<path d="M146.028 34.4485C153.464 34.4485 159.492 28.4205 159.492 20.9845C159.492 13.5485 153.464 7.52039 146.028 7.52039C138.592 7.52039 132.564 13.5485 132.564 20.9845C132.564 28.4205 138.592 34.4485 146.028 34.4485Z" fill="#EE5353" fill-opacity="0.1"/>
<path d="M145.052 19.0423H147.961C148.089 19.0423 148.217 18.9944 148.304 18.8988C148.392 18.8111 148.448 18.6835 148.448 18.556C148.448 18.4284 148.4 18.3009 148.304 18.2132C148.217 18.1255 148.089 18.0697 147.961 18.0697H145.052C144.924 18.0697 144.796 18.1175 144.709 18.2132C144.621 18.3009 144.565 18.4284 144.565 18.556C144.565 18.6835 144.613 18.8111 144.709 18.8988C144.796 18.9865 144.924 19.0423 145.052 19.0423ZM144.079 20.9875H147.961C148.089 20.9875 148.217 20.9397 148.304 20.844C148.392 20.7563 148.448 20.6287 148.448 20.5012C148.448 20.3736 148.4 20.2461 148.304 20.1584C148.217 20.0707 148.089 20.0149 147.961 20.0149H144.079C143.951 20.0149 143.824 20.0627 143.736 20.1584C143.648 20.2461 143.593 20.3736 143.593 20.5012C143.593 20.6287 143.64 20.7563 143.736 20.844C143.824 20.9317 143.951 20.9875 144.079 20.9875ZM144.079 22.9327H147.961C148.089 22.9327 148.217 22.8849 148.304 22.7892C148.392 22.6935 148.448 22.5739 148.448 22.4464C148.448 22.3188 148.4 22.1913 148.304 22.1036C148.217 22.0159 148.089 21.9601 147.961 21.9601H144.079C143.951 21.9601 143.824 22.0079 143.736 22.1036C143.648 22.1913 143.593 22.3188 143.593 22.4464C143.593 22.5739 143.64 22.7015 143.736 22.7892C143.832 22.8769 143.951 22.9327 144.079 22.9327ZM149.907 16.1324H142.142C142.014 16.1324 141.887 16.1803 141.799 16.2759C141.711 16.3636 141.655 16.4912 141.655 16.6187V25.3562C141.655 25.4439 141.679 25.5316 141.727 25.6113C141.775 25.6911 141.839 25.7469 141.926 25.7867C142.006 25.8266 142.094 25.8425 142.19 25.8345C142.277 25.8266 142.365 25.7947 142.437 25.7389L143.441 24.9895L144.438 25.7389C144.525 25.8027 144.621 25.8345 144.733 25.8345C144.844 25.8345 144.94 25.8027 145.028 25.7389L146.032 24.9895L147.037 25.7389C147.124 25.8027 147.22 25.8345 147.332 25.8345C147.443 25.8345 147.539 25.8027 147.627 25.7389L148.623 24.9895L149.628 25.7389C149.699 25.7947 149.787 25.8266 149.875 25.8345C149.962 25.8345 150.058 25.8266 150.138 25.7867C150.218 25.7469 150.281 25.6831 150.329 25.6113C150.377 25.5316 150.401 25.4439 150.401 25.3562V16.6187C150.401 16.4912 150.353 16.3636 150.257 16.2759C150.17 16.1883 150.042 16.1324 149.915 16.1324H149.907ZM149.42 24.3836L148.902 23.993C148.814 23.9292 148.719 23.8973 148.607 23.8973C148.496 23.8973 148.4 23.9292 148.312 23.993L147.316 24.7424L146.311 23.993C146.223 23.9292 146.128 23.8973 146.016 23.8973C145.905 23.8973 145.809 23.9292 145.721 23.993L144.717 24.7424L143.72 23.993C143.633 23.9292 143.537 23.8973 143.425 23.8973C143.314 23.8973 143.218 23.9292 143.13 23.993L142.612 24.3836V17.105H149.412V24.3836H149.42Z" fill="#EE5353"/>
</svg>
