<svg width="71" height="53" viewBox="0 0 71 53" fill="none" xmlns="http://www.w3.org/2000/svg">
<rect x="0.000488281" width="70.0626" height="52.9804" rx="8.45045" fill="white"/>
<path d="M25.8013 41.5653C25.7558 41.1619 25.5683 40.8494 25.2388 40.6278C24.9092 40.4034 24.4945 40.2912 23.9945 40.2912C23.6365 40.2912 23.3268 40.348 23.0655 40.4616C22.8041 40.5724 22.601 40.7259 22.4561 40.9219C22.3141 41.1151 22.243 41.3352 22.243 41.5824C22.243 41.7898 22.2913 41.9687 22.3879 42.1193C22.4873 42.2699 22.6166 42.3963 22.7757 42.4986C22.9376 42.598 23.1109 42.6818 23.2956 42.75C23.4802 42.8153 23.6578 42.8693 23.8283 42.9119L24.6805 43.1335C24.9589 43.2017 25.2445 43.294 25.5371 43.4105C25.8297 43.527 26.101 43.6804 26.351 43.8707C26.601 44.0611 26.8027 44.2969 26.9561 44.5781C27.1123 44.8594 27.1905 45.196 27.1905 45.5881C27.1905 46.0824 27.0626 46.5213 26.807 46.9048C26.5541 47.2884 26.1862 47.5909 25.7033 47.8125C25.2231 48.0341 24.6422 48.1449 23.9604 48.1449C23.307 48.1449 22.7416 48.0412 22.2643 47.8338C21.7871 47.6264 21.4135 47.3324 21.1436 46.9517C20.8737 46.5682 20.7246 46.1136 20.6962 45.5881H22.0172C22.0427 45.9034 22.145 46.1662 22.324 46.3764C22.5058 46.5838 22.7373 46.7386 23.0186 46.8409C23.3027 46.9403 23.6138 46.9901 23.9518 46.9901C24.324 46.9901 24.655 46.9318 24.9447 46.8153C25.2373 46.696 25.4675 46.5312 25.6351 46.321C25.8027 46.108 25.8865 45.8594 25.8865 45.5753C25.8865 45.3168 25.8126 45.1051 25.6649 44.9403C25.52 44.7756 25.3226 44.6392 25.0726 44.5312C24.8254 44.4233 24.5456 44.3281 24.2331 44.2457L23.2018 43.9645C22.503 43.7741 21.949 43.4943 21.5399 43.125C21.1337 42.7557 20.9305 42.267 20.9305 41.6591C20.9305 41.1562 21.0669 40.7173 21.3396 40.3423C21.6123 39.9673 21.9817 39.6761 22.4476 39.4688C22.9135 39.2585 23.4391 39.1534 24.0243 39.1534C24.6152 39.1534 25.1365 39.2571 25.5882 39.4645C26.0427 39.6719 26.4007 39.9574 26.6621 40.321C26.9234 40.6818 27.0598 41.0966 27.0712 41.5653H25.8013ZM31.7171 41.4545V42.4773H28.1418V41.4545H31.7171ZM29.1006 39.8864H30.3748V46.0781C30.3748 46.3253 30.4117 46.5114 30.4856 46.6364C30.5594 46.7585 30.6546 46.8423 30.7711 46.8878C30.8904 46.9304 31.0197 46.9517 31.1589 46.9517C31.2611 46.9517 31.3506 46.9446 31.4273 46.9304C31.504 46.9162 31.5637 46.9048 31.6063 46.8963L31.8364 47.9489C31.7626 47.9773 31.6574 48.0057 31.5211 48.0341C31.3847 48.0653 31.2143 48.0824 31.0097 48.0852C30.6745 48.0909 30.362 48.0312 30.0722 47.9062C29.7824 47.7812 29.5481 47.5881 29.3691 47.3267C29.1901 47.0653 29.1006 46.7372 29.1006 46.3423V39.8864ZM35.8133 48.1321C35.1997 48.1321 34.6642 47.9915 34.2068 47.7102C33.7494 47.429 33.3943 47.0355 33.1415 46.5298C32.8886 46.0241 32.7622 45.4332 32.7622 44.7571C32.7622 44.0781 32.8886 43.4844 33.1415 42.9759C33.3943 42.4673 33.7494 42.0724 34.2068 41.7912C34.6642 41.5099 35.1997 41.3693 35.8133 41.3693C36.427 41.3693 36.9625 41.5099 37.4199 41.7912C37.8773 42.0724 38.2324 42.4673 38.4852 42.9759C38.7381 43.4844 38.8645 44.0781 38.8645 44.7571C38.8645 45.4332 38.7381 46.0241 38.4852 46.5298C38.2324 47.0355 37.8773 47.429 37.4199 47.7102C36.9625 47.9915 36.427 48.1321 35.8133 48.1321ZM35.8176 47.0625C36.2153 47.0625 36.5449 46.9574 36.8062 46.7472C37.0676 46.5369 37.2608 46.2571 37.3858 45.9077C37.5136 45.5582 37.5775 45.1733 37.5775 44.7528C37.5775 44.3352 37.5136 43.9517 37.3858 43.6023C37.2608 43.25 37.0676 42.9673 36.8062 42.7543C36.5449 42.5412 36.2153 42.4347 35.8176 42.4347C35.417 42.4347 35.0847 42.5412 34.8204 42.7543C34.5591 42.9673 34.3645 43.25 34.2366 43.6023C34.1116 43.9517 34.0491 44.3352 34.0491 44.7528C34.0491 45.1733 34.1116 45.5582 34.2366 45.9077C34.3645 46.2571 34.5591 46.5369 34.8204 46.7472C35.0847 46.9574 35.417 47.0625 35.8176 47.0625ZM43.0438 48.1321C42.4103 48.1321 41.8648 47.9886 41.4074 47.7017C40.9529 47.4119 40.6035 47.0128 40.3592 46.5043C40.1148 45.9957 39.9927 45.4134 39.9927 44.7571C39.9927 44.0923 40.1177 43.5057 40.3677 42.9972C40.6177 42.4858 40.9699 42.0866 41.4245 41.7997C41.879 41.5128 42.4146 41.3693 43.031 41.3693C43.5282 41.3693 43.9714 41.4616 44.3606 41.6463C44.7498 41.8281 45.0637 42.0838 45.3023 42.4134C45.5438 42.7429 45.6873 43.1278 45.7327 43.5682H44.4927C44.4245 43.2614 44.2682 42.9972 44.0239 42.7756C43.7824 42.554 43.4586 42.4432 43.0523 42.4432C42.6972 42.4432 42.3861 42.5369 42.1191 42.7244C41.8549 42.9091 41.6489 43.1733 41.5012 43.517C41.3535 43.858 41.2796 44.2614 41.2796 44.7273C41.2796 45.2045 41.3521 45.6165 41.4969 45.9631C41.6418 46.3097 41.8464 46.5781 42.1106 46.7685C42.3776 46.9588 42.6915 47.054 43.0523 47.054C43.2938 47.054 43.5126 47.0099 43.7086 46.9219C43.9074 46.831 44.0736 46.7017 44.2072 46.5341C44.3435 46.3665 44.4387 46.1648 44.4927 45.929H45.7327C45.6873 46.3523 45.5495 46.7301 45.3194 47.0625C45.0893 47.3949 44.781 47.6562 44.3947 47.8466C44.0111 48.0369 43.5609 48.1321 43.0438 48.1321ZM48.2672 45.7798L48.2587 44.2244H48.4802L51.0882 41.4545H52.6138L49.6393 44.608H49.4391L48.2672 45.7798ZM47.0953 48V39.2727H48.3695V48H47.0953ZM51.2288 48L48.8851 44.8892L49.7629 43.9986L52.7927 48H51.2288Z" fill="black"/>
<g clip-path="url(#clip0_99_355)">
<path d="M50.9892 19.1088C48.9829 19.1008 46.9846 19.1088 44.9784 19.1088C44.4988 19.1088 44.5707 19.1567 44.5707 18.6851C44.5627 14.8324 44.5627 10.9877 44.5627 7.13503C44.5627 6.31973 44.251 6 43.4357 6H29.6235C28.8002 6 28.4885 6.31973 28.4885 7.13503C28.4885 11.0117 28.4885 14.8884 28.4885 18.7731C28.4965 19.0528 28.4086 19.1168 28.1368 19.1088C26.1545 19.1008 24.1722 19.1168 22.1819 19.1008C21.6304 19.1008 21.2467 19.2686 21.0469 19.7882V33.3366C21.2867 33.8401 21.6943 34 22.2379 34C31.7657 33.992 41.2855 33.992 50.8054 33.992H51.0771C51.6446 33.96 52.0043 33.6083 52.0043 33.0488V20.044C52.0043 19.4445 51.6367 19.1088 50.9892 19.1088ZM35.6344 31.9138C35.6344 32.1456 35.5704 32.2015 35.3466 32.2015C33.3084 32.1935 31.2781 32.1936 29.2399 32.1936C27.2016 32.1936 25.1713 32.1935 23.1331 32.2015C22.9013 32.2015 22.8293 32.1456 22.8293 31.8978C22.8373 28.3249 22.8373 24.7439 22.8293 21.171C22.8293 20.9552 22.8773 20.8753 23.1171 20.8753C23.3649 20.8832 23.6207 20.8832 23.8764 20.8832C24.428 20.8912 24.9795 20.8832 25.531 20.8753H32.6449C33.1085 20.8832 33.5641 20.8912 34.0277 20.8912C34.4674 20.8912 34.899 20.8832 35.3386 20.8832C35.5544 20.8753 35.6344 20.9152 35.6344 21.155C35.6344 24.7439 35.6344 28.3329 35.6344 31.9138ZM30.6307 19.1088C30.3669 19.1168 30.271 19.0608 30.271 18.7731C30.287 15.2241 30.287 11.6751 30.271 8.12618C30.271 7.84642 30.3589 7.78247 30.6307 7.78247C31.0463 7.79047 31.4619 7.79846 31.8776 7.79846C32.2373 7.79846 32.589 7.79047 32.9567 7.78247H40.0945C40.4622 7.79047 40.8219 7.79846 41.1976 7.79846C41.6212 7.79846 42.0529 7.79846 42.4765 7.79047C42.6923 7.78247 42.7802 7.83043 42.7802 8.06223C42.7802 11.6512 42.7802 15.2401 42.7802 18.829C42.7802 19.0608 42.7003 19.1088 42.4845 19.1088C40.4942 19.1008 38.5119 19.1088 36.5296 19.1088C34.5473 19.1088 32.597 19.1008 30.6307 19.1088ZM50.2219 31.9458C50.2219 32.1696 50.126 32.2015 49.9341 32.2015C47.8879 32.1935 45.8496 32.1936 43.8034 32.1936C41.7571 32.1936 39.7508 32.1935 37.7286 32.2015C37.4968 32.2015 37.4168 32.1536 37.4168 31.9058C37.4248 28.3329 37.4248 24.7519 37.4168 21.179C37.4168 21.147 37.4009 21.0111 37.4808 20.9392C37.5447 20.8753 37.6327 20.8673 37.7206 20.8753C41.7971 20.8753 45.8736 20.8832 49.9501 20.8832C50.014 20.8753 50.102 20.8753 50.1579 20.9312C50.2379 21.0031 50.2219 21.123 50.2219 21.155C50.2219 24.7519 50.2219 28.3488 50.2219 31.9458Z" fill="#7738CF"/>
<path d="M49.0309 29.5159C49.0309 30.0035 48.6472 30.4031 48.1197 30.4111C47.3363 30.4271 46.545 30.4271 45.7617 30.4111C45.2262 30.3951 44.8585 30.0115 44.8665 29.5079C44.8745 29.0123 45.2501 28.6366 45.7857 28.6286C46.1773 28.6127 46.569 28.6207 46.9607 28.6207C47.3523 28.6207 47.712 28.6207 48.0797 28.6286C48.6312 28.6286 49.0229 29.0123 49.0309 29.5159Z" fill="#F3771E"/>
<path d="M32.0454 28.6206C32.4291 28.6206 32.8128 28.6206 33.1965 28.6206C33.748 28.6286 34.1397 29.0123 34.1397 29.5158C34.1397 30.0114 33.764 30.3951 33.2284 30.4111C32.4451 30.4271 31.6618 30.4271 30.8705 30.4111C30.3269 30.3951 29.9752 30.0114 29.9752 29.5078C29.9752 29.0043 30.3589 28.6446 30.8944 28.6286C31.2781 28.6206 31.6618 28.6286 32.0454 28.6286V28.6206Z" fill="#F3771E"/>
<path d="M39.5031 17.3103C39.1114 17.3103 38.7197 17.3103 38.3281 17.3103C37.8085 17.3024 37.4328 16.9347 37.4248 16.4551C37.4089 15.9595 37.7606 15.5598 38.2721 15.5439C39.0874 15.5199 39.9027 15.5199 40.718 15.5439C41.2296 15.5598 41.5973 15.9595 41.5893 16.4391C41.5733 16.9347 41.1896 17.3024 40.6621 17.3103C40.2784 17.3103 39.8947 17.3103 39.519 17.3103H39.5031Z" fill="#F3771E"/>
<path d="M45.1622 20.8673V24.8559C45.1622 24.9838 45.0583 25.0877 44.9304 25.0877H42.3806C42.2527 25.0877 42.1488 24.9918 42.1488 24.8639L42.1648 20.8673C41.5733 20.8673 40.9818 20.8673 40.3903 20.8673V25.911C40.3903 26.4305 40.8139 26.8462 41.3335 26.8462H45.9855C46.5051 26.8462 46.9207 26.4305 46.9207 25.911V20.8673H45.1622Z" fill="#F3771E"/>
<path d="M30.5747 20.8673V24.8559C30.5747 24.9838 30.4708 25.0877 30.3429 25.0877H27.7931C27.6652 25.0877 27.5613 24.9918 27.5613 24.8639L27.5773 20.8673C26.9858 20.8673 26.3943 20.8673 25.8028 20.8673V25.911C25.8028 26.4305 26.2264 26.8462 26.746 26.8462H31.398C31.9176 26.8462 32.3332 26.4305 32.3332 25.911V20.8673H30.5747Z" fill="#F3771E"/>
<path d="M38.0163 7.78247V11.7711C38.0163 11.8989 37.9124 12.0029 37.7845 12.0029H35.2347C35.1068 12.0029 35.0029 11.9069 35.0029 11.779L35.0189 7.78247C34.4274 7.78247 33.8359 7.78247 33.2444 7.78247V12.8261C33.2444 13.3457 33.6681 13.7613 34.1876 13.7613H38.8396C39.3592 13.7613 39.7748 13.3457 39.7748 12.8261V7.78247H38.0163Z" fill="#F3771E"/>
<path d="M38.4 20.8752H40.0626C39.511 20.8832 38.9595 20.8912 38.4 20.8832V20.8752Z" fill="#7738CF"/>
<path d="M48.7831 20.8752V20.8912C48.2955 20.8912 47.7999 20.8912 47.3044 20.8752H48.7831Z" fill="#7738CF"/>
<path d="M23.8605 20.8752H25.515C24.9635 20.8832 24.412 20.8912 23.8605 20.8832V20.8752Z" fill="#F3771E"/>
<path d="M34.0118 20.8752V20.8912C33.5482 20.8912 33.0926 20.8832 32.6289 20.8752H34.0118Z" fill="#F3771E"/>
<path d="M31.8776 7.78247H32.9567C32.589 7.79046 32.2373 7.79846 31.8776 7.79846V7.78247Z" fill="#7738CF"/>
<path d="M41.1976 7.78247V7.79846C40.8219 7.79846 40.4622 7.79046 40.0945 7.78247H41.1976Z" fill="#7738CF"/>
</g>
<defs>
<clipPath id="clip0_99_355">
<rect width="30.9575" height="28" fill="white" transform="translate(21.0469 6)"/>
</clipPath>
</defs>
</svg>
