<svg width="228" height="68" viewBox="0 0 228 68" fill="none" xmlns="http://www.w3.org/2000/svg">
<rect width="227.263" height="68" rx="14.3158" fill="white"/>
<g clip-path="url(#clip0_52_4373)">
<path d="M23.3537 21.0108L38.4395 29.2109L34.222 33.2817L21.8447 21.2277C22.2222 20.8537 22.8233 20.7245 23.3537 21.0108Z" fill="#0AE577"/>
<path d="M34.2221 33.2809L21.7012 45.3658C21.5593 45.1642 21.4737 44.9172 21.4737 44.641V22.1194C21.4737 21.7598 21.6185 21.4497 21.8447 21.2273L34.2221 33.2809Z" fill="#40C3FF"/>
<path d="M44.0747 32.2739C44.9574 32.7526 44.9574 34.0111 44.0747 34.491L38.5472 37.4943L34.2219 33.2825L38.4394 29.2117L44.0751 32.2739H44.0747Z" fill="#FFC826"/>
<path d="M38.5473 37.4936L23.3537 45.7513C22.75 46.0796 22.0526 45.864 21.7016 45.3667L34.2225 33.2817L38.5478 37.4936H38.5473Z" fill="#FF3945"/>
</g>
<path d="M74.6679 40.0625C73.5666 40.458 71.3925 41.1072 68.8229 41.1072C65.9424 41.1072 63.5706 40.3728 61.7068 38.5942C60.0688 37.0128 59.0526 34.4712 59.0526 31.5067C59.0806 25.8308 62.9779 21.6798 69.3596 21.6798C71.5623 21.6798 73.2848 22.1599 74.1033 22.5554L73.5106 24.5603C72.4938 24.1088 71.2233 23.7413 69.303 23.7413C64.6719 23.7413 61.6508 26.6218 61.6508 31.3935C61.6508 36.1652 64.5593 39.0743 68.9927 39.0743C70.6021 39.0743 71.7034 38.8486 72.2681 38.5662V32.8904H68.3994V30.9134H74.6685L74.6679 40.0625Z" fill="black"/>
<path d="M90.8492 33.9569C90.8492 39.0115 87.3475 41.2141 84.044 41.2141C80.3451 41.2141 77.4926 38.5034 77.4926 34.1832C77.4926 29.6087 80.4857 26.9259 84.2698 26.9259C88.0539 26.9259 90.8492 29.7773 90.8492 33.9569ZM80.0062 34.098C80.0062 37.0911 81.7288 39.3504 84.1572 39.3504C86.5856 39.3504 88.3082 37.1197 88.3082 34.0415C88.3082 31.7262 87.1503 28.7891 84.2138 28.7891C81.2772 28.7891 80.0062 31.4999 80.0062 34.098Z" fill="black"/>
<path d="M106.353 33.9569C106.353 39.0115 102.852 41.2141 99.5481 41.2141C95.8492 41.2141 92.9967 38.5034 92.9967 34.1832C92.9967 29.6087 95.9898 26.9259 99.7739 26.9259C103.558 26.9259 106.353 29.7773 106.353 33.9569ZM95.5103 34.098C95.5103 37.0911 97.2329 39.3504 99.6613 39.3504C102.09 39.3504 103.812 37.1197 103.812 34.0415C103.812 31.7262 102.654 28.7891 99.7179 28.7891C96.7814 28.7891 95.5103 31.4999 95.5103 34.098Z" fill="black"/>
<path d="M121.251 27.2357C121.194 28.2239 121.138 29.3252 121.138 30.9912V38.9263C121.138 42.0606 120.516 43.9809 119.189 45.1668C117.862 46.4094 115.942 46.8048 114.219 46.8048C112.497 46.8048 110.774 46.4094 109.673 45.6755L110.294 43.7837C111.198 44.3484 112.609 44.8571 114.304 44.8571C116.845 44.8571 118.709 43.53 118.709 40.0848V38.56H118.653C117.89 39.8305 116.422 40.8472 114.304 40.8472C110.915 40.8472 108.487 37.9667 108.487 34.1832C108.487 29.5521 111.509 26.9259 114.643 26.9259C117.015 26.9259 118.314 28.1684 118.907 29.2978H118.964L119.077 27.2363L121.251 27.2357ZM118.681 32.6286C118.681 32.2051 118.653 31.8382 118.54 31.4993C118.089 30.059 116.874 28.8731 115.067 28.8731C112.695 28.8731 111 30.878 111 34.0409C111 36.7236 112.356 38.9543 115.038 38.9543C116.563 38.9543 117.947 37.9942 118.483 36.4127C118.625 35.9892 118.681 35.5091 118.681 35.0856V32.6286Z" fill="black"/>
<path d="M125.263 20.855H127.748V40.9037H125.263V20.855Z" fill="black"/>
<path d="M133.305 34.5221C133.361 37.8827 135.507 39.2658 137.992 39.2658C139.771 39.2658 140.844 38.9555 141.776 38.56L142.199 40.3391C141.324 40.7346 139.827 41.1861 137.653 41.1861C133.445 41.1861 130.932 38.4188 130.932 34.2958C130.932 30.1728 133.361 26.9259 137.342 26.9259C141.804 26.9259 142.99 30.8512 142.99 33.3642C142.99 33.8723 142.934 34.2678 142.906 34.5221H133.305ZM140.59 32.7429C140.618 31.1615 139.941 28.7051 137.145 28.7051C134.632 28.7051 133.53 31.0203 133.333 32.7429H140.59Z" fill="black"/>
<path d="M152.14 22.1062C153.326 21.9084 154.879 21.7392 156.856 21.7392C159.284 21.7392 161.063 22.3039 162.193 23.3207C163.238 24.2242 163.859 25.6079 163.859 27.3019C163.859 28.9959 163.351 30.3796 162.391 31.3684C161.091 32.752 158.974 33.4579 156.574 33.4579C155.839 33.4579 155.162 33.4299 154.597 33.2887V40.9129H152.14V22.1062ZM154.597 31.2838C155.133 31.4249 155.811 31.4815 156.63 31.4815C159.595 31.4815 161.402 30.0413 161.402 27.4151C161.402 24.7889 159.623 23.6876 156.912 23.6876C155.839 23.6876 155.02 23.7722 154.597 23.8853V31.2838Z" fill="black"/>
<path d="M166.938 20.855H169.423V40.9037H166.938V20.855Z" fill="black"/>
<path d="M181.178 40.9044L180.98 39.1818H180.895C180.133 40.2546 178.665 41.2147 176.716 41.2147C173.949 41.2147 172.537 39.2664 172.537 37.2895C172.537 33.9854 175.474 32.1783 180.755 32.2068V31.9245C180.755 30.7952 180.445 28.7617 177.649 28.7617C176.378 28.7617 175.051 29.1572 174.091 29.7784L173.526 28.1404C174.655 27.406 176.294 26.9259 178.016 26.9259C182.195 26.9259 183.212 29.7778 183.212 32.5172V37.6284C183.212 38.8143 183.268 39.9722 183.438 40.9038L181.178 40.9044ZM180.81 33.9294C178.1 33.8729 175.021 34.3529 175.021 37.0071C175.021 38.6165 176.094 39.379 177.365 39.379C179.144 39.379 180.274 38.2496 180.669 37.0917C180.754 36.8374 180.81 36.555 180.81 36.3013V33.9294Z" fill="black"/>
<path d="M187.9 27.237L190.893 35.3133C191.204 36.2168 191.543 37.2902 191.769 38.1086H191.826C192.08 37.2896 192.362 36.2448 192.701 35.2567L195.412 27.237H198.038L194.311 36.9793C192.531 41.6669 191.317 44.0668 189.623 45.5356C188.409 46.6084 187.194 47.0325 186.573 47.1451L185.952 45.0555C186.573 44.8578 187.392 44.4629 188.126 43.8416C188.804 43.305 189.651 42.3448 190.216 41.0743C190.329 40.8199 190.413 40.6222 190.413 40.481C190.413 40.3399 190.357 40.1421 190.244 39.8318L185.19 27.2375L187.9 27.237Z" fill="black"/>
<defs>
<clipPath id="clip0_52_4373">
<rect width="23.2632" height="25.0526" fill="white" transform="translate(21.4737 20.855)"/>
</clipPath>
</defs>
</svg>
