<svg width="580" height="339" viewBox="0 0 580 339" fill="none" xmlns="http://www.w3.org/2000/svg">
<rect x="0.5" y="0.5" width="579" height="338" rx="15.5" fill="#131313" stroke="#353535"/>
<path d="M215.492 134V98.3066H223.061V134H215.492ZM258.803 134H251.234V104.605H241.542V98.3066H268.495V104.605H258.803V134ZM284.389 98.3066C287.628 98.3066 290.297 98.6973 292.396 99.4785C294.512 100.26 296.083 101.44 297.108 103.019C298.134 104.597 298.646 106.591 298.646 109C298.646 110.628 298.337 112.052 297.719 113.272C297.1 114.493 296.286 115.527 295.277 116.373C294.268 117.219 293.178 117.911 292.006 118.448L302.504 134H294.105L285.585 120.304H281.557V134H273.988V98.3066H284.389ZM283.852 104.508H281.557V114.151H283.998C286.505 114.151 288.295 113.736 289.369 112.906C290.46 112.06 291.005 110.823 291.005 109.195C291.005 107.503 290.419 106.298 289.247 105.582C288.091 104.866 286.293 104.508 283.852 104.508ZM336.049 98.3066V121.402C336.049 123.86 335.504 126.082 334.413 128.067C333.339 130.037 331.703 131.599 329.506 132.755C327.325 133.91 324.574 134.488 321.254 134.488C316.534 134.488 312.937 133.284 310.463 130.875C307.989 128.466 306.752 125.276 306.752 121.305V98.3066H314.296V120.157C314.296 123.103 314.898 125.17 316.103 126.358C317.307 127.547 319.089 128.141 321.449 128.141C323.109 128.141 324.452 127.856 325.478 127.286C326.519 126.716 327.284 125.838 327.772 124.649C328.261 123.461 328.505 121.948 328.505 120.108V98.3066H336.049ZM365.858 124.088C365.858 126.204 365.346 128.043 364.32 129.605C363.295 131.168 361.798 132.372 359.828 133.219C357.875 134.065 355.499 134.488 352.699 134.488C351.462 134.488 350.25 134.407 349.062 134.244C347.89 134.081 346.758 133.845 345.668 133.536C344.594 133.211 343.568 132.812 342.592 132.34V125.309C344.285 126.057 346.042 126.733 347.865 127.335C349.688 127.937 351.495 128.238 353.285 128.238C354.522 128.238 355.515 128.076 356.264 127.75C357.029 127.424 357.582 126.977 357.924 126.407C358.266 125.838 358.437 125.187 358.437 124.454C358.437 123.559 358.135 122.794 357.533 122.159C356.931 121.524 356.101 120.93 355.043 120.377C354.001 119.824 352.821 119.229 351.503 118.595C350.673 118.204 349.77 117.732 348.793 117.179C347.816 116.609 346.889 115.917 346.01 115.104C345.131 114.29 344.407 113.305 343.837 112.149C343.284 110.978 343.007 109.578 343.007 107.95C343.007 105.818 343.495 103.995 344.472 102.481C345.448 100.968 346.84 99.8122 348.646 99.0146C350.469 98.2008 352.618 97.7939 355.092 97.7939C356.947 97.7939 358.713 98.0137 360.39 98.4531C362.082 98.8763 363.848 99.4948 365.688 100.309L363.246 106.192C361.602 105.525 360.129 105.012 358.827 104.654C357.525 104.28 356.199 104.093 354.848 104.093C353.904 104.093 353.098 104.247 352.431 104.557C351.763 104.85 351.259 105.273 350.917 105.826C350.575 106.363 350.404 106.99 350.404 107.706C350.404 108.552 350.648 109.269 351.137 109.854C351.641 110.424 352.39 110.978 353.383 111.515C354.392 112.052 355.645 112.678 357.143 113.395C358.965 114.257 360.52 115.16 361.806 116.104C363.108 117.032 364.109 118.131 364.809 119.4C365.508 120.654 365.858 122.216 365.858 124.088ZM386.098 134H378.529V104.605H368.837V98.3066H395.79V104.605H386.098V134Z" fill="white"/>
<path d="M218.938 221H211.492V185.307H231.951V191.508H218.938V200.712H231.048V206.889H218.938V221ZM271.331 203.104C271.331 205.855 270.989 208.362 270.306 210.624C269.622 212.87 268.58 214.807 267.181 216.435C265.797 218.062 264.039 219.315 261.907 220.194C259.775 221.057 257.252 221.488 254.339 221.488C251.425 221.488 248.903 221.057 246.771 220.194C244.638 219.315 242.872 218.062 241.473 216.435C240.089 214.807 239.056 212.862 238.372 210.6C237.688 208.337 237.347 205.823 237.347 203.056C237.347 199.361 237.949 196.146 239.153 193.412C240.374 190.661 242.246 188.529 244.769 187.016C247.291 185.502 250.498 184.745 254.388 184.745C258.261 184.745 261.443 185.502 263.934 187.016C266.44 188.529 268.296 190.661 269.5 193.412C270.721 196.163 271.331 199.394 271.331 203.104ZM245.281 203.104C245.281 205.595 245.59 207.743 246.209 209.55C246.844 211.34 247.828 212.724 249.163 213.7C250.498 214.66 252.223 215.141 254.339 215.141C256.487 215.141 258.229 214.66 259.563 213.7C260.898 212.724 261.867 211.34 262.469 209.55C263.087 207.743 263.396 205.595 263.396 203.104C263.396 199.361 262.697 196.415 261.297 194.267C259.897 192.118 257.594 191.044 254.388 191.044C252.256 191.044 250.514 191.532 249.163 192.509C247.828 193.469 246.844 194.853 246.209 196.659C245.59 198.45 245.281 200.598 245.281 203.104ZM289.129 185.307C292.368 185.307 295.037 185.697 297.137 186.479C299.253 187.26 300.823 188.44 301.849 190.019C302.874 191.597 303.387 193.591 303.387 196C303.387 197.628 303.077 199.052 302.459 200.272C301.84 201.493 301.027 202.527 300.018 203.373C299.008 204.219 297.918 204.911 296.746 205.448L307.244 221H298.846L290.325 207.304H286.297V221H278.729V185.307H289.129ZM288.592 191.508H286.297V201.151H288.738C291.245 201.151 293.035 200.736 294.109 199.906C295.2 199.06 295.745 197.823 295.745 196.195C295.745 194.503 295.159 193.298 293.987 192.582C292.832 191.866 291.033 191.508 288.592 191.508ZM339.837 221L331.243 192.997H331.023C331.056 193.664 331.105 194.674 331.17 196.024C331.251 197.359 331.325 198.783 331.39 200.297C331.455 201.811 331.487 203.178 331.487 204.398V221H324.725V185.307H335.027L343.475 212.602H343.621L352.581 185.307H362.884V221H355.828V204.105C355.828 202.982 355.844 201.688 355.877 200.224C355.926 198.759 355.983 197.367 356.048 196.049C356.113 194.714 356.162 193.713 356.194 193.046H355.975L346.771 221H339.837ZM383.001 200.004L390.447 185.307H398.602L386.761 207.108V221H379.241V207.353L367.4 185.307H375.604L383.001 200.004Z" fill="white"/>
<path d="M187.492 225.307H198.601C203.353 225.307 206.95 225.974 209.392 227.309C211.833 228.643 213.054 230.987 213.054 234.34C213.054 235.691 212.834 236.911 212.395 238.002C211.971 239.092 211.353 239.988 210.539 240.688C209.725 241.387 208.732 241.843 207.561 242.055V242.299C208.749 242.543 209.823 242.966 210.783 243.568C211.743 244.154 212.508 245.017 213.078 246.156C213.664 247.279 213.957 248.777 213.957 250.648C213.957 252.813 213.428 254.669 212.37 256.215C211.312 257.761 209.799 258.949 207.829 259.779C205.876 260.593 203.549 261 200.847 261H187.492V225.307ZM195.061 239.442H199.455C201.652 239.442 203.174 239.101 204.021 238.417C204.867 237.717 205.29 236.692 205.29 235.341C205.29 233.974 204.785 232.997 203.776 232.411C202.784 231.809 201.205 231.508 199.04 231.508H195.061V239.442ZM195.061 245.448V254.75H199.992C202.271 254.75 203.858 254.311 204.753 253.432C205.648 252.553 206.096 251.373 206.096 249.892C206.096 249.013 205.9 248.24 205.51 247.572C205.119 246.905 204.46 246.384 203.532 246.01C202.621 245.635 201.359 245.448 199.748 245.448H195.061ZM250.139 225.307V248.402C250.139 250.86 249.593 253.082 248.503 255.067C247.429 257.037 245.793 258.599 243.596 259.755C241.415 260.91 238.664 261.488 235.344 261.488C230.624 261.488 227.027 260.284 224.553 257.875C222.079 255.466 220.842 252.276 220.842 248.305V225.307H228.386V247.157C228.386 250.103 228.988 252.17 230.192 253.358C231.397 254.547 233.179 255.141 235.539 255.141C237.199 255.141 238.542 254.856 239.567 254.286C240.609 253.716 241.374 252.838 241.862 251.649C242.351 250.461 242.595 248.948 242.595 247.108V225.307H250.139ZM279.948 251.088C279.948 253.204 279.436 255.043 278.41 256.605C277.385 258.168 275.887 259.372 273.918 260.219C271.965 261.065 269.589 261.488 266.789 261.488C265.552 261.488 264.34 261.407 263.151 261.244C261.979 261.081 260.848 260.845 259.758 260.536C258.684 260.211 257.658 259.812 256.682 259.34V252.309C258.374 253.057 260.132 253.733 261.955 254.335C263.778 254.937 265.585 255.238 267.375 255.238C268.612 255.238 269.605 255.076 270.354 254.75C271.118 254.424 271.672 253.977 272.014 253.407C272.355 252.838 272.526 252.187 272.526 251.454C272.526 250.559 272.225 249.794 271.623 249.159C271.021 248.524 270.191 247.93 269.133 247.377C268.091 246.824 266.911 246.229 265.593 245.595C264.763 245.204 263.859 244.732 262.883 244.179C261.906 243.609 260.979 242.917 260.1 242.104C259.221 241.29 258.496 240.305 257.927 239.149C257.373 237.978 257.097 236.578 257.097 234.95C257.097 232.818 257.585 230.995 258.562 229.481C259.538 227.968 260.93 226.812 262.736 226.015C264.559 225.201 266.708 224.794 269.182 224.794C271.037 224.794 272.803 225.014 274.479 225.453C276.172 225.876 277.938 226.495 279.777 227.309L277.336 233.192C275.692 232.525 274.219 232.012 272.917 231.654C271.615 231.28 270.288 231.093 268.938 231.093C267.993 231.093 267.188 231.247 266.521 231.557C265.853 231.85 265.349 232.273 265.007 232.826C264.665 233.363 264.494 233.99 264.494 234.706C264.494 235.552 264.738 236.269 265.227 236.854C265.731 237.424 266.48 237.978 267.473 238.515C268.482 239.052 269.735 239.678 271.232 240.395C273.055 241.257 274.61 242.16 275.896 243.104C277.198 244.032 278.199 245.131 278.898 246.4C279.598 247.654 279.948 249.216 279.948 251.088ZM286.418 261V225.307H293.986V261H286.418ZM334.636 261H325.017L309.489 233.998H309.27C309.335 235.121 309.392 236.252 309.44 237.392C309.489 238.531 309.538 239.67 309.587 240.81C309.636 241.933 309.685 243.064 309.733 244.203V261H302.971V225.307H312.517L328.02 252.04H328.19C328.158 250.933 328.117 249.835 328.068 248.744C328.02 247.654 327.971 246.563 327.922 245.473C327.889 244.382 327.857 243.292 327.824 242.201V225.307H334.636V261ZM364.201 261H343.645V225.307H364.201V231.508H351.213V239.345H363.298V245.546H351.213V254.75H364.201V261ZM392.741 251.088C392.741 253.204 392.229 255.043 391.203 256.605C390.178 258.168 388.68 259.372 386.711 260.219C384.758 261.065 382.382 261.488 379.582 261.488C378.345 261.488 377.132 261.407 375.944 261.244C374.772 261.081 373.641 260.845 372.551 260.536C371.477 260.211 370.451 259.812 369.475 259.34V252.309C371.167 253.057 372.925 253.733 374.748 254.335C376.571 254.937 378.378 255.238 380.168 255.238C381.405 255.238 382.398 255.076 383.146 254.75C383.911 254.424 384.465 253.977 384.807 253.407C385.148 252.838 385.319 252.187 385.319 251.454C385.319 250.559 385.018 249.794 384.416 249.159C383.814 248.524 382.984 247.93 381.926 247.377C380.884 246.824 379.704 246.229 378.386 245.595C377.556 245.204 376.652 244.732 375.676 244.179C374.699 243.609 373.771 242.917 372.893 242.104C372.014 241.29 371.289 240.305 370.72 239.149C370.166 237.978 369.89 236.578 369.89 234.95C369.89 232.818 370.378 230.995 371.354 229.481C372.331 227.968 373.723 226.812 375.529 226.015C377.352 225.201 379.501 224.794 381.975 224.794C383.83 224.794 385.596 225.014 387.272 225.453C388.965 225.876 390.731 226.495 392.57 227.309L390.129 233.192C388.485 232.525 387.012 232.012 385.71 231.654C384.408 231.28 383.081 231.093 381.73 231.093C380.786 231.093 379.981 231.247 379.313 231.557C378.646 231.85 378.142 232.273 377.8 232.826C377.458 233.363 377.287 233.99 377.287 234.706C377.287 235.552 377.531 236.269 378.02 236.854C378.524 237.424 379.273 237.978 380.266 238.515C381.275 239.052 382.528 239.678 384.025 240.395C385.848 241.257 387.403 242.16 388.688 243.104C389.991 244.032 390.992 245.131 391.691 246.4C392.391 247.654 392.741 249.216 392.741 251.088ZM420.28 251.088C420.28 253.204 419.768 255.043 418.742 256.605C417.717 258.168 416.219 259.372 414.25 260.219C412.297 261.065 409.921 261.488 407.121 261.488C405.884 261.488 404.672 261.407 403.483 261.244C402.312 261.081 401.18 260.845 400.09 260.536C399.016 260.211 397.99 259.812 397.014 259.34V252.309C398.706 253.057 400.464 253.733 402.287 254.335C404.11 254.937 405.917 255.238 407.707 255.238C408.944 255.238 409.937 255.076 410.686 254.75C411.451 254.424 412.004 253.977 412.346 253.407C412.688 252.838 412.858 252.187 412.858 251.454C412.858 250.559 412.557 249.794 411.955 249.159C411.353 248.524 410.523 247.93 409.465 247.377C408.423 246.824 407.243 246.229 405.925 245.595C405.095 245.204 404.191 244.732 403.215 244.179C402.238 243.609 401.311 242.917 400.432 242.104C399.553 241.29 398.828 240.305 398.259 239.149C397.705 237.978 397.429 236.578 397.429 234.95C397.429 232.818 397.917 230.995 398.894 229.481C399.87 227.968 401.262 226.812 403.068 226.015C404.891 225.201 407.04 224.794 409.514 224.794C411.369 224.794 413.135 225.014 414.812 225.453C416.504 225.876 418.27 226.495 420.109 227.309L417.668 233.192C416.024 232.525 414.551 232.012 413.249 231.654C411.947 231.28 410.62 231.093 409.27 231.093C408.326 231.093 407.52 231.247 406.853 231.557C406.185 231.85 405.681 232.273 405.339 232.826C404.997 233.363 404.826 233.99 404.826 234.706C404.826 235.552 405.07 236.269 405.559 236.854C406.063 237.424 406.812 237.978 407.805 238.515C408.814 239.052 410.067 239.678 411.564 240.395C413.387 241.257 414.942 242.16 416.228 243.104C417.53 244.032 418.531 245.131 419.23 246.4C419.93 247.654 420.28 249.216 420.28 251.088Z" fill="white"/>
<path d="M355.617 163.595C355.142 161.29 354.674 158.984 354.206 156.678C353.187 151.655 352.168 146.634 351.078 141.626M355.617 163.595L341.624 141.76C340.543 137.581 340.831 137.267 345.335 137.273H345.335C350.032 137.273 350.126 137.273 351.078 141.626M355.617 163.595C355.658 163.794 355.675 164.019 355.691 164.247C355.745 164.987 355.802 165.762 356.727 165.798C357.691 165.835 357.845 164.997 357.985 164.243C358.02 164.051 358.054 163.865 358.101 163.7L355.617 163.595ZM351.078 141.626L350.101 141.839M351.078 141.626L350.1 141.838C350.101 141.839 350.101 141.839 350.101 141.839C349.859 140.732 349.688 139.983 349.497 139.442C349.31 138.914 349.15 138.72 349.013 138.618C348.866 138.508 348.601 138.397 347.981 138.336C347.358 138.274 346.53 138.273 345.335 138.273H345.333C344.199 138.271 343.407 138.291 342.847 138.373C342.266 138.458 342.158 138.581 342.153 138.587C342.152 138.589 342.148 138.594 342.142 138.607C342.136 138.62 342.126 138.647 342.117 138.693C342.098 138.791 342.088 138.952 342.11 139.207C342.157 139.73 342.319 140.456 342.592 141.509L342.592 141.512C343.843 146.4 345.118 151.293 346.393 156.189C348.065 162.607 349.739 169.03 351.36 175.453C351.387 175.559 351.413 175.663 351.438 175.763C351.715 176.858 351.912 177.635 352.119 178.222C352.342 178.858 352.526 179.108 352.688 179.239C352.844 179.364 353.11 179.484 353.753 179.544C354.405 179.605 355.279 179.592 356.562 179.57C356.992 179.558 357.453 179.573 357.872 179.586C358.05 179.592 358.221 179.597 358.378 179.601C358.951 179.612 359.428 179.595 359.838 179.505C360.23 179.419 360.532 179.271 360.778 179.029C361.028 178.782 361.287 178.372 361.478 177.654C362.768 172.64 364.148 167.639 365.525 162.648C366.188 160.248 366.849 157.85 367.5 155.454L367.501 155.449C367.547 155.283 367.576 155.073 367.616 154.762L367.618 154.742C367.653 154.469 367.699 154.112 367.792 153.777C367.887 153.432 368.06 153.001 368.425 152.657C368.818 152.288 369.323 152.121 369.878 152.123C370.437 152.125 370.934 152.299 371.325 152.653C371.692 152.984 371.884 153.402 371.997 153.75C372.109 154.096 372.171 154.463 372.217 154.748C372.221 154.774 372.225 154.799 372.229 154.824C372.274 155.101 372.306 155.298 372.352 155.464C373.972 161.203 375.552 166.946 377.133 172.691C377.272 173.197 377.411 173.703 377.55 174.209C377.764 174.985 377.935 175.641 378.082 176.207C378.279 176.963 378.433 177.556 378.591 178.053C378.864 178.918 379.058 179.162 379.219 179.277C379.404 179.408 379.754 179.52 380.747 179.562C381.201 179.582 381.739 179.587 382.404 179.594L382.49 179.595C383.188 179.602 384.008 179.611 384.967 179.64L384.967 179.64C386.077 179.675 386.647 179.48 387 179.196C387.367 178.901 387.685 178.366 387.96 177.299C388.375 175.638 388.788 173.975 389.202 172.312C391.604 162.643 394.015 152.941 396.836 143.36C397.355 141.593 397.704 140.399 397.846 139.555C397.916 139.137 397.922 138.878 397.901 138.719C397.891 138.645 397.878 138.608 397.871 138.593C397.866 138.582 397.863 138.579 397.861 138.577L397.861 138.577C397.855 138.571 397.793 138.511 397.559 138.45C397.323 138.387 396.986 138.342 396.503 138.315C395.867 138.279 395.092 138.277 394.117 138.275C393.585 138.275 392.992 138.274 392.33 138.267L392.323 138.267L392.316 138.266C391.431 138.244 390.972 138.444 390.697 138.694C390.403 138.962 390.151 139.438 389.996 140.303C389.996 140.304 389.996 140.304 389.996 140.305L350.101 141.839M350.101 141.839C351.19 146.84 352.206 151.849 353.224 156.868C353.692 159.176 354.161 161.485 354.637 163.797L354.638 163.799C354.665 163.931 354.677 164.095 354.697 164.362L354.697 164.363C354.714 164.595 354.738 164.918 354.811 165.226C354.885 165.54 355.033 165.942 355.371 166.27C355.73 166.618 356.192 166.778 356.688 166.797C357.186 166.816 357.651 166.692 358.034 166.393C358.399 166.109 358.598 165.737 358.715 165.429C358.832 165.124 358.896 164.805 358.942 164.564C358.953 164.505 358.963 164.451 358.972 164.402C359.006 164.217 359.03 164.087 359.063 163.97L359.064 163.967C359.438 162.619 359.813 161.272 360.189 159.925C361.921 153.707 363.653 147.487 365.258 141.222C365.561 140.053 365.929 139.338 366.415 138.902C366.874 138.49 367.575 138.206 368.823 138.214V138.214H368.829C368.985 138.214 369.135 138.214 369.281 138.214C370.402 138.213 371.233 138.213 371.884 138.252C372.63 138.298 372.995 138.391 373.207 138.502C373.367 138.587 373.512 138.719 373.688 139.094C373.883 139.51 374.061 140.105 374.326 141.046L374.326 141.048C375.713 145.933 377.039 150.829 378.367 155.733C378.898 157.696 379.43 159.661 379.967 161.626L379.967 161.627C380.025 161.839 380.083 162.062 380.143 162.293C380.313 162.95 380.498 163.663 380.742 164.334C380.779 164.441 380.808 164.575 380.858 164.805L380.859 164.81C380.903 165.012 380.966 165.299 381.073 165.573C381.184 165.854 381.368 166.197 381.707 166.466C382.062 166.747 382.491 166.873 382.951 166.873C383.414 166.873 383.849 166.745 384.204 166.452C384.543 166.173 384.721 165.819 384.822 165.531C384.921 165.247 384.97 164.954 385.004 164.742C385.011 164.697 385.018 164.655 385.024 164.617C385.051 164.445 385.068 164.335 385.094 164.237L385.099 164.215L385.104 164.193C385.793 160.942 386.454 157.696 387.115 154.444C387.345 153.314 387.575 152.183 387.807 151.051L350.101 141.839Z" stroke="#E45325" stroke-width="2"/>
<path d="M179.017 179.623L179.027 179.623C182.616 179.692 186.205 179.56 189.779 179.226C194.203 178.715 197.593 176.809 199.173 172.9C200.081 170.651 200.421 168.486 200.081 166.508C199.743 164.548 198.726 162.691 196.774 161.051L196.771 161.049C195.604 160.062 194.832 159.006 194.956 157.745C195.014 157.147 195.268 156.617 195.589 156.15C195.909 155.686 196.331 155.232 196.794 154.779L196.797 154.777C198.512 153.116 199.384 151.519 199.603 149.895C199.823 148.263 199.406 146.45 198.242 144.32C196.004 140.223 192.216 138.541 187.57 138.324C183.934 138.158 180.299 138.189 176.633 138.219C175.179 138.232 173.721 138.244 172.255 138.244M179.017 179.623L172.255 137.244M179.017 179.623H179.008M179.017 179.623H179.008M172.255 138.244C172.255 138.244 172.255 138.244 172.255 138.244V137.244M172.255 138.244C172.256 138.244 172.256 138.244 172.256 138.244L172.255 137.244M172.255 138.244C171.396 138.245 170.779 138.288 170.326 138.384C169.884 138.478 169.672 138.608 169.549 138.731C169.426 138.854 169.296 139.067 169.202 139.512C169.105 139.968 169.062 140.589 169.062 141.456M172.255 137.244C168.743 137.25 168.062 137.914 168.062 141.457M169.062 141.456C169.062 141.456 169.062 141.455 169.062 141.455L168.062 141.457M169.062 141.456C169.064 142.568 169.128 143.678 169.194 144.819C169.21 145.09 169.225 145.362 169.24 145.637C169.318 147.053 169.375 148.511 169.283 149.975L169.283 149.976C169 154.404 169.088 158.839 169.176 163.322C169.178 163.441 169.181 163.561 169.183 163.68C169.273 168.27 169.354 172.909 169.012 177.554L168.062 141.457M169.062 141.456C169.062 141.456 169.062 141.457 169.062 141.457H168.062M179.008 179.623H171.186M179.008 179.623H171.186M187.252 155.487L187.219 155.492C185.909 155.697 184.588 155.819 183.264 155.859L183.252 155.883H182.637C182.395 155.883 182.163 155.884 181.938 155.884C180.761 155.886 179.811 155.888 179.083 155.828C178.245 155.759 177.398 155.596 176.808 154.982C176.219 154.368 176.097 153.523 176.056 152.727C176.027 152.168 176.037 151.465 176.05 150.639C176.055 150.254 176.061 149.843 176.064 149.407C176.064 149.406 176.064 149.406 176.064 149.405L187.252 155.487ZM187.252 155.487L187.284 155.48M187.252 155.487L187.284 155.48M187.284 155.48C189.994 154.868 192.175 152.981 192.175 149.953M187.284 155.48L192.175 149.953M171.186 179.623C170.217 179.623 169.688 179.418 169.413 179.165M171.186 179.623L169.413 179.165M169.413 179.165C169.172 178.943 168.943 178.51 169.012 177.554L169.413 179.165ZM192.175 149.953C192.175 148.497 191.676 147.261 190.772 146.314M192.175 149.953L190.772 146.314M190.772 146.314C189.884 145.382 188.661 144.787 187.288 144.474M190.772 146.314L187.288 144.474M187.288 144.474C185.693 144.105 184.064 144.121 182.574 144.135L187.288 144.474ZM182.813 173.995H182.852L182.89 173.992C183.366 173.955 183.821 173.937 184.297 173.918C184.6 173.906 184.911 173.894 185.241 173.877C186.049 173.833 186.9 173.758 187.738 173.56C188.974 173.274 190.196 172.784 191.153 171.947C192.137 171.088 192.792 169.905 192.923 168.365C193.054 166.831 192.733 165.447 191.962 164.302C191.195 163.163 190.036 162.337 188.618 161.817L188.605 161.812L188.592 161.808C187.029 161.283 185.412 160.933 183.771 160.766C182.189 160.568 180.917 160.414 179.934 160.407C178.967 160.4 178.039 160.528 177.334 161.121C176.622 161.721 176.355 162.61 176.22 163.55C176.084 164.502 176.055 165.753 176.023 167.298L176.023 167.3L176.022 167.365C175.996 168.729 175.976 169.841 176.058 170.696C176.142 171.56 176.347 172.391 176.967 172.999C177.58 173.6 178.418 173.806 179.299 173.9C180.18 173.995 181.33 173.995 182.752 173.995H182.813Z" stroke="#E45325" stroke-width="2"/>
<path d="M250.103 158.712V158.714C250.1 160.374 250.104 162.036 250.109 163.7C250.121 168.148 250.134 172.606 249.997 177.076C249.974 178.21 250.213 178.767 250.498 179.059C250.784 179.351 251.323 179.588 252.403 179.588H252.426L252.45 179.589C252.795 179.605 253.145 179.605 253.522 179.605H253.532C253.898 179.605 254.291 179.605 254.687 179.624L254.689 179.624C255.694 179.673 256.124 179.452 256.328 179.236C256.549 179.001 256.747 178.519 256.718 177.511L256.717 177.504C256.671 175.429 256.672 173.353 256.672 171.29L256.672 171.191C256.673 169.092 256.673 167.006 256.624 164.926C256.596 163.891 256.733 162.843 257.42 162.084C258.128 161.3 259.183 161.078 260.344 161.103C264.613 161.179 268.892 161.179 273.167 161.103L273.167 161.103C274.284 161.084 275.333 161.287 276.073 162.014C276.819 162.745 277.025 163.783 277.003 164.878C276.938 168.79 276.938 172.703 276.938 176.619C276.938 177.494 276.972 178.099 277.058 178.534C277.142 178.955 277.256 179.116 277.346 179.2C277.445 179.292 277.647 179.41 278.134 179.492C278.625 179.575 279.294 179.605 280.237 179.605C281.302 179.605 282.075 179.574 282.651 179.485C283.228 179.396 283.497 179.264 283.637 179.147C283.756 179.049 283.879 178.882 283.97 178.477C284.066 178.047 284.105 177.446 284.105 176.567V176.5V176.434V176.368V176.302V176.236V176.169V176.103V176.037V175.971V175.904V175.838V175.772V175.706V175.639V175.573V175.507V175.441V175.374V175.308V175.242V175.176V175.109V175.043V174.977V174.911V174.844V174.778V174.712V174.646V174.579V174.513V174.447V174.381V174.315V174.248V174.182V174.116V174.05V173.983V173.917V173.851V173.785V173.718V173.652V173.586V173.52V173.453V173.387V173.321V173.255V173.188V173.122V173.056V172.99V172.923V172.857V172.791V172.725V172.659V172.592V172.526V172.46V172.394V172.327V172.261V172.195V172.129V172.062V171.996V171.93V171.864V171.797V171.731V171.665V171.599V171.532V171.466V171.4V171.334V171.267V171.201V171.135V171.069V171.002V170.936V170.87V170.804V170.738V170.671V170.605V170.539V170.473V170.406V170.34V170.274V170.208V170.141V170.075V170.009V169.943V169.876V169.81V169.744V169.678V169.611V169.545V169.479V169.413V169.346V169.28V169.214V169.148V169.082V169.015V168.949V168.883V168.817V168.75V168.684V168.618V168.552V168.485V168.419V168.353V168.287V168.22V168.154V168.088V168.022V167.955V167.889V167.823V167.757V167.69V167.624V167.558V167.492V167.425V167.359V167.293V167.227V167.161V167.094V167.028V166.962V166.896V166.829V166.763V166.697V166.631V166.564V166.498V166.432V166.366V166.299V166.233V166.167V166.101V166.034V165.968V165.902V165.836V165.769V165.703V165.637V165.571V165.504V165.438V165.372V165.306V165.24V165.173V165.107V165.041V164.975V164.908V164.842V164.776V164.71V164.643V164.577V164.511V164.445V164.378V164.312V164.246V164.18V164.113V164.047V163.981V163.915V163.848V163.782V163.716V163.65V163.584V163.517V163.451V163.385V163.319V163.252V163.186V163.12V163.054V162.987V162.921V162.855V162.789V162.722V162.656V162.59V162.524V162.457V162.391V162.325V162.259V162.192V162.126V162.06V161.994V161.927V161.861V161.795V161.729V161.663V161.596V161.53V161.464V161.398V161.331V161.265V161.199V161.133V161.066V161V160.934V160.868V160.801V160.735V160.669V160.603V160.536V160.47V160.404V160.338V160.271V160.205V160.139V160.073V160.007V159.94V159.874V159.808V159.742V159.675V159.609V159.543V159.477V159.41V159.344V159.278V159.212V159.145V159.079V159.013V158.947V158.88V158.814V158.748V158.682V158.615V158.549V158.483V158.417V158.35V158.284V158.218V158.152V158.086V158.019V157.953V157.887V157.821V157.754V157.688V157.622V157.556V157.489V157.423V157.357V157.291V157.224V157.158V157.092V157.026V156.959V156.893V156.827V156.761V156.694V156.628V156.562V156.496V156.43V156.363V156.297V156.231V156.165V156.098V156.032V155.966V155.9V155.833V155.767V155.701V155.635V155.568V155.502V155.436V155.37V155.303V155.237V155.171V155.105V155.038V154.972V154.906V154.84V154.773V154.707V154.641V154.575V154.509V154.442V154.376V154.31V154.244V154.177V154.111V154.045V153.979V153.912V153.846V153.78V153.714V153.647V153.581V153.515V153.449V153.382V153.316V153.25V153.184V153.117V153.051V152.985V152.919V152.852V152.786V152.72V152.654V152.588V152.521V152.455V152.389V152.323V152.256V152.19V152.124V152.058V151.991V151.925V151.859V151.793V151.726V151.66V151.594V151.528V151.461V151.395V151.329V151.263V151.196V151.13V151.064V150.998V150.932V150.865V150.799V150.733V150.667V150.6V150.534V150.468V150.402V150.335V150.269V150.203V150.137V150.07V150.004V149.938V149.872V149.805V149.739V149.673V149.607V149.54V149.474V149.408V149.342V149.275V149.209V149.143V149.077V149.011V148.944V148.878V148.812V148.746V148.679V148.613V148.547V148.481V148.414V148.348V148.282V148.216V148.149V148.083V148.017V147.951V147.884V147.818V147.752V147.686V147.619V147.553V147.487V147.421V147.355V147.288V147.222V147.156V147.09V147.023V146.957V146.891V146.825V146.758V146.692V146.626V146.56V146.493V146.427V146.361V146.295V146.228V146.162V146.096V146.03V145.963V145.897V145.831V145.765V145.698V145.632V145.566V145.5V145.434V145.367V145.301V145.235V145.169V145.102V145.036V144.97V144.904V144.837V144.771V144.705V144.639V144.572V144.506V144.44V144.374V144.307V144.241V144.175V144.109V144.042V143.976V143.91V143.844V143.778V143.711V143.645V143.579V143.513V143.446V143.38V143.314V143.248V143.181V143.115V143.049V142.983V142.916V142.85V142.784V142.718V142.651C284.105 141.302 284.094 140.37 284.004 139.691C283.915 139.013 283.768 138.78 283.654 138.671C283.531 138.554 283.266 138.409 282.543 138.324C281.826 138.24 280.85 138.232 279.456 138.232H279.453C278.3 138.229 277.719 138.445 277.419 138.719C277.147 138.967 276.9 139.455 276.932 140.566L276.932 140.569C276.979 142.451 276.982 144.332 276.984 146.2L276.984 146.389C276.985 148.195 276.987 149.989 277.026 151.78C277.061 152.904 276.873 153.988 276.129 154.767C275.378 155.553 274.283 155.795 273.072 155.772L273.069 155.772C268.896 155.685 264.712 155.679 260.536 155.772L250.103 158.712ZM250.103 158.712V158.676V158.641V158.606V158.571V158.535V158.5V158.465V158.429V158.394V158.359V158.324V158.288V158.253V158.218V158.183V158.147V158.112V158.077V158.042V158.006V157.971V157.936V157.9V157.865V157.83V157.795V157.759V157.724V157.689V157.654V157.618V157.583V157.548V157.512V157.477V157.442V157.407V157.371V157.336V157.301V157.266V157.23V157.195V157.16V157.125V157.089V157.054V157.019V156.983V156.948V156.913V156.878V156.842V156.807V156.772V156.737V156.701V156.666V156.631V156.596V156.56V156.525V156.49V156.454V156.419V156.384V156.349V156.313V156.278V156.243V156.208V156.172V156.137V156.102V156.067V156.031V155.996V155.961V155.926V155.89V155.855V155.82V155.784V155.749V155.714V155.679V155.643V155.608V155.573V155.538V155.502V155.467V155.432V155.397V155.361V155.326V155.291V155.256V155.22V155.185V155.15V155.114V155.079V155.044V155.009V154.973V154.938V154.903V154.868V154.832V154.797V154.762V154.727V154.691V154.656V154.621V154.586V154.55V154.515V154.48V154.444V154.409V154.374V154.339V154.303V154.268V154.233V154.198V154.162V154.127V154.092V154.057V154.021V153.986V153.951V153.916V153.88V153.845V153.81V153.774V153.739V153.704V153.669V153.633V153.598V153.563V153.528V153.492V153.457V153.422V153.387V153.351V153.316V153.281V153.246V153.21V153.175V153.14V153.104V153.069V153.034V152.999V152.963V152.928V152.893V152.858V152.822V152.787V152.752V152.717V152.681V152.646V152.611V152.576V152.54V152.505V152.47V152.434V152.399V152.364V152.329V152.293V152.258V152.223V152.188V152.152V152.117V152.082V152.047V152.011V151.976V151.941V151.905V151.87V151.835V151.8V151.764V151.729V151.694V151.659V151.623V151.588V151.553V151.518V151.482V151.447V151.412V151.376V151.341V151.306V151.271V151.235V151.2V151.165V151.13V151.094V151.059V151.024V150.989V150.953V150.918V150.883V150.847V150.812V150.777V150.742V150.706V150.671V150.636V150.601V150.565V150.53V150.495V150.46V150.424V150.389V150.354V150.318V150.283V150.248V150.213V150.177V150.142V150.107V150.072V150.036V150.001V149.966V149.93V149.895V149.86V149.825V149.789V149.754V149.719V149.684V149.648V149.613V149.578V149.543V149.507V149.472V149.437V149.401V149.366V149.331V149.296V149.26V149.225V149.19V149.155V149.119V149.084V149.049V149.013V148.978V148.943V148.908V148.872V148.837V148.802V148.766V148.731V148.696V148.661V148.625V148.59V148.555V148.52V148.484V148.449V148.414V148.378V148.343V148.308V148.273V148.237V148.202V148.167V148.131V148.096V148.061V148.026V147.99V147.955V147.92V147.885V147.849V147.814V147.779V147.743V147.708V147.673V147.638V147.602V147.567V147.532V147.496V147.461V147.426V147.391V147.355V147.32V147.285V147.249V147.214V147.179V147.144V147.108V147.073V147.038V147.002V146.967V146.932V146.897V146.861V146.826V146.791V146.755V146.72V146.685V146.65V146.614V146.579V146.544V146.508V146.473V146.438V146.403V146.367V146.332V146.297V146.261V146.226V146.191V146.156V146.12V146.085V146.05V146.014V145.979V145.944V145.909V145.873V145.838V145.803V145.767V145.732V145.697V145.662V145.626V145.591V145.556V145.52V145.485V145.45V145.414V145.379V145.344V145.309V145.273V145.238V145.203V145.167V145.132V145.097V145.061V145.026V144.991V144.956V144.92V144.885V144.85V144.814V144.779V144.744V144.708V144.673V144.638V144.603V144.567V144.532V144.497V144.461V144.426V144.391V144.355V144.32V144.285V144.25V144.214V144.179V144.144V144.108V144.073V144.038V144.002V143.967V143.932V143.896V143.861V143.826V143.791V143.755V143.72V143.685V143.649V143.614V143.579V143.543V143.508V143.473V143.437V143.402V143.367V143.332V143.296V143.261V143.226V143.19V143.155V143.12V143.084V143.049V143.014V142.978V142.943V142.908V142.872V142.837V142.802V142.766V142.731V142.696V142.661V142.625V142.59V142.555V142.519V142.484V142.449V142.413V142.378V142.343V142.307V142.272V142.237V142.201V142.166V142.131V142.095V142.06V142.025V141.989V141.954V141.919V141.883V141.848V141.813V141.777V141.742V141.707V141.671V141.636V141.601V141.565V141.53V141.495V141.46V141.424V141.389V141.354V141.318V141.283V141.248V141.212V141.177V141.142V141.106V141.071V141.036V141V140.965V140.929V140.894V140.859V140.823V140.788V140.753V140.717V140.682V140.647C250.103 139.917 250.139 139.43 250.218 139.09C250.291 138.774 250.384 138.665 250.452 138.609C250.539 138.536 250.728 138.434 251.181 138.362C251.633 138.291 252.246 138.265 253.1 138.267H253.102M250.103 158.712L253.102 138.267M253.102 138.267C254.13 138.267 254.877 138.287 255.434 138.354M253.102 138.267L255.434 138.354M255.434 138.354C256.002 138.422 256.251 138.527 256.367 138.609M255.434 138.354L256.367 138.609M256.367 138.609C256.441 138.661 256.526 138.744 256.597 139.027M256.367 138.609L256.597 139.027M256.597 139.027C256.679 139.348 256.716 139.82 256.723 140.563M256.597 139.027L256.723 140.563M256.723 140.563C256.758 144.298 256.782 148.023 256.682 151.738C256.651 152.811 256.787 153.902 257.476 154.701C258.196 155.538 259.288 155.801 260.535 155.772L256.723 140.563Z" stroke="#E45325" stroke-width="2"/>
<path d="M409.965 159.297V159.322V159.353V159.385V159.416V159.448V159.479V159.511V159.542V159.574V159.605V159.637V159.668V159.7V159.731V159.763V159.794V159.826V159.858V159.889V159.921V159.952V159.984V160.015V160.047V160.078V160.11V160.141V160.173V160.204V160.236V160.267V160.299V160.33V160.362V160.393V160.425V160.456V160.488V160.519V160.551V160.582V160.614V160.645V160.677V160.708V160.74V160.771V160.803V160.835V160.866V160.898V160.929V160.961V160.992V161.024V161.055V161.087V161.118V161.15V161.181V161.213V161.244V161.276V161.307V161.339V161.37V161.402V161.433V161.465V161.496V161.528V161.559V161.591V161.622V161.654V161.685V161.717V161.748V161.78V161.811V161.843V161.875V161.906V161.938V161.969V162.001V162.032V162.064V162.095V162.127V162.158V162.19V162.221V162.253V162.284V162.316V162.347V162.379V162.41V162.442V162.473V162.505V162.536V162.568V162.599V162.631V162.662V162.694V162.725V162.757V162.788V162.82V162.851V162.883V162.915V162.946V162.978V163.009V163.041V163.072V163.104V163.135V163.167V163.198V163.23V163.261V163.293V163.324V163.356V163.387V163.419V163.45V163.482V163.513V163.545V163.576V163.608V163.639V163.671V163.702V163.734V163.765V163.797V163.828V163.86V163.892V163.923V163.955V163.986V164.018V164.049V164.081V164.112V164.144V164.175V164.207V164.238V164.27V164.301V164.333V164.364V164.396V164.427V164.459V164.49V164.522V164.553V164.585V164.616V164.648V164.679V164.711V164.742V164.774V164.805V164.837V164.868V164.9V164.932V164.963V164.995V165.026V165.058V165.089V165.121V165.152V165.184V165.215V165.247V165.278V165.31V165.341V165.373V165.404V165.436V165.467V165.499V165.53V165.562V165.593V165.625V165.656V165.688V165.719V165.751V165.782V165.814V165.845V165.877V165.909V165.94V165.972V166.003V166.035V166.066V166.098V166.129V166.161V166.192V166.224V166.255V166.287V166.318V166.35V166.381V166.413V166.444V166.476V166.507V166.539V166.57V166.602V166.633V166.665V166.696V166.728V166.759V166.791V166.822V166.854V166.885V166.917V166.949V166.98V167.012V167.043V167.075V167.106V167.138V167.169V167.201V167.232V167.264V167.295V167.327V167.358V167.39V167.421V167.453V167.484V167.516V167.547V167.579V167.61V167.642V167.673V167.705V167.736V167.768V167.799V167.831V167.862V167.894V167.925V167.957V167.989V168.02V168.052V168.083V168.115V168.146V168.178V168.209V168.241V168.272V168.304V168.335V168.367V168.398V168.43V168.461V168.493V168.524V168.556V168.587V168.619V168.65V168.682V168.713V168.745V168.776V168.808V168.839V168.871V168.902V168.934V168.966V168.997V169.029V169.06V169.092V169.123V169.155V169.186V169.218V169.249V169.281V169.312V169.344V169.375V169.407V169.438V169.47V169.501V169.533V169.564V169.596V169.627V169.659V169.69V169.722V169.753V169.785V169.816V169.848V169.879V169.911V169.942V169.974V170.006V170.037V170.069V170.1V170.132V170.163V170.195V170.226V170.258V170.289V170.321V170.352V170.384V170.415V170.447V170.478V170.51V170.541V170.573V170.604V170.636V170.667V170.699V170.73V170.762V170.793V170.825V170.856V170.888V170.919V170.951V170.983V171.014V171.046V171.077V171.109V171.14V171.172V171.203V171.235V171.266V171.298V171.329V171.361V171.392V171.424V171.455V171.487V171.518V171.55V171.581V171.613V171.644V171.676V171.707V171.739V171.77V171.802V171.833V171.865V171.896V171.928V171.959V171.991V172.023V172.054V172.086V172.117V172.149V172.18V172.212V172.243V172.275V172.306V172.338V172.369V172.401V172.432V172.464V172.495V172.527V172.558V172.59V172.621V172.653V172.684V172.716V172.747V172.779V172.81V172.842V172.873V172.905V172.936V172.968V172.999V173.031V173.063V173.094V173.126V173.157V173.189V173.22V173.252V173.283V173.315V173.346V173.378V173.409V173.441V173.472V173.504V173.535V173.567V173.598V173.63V173.661V173.693V173.724V173.756V173.787V173.819V173.85V173.882V173.913V173.945V173.976V174.008V174.04V174.071V174.103V174.134V174.166V174.197V174.229V174.26V174.292V174.323V174.355V174.386V174.418V174.449V174.481V174.512V174.544V174.575V174.607V174.638V174.67V174.701V174.733V174.764V174.796V174.827V174.859V174.89V174.922V174.953V174.985V175.016V175.021C409.959 176.489 409.972 177.516 410.072 178.263C410.173 179.013 410.341 179.284 410.479 179.411C410.623 179.544 410.922 179.694 411.702 179.753C412.475 179.812 413.523 179.77 415.008 179.694L415.009 179.694C415.994 179.643 416.442 179.41 416.641 179.192C416.815 179.001 416.985 178.614 416.854 177.735C416.575 175.883 416.542 174.043 416.556 172.255C416.559 171.792 416.565 171.335 416.572 170.882C416.59 169.561 416.608 168.274 416.551 166.979L416.55 166.956V166.934C416.55 166.819 416.54 166.698 416.526 166.527C416.522 166.486 416.519 166.442 416.515 166.395C416.498 166.178 416.478 165.893 416.5 165.604C416.523 165.31 416.592 164.952 416.793 164.609C417.004 164.248 417.322 163.969 417.732 163.788L417.734 163.787C418.166 163.596 418.61 163.531 419.049 163.61C419.477 163.688 419.82 163.89 420.083 164.103C420.341 164.312 420.551 164.556 420.714 164.762C420.797 164.866 420.876 164.971 420.945 165.062L420.948 165.067C421.018 165.16 421.076 165.237 421.133 165.309C422.501 167.021 423.956 168.675 425.428 170.35L425.57 170.512C427.085 172.236 428.616 173.983 430.05 175.802L430.05 175.802C431.298 177.386 432.588 178.464 434.005 179.098C435.414 179.728 437.02 179.949 438.958 179.706L409.965 159.297ZM409.965 159.297L409.976 159.285V158.869C409.976 157.183 409.981 155.495 409.985 153.805C409.995 149.479 410.006 145.139 409.947 140.797C409.948 139.69 410.131 139.135 410.39 138.84C410.62 138.576 411.102 138.308 412.3 138.308C413.462 138.308 414.34 138.327 415.017 138.397C415.704 138.469 416.085 138.584 416.31 138.711C416.612 138.882 416.859 139.19 416.939 140.722L416.939 140.734L416.94 140.745C417.175 143.858 417.095 146.985 416.7 150.081C416.679 150.216 416.653 150.344 416.621 150.498C416.6 150.6 416.577 150.713 416.551 150.848C416.493 151.148 416.433 151.518 416.434 151.893C416.435 152.268 416.497 152.724 416.751 153.15C417.018 153.598 417.437 153.91 417.961 154.083C418.97 154.425 419.833 154.011 420.414 153.547C420.983 153.092 421.44 152.471 421.748 152.034C423.639 149.366 425.817 146.994 428.043 144.569C429.1 143.418 430.169 142.254 431.222 141.041C432.248 139.866 433.992 138.899 435.93 138.387C437.871 137.874 439.836 137.862 441.271 138.406L441.272 138.406C441.562 138.516 441.694 138.61 441.748 138.658C441.726 138.726 441.671 138.842 441.552 139.011C441.418 139.203 441.253 139.395 441.068 139.608L441.067 139.609C438.62 142.45 436.082 145.218 433.508 147.97C430.931 150.725 428.237 153.573 425.476 156.278L425.469 156.285L425.463 156.291C424.854 156.91 424.271 157.645 424.183 158.553C424.09 159.519 424.576 160.353 425.289 161.111L426.017 160.425M409.965 159.297L437.498 172.863C433.691 168.701 429.882 164.536 426.017 160.425M426.017 160.425L425.289 161.11C429.149 165.216 432.951 169.373 436.757 173.535C437.855 174.736 438.954 175.937 440.054 177.137L440.055 177.139M426.017 160.425L440.055 177.139M440.055 177.139C440.189 177.284 440.355 177.453 440.506 177.607M440.055 177.139L440.506 177.607M440.506 177.607C440.597 177.7 440.683 177.787 440.752 177.86M440.506 177.607L440.752 177.86M440.752 177.86C440.969 178.087 441.138 178.282 441.261 178.469M440.752 177.86L441.261 178.469M441.261 178.469C441.479 178.797 441.521 179.028 441.388 179.348M441.261 178.469L441.388 179.348M441.388 179.348C441.314 179.528 441.242 179.581 441.204 179.604M441.388 179.348L441.204 179.604M441.204 179.604C441.147 179.638 441.043 179.677 440.832 179.694M441.204 179.604L440.832 179.694M440.832 179.694C440.623 179.711 440.395 179.701 440.086 179.688M440.832 179.694L440.086 179.688M440.086 179.688L440.035 179.686M440.086 179.688L440.035 179.686M440.035 179.686C439.731 179.673 439.342 179.658 438.958 179.706L440.035 179.686Z" stroke="#E45325" stroke-width="2"/>
<path d="M307.43 143.234C307.374 143.375 307.317 143.515 307.259 143.656C307.179 143.854 307.098 144.053 307.019 144.254L307.43 143.234ZM307.43 143.234C309.591 137.774 310.824 137.115 316.826 137.879L307.43 143.234ZM325.038 176.059L325.037 176.056L325.02 176.004C324.621 174.817 324.297 173.854 323.962 173.115C323.619 172.356 323.212 171.711 322.58 171.256C321.947 170.8 321.208 170.62 320.381 170.537C319.579 170.457 318.568 170.459 317.325 170.462L317.272 170.462C317.272 170.462 317.272 170.462 317.271 170.462C316.349 170.462 315.438 170.471 314.532 170.48C312.743 170.498 310.977 170.516 309.196 170.463C307.969 170.416 306.795 170.582 305.817 171.181C304.81 171.8 304.148 172.793 303.798 174.118C303.746 174.31 303.668 174.51 303.565 174.756C303.547 174.797 303.529 174.839 303.51 174.884C303.424 175.086 303.323 175.325 303.238 175.565C302.761 176.825 302.409 177.714 302.064 178.362C301.724 179 301.439 179.311 301.145 179.493C300.848 179.677 300.426 179.801 299.668 179.836C298.901 179.871 297.904 179.811 296.506 179.707L296.505 179.707C295.837 179.658 295.378 179.58 295.07 179.479C294.767 179.38 294.708 179.291 294.704 179.284L294.704 179.284L294.704 179.284C294.701 179.28 294.647 179.203 294.68 178.914C294.715 178.611 294.834 178.181 295.073 177.573L295.073 177.571C299.36 166.589 303.652 155.605 307.95 144.619C308.029 144.419 308.104 144.235 308.181 144.045C308.238 143.904 308.297 143.76 308.359 143.605L308.36 143.602C309.455 140.835 310.199 139.648 311.18 139.093C312.177 138.529 313.649 138.483 316.699 138.871L316.7 138.871C317.38 138.957 317.744 139.219 318.015 139.555C318.324 139.938 318.529 140.431 318.809 141.107C318.817 141.126 318.826 141.146 318.834 141.166C322.892 151.554 326.928 161.947 330.943 172.347L330.945 172.352C331.581 173.97 332.23 175.592 332.91 177.206L332.91 177.207C333.216 177.93 333.382 178.444 333.44 178.81C333.468 178.988 333.466 179.1 333.456 179.166C333.448 179.226 333.435 179.243 333.434 179.244C333.433 179.246 333.418 179.27 333.353 179.308C333.284 179.349 333.168 179.4 332.98 179.449C332.601 179.549 332.047 179.613 331.253 179.639C330.842 179.617 330.462 179.605 330.071 179.611C329.031 179.611 328.282 179.587 327.705 179.505C327.139 179.424 326.812 179.295 326.579 179.131C326.349 178.968 326.125 178.711 325.874 178.219C325.616 177.714 325.361 177.028 325.038 176.059ZM316.191 165.632V165.632L316.202 165.632C317.036 165.624 317.757 165.6 318.321 165.502C318.858 165.41 319.518 165.211 319.918 164.621C320.318 164.031 320.258 163.343 320.145 162.807C320.025 162.244 319.779 161.561 319.473 160.775C319.129 159.881 318.774 159.008 318.422 158.147C317.54 155.982 316.685 153.882 316.102 151.658L316.102 151.658L316.099 151.649C316.091 151.618 316.081 151.577 316.069 151.528C316.011 151.293 315.909 150.874 315.741 150.542C315.488 150.041 315.011 149.539 314.192 149.459C313.793 149.42 313.409 149.478 313.06 149.65C312.717 149.82 312.475 150.069 312.303 150.312C312.039 150.685 311.878 151.161 311.784 151.437C311.769 151.481 311.756 151.519 311.744 151.552L311.742 151.556C311.335 152.713 310.963 153.835 310.593 154.947C310.14 156.308 309.692 157.657 309.191 159.041C309.191 159.041 309.191 159.041 309.191 159.042L309.146 159.167C308.698 160.401 308.333 161.409 308.143 162.188C307.962 162.931 307.832 163.844 308.361 164.572C308.881 165.289 309.786 165.47 310.56 165.55C311.384 165.635 312.494 165.634 313.865 165.632L313.96 165.632H313.961H316.191Z" stroke="#E45325" stroke-width="2"/>
<path d="M223.232 179.617L223.232 179.617C223.569 179.628 223.914 179.619 224.284 179.605C224.339 179.604 224.395 179.601 224.452 179.599C224.76 179.588 225.088 179.576 225.415 179.576C226.423 179.54 226.928 179.308 227.195 179.032C227.457 178.761 227.682 178.247 227.651 177.18C227.542 173.674 227.564 170.153 227.586 166.653C227.593 165.545 227.599 164.44 227.602 163.338L227.504 163.332V162.388C227.504 160.947 227.513 159.51 227.521 158.078C227.543 154.594 227.565 151.131 227.457 147.665L227.457 147.664C227.416 146.325 227.659 145.113 228.557 144.341C229.436 143.584 230.657 143.503 231.897 143.651C233.067 143.786 234.22 143.866 235.399 143.947C235.973 143.986 236.553 144.026 237.144 144.073L237.146 144.073C238.368 144.172 238.821 143.868 239.037 143.585C239.32 143.215 239.482 142.532 239.454 141.365C239.43 140.491 239.395 139.858 239.321 139.382C239.246 138.902 239.146 138.696 239.071 138.6C239.02 138.533 238.93 138.448 238.644 138.377C238.328 138.299 237.862 138.261 237.141 138.261C234.229 138.261 231.313 138.265 228.397 138.27C222.56 138.279 216.719 138.288 210.883 138.261L223.232 179.617ZM223.232 179.617C222.384 179.591 221.796 179.547 221.371 179.461C220.954 179.376 220.803 179.271 220.735 179.202C220.669 179.135 220.569 178.989 220.497 178.583C220.423 178.166 220.396 177.589 220.396 176.753V176.697V176.641V176.585V176.529V176.473V176.417V176.361V176.305V176.249V176.193V176.137V176.081V176.025V175.969V175.912V175.856V175.8V175.744V175.688V175.632V175.576V175.52V175.464V175.408V175.352V175.296V175.24V175.184V175.128V175.072V175.016V174.96V174.904V174.848V174.792V174.736V174.68V174.624V174.568V174.512V174.456V174.4V174.344V174.288V174.232V174.175V174.119V174.063V174.007V173.951V173.895V173.839V173.783V173.727V173.671V173.615V173.559V173.503V173.447V173.391V173.335V173.279V173.223V173.167V173.111V173.055V172.999V172.943V172.887V172.831V172.775V172.719V172.663V172.607V172.551V172.495V172.438V172.382V172.326V172.27V172.214V172.158V172.102V172.046V171.99V171.934V171.878V171.822V171.766V171.71V171.654V171.598V171.542V171.486V171.43V171.374V171.318V171.262V171.206V171.15V171.094V171.038V170.982V170.926V170.87V170.814V170.758V170.701V170.645V170.589V170.533V170.477V170.421V170.365V170.309V170.253V170.197V170.141V170.085V170.029V169.973V169.917V169.861V169.805V169.749V169.693V169.637V169.581V169.525V169.469V169.413V169.357V169.301V169.245V169.189V169.133V169.077V169.02V168.964V168.908V168.852V168.796V168.74V168.684V168.628V168.572V168.516V168.46V168.404V168.348V168.292V168.236V168.18V168.124V168.068V168.012V167.956V167.9V167.844V167.788V167.732V167.676V167.62V167.564V167.508V167.452V167.395V167.339V167.283V167.227V167.171V167.115V167.059V167.003V166.947V166.891V166.835V166.779V166.723V166.667V166.611V166.555V166.499V166.443V166.387V166.331V166.275V166.219V166.163V166.107V166.051V165.995V165.939V165.883V165.826V165.77V165.714V165.658V165.602V165.546V165.49V165.434V165.378V165.322V165.266V165.21V165.154V165.098V165.042V164.986V164.93V164.874V164.818V164.762V164.706V164.65V164.594V164.538V164.482V164.426V164.37V164.313V164.257V164.201V164.145V164.089V164.033V163.977V163.921V163.865V163.809V163.753V163.697V163.641V163.585V163.529V163.473V163.417V163.361V163.305V163.249V163.193V163.137V163.081V163.025V162.969V162.913V162.856V162.8V162.744V162.688V162.632V162.576V162.52V162.464V162.408V162.352V162.296V162.24V162.184V162.128V162.072V162.016V161.96V161.904V161.848V161.792V161.736V161.68V161.624V161.568V161.511V161.455V161.399V161.343V161.287V161.231V161.175V161.119V161.063V161.007V160.951V160.895V160.839V160.783V160.727V160.671V160.615V160.559V160.503V160.447V160.391V160.335V160.279V160.223V160.166V160.11V160.054V159.998V159.942V159.886V159.83V159.774V159.718V159.662V159.606V159.55V159.494V159.438V159.382V159.326V159.27V159.214V159.158V159.102V159.046V158.99V158.934V158.877V158.821V158.765V158.709V158.653V158.597V158.541V158.485V158.429V158.373V158.317V158.261V158.205V158.149V158.093V158.037V157.981V157.925V157.869V157.813V157.757V157.701V157.644V157.588V157.532V157.476V157.42V157.364V157.308V157.252V157.196V157.14V157.084V157.028V156.972V156.916V156.86V156.804V156.748V156.692V156.636V156.58V156.524V156.467V156.411V156.355V156.299V156.243V156.187V156.131V156.075V156.019V155.963V155.907V155.851V155.795V155.739V155.683V155.627V155.571V155.515V155.459V155.403V155.346V155.29V155.234V155.178V155.122V155.066V155.01V154.954V154.898V154.842V154.786V154.73V154.674V154.618V154.562V154.506V154.45V154.394V154.338V154.282V154.225V154.169V154.113V154.057V154.001V153.945V153.889V153.833V153.777V153.721V153.665V153.609V153.553V153.497V153.441V153.385V153.329V153.273V153.216V153.16V153.104V153.048V152.992V152.936V152.88V152.824V152.768V152.712V152.656V152.6V152.544V152.488V152.432V152.376V152.32V152.264V152.207V152.151V152.095V152.039V151.983V151.927V151.871V151.815V151.759V151.703V151.647V151.591V151.535V151.479V151.423V151.367V151.311V151.255V151.198V151.142V151.086V151.03V150.974V150.918V150.862V150.806V150.75V150.694V150.638V150.582V150.526V150.47V150.414V150.358V150.302V150.245V150.189V150.133V150.077V150.021V149.965V149.909V149.853V149.797V149.741V149.685V149.629V149.573V149.517V149.461V149.405V149.348V149.292V149.236V149.18V149.124V149.068V149.012V148.956V148.9V148.844V148.788V148.732V148.676V148.62V148.564V148.508V148.451V148.395V148.339V148.283V148.227V148.171V148.115V148.059C220.396 147.263 220.36 146.558 220.231 145.966C220.099 145.363 219.851 144.79 219.361 144.36C218.875 143.933 218.275 143.754 217.66 143.684C217.051 143.614 216.332 143.639 215.517 143.706M223.232 179.617L215.517 143.706M215.517 143.706C214.963 143.749 214.436 143.802 213.922 143.854C212.973 143.949 212.068 144.04 211.126 144.058C209.611 144.087 209.061 143.849 208.79 143.554C208.476 143.212 208.244 142.501 208.181 140.803L215.517 143.706ZM208.181 140.802C208.14 139.65 208.403 139.099 208.718 138.807C209.059 138.492 209.696 138.255 210.883 138.261L208.181 140.802Z" stroke="#E45325" stroke-width="2"/>
<g clip-path="url(#clip0_162_373)">
<path d="M306.759 36.9998C307.324 37.3228 307.491 37.8768 307.179 38.4607C306.896 38.9893 306.432 39.3601 305.952 39.7092C304.652 40.6546 303.231 41.4242 301.897 42.3181C301.054 42.8852 300.204 43.4523 299.479 44.1517C298.698 44.9164 297.959 45.7202 297.266 46.5599C296.652 47.291 296.056 48.0332 295.654 48.9004C294.995 50.3228 295.306 51.4999 296.566 52.4788C297.578 53.2645 298.727 53.8043 299.897 54.3168C301.589 55.0584 303.2 55.928 304.57 57.161C305.914 58.3698 306.68 59.8767 306.942 61.6221C307.123 62.7561 307.209 63.9023 307.199 65.0496C307.163 67.1926 306.548 69.1697 305.194 70.8921C303.583 72.9419 301.435 74.196 298.84 74.6699C295.315 75.3141 292.171 74.4407 289.425 72.227C287.805 70.9226 286.771 69.2225 286.022 67.3454C285.49 66.0019 285.166 64.5903 285.058 63.1557C285.046 63.0857 285.026 63.017 284.999 62.9507V59.9692C285.067 59.4102 285.074 58.8449 285.107 58.2828C285.171 57.2144 285.455 56.1914 285.749 55.1715C286.254 53.4053 286.948 51.6946 287.818 50.0669C288.917 48.0053 290.239 46.0878 291.974 44.4765C293.458 43.0976 295.111 41.9168 296.843 40.8453C298.301 39.9398 299.815 39.1216 301.377 38.3955C302.178 38.0228 303.001 37.706 303.825 37.3855C304.482 37.129 305.173 37.0886 305.862 36.9985L306.759 36.9998Z" fill="#FFC532"/>
<path d="M323.383 75.0002C322.748 74.8691 322.098 74.8033 321.474 74.6275C319.444 74.0647 317.672 73.069 316.239 71.5751C314.972 70.2552 314.11 68.6837 313.517 66.9786C312.803 64.9251 312.565 62.8039 312.683 60.651C312.819 58.0944 313.397 55.6197 314.327 53.2258C315.057 51.3478 315.997 49.5524 317.13 47.8715C318.518 45.8062 320.302 44.121 322.337 42.6644C324.502 41.1109 326.816 39.7634 329.248 38.6406C330.514 38.0586 331.803 37.5319 333.178 37.235C333.345 37.1989 333.513 37.1679 333.682 37.1467C334.228 37.079 334.739 37.0983 335.003 37.6828V38.3661C334.939 38.9984 334.516 39.4009 334.04 39.7649C333.073 40.5034 332.019 41.1196 330.987 41.765C329.729 42.5526 328.451 43.3259 327.38 44.344C326.16 45.5037 325.037 46.7547 324.073 48.133C323.807 48.5093 323.585 48.9133 323.412 49.3374C322.928 50.535 323.195 51.5363 324.214 52.3717C325.029 53.0388 325.942 53.5519 326.911 53.973C328.592 54.7035 330.237 55.4924 331.694 56.6061C333.457 57.9521 334.527 59.682 334.816 61.8399C334.92 62.6095 334.922 63.3928 334.932 64.1667C334.945 65.0935 334.976 66.0239 334.861 66.947C334.707 68.1824 334.229 69.3117 333.558 70.3633C332.106 72.6336 330.008 74.0746 327.369 74.797C326.841 74.9418 326.29 74.93 325.748 74.9734C325.644 74.9821 325.534 74.9418 325.436 75.0039L323.383 75.0002Z" fill="#FFC532"/>
</g>
<defs>
<clipPath id="clip0_162_373">
<rect width="50" height="38" fill="white" transform="translate(285 37)"/>
</clipPath>
</defs>
</svg>
