<svg width="251" height="60" viewBox="0 0 251 60" fill="none" xmlns="http://www.w3.org/2000/svg">
<rect x="0.000488281" width="78.049" height="59.0196" rx="9.4137" fill="white"/>
<rect x="86.2655" width="78.049" height="59.0196" rx="9.4137" fill="white"/>
<rect x="172.53" width="78.049" height="59.0196" rx="9.4137" fill="white"/>
<g clip-path="url(#clip0_99_358)">
<path d="M211.622 7.11947C211.226 7.31789 211.027 7.52197 210.823 7.96416C210.693 8.25328 210.681 8.34399 210.659 9.33607L210.636 10.4019H218.352H226.067V9.30773V8.20793L225.891 7.86212C225.699 7.47095 225.489 7.27254 225.075 7.07979L224.792 6.94373H218.38H211.968L211.622 7.11947Z" fill="#7738CF"/>
<path d="M204.553 10.4358C202.495 10.8724 201.004 12.6581 200.863 14.852L200.823 15.4473L200.415 15.0561C200.12 14.767 199.956 14.6536 199.802 14.6253C199.383 14.5459 199.003 14.7103 198.827 15.0504C198.72 15.2602 198.72 15.6911 198.822 15.8895C198.867 15.9745 199.445 16.5811 200.114 17.2387C201.815 18.9281 201.679 18.9281 203.38 17.2387C204.015 16.6151 204.581 16.0028 204.644 15.8895C204.871 15.4473 204.706 14.8974 204.281 14.7046C203.816 14.4949 203.482 14.5969 202.943 15.1241L202.586 15.4756L202.626 15.0051C202.694 14.1547 202.915 13.6218 203.419 13.0776C203.788 12.6808 204.145 12.437 204.615 12.2613C204.916 12.1536 205.097 12.1366 206.492 12.1082C207.932 12.0742 208.04 12.0685 208.187 11.9551C208.595 11.649 208.709 11.2238 208.482 10.8043C208.244 10.3565 208.181 10.3451 206.452 10.3508C205.358 10.3508 204.842 10.3791 204.553 10.4358Z" fill="#F3771E"/>
<path d="M210.659 14.3815L210.676 16.7228L210.829 17.046C211.022 17.4598 211.367 17.7943 211.759 17.9417C212.065 18.0551 212.161 18.0551 218.386 18.0551C224.559 18.0551 224.707 18.0551 225.007 17.9417C225.376 17.8056 225.75 17.4485 225.931 17.063C226.067 16.7795 226.067 16.7795 226.067 14.4098V12.0459H218.352H210.642L210.659 14.3815Z" fill="#7738CF"/>
<path d="M219.69 21.0936C219.514 21.19 217.473 23.1799 217.269 23.4576C216.895 23.9735 217.121 24.6822 217.711 24.8579C218.085 24.9713 218.369 24.8579 218.822 24.4157L219.208 24.0472V26.0938C219.208 27.358 219.185 28.2537 219.145 28.4407C218.975 29.2514 218.363 30.0734 217.643 30.4533C216.985 30.8047 216.906 30.8104 213.346 30.8104C210.234 30.8104 210.109 30.8161 209.882 30.9238C209.287 31.2129 209.241 32.0689 209.797 32.4431L209.99 32.5735L213.567 32.5565C217.082 32.5338 217.144 32.5338 217.552 32.4091C218.89 32.0009 219.967 31.0712 220.534 29.8353C220.925 28.9963 220.925 28.985 220.948 26.3999L220.971 24.0529L221.356 24.4214C221.77 24.8239 222.059 24.9486 222.416 24.8806C222.717 24.8239 223.04 24.4951 223.091 24.1946C223.165 23.7354 223.08 23.6164 221.849 22.3749C221.226 21.7399 220.614 21.173 220.5 21.1107C220.245 20.9803 219.922 20.9746 219.69 21.0936Z" fill="#F5883A"/>
<path d="M197.966 21.6265C197.569 21.8249 197.37 22.0346 197.178 22.4485L197.042 22.7319V28.7185V34.705L197.217 35.0508C197.41 35.4476 197.62 35.646 198.045 35.8388L198.334 35.9749L201.815 35.9578C205.273 35.9408 205.29 35.9408 205.523 35.8161C205.868 35.6347 206.265 35.1642 206.367 34.8184C206.498 34.3875 206.498 23.0381 206.367 22.6072C206.265 22.2614 205.868 21.7909 205.523 21.6095C205.29 21.4847 205.273 21.4847 201.804 21.4677L198.311 21.4507L197.966 21.6265ZM202.07 32.6811C202.41 32.8342 202.552 33.078 202.524 33.4635C202.507 33.7186 202.473 33.7979 202.297 33.968C202.127 34.1437 202.047 34.1778 201.792 34.1948C201.401 34.2231 201.157 34.0814 201.004 33.7299C200.817 33.3047 201.004 32.8342 201.435 32.6471C201.668 32.5451 201.792 32.5507 202.07 32.6811Z" fill="#7738CF"/>
</g>
<path d="M16.2914 49.4978V42.6515H20.5838V43.5407H17.3244V45.6267H20.3598V46.5126H17.3244V48.6086H20.6239V49.4978H16.2914ZM24.9087 45.6401V46.5092H21.8733V45.6401H24.9087ZM28.8124 49.4978V42.6515H31.2527C31.7854 42.6515 32.2266 42.7484 32.5765 42.9423C32.9264 43.1362 33.1883 43.4014 33.3621 43.7379C33.536 44.0722 33.6229 44.4489 33.6229 44.8678C33.6229 45.289 33.5348 45.6679 33.3588 46.0044C33.1849 46.3387 32.922 46.6039 32.5698 46.8001C32.2199 46.9939 31.7798 47.0909 31.2494 47.0909H29.5712V46.215H31.1558C31.4923 46.215 31.7653 46.1571 31.9748 46.0412C32.1843 45.9231 32.3381 45.7626 32.4361 45.5598C32.5342 45.357 32.5832 45.1264 32.5832 44.8678C32.5832 44.6093 32.5342 44.3798 32.4361 44.1792C32.3381 43.9786 32.1832 43.8215 31.9715 43.7078C31.762 43.5942 31.4856 43.5374 31.1424 43.5374H29.8454V49.4978H28.8124ZM34.7536 49.4978V44.3631H35.7197V45.1787H35.7732C35.8668 44.9024 36.0317 44.6851 36.268 44.5269C36.5064 44.3664 36.7761 44.2862 37.077 44.2862C37.1394 44.2862 37.2129 44.2884 37.2976 44.2929C37.3845 44.2973 37.4525 44.3029 37.5015 44.3096V45.2656C37.4614 45.2545 37.3901 45.2422 37.2876 45.2289C37.185 45.2133 37.0825 45.2055 36.98 45.2055C36.7438 45.2055 36.5332 45.2556 36.3482 45.3559C36.1654 45.454 36.0206 45.591 35.9136 45.7671C35.8066 45.9409 35.7532 46.1393 35.7532 46.3621V49.4978H34.7536ZM40.3956 49.6014C39.8898 49.6014 39.4541 49.4933 39.0886 49.2772C38.7253 49.0588 38.4445 48.7523 38.2461 48.3579C38.05 47.9612 37.952 47.4965 37.952 46.9639C37.952 46.4379 38.05 45.9744 38.2461 45.5732C38.4445 45.172 38.7208 44.8589 39.0752 44.6338C39.4318 44.4087 39.8485 44.2962 40.3254 44.2962C40.6152 44.2962 40.896 44.3441 41.1679 44.4399C41.4398 44.5358 41.6838 44.6862 41.9 44.8912C42.1161 45.0963 42.2866 45.3626 42.4114 45.6902C42.5362 46.0156 42.5986 46.4112 42.5986 46.8769V47.2313H38.5169V46.4825H41.6192C41.6192 46.2195 41.5657 45.9866 41.4587 45.7838C41.3517 45.5788 41.2013 45.4172 41.0074 45.2991C40.8157 45.181 40.5907 45.1219 40.3321 45.1219C40.0513 45.1219 39.8062 45.191 39.5967 45.3292C39.3894 45.4651 39.229 45.6434 39.1153 45.864C39.0039 46.0824 38.9482 46.3198 38.9482 46.5761V47.1611C38.9482 47.5043 39.0083 47.7962 39.1287 48.0369C39.2513 48.2776 39.4217 48.4615 39.6401 48.5885C39.8586 48.7133 40.1137 48.7757 40.4057 48.7757C40.5951 48.7757 40.7678 48.749 40.9238 48.6955C41.0798 48.6398 41.2147 48.5573 41.3283 48.4481C41.442 48.3389 41.5289 48.2041 41.5891 48.0436L42.5351 48.2141C42.4594 48.4927 42.3234 48.7367 42.1273 48.9462C41.9334 49.1535 41.6894 49.3151 41.3952 49.4309C41.1032 49.5446 40.7701 49.6014 40.3956 49.6014ZM43.7077 51.4233V44.3631H44.6838V45.1954H44.7674C44.8253 45.0885 44.9089 44.9648 45.0181 44.8244C45.1273 44.684 45.2788 44.5614 45.4727 44.4567C45.6666 44.3497 45.9229 44.2962 46.2416 44.2962C46.6561 44.2962 47.0261 44.4009 47.3515 44.6104C47.6768 44.8199 47.932 45.1219 48.117 45.5164C48.3042 45.9108 48.3978 46.3855 48.3978 46.9405C48.3978 47.4954 48.3053 47.9712 48.1203 48.3679C47.9354 48.7624 47.6813 49.0666 47.3581 49.2805C47.035 49.4922 46.6662 49.5981 46.2516 49.5981C45.9396 49.5981 45.6844 49.5457 45.4861 49.441C45.29 49.3362 45.1362 49.2137 45.0248 49.0733C44.9133 48.9328 44.8275 48.808 44.7674 48.6988H44.7072V51.4233H43.7077ZM44.6871 46.9304C44.6871 47.2915 44.7395 47.6079 44.8443 47.8798C44.949 48.1517 45.1006 48.3645 45.2989 48.5183C45.4972 48.6699 45.7402 48.7456 46.0277 48.7456C46.3263 48.7456 46.5759 48.6665 46.7765 48.5083C46.9771 48.3478 47.1286 48.1305 47.2311 47.8564C47.3359 47.5823 47.3882 47.2736 47.3882 46.9304C47.3882 46.5917 47.337 46.2875 47.2345 46.0178C47.1342 45.7481 46.9826 45.5353 46.7798 45.3793C46.5792 45.2233 46.3285 45.1453 46.0277 45.1453C45.7379 45.1453 45.4928 45.22 45.2922 45.3693C45.0939 45.5186 44.9434 45.727 44.8409 45.9944C44.7384 46.2618 44.6871 46.5739 44.6871 46.9304ZM51.012 49.6115C50.6866 49.6115 50.3924 49.5513 50.1294 49.4309C49.8665 49.3084 49.6581 49.1312 49.5043 48.8994C49.3528 48.6676 49.277 48.3835 49.277 48.047C49.277 47.7572 49.3327 47.5188 49.4441 47.3316C49.5556 47.1444 49.706 46.9962 49.8954 46.887C50.0849 46.7778 50.2966 46.6953 50.5306 46.6396C50.7646 46.5839 51.0031 46.5415 51.246 46.5126C51.5535 46.4769 51.8031 46.4479 51.9948 46.4256C52.1865 46.4011 52.3257 46.3621 52.4127 46.3086C52.4996 46.2552 52.543 46.1682 52.543 46.0479V46.0245C52.543 45.7325 52.4606 45.5063 52.2957 45.3459C52.133 45.1854 51.89 45.1052 51.5669 45.1052C51.2304 45.1052 50.9652 45.1798 50.7713 45.3292C50.5796 45.4763 50.447 45.6401 50.3735 45.8206L49.4341 45.6066C49.5455 45.2946 49.7082 45.0428 49.9222 44.8511C50.1383 44.6572 50.3868 44.5168 50.6676 44.4299C50.9485 44.3408 51.2437 44.2962 51.5535 44.2962C51.7586 44.2962 51.9758 44.3207 52.2054 44.3697C52.4372 44.4165 52.6533 44.5035 52.8539 44.6305C53.0567 44.7575 53.2228 44.9392 53.352 45.1754C53.4813 45.4094 53.5459 45.7136 53.5459 46.088V49.4978H52.5698V48.7958H52.5297C52.465 48.925 52.3681 49.0521 52.2388 49.1769C52.1096 49.3017 51.9435 49.4053 51.7407 49.4878C51.5379 49.5702 51.295 49.6115 51.012 49.6115ZM51.2293 48.8092C51.5056 48.8092 51.7418 48.7546 51.938 48.6454C52.1363 48.5362 52.2867 48.3935 52.3893 48.2175C52.494 48.0392 52.5464 47.8486 52.5464 47.6458V46.9839C52.5107 47.0196 52.4416 47.053 52.3391 47.0842C52.2388 47.1132 52.1241 47.1388 51.9948 47.1611C51.8655 47.1811 51.7396 47.2001 51.617 47.2179C51.4945 47.2335 51.3919 47.2469 51.3095 47.258C51.1156 47.2826 50.9384 47.3238 50.778 47.3817C50.6197 47.4397 50.4927 47.5232 50.3969 47.6324C50.3033 47.7394 50.2565 47.8821 50.2565 48.0603C50.2565 48.3077 50.3478 48.4949 50.5306 48.622C50.7133 48.7468 50.9462 48.8092 51.2293 48.8092ZM54.8772 49.4978V44.3631H55.8768V49.4978H54.8772ZM55.382 43.5708C55.2082 43.5708 55.0589 43.5128 54.9341 43.3969C54.8115 43.2788 54.7502 43.1384 54.7502 42.9757C54.7502 42.8108 54.8115 42.6704 54.9341 42.5545C55.0589 42.4364 55.2082 42.3774 55.382 42.3774C55.5559 42.3774 55.7041 42.4364 55.8266 42.5545C55.9514 42.6704 56.0138 42.8108 56.0138 42.9757C56.0138 43.1384 55.9514 43.2788 55.8266 43.3969C55.7041 43.5128 55.5559 43.5708 55.382 43.5708ZM59.1437 49.5981C58.7291 49.5981 58.3592 49.4922 58.0338 49.2805C57.7106 49.0666 57.4566 48.7624 57.2716 48.3679C57.0889 47.9712 56.9975 47.4954 56.9975 46.9405C56.9975 46.3855 57.09 45.9108 57.275 45.5164C57.4622 45.1219 57.7185 44.8199 58.0438 44.6104C58.3692 44.4009 58.738 44.2962 59.1503 44.2962C59.469 44.2962 59.7253 44.3497 59.9192 44.4567C60.1153 44.5614 60.2669 44.684 60.3739 44.8244C60.4831 44.9648 60.5677 45.0885 60.6279 45.1954H60.6881V42.6515H61.6876V49.4978H60.7115V48.6988H60.6279C60.5677 48.808 60.4808 48.9328 60.3672 49.0733C60.2557 49.2137 60.102 49.3362 59.9058 49.441C59.7097 49.5457 59.4557 49.5981 59.1437 49.5981ZM59.3643 48.7456C59.6518 48.7456 59.8947 48.6699 60.093 48.5183C60.2936 48.3645 60.4452 48.1517 60.5477 47.8798C60.6524 47.6079 60.7048 47.2915 60.7048 46.9304C60.7048 46.5739 60.6535 46.2618 60.551 45.9944C60.4485 45.727 60.2981 45.5186 60.0997 45.3693C59.9014 45.22 59.6562 45.1453 59.3643 45.1453C59.0634 45.1453 58.8127 45.2233 58.6121 45.3793C58.4116 45.5353 58.26 45.7481 58.1575 46.0178C58.0572 46.2875 58.0071 46.5917 58.0071 46.9304C58.0071 47.2736 58.0583 47.5823 58.1608 47.8564C58.2633 48.1305 58.4149 48.3478 58.6155 48.5083C58.8183 48.6665 59.0679 48.7456 59.3643 48.7456Z" fill="black"/>
<path d="M102.843 49.4978H101.746L104.21 42.6515H105.403L107.867 49.4978H106.771L104.835 43.895H104.782L102.843 49.4978ZM103.027 46.8168H106.583V47.6859H103.027V46.8168ZM112.028 47.3684V44.3631H113.031V49.4978H112.048V48.6086H111.995C111.877 48.8827 111.687 49.1111 111.426 49.2939C111.168 49.4744 110.846 49.5647 110.46 49.5647C110.131 49.5647 109.839 49.4922 109.585 49.3474C109.333 49.2003 109.134 48.983 108.989 48.6955C108.847 48.408 108.776 48.0525 108.776 47.6291V44.3631H109.775V47.5088C109.775 47.8587 109.872 48.1372 110.066 48.3445C110.26 48.5518 110.512 48.6554 110.821 48.6554C111.009 48.6554 111.195 48.6086 111.38 48.515C111.567 48.4214 111.722 48.2799 111.844 48.0904C111.969 47.901 112.03 47.6603 112.028 47.3684ZM116.771 44.3631V45.1654H113.966V44.3631H116.771ZM114.718 43.1329H115.718V47.9901C115.718 48.184 115.747 48.33 115.805 48.4281C115.863 48.5239 115.937 48.5896 116.029 48.6253C116.122 48.6587 116.224 48.6754 116.333 48.6754C116.413 48.6754 116.484 48.6699 116.544 48.6587C116.604 48.6476 116.651 48.6387 116.684 48.632L116.865 49.4577C116.807 49.48 116.724 49.5023 116.617 49.5245C116.51 49.5491 116.377 49.5624 116.216 49.5647C115.953 49.5691 115.708 49.5223 115.481 49.4243C115.253 49.3262 115.069 49.1747 114.929 48.9696C114.789 48.7646 114.718 48.5072 114.718 48.1974V43.1329ZM119.984 49.6014C119.503 49.6014 119.083 49.4911 118.724 49.2705C118.365 49.0498 118.087 48.7412 117.888 48.3445C117.69 47.9478 117.591 47.4842 117.591 46.9538C117.591 46.4212 117.69 45.9554 117.888 45.5565C118.087 45.1576 118.365 44.8478 118.724 44.6271C119.083 44.4065 119.503 44.2962 119.984 44.2962C120.466 44.2962 120.886 44.4065 121.245 44.6271C121.603 44.8478 121.882 45.1576 122.08 45.5565C122.279 45.9554 122.378 46.4212 122.378 46.9538C122.378 47.4842 122.279 47.9478 122.08 48.3445C121.882 48.7412 121.603 49.0498 121.245 49.2705C120.886 49.4911 120.466 49.6014 119.984 49.6014ZM119.988 48.7624C120.3 48.7624 120.558 48.6799 120.763 48.515C120.968 48.3501 121.12 48.1305 121.218 47.8564C121.318 47.5823 121.368 47.2803 121.368 46.9505C121.368 46.6229 121.318 46.322 121.218 46.0479C121.12 45.7715 120.968 45.5498 120.763 45.3827C120.558 45.2155 120.3 45.1319 119.988 45.1319C119.673 45.1319 119.413 45.2155 119.205 45.3827C119 45.5498 118.848 45.7715 118.748 46.0479C118.649 46.322 118.6 46.6229 118.6 46.9505C118.6 47.2803 118.649 47.5823 118.748 47.8564C118.848 48.1305 119 48.3501 119.205 48.515C119.413 48.6799 119.673 48.7624 119.988 48.7624ZM126.519 46.1716V47.0374H123.484V46.1716H126.519ZM127.931 49.4978V42.6515H130.372C130.902 42.6515 131.342 42.7428 131.692 42.9256C132.044 43.1083 132.307 43.3613 132.481 43.6844C132.655 44.0054 132.742 44.3764 132.742 44.7976C132.742 45.2166 132.654 45.5855 132.478 45.9041C132.304 46.2206 132.041 46.4669 131.689 46.6429C131.339 46.819 130.899 46.907 130.368 46.907H128.52V46.0178H130.275C130.609 46.0178 130.881 45.9699 131.09 45.8741C131.302 45.7782 131.457 45.6389 131.555 45.4562C131.653 45.2734 131.702 45.0539 131.702 44.7976C131.702 44.5391 131.652 44.3151 131.552 44.1257C131.454 43.9363 131.299 43.7914 131.087 43.6911C130.878 43.5886 130.602 43.5374 130.261 43.5374H128.964V49.4978H127.931ZM131.311 46.4089L133.003 49.4978H131.826L130.168 46.4089H131.311ZM136.067 49.6014C135.561 49.6014 135.126 49.4933 134.76 49.2772C134.397 49.0588 134.116 48.7523 133.918 48.3579C133.722 47.9612 133.624 47.4965 133.624 46.9639C133.624 46.4379 133.722 45.9744 133.918 45.5732C134.116 45.172 134.392 44.8589 134.747 44.6338C135.103 44.4087 135.52 44.2962 135.997 44.2962C136.287 44.2962 136.568 44.3441 136.839 44.4399C137.111 44.5358 137.355 44.6862 137.572 44.8912C137.788 45.0963 137.958 45.3626 138.083 45.6902C138.208 46.0156 138.27 46.4112 138.27 46.8769V47.2313H134.189V46.4825H137.291C137.291 46.2195 137.237 45.9866 137.13 45.7838C137.023 45.5788 136.873 45.4172 136.679 45.2991C136.487 45.181 136.262 45.1219 136.004 45.1219C135.723 45.1219 135.478 45.191 135.268 45.3292C135.061 45.4651 134.901 45.6434 134.787 45.864C134.675 46.0824 134.62 46.3198 134.62 46.5761V47.1611C134.62 47.5043 134.68 47.7962 134.8 48.0369C134.923 48.2776 135.093 48.4615 135.312 48.5885C135.53 48.7133 135.785 48.7757 136.077 48.7757C136.267 48.7757 136.439 48.749 136.595 48.6955C136.751 48.6398 136.886 48.5573 137 48.4481C137.114 48.3389 137.2 48.2041 137.261 48.0436L138.207 48.2141C138.131 48.4927 137.995 48.7367 137.799 48.9462C137.605 49.1535 137.361 49.3151 137.067 49.4309C136.775 49.5446 136.442 49.6014 136.067 49.6014ZM141.823 44.3631V45.1654H138.921V44.3631H141.823ZM139.717 49.4978V43.768C139.717 43.4471 139.787 43.1808 139.927 42.9691C140.068 42.7551 140.254 42.5958 140.486 42.491C140.718 42.384 140.969 42.3306 141.241 42.3306C141.442 42.3306 141.613 42.3473 141.756 42.3807C141.899 42.4119 142.005 42.4409 142.074 42.4676L141.84 43.2766C141.793 43.2632 141.733 43.2476 141.659 43.2298C141.586 43.2097 141.496 43.1997 141.392 43.1997C141.149 43.1997 140.975 43.2599 140.87 43.3802C140.768 43.5006 140.716 43.6744 140.716 43.9017V49.4978H139.717ZM142.854 49.4978V44.3631H143.854V49.4978H142.854ZM143.359 43.5708C143.185 43.5708 143.036 43.5128 142.911 43.3969C142.788 43.2788 142.727 43.1384 142.727 42.9757C142.727 42.8108 142.788 42.6704 142.911 42.5545C143.036 42.4364 143.185 42.3774 143.359 42.3774C143.533 42.3774 143.681 42.4364 143.804 42.5545C143.928 42.6704 143.991 42.8108 143.991 42.9757C143.991 43.1384 143.928 43.2788 143.804 43.3969C143.681 43.5128 143.533 43.5708 143.359 43.5708ZM146.198 42.6515V49.4978H145.198V42.6515H146.198ZM148.542 42.6515V49.4978H147.543V42.6515H148.542Z" fill="black"/>
<path d="M182.563 48.4978H180.532V42.222H182.628C183.243 42.222 183.771 42.3476 184.212 42.5989C184.653 42.8482 184.991 43.2067 185.226 43.6745C185.463 44.1403 185.582 44.699 185.582 45.3507C185.582 46.0044 185.462 46.5662 185.223 47.0361C184.986 47.506 184.643 47.8676 184.193 48.1209C183.744 48.3722 183.201 48.4978 182.563 48.4978ZM181.478 47.6704H182.511C182.989 47.6704 183.387 47.5805 183.703 47.4008C184.02 47.2189 184.257 46.9564 184.414 46.6132C184.571 46.268 184.65 45.8471 184.65 45.3507C184.65 44.8584 184.571 44.4406 184.414 44.0974C184.259 43.7542 184.027 43.4937 183.719 43.316C183.41 43.1382 183.027 43.0494 182.569 43.0494H181.478V47.6704ZM186.686 48.4978V43.791H187.602V48.4978H186.686ZM187.148 43.0647C186.989 43.0647 186.852 43.0116 186.738 42.9054C186.625 42.7971 186.569 42.6684 186.569 42.5192C186.569 42.3681 186.625 42.2394 186.738 42.1331C186.852 42.0249 186.989 41.9707 187.148 41.9707C187.308 41.9707 187.443 42.0249 187.556 42.1331C187.67 42.2394 187.727 42.3681 187.727 42.5192C187.727 42.6684 187.67 42.7971 187.556 42.9054C187.443 43.0116 187.308 43.0647 187.148 43.0647ZM190.808 50.3609C190.434 50.3609 190.112 50.3119 189.843 50.2138C189.575 50.1158 189.356 49.9861 189.187 49.8247C189.017 49.6633 188.891 49.4866 188.807 49.2945L189.594 48.9697C189.65 49.0596 189.723 49.1546 189.815 49.2547C189.909 49.3568 190.036 49.4437 190.195 49.5152C190.356 49.5867 190.564 49.6224 190.817 49.6224C191.164 49.6224 191.451 49.5376 191.678 49.3681C191.905 49.2006 192.018 48.9329 192.018 48.5652V47.6398H191.96C191.905 47.7399 191.825 47.8512 191.721 47.9738C191.619 48.0964 191.478 48.2026 191.298 48.2925C191.118 48.3824 190.884 48.4273 190.596 48.4273C190.225 48.4273 189.89 48.3405 189.591 48.1669C189.295 47.9912 189.06 47.7327 188.887 47.3916C188.715 47.0484 188.629 46.6265 188.629 46.126C188.629 45.6255 188.714 45.1965 188.883 44.839C189.055 44.4815 189.29 44.2077 189.588 44.0177C189.887 43.8257 190.225 43.7297 190.603 43.7297C190.895 43.7297 191.131 43.7787 191.31 43.8768C191.49 43.9728 191.63 44.0851 191.73 44.2138C191.832 44.3425 191.911 44.4559 191.966 44.554H192.034V43.791H192.931V48.602C192.931 49.0065 192.838 49.3385 192.65 49.5979C192.462 49.8574 192.207 50.0494 191.887 50.174C191.568 50.2986 191.208 50.3609 190.808 50.3609ZM190.799 47.6674C191.062 47.6674 191.285 47.6061 191.467 47.4835C191.651 47.3589 191.79 47.1812 191.883 46.9503C191.979 46.7174 192.027 46.4386 192.027 46.1137C192.027 45.7971 191.981 45.5182 191.887 45.2772C191.793 45.0361 191.655 44.8482 191.473 44.7133C191.291 44.5764 191.066 44.508 190.799 44.508C190.523 44.508 190.293 44.5795 190.109 44.7225C189.925 44.8635 189.786 45.0555 189.692 45.2986C189.601 45.5417 189.555 45.8134 189.555 46.1137C189.555 46.4222 189.602 46.6929 189.696 46.9258C189.789 47.1587 189.928 47.3405 190.112 47.4712C190.298 47.602 190.527 47.6674 190.799 47.6674ZM194.16 48.4978V43.791H195.077V48.4978H194.16ZM194.623 43.0647C194.464 43.0647 194.327 43.0116 194.212 42.9054C194.1 42.7971 194.044 42.6684 194.044 42.5192C194.044 42.3681 194.1 42.2394 194.212 42.1331C194.327 42.0249 194.464 41.9707 194.623 41.9707C194.782 41.9707 194.918 42.0249 195.031 42.1331C195.145 42.2394 195.202 42.3681 195.202 42.5192C195.202 42.6684 195.145 42.7971 195.031 42.9054C194.918 43.0116 194.782 43.0647 194.623 43.0647ZM198.506 43.791V44.5264H195.935V43.791H198.506ZM196.625 42.6633H197.541V47.1158C197.541 47.2935 197.568 47.4273 197.621 47.5172C197.674 47.6051 197.742 47.6653 197.826 47.698C197.912 47.7286 198.005 47.744 198.105 47.744C198.178 47.744 198.243 47.7389 198.298 47.7286C198.353 47.7184 198.396 47.7103 198.427 47.7041L198.592 48.461C198.539 48.4815 198.463 48.5019 198.365 48.5223C198.267 48.5448 198.145 48.557 197.998 48.5591C197.757 48.5632 197.532 48.5203 197.323 48.4304C197.115 48.3405 196.947 48.2016 196.818 48.0136C196.689 47.8257 196.625 47.5897 196.625 47.3058V42.6633ZM200.89 48.602C200.591 48.602 200.322 48.5468 200.081 48.4365C199.84 48.3242 199.649 48.1617 199.508 47.9493C199.369 47.7368 199.299 47.4764 199.299 47.1679C199.299 46.9023 199.35 46.6837 199.452 46.5121C199.555 46.3405 199.692 46.2046 199.866 46.1045C200.04 46.0044 200.234 45.9289 200.448 45.8778C200.663 45.8267 200.881 45.7879 201.104 45.7613C201.386 45.7286 201.615 45.7021 201.791 45.6817C201.966 45.6592 202.094 45.6234 202.174 45.5744C202.253 45.5254 202.293 45.4457 202.293 45.3354V45.3139C202.293 45.0463 202.218 44.839 202.066 44.6919C201.917 44.5448 201.695 44.4712 201.398 44.4712C201.09 44.4712 200.847 44.5397 200.669 44.6766C200.493 44.8114 200.372 44.9615 200.304 45.127L199.443 44.9309C199.545 44.6449 199.695 44.414 199.891 44.2383C200.089 44.0606 200.317 43.9319 200.574 43.8522C200.831 43.7705 201.102 43.7297 201.386 43.7297C201.574 43.7297 201.773 43.7521 201.984 43.7971C202.196 43.84 202.394 43.9197 202.578 44.0361C202.764 44.1525 202.916 44.319 203.035 44.5356C203.153 44.7501 203.212 45.029 203.212 45.3722V48.4978H202.318V47.8543H202.281C202.222 47.9728 202.133 48.0892 202.014 48.2036C201.896 48.318 201.744 48.413 201.558 48.4886C201.372 48.5642 201.149 48.602 200.89 48.602ZM201.089 47.8665C201.342 47.8665 201.559 47.8165 201.738 47.7164C201.92 47.6163 202.058 47.4855 202.152 47.3242C202.248 47.1607 202.296 46.9861 202.296 46.8001V46.1934C202.263 46.2261 202.2 46.2567 202.106 46.2853C202.014 46.3119 201.909 46.3354 201.791 46.3558C201.672 46.3742 201.557 46.3916 201.444 46.4079C201.332 46.4222 201.238 46.4345 201.162 46.4447C200.985 46.4672 200.822 46.505 200.675 46.5581C200.53 46.6112 200.414 46.6878 200.326 46.7879C200.24 46.886 200.197 47.0167 200.197 47.1801C200.197 47.4069 200.281 47.5785 200.448 47.6949C200.616 47.8093 200.829 47.8665 201.089 47.8665ZM205.349 42.222V48.4978H204.433V42.222H205.349ZM208.629 43.0371V42.222H213.486V43.0371H211.528V48.4978H210.584V43.0371H208.629ZM213.997 48.4978V43.791H214.883V44.5387H214.932C215.018 44.2853 215.169 44.0862 215.386 43.9411C215.604 43.794 215.851 43.7205 216.127 43.7205C216.184 43.7205 216.252 43.7225 216.329 43.7266C216.409 43.7307 216.471 43.7358 216.516 43.7419V44.6183C216.48 44.6081 216.414 44.5969 216.32 44.5846C216.226 44.5703 216.132 44.5632 216.038 44.5632C215.822 44.5632 215.629 44.6091 215.459 44.7011C215.292 44.791 215.159 44.9166 215.061 45.078C214.963 45.2373 214.914 45.4191 214.914 45.6234V48.4978H213.997ZM218.637 48.602C218.339 48.602 218.069 48.5468 217.828 48.4365C217.587 48.3242 217.396 48.1617 217.255 47.9493C217.116 47.7368 217.046 47.4764 217.046 47.1679C217.046 46.9023 217.098 46.6837 217.2 46.5121C217.302 46.3405 217.44 46.2046 217.613 46.1045C217.787 46.0044 217.981 45.9289 218.196 45.8778C218.41 45.8267 218.629 45.7879 218.851 45.7613C219.133 45.7286 219.362 45.7021 219.538 45.6817C219.713 45.6592 219.841 45.6234 219.921 45.5744C220 45.5254 220.04 45.4457 220.04 45.3354V45.3139C220.04 45.0463 219.965 44.839 219.814 44.6919C219.664 44.5448 219.442 44.4712 219.146 44.4712C218.837 44.4712 218.594 44.5397 218.416 44.6766C218.241 44.8114 218.119 44.9615 218.052 45.127L217.19 44.9309C217.293 44.6449 217.442 44.414 217.638 44.2383C217.836 44.0606 218.064 43.9319 218.321 43.8522C218.579 43.7705 218.849 43.7297 219.133 43.7297C219.321 43.7297 219.52 43.7521 219.731 43.7971C219.943 43.84 220.141 43.9197 220.325 44.0361C220.511 44.1525 220.663 44.319 220.782 44.5356C220.9 44.7501 220.96 45.029 220.96 45.3722V48.4978H220.065V47.8543H220.028C219.969 47.9728 219.88 48.0892 219.761 48.2036C219.643 48.318 219.491 48.413 219.305 48.4886C219.119 48.5642 218.896 48.602 218.637 48.602ZM218.836 47.8665C219.089 47.8665 219.306 47.8165 219.486 47.7164C219.667 47.6163 219.805 47.4855 219.899 47.3242C219.995 47.1607 220.043 46.9861 220.043 46.8001V46.1934C220.011 46.2261 219.947 46.2567 219.853 46.2853C219.761 46.3119 219.656 46.3354 219.538 46.3558C219.419 46.3742 219.304 46.3916 219.191 46.4079C219.079 46.4222 218.985 46.4345 218.91 46.4447C218.732 46.4672 218.569 46.505 218.422 46.5581C218.277 46.6112 218.161 46.6878 218.073 46.7879C217.987 46.886 217.944 47.0167 217.944 47.1801C217.944 47.4069 218.028 47.5785 218.196 47.6949C218.363 47.8093 218.577 47.8665 218.836 47.8665ZM223.096 45.7031V48.4978H222.18V43.791H223.059V44.557H223.118C223.226 44.3078 223.396 44.1076 223.626 43.9564C223.859 43.8053 224.152 43.7297 224.506 43.7297C224.827 43.7297 225.107 43.7971 225.349 43.9319C225.59 44.0647 225.777 44.2629 225.909 44.5264C226.042 44.7899 226.108 45.1158 226.108 45.5039V48.4978H225.192V45.6142C225.192 45.2731 225.103 45.0065 224.926 44.8144C224.748 44.6204 224.504 44.5233 224.193 44.5233C223.981 44.5233 223.792 44.5693 223.626 44.6612C223.463 44.7532 223.333 44.888 223.237 45.0657C223.143 45.2414 223.096 45.4539 223.096 45.7031ZM230.864 44.9401L230.034 45.0872C229.999 44.9809 229.944 44.8798 229.868 44.7838C229.795 44.6878 229.695 44.6091 229.568 44.5478C229.441 44.4866 229.283 44.4559 229.093 44.4559C228.834 44.4559 228.617 44.5141 228.444 44.6306C228.27 44.745 228.183 44.8931 228.183 45.0749C228.183 45.2322 228.241 45.3589 228.358 45.4549C228.474 45.5509 228.662 45.6296 228.922 45.6909L229.669 45.8625C230.102 45.9626 230.425 46.1168 230.638 46.3252C230.85 46.5336 230.956 46.8042 230.956 47.1372C230.956 47.4191 230.875 47.6704 230.711 47.8911C230.55 48.1097 230.324 48.2813 230.034 48.4059C229.746 48.5305 229.412 48.5928 229.032 48.5928C228.505 48.5928 228.075 48.4804 227.742 48.2557C227.409 48.029 227.205 47.7072 227.129 47.2904L228.015 47.1556C228.07 47.3865 228.183 47.5611 228.355 47.6796C228.526 47.7961 228.75 47.8543 229.026 47.8543C229.326 47.8543 229.566 47.792 229.746 47.6674C229.926 47.5407 230.016 47.3865 230.016 47.2046C230.016 47.0576 229.96 46.934 229.85 46.8339C229.742 46.7338 229.575 46.6582 229.351 46.6071L228.554 46.4324C228.115 46.3323 227.79 46.173 227.579 45.9544C227.371 45.7358 227.267 45.459 227.267 45.1239C227.267 44.8461 227.344 44.603 227.5 44.3946C227.655 44.1863 227.869 44.0238 228.143 43.9074C228.417 43.7889 228.731 43.7297 229.084 43.7297C229.593 43.7297 229.993 43.84 230.285 44.0606C230.577 44.2792 230.77 44.5724 230.864 44.9401ZM234.204 43.791V44.5264H231.544V43.791H234.204ZM232.273 48.4978V43.2455C232.273 42.9513 232.338 42.7072 232.466 42.5131C232.595 42.317 232.766 42.1709 232.978 42.0749C233.19 41.9769 233.421 41.9278 233.671 41.9278C233.854 41.9278 234.012 41.9431 234.142 41.9738C234.273 42.0024 234.37 42.0289 234.434 42.0535L234.219 42.795C234.176 42.7828 234.121 42.7685 234.054 42.7521C233.986 42.7338 233.904 42.7246 233.808 42.7246C233.586 42.7246 233.426 42.7797 233.33 42.89C233.236 43.0003 233.189 43.1597 233.189 43.3681V48.4978H232.273ZM236.992 48.5928C236.529 48.5928 236.129 48.4937 235.794 48.2956C235.461 48.0954 235.204 47.8145 235.022 47.4529C234.842 47.0892 234.752 46.6633 234.752 46.175C234.752 45.6929 234.842 45.268 235.022 44.9002C235.204 44.5325 235.457 44.2455 235.782 44.0392C236.109 43.8328 236.491 43.7297 236.928 43.7297C237.194 43.7297 237.451 43.7736 237.7 43.8614C237.949 43.9493 238.173 44.0872 238.371 44.2751C238.569 44.4631 238.726 44.7072 238.84 45.0075C238.955 45.3058 239.012 45.6684 239.012 46.0953V46.4202H235.27V45.7338H238.114C238.114 45.4927 238.065 45.2792 237.967 45.0933C237.869 44.9054 237.731 44.7572 237.553 44.649C237.377 44.5407 237.171 44.4866 236.934 44.4866C236.677 44.4866 236.452 44.5499 236.26 44.6766C236.07 44.8012 235.923 44.9646 235.819 45.1668C235.717 45.3671 235.665 45.5846 235.665 45.8196V46.3558C235.665 46.6704 235.721 46.938 235.831 47.1587C235.943 47.3793 236.1 47.5479 236.3 47.6643C236.5 47.7787 236.734 47.8359 237.002 47.8359C237.175 47.8359 237.333 47.8114 237.476 47.7624C237.619 47.7113 237.743 47.6357 237.847 47.5356C237.951 47.4355 238.031 47.3119 238.086 47.1648L238.954 47.3211C238.884 47.5765 238.759 47.8002 238.58 47.9922C238.402 48.1822 238.178 48.3303 237.909 48.4365C237.641 48.5407 237.336 48.5928 236.992 48.5928ZM240.028 48.4978V43.791H240.914V44.5387H240.963C241.049 44.2853 241.2 44.0862 241.416 43.9411C241.635 43.794 241.882 43.7205 242.158 43.7205C242.215 43.7205 242.283 43.7225 242.36 43.7266C242.44 43.7307 242.502 43.7358 242.547 43.7419V44.6183C242.51 44.6081 242.445 44.5969 242.351 44.5846C242.257 44.5703 242.163 44.5632 242.069 44.5632C241.853 44.5632 241.66 44.6091 241.49 44.7011C241.323 44.791 241.19 44.9166 241.092 45.078C240.994 45.2373 240.945 45.4191 240.945 45.6234V48.4978H240.028Z" fill="black"/>
<path d="M26.2638 13.2916C25.6726 13.4735 25.0984 14.059 24.9222 14.6559C24.8483 14.8833 24.8369 15.5996 24.8369 18.9822V23.0355L25.2803 22.7342C27.8499 20.9662 31.2552 21.2277 33.5405 23.3766C33.7736 23.5926 34.0749 23.9224 34.217 24.1156L34.4728 24.4567L35.9566 24.4624C37.3665 24.4624 37.4404 24.4681 37.5598 24.5761C37.7076 24.7126 37.7246 24.9854 37.5939 25.1105C37.5484 25.1617 37.5029 25.2071 37.4972 25.2128C37.4915 25.2185 36.9174 25.2413 36.2238 25.2583L34.9674 25.2867L35.1039 25.6108C35.2517 25.9576 35.4961 26.7932 35.553 27.1457L35.5871 27.3504L36.1272 27.3731C36.6161 27.3902 36.6843 27.4015 36.7809 27.5266C36.9287 27.7028 36.9174 27.8506 36.7468 28.0155C36.6217 28.1462 36.5649 28.1576 36.1215 28.1576H35.6383V28.368C35.6383 29.1013 35.3313 30.3122 34.9504 31.074L34.7344 31.5117L42.7899 31.5003L50.8454 31.4833L51.1467 31.3241C51.5731 31.1024 51.8516 30.8295 52.0733 30.4202L52.2666 30.0621V22.359V14.6559L52.062 14.2864C51.8175 13.8487 51.4196 13.4962 50.9648 13.3257L50.6407 13.2063L38.5774 13.212C28.5151 13.212 26.4742 13.229 26.2638 13.2916ZM48.4634 16.6513C48.5714 16.7025 48.7136 16.8276 48.7875 16.9242C48.9069 17.0948 48.9125 17.1516 48.9296 18.5785C48.941 19.977 48.9353 20.068 48.8273 20.2442C48.7647 20.3465 48.634 20.4773 48.5316 20.5398C48.3497 20.6478 48.2417 20.6535 46.0417 20.6535C42.9604 20.6535 43.1992 20.8241 43.1992 18.6297C43.1992 16.4126 42.9945 16.5604 46.0587 16.5604C47.9802 16.5604 48.2929 16.5718 48.4634 16.6513ZM42.9263 24.5306C43.1708 24.7296 43.148 25.0707 42.8808 25.1958C42.7842 25.2356 42.2384 25.2583 41.2436 25.2583C39.8167 25.2583 39.7371 25.2526 39.595 25.1389C39.396 24.9798 39.396 24.741 39.595 24.5818C39.7428 24.4681 39.8167 24.4624 41.2891 24.4624C42.4431 24.4624 42.8581 24.4795 42.9263 24.5306ZM48.7988 24.6045C48.8784 24.6784 48.941 24.7921 48.941 24.8604C48.941 24.9229 48.8784 25.0423 48.7988 25.1162L48.6624 25.2583H47.0934H45.5243L45.3879 25.1162C45.3083 25.0423 45.2458 24.9229 45.2458 24.8604C45.2458 24.7921 45.3083 24.6784 45.3879 24.6045L45.5243 24.4624H47.0934H48.6624L48.7988 24.6045ZM48.8329 27.5266C48.9808 27.7028 48.9694 27.8506 48.7988 28.0155L48.6624 28.1576H46.9058C45.2117 28.1576 45.1434 28.1519 44.9956 28.0382C44.808 27.8904 44.8023 27.6858 44.9899 27.4982L45.1321 27.356L46.9285 27.3731L48.7249 27.3902L48.8329 27.5266Z" fill="#7738CF"/>
<path d="M43.938 18.6354V19.9146H46.0414H48.1448V18.6354V17.3563H46.0414H43.938V18.6354Z" fill="#F5883A"/>
<path d="M27.8555 22.4443C26.6503 22.7172 25.7862 23.1777 24.9392 23.9963C24.1774 24.7297 23.626 25.6677 23.3474 26.6796C23.2337 27.106 23.2166 27.2879 23.2223 28.2145C23.2223 29.1923 23.2337 29.3003 23.3758 29.7779C24.0296 31.9268 25.6839 33.4617 27.8214 33.9051C28.5036 34.0472 29.5269 34.0472 30.2091 33.9051C32.5968 33.4105 34.4159 31.489 34.7911 29.0673C34.8821 28.4703 34.8252 27.2765 34.6774 26.7194C34.4046 25.6904 33.9157 24.8377 33.1425 24.0589C32.3978 23.3141 31.6474 22.865 30.5957 22.5523C30.1636 22.4216 29.9646 22.3989 29.1574 22.3818C28.4809 22.3647 28.117 22.3818 27.8555 22.4443ZM31.2608 27.0207C31.3233 27.0548 31.4029 27.1344 31.437 27.1969C31.5792 27.4641 31.4484 27.5721 29.7657 28.6238C28.8845 29.1753 28.0829 29.6699 27.9863 29.7267C27.6793 29.9029 27.577 29.8234 27.0369 29.0104C26.764 28.6068 26.5423 28.2259 26.5423 28.169C26.5423 28.0099 26.7527 27.8166 26.9346 27.8166C27.1222 27.8166 27.2245 27.9246 27.594 28.4817C27.7418 28.7091 27.8783 28.8967 27.884 28.8967C27.8953 28.8967 28.6003 28.459 29.453 27.9303C30.3057 27.3959 31.0334 26.9638 31.0789 26.9638C31.1187 26.9638 31.2039 26.9923 31.2608 27.0207Z" fill="#F3771E"/>
<g clip-path="url(#clip1_99_358)">
<path d="M127.563 31.1478C127.48 31.1478 127.397 31.1571 127.314 31.1571C123.626 31.1571 121.002 31.1571 117.315 31.1571C115.42 31.1571 113.908 29.9524 113.503 28.143C113.438 27.8686 113.41 27.5849 113.41 27.3011C113.41 23.1521 113.41 19.0031 113.41 14.8541C113.41 12.6819 115.093 11.0028 117.246 10.9982C118.006 10.9982 118.767 11.0121 119.527 10.9888C119.809 10.9795 119.855 11.0819 119.855 11.333C119.841 12.4308 119.85 13.5285 119.85 14.6262C119.85 16.0867 120.703 16.9426 122.15 16.9426C123.575 16.9426 123.935 16.9426 125.364 16.9426C126.807 16.9426 127.655 16.0774 127.655 14.6169C127.655 13.5006 127.659 12.3843 127.65 11.2633C127.65 11.0447 127.71 10.9842 127.927 10.9888C128.918 11.0261 129.914 10.9144 130.9 11.0493C132.638 11.2819 134.062 12.868 134.081 14.6309C134.108 17.1751 134.085 19.7241 134.094 22.2684C134.094 22.5289 133.961 22.487 133.804 22.4684C130.932 22.1288 128.208 23.8917 127.328 26.6686C126.876 28.0919 126.945 29.5012 127.498 30.8873C127.521 30.9525 127.549 31.0129 127.572 31.078C127.576 31.092 127.572 31.1153 127.572 31.1478H127.563ZM120.113 23.4824C119.2 23.4824 118.283 23.4824 117.37 23.4824C117.186 23.4824 117.084 23.5056 117.098 23.7289C117.117 24.0499 117.112 24.3708 117.098 24.6917C117.093 24.8452 117.149 24.8917 117.296 24.8871C119.172 24.8871 121.049 24.8871 122.925 24.8871C123.077 24.8871 123.127 24.8406 123.123 24.6871C123.114 24.3661 123.109 24.0452 123.123 23.7243C123.132 23.5336 123.072 23.4777 122.879 23.4777C121.957 23.487 121.03 23.4777 120.108 23.4777L120.113 23.4824ZM119.219 26.2825C118.592 26.2825 117.965 26.2918 117.342 26.2825C117.149 26.2825 117.093 26.343 117.103 26.529C117.117 26.85 117.112 27.1709 117.103 27.4919C117.098 27.65 117.158 27.6872 117.306 27.6872C118.596 27.6872 119.887 27.6872 121.178 27.6872C121.325 27.6872 121.38 27.6407 121.376 27.4872C121.367 27.1663 121.362 26.8453 121.376 26.5244C121.385 26.329 121.311 26.2778 121.127 26.2825C120.491 26.2918 119.855 26.2825 119.219 26.2825Z" fill="#7738CF"/>
<path d="M123.766 10.998C124.679 10.998 125.596 11.0029 126.509 10.998C126.721 10.998 126.809 11.0372 126.804 11.2969C126.79 12.5023 126.804 13.7125 126.795 14.9179C126.795 15.5156 126.527 15.7949 125.96 15.7949C124.49 15.7949 123.015 15.7949 121.544 15.7949C120.973 15.7949 120.71 15.5254 120.705 14.9228C120.701 13.7076 120.705 12.4876 120.701 11.2724C120.701 11.0519 120.765 10.998 120.964 11.0029C121.895 11.0127 122.831 11.0029 123.762 11.0029L123.766 10.998Z" fill="#F3771E"/>
<g clip-path="url(#clip2_99_358)">
<path d="M132.393 23.3956C131.455 23.5288 130.656 23.8618 129.933 24.42C129.704 24.5982 129.314 24.9821 129.124 25.2172C128.566 25.9086 128.209 26.7156 128.059 27.6264C128.008 27.9359 128.008 28.8251 128.059 29.1346C128.204 30.0141 128.54 30.7956 129.067 31.4753C129.246 31.7044 129.629 32.0942 129.865 32.2842C130.552 32.8385 131.318 33.1832 132.215 33.338C132.515 33.3909 133.237 33.4105 133.563 33.3772C135.063 33.2165 136.412 32.388 137.245 31.1129C137.668 30.4626 137.94 29.6967 138.024 28.9152C138.058 28.592 138.038 27.8693 137.985 27.5657C137.897 27.0525 137.758 26.6157 137.531 26.1574C137.292 25.6716 137.016 25.2799 136.622 24.8764C135.864 24.0968 134.936 23.611 133.843 23.4211C133.533 23.3682 132.695 23.3525 132.393 23.3956ZM133.625 25.4797C134.503 25.6834 135.177 26.1789 135.611 26.9428C135.666 27.0388 135.711 27.1289 135.711 27.1406C135.711 27.1543 135.719 27.17 135.731 27.1759C135.741 27.1818 135.788 27.1093 135.837 27.0133C135.942 26.8018 136.001 26.7313 136.109 26.6784C136.391 26.5413 136.738 26.7998 136.681 27.1015C136.673 27.1426 136.501 27.4971 136.297 27.8908C135.895 28.6645 135.852 28.7252 135.684 28.7722C135.631 28.7859 135.564 28.7899 135.521 28.782C135.439 28.7664 134.091 28.071 133.99 27.9907C133.913 27.93 133.854 27.8281 133.839 27.7302C133.809 27.552 133.954 27.3404 134.138 27.2934C134.277 27.2562 134.342 27.2758 134.695 27.4599C134.859 27.5461 135.002 27.6166 135.012 27.6166C135.034 27.6166 135.012 27.55 134.941 27.4109C134.722 26.9683 134.274 26.5628 133.811 26.3846C133.316 26.1926 132.701 26.2005 132.211 26.4002C131.941 26.5119 131.751 26.6412 131.527 26.8625C131.234 27.1524 131.065 27.4364 130.959 27.8164C130.891 28.0632 130.873 28.5215 130.92 28.7781C131.085 29.6478 131.759 30.3216 132.63 30.4881C132.852 30.5292 133.241 30.5292 133.439 30.4881C133.852 30.3999 134.148 30.2511 134.483 29.9631C134.607 29.8574 134.681 29.8084 134.742 29.7927C134.922 29.7477 135.114 29.8417 135.194 30.0121C135.284 30.206 135.243 30.3568 135.053 30.537C134.511 31.0483 133.776 31.3381 133.026 31.3381C131.766 31.3381 130.652 30.539 130.229 29.3344C130.113 29.0053 130.082 28.8036 130.082 28.3903C130.08 27.9731 130.103 27.8144 130.219 27.4579C130.523 26.5158 131.318 25.7676 132.276 25.5208C132.605 25.4346 132.709 25.4248 133.096 25.4326C133.363 25.4385 133.492 25.4503 133.625 25.4797Z" fill="#F3771E"/>
</g>
</g>
<defs>
<clipPath id="clip0_99_358">
<rect width="29.0256" height="29.0256" fill="white" transform="translate(197.042 6.94373)"/>
</clipPath>
<clipPath id="clip1_99_358">
<rect width="25.8877" height="22.7498" fill="white" transform="translate(112.346 10.984)"/>
</clipPath>
<clipPath id="clip2_99_358">
<rect width="10.1982" height="10.1982" fill="white" transform="translate(127.82 23.1953)"/>
</clipPath>
</defs>
</svg>
