<svg width="223" height="54" viewBox="0 0 223 54" fill="none" xmlns="http://www.w3.org/2000/svg">
<rect x="0.000488281" y="1" width="70.0626" height="52.9804" rx="8.45045" fill="white"/>
<rect x="76.0005" y="1" width="70.0626" height="52.9804" rx="8.45045" fill="white"/>
<rect x="152" y="1" width="70.0626" height="52.9804" rx="8.45045" fill="white"/>
<path d="M21.1888 27.6206C21.4133 27.1463 21.7875 26.9789 22.2911 27.0068C22.7333 27.0347 23.1756 27.0068 23.6519 27.0068C23.6519 26.8604 23.6519 26.7418 23.6519 26.6232C23.6519 22.8152 23.6519 19.0002 23.6519 15.1922C23.6519 14.4111 23.9445 14.1182 24.7134 14.1182C26.0674 14.1182 27.4215 14.1182 28.7755 14.1182C29.5376 14.1182 29.8166 14.4041 29.8166 15.1992C29.8166 19.0002 29.8166 22.8013 29.8166 26.6023V26.9789H32.062C32.062 26.8464 32.062 26.7209 32.062 26.5953C32.062 22.0132 32.062 17.431 32.062 12.8489C32.062 12.7442 32.062 12.6466 32.062 12.542C32.0892 12.0329 32.3954 11.6981 32.8921 11.6981C34.389 11.6841 35.886 11.6841 37.3897 11.6981C37.8864 11.6981 38.1926 12.0329 38.2198 12.542C38.2198 12.6466 38.2198 12.7442 38.2198 12.8489C38.2198 17.424 38.2198 21.9922 38.2198 26.5674C38.2198 26.6999 38.2198 26.8255 38.2198 26.9789H40.4652V26.6302C40.4652 23.1081 40.4652 19.5861 40.4652 16.064C40.4652 15.2969 40.751 15.0109 41.4995 15.0109C42.8875 15.0109 44.2756 15.0109 45.6705 15.0109C46.3033 15.0109 46.6231 15.3387 46.6231 15.9873C46.6231 19.5303 46.6231 23.0733 46.6231 26.6093V27.0068C47.0858 27.0068 47.5281 27.0068 47.9703 27.0068C48.0792 27.0068 48.1881 27.0068 48.2969 27.0068C48.7596 27.0417 49.0998 27.4183 49.0862 27.8716C49.0726 28.318 48.7324 28.6597 48.2697 28.6737C48.1881 28.6737 48.1064 28.6737 48.0248 28.6737C39.431 28.6737 30.844 28.6737 22.2502 28.6807C21.7467 28.6807 21.3929 28.5272 21.1888 28.053V27.6066L21.1888 27.6206ZM36.5596 26.9998V13.3998H33.7154V26.9998H36.5596ZM25.3053 26.9998H28.1563V15.8199H25.3053V26.9998ZM42.1187 16.6987V26.9929H44.9628V16.6987H42.1187Z" fill="#7738CF"/>
<path d="M46.4666 11.2238C45.6569 11.7329 44.8948 12.1862 44.16 12.6884C43.7041 12.9952 43.3026 13.0022 42.8263 12.7232C40.2951 11.2307 37.7571 9.75914 35.2192 8.2736C35.0491 8.17595 34.9198 8.16898 34.7497 8.25965C32.2117 9.48713 29.6601 10.7076 27.1221 11.9351C26.7479 12.1165 26.4213 12.0886 26.0742 11.8654C24.7406 11.0006 23.3934 10.1567 22.0597 9.29185C21.4882 8.92221 21.4882 8.15503 22.0529 7.82724C22.3727 7.6459 22.6789 7.70867 22.9783 7.89698C24.1418 8.64324 25.3054 9.37555 26.4621 10.1288C26.6322 10.2404 26.7615 10.2613 26.952 10.1636C29.4832 8.93616 32.028 7.71565 34.5728 6.48816C34.9266 6.3138 35.2464 6.35565 35.5798 6.55093C38.1246 8.03647 40.6694 9.51503 43.2142 11.0075C43.4047 11.1191 43.5408 11.1191 43.7245 11.0006C44.3165 10.61 44.922 10.2334 45.582 9.81493C45.3235 9.75216 45.1262 9.70334 44.9288 9.65452C44.3981 9.52201 44.1259 9.09657 44.2416 8.60139C44.3505 8.13411 44.7928 7.89698 45.3167 8.02252C46.1468 8.22477 46.9701 8.43401 47.8002 8.64324C48.3378 8.78272 48.5759 9.17329 48.4602 9.73124C48.2833 10.5751 48.1132 11.419 47.9363 12.2629C47.8479 12.6953 47.6097 12.9534 47.2627 13.0092C46.6775 13.1068 46.2421 12.6884 46.3101 12.0816C46.3373 11.8096 46.4054 11.5376 46.4666 11.2238Z" fill="#F3771E"/>
<path d="M125.405 25.6149C124.719 22.2637 121.956 20.0067 118.537 20.0067H118.394C118.281 20.0067 118.266 19.9915 118.258 19.8624C118.258 19.8624 117.897 13.5398 117.822 12.0504C117.806 11.8072 117.716 11.716 117.468 11.716C117.136 11.716 115.547 11.716 115.547 11.716C115.073 11.716 114.599 11.716 114.109 11.7236C114.004 11.7236 113.943 11.7084 113.913 11.678C113.883 11.6476 113.868 11.5792 113.876 11.4577C113.898 11.0625 113.891 10.6673 113.876 10.2646V10.1658C113.838 8.03802 112.603 6.25221 110.653 5.49989C110.397 5.4011 110.133 5.34791 109.877 5.28711C109.742 5.25672 109.606 5.22632 109.455 5.19592H108.409L108.273 5.21872L108.251 5.24912C106.27 5.53789 104.674 6.99693 104.177 8.96512C104.011 9.63385 104.018 10.3102 104.034 10.9713C104.034 11.1385 104.034 11.3057 104.034 11.4805C104.034 11.678 104.003 11.7084 103.808 11.7084C103.273 11.7084 102.746 11.7008 102.211 11.7008H100.366C100.231 11.7008 100.103 11.7312 100.088 11.9744C99.9672 14.2466 99.8316 16.5187 99.6961 18.7909L99.5229 21.8001C99.4476 23.13 99.3648 24.4675 99.2895 25.7973L99.2669 26.1545C99.2217 26.8004 99.1765 27.4615 99.3497 28.1227C99.8542 30.0529 101.541 31.3523 103.552 31.3599H107.385H113.1C113.243 31.3599 113.341 31.3599 113.439 31.4739C114.87 33.0697 116.594 33.8753 118.567 33.8753C118.981 33.8753 119.403 33.8373 119.84 33.7689C121.609 33.4801 123.236 32.4314 124.298 30.8888C125.367 29.3309 125.766 27.4007 125.405 25.5997V25.6149ZM115.058 30.562C114.094 29.5893 113.567 28.305 113.567 26.9372C113.567 24.1179 115.849 21.8229 118.642 21.8153L118.657 21.7394V21.8153C120.005 21.8153 121.278 22.3549 122.242 23.3276C123.206 24.3003 123.733 25.5921 123.733 26.9524C123.733 29.7717 121.451 32.0667 118.65 32.0742C117.294 32.0742 116.022 31.5423 115.058 30.5696V30.562ZM112.204 29.3765C112.249 29.5057 112.234 29.5285 112.234 29.5285C112.234 29.5285 112.211 29.5513 112.076 29.5513C111.338 29.5513 110.592 29.5513 109.854 29.5513H103.657C102.844 29.5513 102.166 29.2777 101.692 28.7686C101.21 28.2519 100.991 27.5299 101.044 26.694C101.142 25.2502 101.225 23.7987 101.3 22.3549L101.458 19.5356C101.571 17.5826 101.684 15.6296 101.79 13.6766C101.79 13.555 101.812 13.5398 101.925 13.5398C101.925 13.5398 102.603 13.5398 102.934 13.5398C103.25 13.5398 103.567 13.5398 103.898 13.5398C103.951 13.5398 103.981 13.5398 103.996 13.5626C104.018 13.5854 104.018 13.6462 104.018 13.6918C104.018 13.9502 104.018 14.201 104.018 14.4593C104.018 14.7481 104.018 15.0445 104.018 15.3332C104.018 15.4092 104.018 15.5004 104.086 15.5612C104.147 15.622 104.229 15.6296 104.312 15.6296C104.515 15.6296 104.726 15.6296 104.93 15.6296C105.133 15.6296 105.344 15.6296 105.562 15.6296C105.622 15.6296 105.705 15.6296 105.758 15.5612C105.818 15.5004 105.826 15.4092 105.818 15.3408C105.818 15.0977 105.818 14.8469 105.818 14.6037C105.818 14.3073 105.818 14.0186 105.818 13.7222C105.818 13.631 105.818 13.5778 105.848 13.5626C105.871 13.5398 105.916 13.5322 105.999 13.5322C105.999 13.5322 107.957 13.5322 108.936 13.5322C109.915 13.5322 110.894 13.5322 111.88 13.5322C111.963 13.5322 112.016 13.5398 112.038 13.5626C112.061 13.5854 112.068 13.631 112.068 13.7146C112.061 13.9882 112.068 14.2618 112.068 14.5353C112.068 14.7785 112.068 15.0293 112.068 15.2724C112.068 15.3788 112.068 15.4776 112.144 15.546C112.189 15.5916 112.264 15.622 112.4 15.622H112.407C112.588 15.6144 112.776 15.6068 112.957 15.6068C113.16 15.6068 113.364 15.6068 113.589 15.622C113.657 15.622 113.755 15.6144 113.815 15.546C113.868 15.4928 113.891 15.4168 113.883 15.2952C113.883 15.0369 113.883 14.7785 113.883 14.5201C113.883 14.2542 113.883 13.9958 113.883 13.7298C113.883 13.631 113.883 13.5778 113.913 13.555C113.936 13.5322 113.981 13.5246 114.071 13.5246C114.373 13.5322 114.674 13.5398 114.983 13.5398C115.291 13.5398 115.593 13.5398 115.924 13.5246C116.074 13.5246 116.105 13.5626 116.12 13.7298C116.172 14.6797 116.225 15.6372 116.278 16.5871L116.391 18.5933C116.421 19.1024 116.443 19.6116 116.481 20.1283C116.496 20.2879 116.474 20.3487 116.308 20.4171C113.928 21.3518 112.445 23.0996 111.91 25.6073C111.647 26.846 111.752 28.1151 112.227 29.3689L112.204 29.3765ZM109.229 7.04253C110.826 7.20971 112.016 8.51677 112.061 10.1506C112.061 10.3938 112.061 10.6369 112.061 10.8801C112.061 11.1081 112.061 11.3361 112.061 11.5716C112.061 11.64 112.061 11.678 112.038 11.7008C112.023 11.716 111.978 11.7312 111.903 11.7312C111.903 11.7312 110.909 11.7312 110.412 11.7312H107.422C106.955 11.7312 106.488 11.7312 106.014 11.7312C105.924 11.7312 105.871 11.7236 105.848 11.6932C105.826 11.6704 105.818 11.6172 105.818 11.5336C105.833 11.2905 105.826 11.0473 105.818 10.8041C105.811 10.371 105.803 9.92262 105.901 9.48946C106.232 8.06082 107.497 7.02733 108.913 7.02733C109.019 7.02733 109.116 7.02733 109.222 7.04253H109.229Z" fill="#7738CF"/>
<path d="M121.195 24.4599C121.112 24.3763 121.029 24.2927 120.916 24.2927C120.826 24.2927 120.743 24.3459 120.638 24.4523C120.194 24.9311 119.742 25.4022 119.29 25.8734C118.838 26.3445 118.386 26.8157 117.942 27.2944C117.874 27.3628 117.822 27.4008 117.791 27.4008C117.754 27.4008 117.694 27.34 117.641 27.2792C117.362 26.9372 117.069 26.6105 116.775 26.2761L116.466 25.919C116.428 25.8658 116.376 25.805 116.293 25.7822L116.187 25.8278L116.157 25.8506L115.081 26.8081C115.035 26.8537 115.005 26.8916 115.005 26.9448C115.005 27.0132 115.05 27.0664 115.103 27.1196C115.103 27.1196 116.978 29.255 117.55 29.9161C117.596 29.9693 117.656 30.0301 117.739 30.0301C117.822 30.0301 117.874 29.9769 117.919 29.9313C119.282 28.4951 120.653 27.0664 122.023 25.6454C122.069 25.5998 122.121 25.5314 122.121 25.4554C122.121 25.3794 122.069 25.3186 122.016 25.273C121.737 25.007 121.451 24.7411 121.188 24.4599H121.195Z" fill="#F3771E"/>
<path d="M108.785 5.18839C106.036 5.26439 103.92 7.63533 103.92 10.3558V15.3333C103.92 15.5081 104.056 15.6449 104.229 15.6449H105.532C105.705 15.6449 105.848 15.5005 105.848 15.3257V10.2874C105.848 8.69162 107.023 7.26297 108.627 7.10339C110.464 6.92101 112.023 8.35725 112.023 10.1431V15.3713C112.023 15.5157 112.136 15.6297 112.279 15.6297H113.687C113.83 15.6297 113.943 15.5157 113.943 15.3713V10.1507C113.951 7.36176 111.631 5.1124 108.785 5.18839Z" fill="#F3771E"/>
<path d="M28.1836 38.1943C28.1425 37.8472 27.9758 37.5778 27.6835 37.386C27.3913 37.1942 27.0328 37.0983 26.6081 37.0983C26.2976 37.0983 26.0259 37.1486 25.793 37.249C25.5624 37.3495 25.382 37.4876 25.2518 37.6634C25.124 37.8392 25.06 38.039 25.06 38.2628C25.06 38.45 25.1046 38.611 25.1936 38.7457C25.2849 38.8781 25.4014 38.9889 25.5429 39.0779C25.6845 39.1647 25.8329 39.2366 25.9882 39.2937C26.1434 39.3485 26.2862 39.393 26.4163 39.4273L27.1287 39.6191C27.3113 39.667 27.5146 39.7332 27.7383 39.8177C27.9644 39.9022 28.1801 40.0175 28.3856 40.1636C28.5934 40.3075 28.7646 40.4924 28.8994 40.7185C29.0341 40.9445 29.1014 41.2219 29.1014 41.5507C29.1014 41.9297 29.0021 42.2722 28.8035 42.5782C28.6071 42.8841 28.3194 43.1273 27.9404 43.3077C27.5636 43.4881 27.1058 43.5783 26.567 43.5783C26.0647 43.5783 25.6297 43.4972 25.2621 43.3351C24.8968 43.173 24.6091 42.9469 24.399 42.657C24.1912 42.367 24.0737 42.0302 24.0463 41.6466H24.923C24.9459 41.9115 25.0349 42.1307 25.1902 42.3042C25.3477 42.4754 25.5464 42.6033 25.7861 42.6878C26.0281 42.77 26.2884 42.8111 26.567 42.8111C26.8912 42.8111 27.1823 42.7586 27.4403 42.6535C27.6984 42.5462 27.9027 42.3978 28.0534 42.2083C28.2041 42.0165 28.2795 41.7927 28.2795 41.537C28.2795 41.3041 28.2144 41.1146 28.0842 40.9685C27.9541 40.8223 27.7828 40.7036 27.5705 40.6123C27.3582 40.5209 27.1287 40.441 26.8821 40.3725L26.019 40.1259C25.471 39.9684 25.0372 39.7435 24.7175 39.4512C24.3979 39.159 24.2381 38.7765 24.2381 38.3039C24.2381 37.9112 24.3442 37.5687 24.5566 37.2764C24.7712 36.9819 25.0589 36.7535 25.4197 36.5914C25.7827 36.427 26.188 36.3448 26.6355 36.3448C27.0876 36.3448 27.4894 36.4259 27.8411 36.588C28.1927 36.7478 28.4712 36.967 28.6767 37.2456C28.8845 37.5242 28.9941 37.8404 29.0055 38.1943H28.1836ZM31.9364 43.5783C31.603 43.5783 31.3005 43.5155 31.0288 43.3899C30.7571 43.262 30.5413 43.0782 30.3815 42.8385C30.2217 42.5964 30.1417 42.3042 30.1417 41.9617C30.1417 41.6603 30.2011 41.416 30.3198 41.2288C30.4386 41.0393 30.5973 40.8908 30.7959 40.7835C30.9945 40.6762 31.2137 40.5963 31.4535 40.5438C31.6955 40.489 31.9387 40.4456 32.183 40.4136C32.5027 40.3725 32.7618 40.3417 32.9604 40.3212C33.1614 40.2983 33.3075 40.2607 33.3988 40.2081C33.4925 40.1556 33.5393 40.0643 33.5393 39.9341V39.9067C33.5393 39.5688 33.4468 39.3062 33.2618 39.119C33.0792 38.9318 32.8018 38.8382 32.4296 38.8382C32.0437 38.8382 31.7412 38.9227 31.522 39.0916C31.3028 39.2606 31.1487 39.441 31.0596 39.6328L30.2924 39.3588C30.4294 39.0391 30.6121 38.7902 30.8404 38.6121C31.071 38.4318 31.3222 38.3062 31.5939 38.2354C31.8679 38.1623 32.1373 38.1258 32.4022 38.1258C32.5712 38.1258 32.7652 38.1463 32.9844 38.1874C33.2059 38.2263 33.4194 38.3073 33.6249 38.4306C33.8327 38.5539 34.005 38.74 34.142 38.9889C34.279 39.2377 34.3475 39.5711 34.3475 39.9889V43.455H33.5393V42.7426H33.4982C33.4434 42.8567 33.352 42.9789 33.2242 43.109C33.0963 43.2392 32.9262 43.3499 32.7139 43.4413C32.5015 43.5326 32.2424 43.5783 31.9364 43.5783ZM32.0597 42.8522C32.3794 42.8522 32.6488 42.7894 32.868 42.6638C33.0895 42.5382 33.2561 42.3761 33.368 42.1775C33.4822 41.9788 33.5393 41.7699 33.5393 41.5507V40.8109C33.505 40.852 33.4297 40.8897 33.3132 40.9239C33.1991 40.9559 33.0666 40.9845 32.9159 41.0096C32.7675 41.0324 32.6225 41.053 32.481 41.0712C32.3417 41.0872 32.2287 41.1009 32.1419 41.1123C31.9318 41.1397 31.7355 41.1842 31.5528 41.2459C31.3724 41.3053 31.2263 41.3954 31.1144 41.5165C31.0048 41.6352 30.95 41.7973 30.95 42.0028C30.95 42.2836 31.0539 42.496 31.2617 42.6398C31.4718 42.7814 31.7378 42.8522 32.0597 42.8522ZM36.6311 36.4407V43.455H35.8228V36.4407H36.6311ZM40.3172 43.5646C39.8103 43.5646 39.373 43.4527 39.0054 43.2289C38.6401 43.0029 38.3581 42.6878 38.1595 42.2836C37.9631 41.8772 37.8649 41.4046 37.8649 40.8657C37.8649 40.3269 37.9631 39.8519 38.1595 39.441C38.3581 39.0277 38.6344 38.7057 38.9883 38.4751C39.3445 38.2422 39.76 38.1258 40.235 38.1258C40.509 38.1258 40.7795 38.1715 41.0467 38.2628C41.3138 38.3541 41.557 38.5025 41.7762 38.708C41.9954 38.9112 42.17 39.1807 42.3002 39.5163C42.4303 39.8519 42.4954 40.2652 42.4954 40.7561V41.0986H38.4403V40.3999H41.6734C41.6734 40.1031 41.6141 39.8382 41.4953 39.6054C41.3789 39.3725 41.2122 39.1887 40.9953 39.0539C40.7807 38.9192 40.5272 38.8519 40.235 38.8519C39.913 38.8519 39.6345 38.9318 39.3993 39.0916C39.1664 39.2492 38.9872 39.4547 38.8616 39.7081C38.736 39.9615 38.6732 40.2333 38.6732 40.5232V40.989C38.6732 41.3863 38.7417 41.7231 38.8787 41.9994C39.018 42.2734 39.2109 42.4823 39.4575 42.6261C39.7041 42.7677 39.9906 42.8385 40.3172 42.8385C40.5295 42.8385 40.7213 42.8088 40.8925 42.7494C41.0661 42.6878 41.2156 42.5964 41.3412 42.4754C41.4668 42.3521 41.5638 42.1992 41.6323 42.0165L42.4132 42.2357C42.331 42.5005 42.1929 42.7334 41.9988 42.9344C41.8047 43.133 41.565 43.2883 41.2796 43.4002C40.9941 43.5098 40.6733 43.5646 40.3172 43.5646ZM47.4512 39.3725L46.7252 39.578C46.6795 39.4569 46.6121 39.3394 46.5231 39.2252C46.4363 39.1087 46.3176 39.0128 46.1669 38.9375C46.0162 38.8622 45.8233 38.8245 45.5881 38.8245C45.2662 38.8245 44.9979 38.8987 44.7832 39.0471C44.5709 39.1932 44.4647 39.3793 44.4647 39.6054C44.4647 39.8063 44.5378 39.965 44.6839 40.0814C44.83 40.1979 45.0584 40.2949 45.3689 40.3725L46.1498 40.5643C46.6201 40.6785 46.9706 40.8532 47.2012 41.0883C47.4318 41.3212 47.5471 41.6215 47.5471 41.9891C47.5471 42.2905 47.4604 42.5599 47.2869 42.7974C47.1156 43.0348 46.8759 43.2221 46.5676 43.3591C46.2594 43.4961 45.9009 43.5646 45.4922 43.5646C44.9556 43.5646 44.5115 43.4481 44.1599 43.2152C43.8083 42.9823 43.5857 42.6421 43.492 42.1946L44.2592 42.0028C44.3323 42.2859 44.4704 42.4983 44.6736 42.6398C44.8791 42.7814 45.1474 42.8522 45.4785 42.8522C45.8552 42.8522 46.1543 42.7723 46.3758 42.6124C46.5996 42.4503 46.7115 42.2562 46.7115 42.0302C46.7115 41.8475 46.6475 41.6946 46.5197 41.5713C46.3918 41.4457 46.1954 41.3521 45.9306 41.2904L45.0538 41.0849C44.572 40.9708 44.2181 40.7938 43.9921 40.5541C43.7683 40.312 43.6564 40.0095 43.6564 39.6465C43.6564 39.3496 43.7398 39.0871 43.9065 38.8587C44.0754 38.6304 44.3049 38.4512 44.5949 38.321C44.8871 38.1909 45.2182 38.1258 45.5881 38.1258C46.1087 38.1258 46.5174 38.24 46.8142 38.4683C47.1133 38.6966 47.3257 38.998 47.4512 39.3725Z" fill="black"/>
<path d="M87.7015 43.455V36.4407H90.0715C90.6218 36.4407 91.0716 36.5401 91.4209 36.7387C91.7725 36.9351 92.0328 37.2011 92.2018 37.5367C92.3708 37.8724 92.4552 38.2468 92.4552 38.6601C92.4552 39.0734 92.3708 39.449 92.2018 39.7869C92.0351 40.1248 91.7771 40.3942 91.4278 40.5952C91.0784 40.7938 90.6309 40.8931 90.0852 40.8931H88.3864V40.1396H90.0578C90.4345 40.1396 90.7371 40.0746 90.9654 39.9444C91.1937 39.8143 91.3593 39.6385 91.462 39.417C91.567 39.1932 91.6196 38.9409 91.6196 38.6601C91.6196 38.3792 91.567 38.1281 91.462 37.9066C91.3593 37.6851 91.1926 37.5116 90.962 37.386C90.7314 37.2582 90.4254 37.1942 90.0441 37.1942H88.5508V43.455H87.7015ZM97.0292 41.3041V38.1943H97.8375V43.455H97.0292V42.5645H96.9744C96.8511 42.8316 96.6593 43.0588 96.399 43.246C96.1387 43.431 95.8099 43.5235 95.4126 43.5235C95.0839 43.5235 94.7916 43.4515 94.5359 43.3077C94.2801 43.1616 94.0792 42.9424 93.9331 42.6501C93.787 42.3556 93.7139 41.9845 93.7139 41.537V38.1943H94.5222V41.4822C94.5222 41.8658 94.6295 42.1718 94.8441 42.4001C95.061 42.6284 95.3373 42.7426 95.6729 42.7426C95.8739 42.7426 96.0782 42.6912 96.286 42.5885C96.4961 42.4857 96.6719 42.3282 96.8134 42.1158C96.9573 41.9035 97.0292 41.6329 97.0292 41.3041ZM99.3179 43.455V38.1943H100.099V38.9889H100.154C100.249 38.7286 100.423 38.5174 100.674 38.3553C100.925 38.1932 101.208 38.1121 101.524 38.1121C101.583 38.1121 101.657 38.1132 101.746 38.1155C101.835 38.1178 101.903 38.1212 101.948 38.1258V38.9478C101.921 38.9409 101.858 38.9306 101.76 38.9169C101.664 38.901 101.562 38.893 101.455 38.893C101.199 38.893 100.971 38.9466 100.77 39.0539C100.571 39.159 100.414 39.3051 100.297 39.4923C100.183 39.6773 100.126 39.8885 100.126 40.1259V43.455H99.3179ZM104.883 43.5646C104.39 43.5646 103.966 43.4481 103.609 43.2152C103.253 42.9823 102.979 42.6615 102.787 42.2528C102.596 41.8441 102.5 41.3772 102.5 40.852C102.5 40.3177 102.598 39.8462 102.794 39.4375C102.993 39.0265 103.269 38.7057 103.623 38.4751C103.979 38.2422 104.395 38.1258 104.87 38.1258C105.24 38.1258 105.573 38.1943 105.87 38.3313C106.167 38.4683 106.41 38.6601 106.599 38.9067C106.789 39.1533 106.906 39.441 106.952 39.7698H106.144C106.082 39.53 105.945 39.3177 105.733 39.1327C105.523 38.9455 105.24 38.8519 104.883 38.8519C104.568 38.8519 104.292 38.9341 104.055 39.0985C103.819 39.2606 103.636 39.4901 103.503 39.7869C103.373 40.0814 103.308 40.4273 103.308 40.8246C103.308 41.231 103.372 41.585 103.5 41.8863C103.63 42.1877 103.813 42.4218 104.048 42.5885C104.285 42.7551 104.564 42.8385 104.883 42.8385C105.093 42.8385 105.284 42.8019 105.455 42.7289C105.627 42.6558 105.772 42.5508 105.89 42.4138C106.009 42.2768 106.094 42.1124 106.144 41.9206H106.952C106.906 42.2311 106.793 42.5108 106.613 42.7597C106.435 43.0063 106.199 43.2027 105.904 43.3488C105.612 43.4926 105.272 43.5646 104.883 43.5646ZM108.942 40.2903V43.455H108.134V36.4407H108.942V39.0163H109.01C109.134 38.7446 109.319 38.5288 109.565 38.369C109.814 38.2069 110.145 38.1258 110.558 38.1258C110.917 38.1258 111.231 38.1977 111.5 38.3416C111.77 38.4831 111.979 38.7012 112.127 38.9957C112.278 39.288 112.353 39.6602 112.353 40.1122V43.455H111.545V40.167C111.545 39.7492 111.436 39.4261 111.219 39.1978C111.005 38.9672 110.707 38.8519 110.326 38.8519C110.061 38.8519 109.823 38.9078 109.613 39.0197C109.405 39.1316 109.241 39.2948 109.12 39.5095C109.001 39.7241 108.942 39.9844 108.942 40.2903ZM115.38 43.5783C115.047 43.5783 114.744 43.5155 114.472 43.3899C114.201 43.262 113.985 43.0782 113.825 42.8385C113.665 42.5964 113.585 42.3042 113.585 41.9617C113.585 41.6603 113.645 41.416 113.763 41.2288C113.882 41.0393 114.041 40.8908 114.239 40.7835C114.438 40.6762 114.657 40.5963 114.897 40.5438C115.139 40.489 115.382 40.4456 115.626 40.4136C115.946 40.3725 116.205 40.3417 116.404 40.3212C116.605 40.2983 116.751 40.2607 116.842 40.2081C116.936 40.1556 116.983 40.0643 116.983 39.9341V39.9067C116.983 39.5688 116.89 39.3062 116.705 39.119C116.523 38.9318 116.245 38.8382 115.873 38.8382C115.487 38.8382 115.185 38.9227 114.965 39.0916C114.746 39.2606 114.592 39.441 114.503 39.6328L113.736 39.3588C113.873 39.0391 114.056 38.7902 114.284 38.6121C114.515 38.4318 114.766 38.3062 115.037 38.2354C115.311 38.1623 115.581 38.1258 115.846 38.1258C116.015 38.1258 116.209 38.1463 116.428 38.1874C116.649 38.2263 116.863 38.3073 117.068 38.4306C117.276 38.5539 117.449 38.74 117.586 38.9889C117.723 39.2377 117.791 39.5711 117.791 39.9889V43.455H116.983V42.7426H116.942C116.887 42.8567 116.796 42.9789 116.668 43.109C116.54 43.2392 116.37 43.3499 116.157 43.4413C115.945 43.5326 115.686 43.5783 115.38 43.5783ZM115.503 42.8522C115.823 42.8522 116.092 42.7894 116.311 42.6638C116.533 42.5382 116.7 42.3761 116.811 42.1775C116.926 41.9788 116.983 41.7699 116.983 41.5507V40.8109C116.948 40.852 116.873 40.8897 116.757 40.9239C116.643 40.9559 116.51 40.9845 116.359 41.0096C116.211 41.0324 116.066 41.053 115.924 41.0712C115.785 41.0872 115.672 41.1009 115.585 41.1123C115.375 41.1397 115.179 41.1842 114.996 41.2459C114.816 41.3053 114.67 41.3954 114.558 41.5165C114.448 41.6352 114.394 41.7973 114.394 42.0028C114.394 42.2836 114.497 42.496 114.705 42.6398C114.915 42.7814 115.181 42.8522 115.503 42.8522ZM122.993 39.3725L122.267 39.578C122.221 39.4569 122.153 39.3394 122.064 39.2252C121.978 39.1087 121.859 39.0128 121.708 38.9375C121.558 38.8622 121.365 38.8245 121.129 38.8245C120.808 38.8245 120.539 38.8987 120.325 39.0471C120.112 39.1932 120.006 39.3793 120.006 39.6054C120.006 39.8063 120.079 39.965 120.225 40.0814C120.371 40.1979 120.6 40.2949 120.91 40.3725L121.691 40.5643C122.161 40.6785 122.512 40.8532 122.743 41.0883C122.973 41.3212 123.088 41.6215 123.088 41.9891C123.088 42.2905 123.002 42.5599 122.828 42.7974C122.657 43.0348 122.417 43.2221 122.109 43.3591C121.801 43.4961 121.442 43.5646 121.034 43.5646C120.497 43.5646 120.053 43.4481 119.701 43.2152C119.35 42.9823 119.127 42.6421 119.033 42.1946L119.801 42.0028C119.874 42.2859 120.012 42.4983 120.215 42.6398C120.42 42.7814 120.689 42.8522 121.02 42.8522C121.397 42.8522 121.696 42.7723 121.917 42.6124C122.141 42.4503 122.253 42.2562 122.253 42.0302C122.253 41.8475 122.189 41.6946 122.061 41.5713C121.933 41.4457 121.737 41.3521 121.472 41.2904L120.595 41.0849C120.113 40.9708 119.759 40.7938 119.533 40.5541C119.31 40.312 119.198 40.0095 119.198 39.6465C119.198 39.3496 119.281 39.0871 119.448 38.8587C119.617 38.6304 119.846 38.4512 120.136 38.321C120.428 38.1909 120.76 38.1258 121.129 38.1258C121.65 38.1258 122.059 38.24 122.356 38.4683C122.655 38.6966 122.867 38.998 122.993 39.3725ZM126.511 43.5646C126.004 43.5646 125.567 43.4527 125.199 43.2289C124.834 43.0029 124.552 42.6878 124.353 42.2836C124.157 41.8772 124.059 41.4046 124.059 40.8657C124.059 40.3269 124.157 39.8519 124.353 39.441C124.552 39.0277 124.828 38.7057 125.182 38.4751C125.538 38.2422 125.954 38.1258 126.429 38.1258C126.703 38.1258 126.973 38.1715 127.24 38.2628C127.507 38.3541 127.751 38.5025 127.97 38.708C128.189 38.9112 128.364 39.1807 128.494 39.5163C128.624 39.8519 128.689 40.2652 128.689 40.7561V41.0986H124.634V40.3999H127.867C127.867 40.1031 127.808 39.8382 127.689 39.6054C127.573 39.3725 127.406 39.1887 127.189 39.0539C126.974 38.9192 126.721 38.8519 126.429 38.8519C126.107 38.8519 125.828 38.9318 125.593 39.0916C125.36 39.2492 125.181 39.4547 125.055 39.7081C124.93 39.9615 124.867 40.2333 124.867 40.5232V40.989C124.867 41.3863 124.935 41.7231 125.072 41.9994C125.212 42.2734 125.405 42.4823 125.651 42.6261C125.898 42.7677 126.184 42.8385 126.511 42.8385C126.723 42.8385 126.915 42.8088 127.086 42.7494C127.26 42.6878 127.409 42.5964 127.535 42.4754C127.66 42.3521 127.758 42.1992 127.826 42.0165L128.607 42.2357C128.525 42.5005 128.387 42.7334 128.192 42.9344C127.998 43.133 127.759 43.2883 127.473 43.4002C127.188 43.5098 126.867 43.5646 126.511 43.5646ZM133.645 39.3725L132.919 39.578C132.873 39.4569 132.806 39.3394 132.717 39.2252C132.63 39.1087 132.511 39.0128 132.361 38.9375C132.21 38.8622 132.017 38.8245 131.782 38.8245C131.46 38.8245 131.192 38.8987 130.977 39.0471C130.765 39.1932 130.658 39.3793 130.658 39.6054C130.658 39.8063 130.731 39.965 130.878 40.0814C131.024 40.1979 131.252 40.2949 131.563 40.3725L132.343 40.5643C132.814 40.6785 133.164 40.8532 133.395 41.0883C133.626 41.3212 133.741 41.6215 133.741 41.9891C133.741 42.2905 133.654 42.5599 133.481 42.7974C133.309 43.0348 133.07 43.2221 132.761 43.3591C132.453 43.4961 132.095 43.5646 131.686 43.5646C131.149 43.5646 130.705 43.4481 130.354 43.2152C130.002 42.9823 129.779 42.6421 129.686 42.1946L130.453 42.0028C130.526 42.2859 130.664 42.4983 130.867 42.6398C131.073 42.7814 131.341 42.8522 131.672 42.8522C132.049 42.8522 132.348 42.7723 132.57 42.6124C132.793 42.4503 132.905 42.2562 132.905 42.0302C132.905 41.8475 132.841 41.6946 132.713 41.5713C132.585 41.4457 132.389 41.3521 132.124 41.2904L131.247 41.0849C130.766 40.9708 130.412 40.7938 130.186 40.5541C129.962 40.312 129.85 40.0095 129.85 39.6465C129.85 39.3496 129.933 39.0871 130.1 38.8587C130.269 38.6304 130.499 38.4512 130.789 38.321C131.081 38.1909 131.412 38.1258 131.782 38.1258C132.302 38.1258 132.711 38.24 133.008 38.4683C133.307 38.6966 133.519 38.998 133.645 39.3725Z" fill="black"/>
<path d="M168.068 42.369H166.842L169.596 34.7171H170.93L173.684 42.369H172.458L170.295 36.107H170.235L168.068 42.369ZM168.273 39.3725H172.249V40.344H168.273V39.3725ZM175.816 38.9615V42.369H174.699V36.6301H175.771V37.5642H175.842C175.974 37.2603 176.181 37.0162 176.462 36.8319C176.746 36.6475 177.104 36.5554 177.535 36.5554C177.926 36.5554 178.268 36.6376 178.562 36.802C178.856 36.9639 179.084 37.2055 179.246 37.5268C179.408 37.8481 179.489 38.2454 179.489 38.7187V42.369H178.372V38.8532C178.372 38.4372 178.263 38.1122 178.047 37.878C177.83 37.6414 177.532 37.5231 177.154 37.5231C176.895 37.5231 176.664 37.5791 176.462 37.6912C176.263 37.8033 176.105 37.9677 175.988 38.1844C175.873 38.3986 175.816 38.6577 175.816 38.9615ZM182.657 42.4961C182.293 42.4961 181.965 42.4288 181.671 42.2943C181.377 42.1573 181.144 41.9593 180.972 41.7002C180.803 41.4412 180.718 41.1236 180.718 40.7475C180.718 40.4237 180.78 40.1571 180.905 39.9479C181.029 39.7387 181.197 39.573 181.409 39.451C181.621 39.3289 181.858 39.2368 182.119 39.1745C182.381 39.1122 182.647 39.0649 182.919 39.0325C183.262 38.9927 183.541 38.9603 183.756 38.9354C183.97 38.908 184.125 38.8644 184.223 38.8046C184.32 38.7448 184.368 38.6477 184.368 38.5132V38.487C184.368 38.1607 184.276 37.9079 184.092 37.7286C183.91 37.5492 183.639 37.4596 183.277 37.4596C182.901 37.4596 182.605 37.543 182.388 37.7099C182.174 37.8743 182.026 38.0574 181.944 38.2591L180.894 38.02C181.018 37.6713 181.2 37.3898 181.439 37.1756C181.681 36.9589 181.958 36.802 182.272 36.7048C182.586 36.6052 182.916 36.5554 183.262 36.5554C183.492 36.5554 183.734 36.5828 183.991 36.6376C184.25 36.6899 184.492 36.787 184.716 36.929C184.942 37.071 185.128 37.274 185.273 37.538C185.417 37.7996 185.489 38.1396 185.489 38.558V42.369H184.398V41.5844H184.353C184.281 41.7289 184.173 41.8708 184.028 42.0103C183.884 42.1498 183.698 42.2656 183.472 42.3578C183.245 42.45 182.973 42.4961 182.657 42.4961ZM182.9 41.5993C183.209 41.5993 183.473 41.5383 183.692 41.4163C183.914 41.2942 184.082 41.1348 184.196 40.938C184.314 40.7388 184.372 40.5258 184.372 40.2991V39.5593C184.332 39.5992 184.255 39.6366 184.14 39.6714C184.028 39.7038 183.9 39.7325 183.756 39.7574C183.611 39.7798 183.47 39.801 183.333 39.8209C183.196 39.8383 183.082 39.8533 182.99 39.8657C182.773 39.8931 182.575 39.9392 182.396 40.004C182.219 40.0687 182.077 40.1621 181.97 40.2842C181.865 40.4037 181.813 40.5632 181.813 40.7624C181.813 41.0389 181.915 41.2481 182.119 41.3901C182.323 41.5296 182.584 41.5993 182.9 41.5993ZM188.094 34.7171V42.369H186.977V34.7171H188.094ZM190.303 44.5211C190.137 44.5211 189.985 44.5074 189.848 44.48C189.711 44.4551 189.608 44.4277 189.541 44.3978L189.81 43.4824C190.014 43.5372 190.196 43.5609 190.356 43.5534C190.515 43.5459 190.656 43.4862 190.778 43.3741C190.902 43.262 191.012 43.0789 191.107 42.8248L191.245 42.4437L189.145 36.6301H190.341L191.794 41.0837H191.854L193.307 36.6301H194.507L192.142 43.135C192.032 43.4339 191.893 43.6867 191.723 43.8934C191.554 44.1026 191.352 44.2596 191.118 44.3642C190.884 44.4688 190.612 44.5211 190.303 44.5211ZM198.235 36.6301V37.5268H195.101V36.6301H198.235ZM195.941 35.2552H197.059V40.684C197.059 40.9007 197.091 41.0638 197.156 41.1734C197.22 41.2805 197.304 41.354 197.406 41.3939C197.511 41.4312 197.624 41.4499 197.746 41.4499C197.836 41.4499 197.914 41.4437 197.981 41.4312C198.049 41.4188 198.101 41.4088 198.138 41.4013L198.34 42.3242C198.275 42.3491 198.183 42.374 198.064 42.3989C197.944 42.4263 197.795 42.4413 197.615 42.4437C197.321 42.4487 197.047 42.3964 196.793 42.2868C196.539 42.1772 196.334 42.0078 196.177 41.7787C196.02 41.5495 195.941 41.2618 195.941 40.9156V35.2552ZM199.471 42.369V36.6301H200.588V42.369H199.471ZM200.035 35.7446C199.841 35.7446 199.674 35.6799 199.535 35.5503C199.398 35.4183 199.329 35.2614 199.329 35.0796C199.329 34.8952 199.398 34.7383 199.535 34.6088C199.674 34.4768 199.841 34.4108 200.035 34.4108C200.23 34.4108 200.395 34.4768 200.532 34.6088C200.672 34.7383 200.742 34.8952 200.742 35.0796C200.742 35.2614 200.672 35.4183 200.532 35.5503C200.395 35.6799 200.23 35.7446 200.035 35.7446ZM204.509 42.4848C203.953 42.4848 203.475 42.3591 203.074 42.1075C202.675 41.8534 202.369 41.5035 202.155 41.0576C201.941 40.6117 201.834 40.1011 201.834 39.5257C201.834 38.9429 201.943 38.4285 202.162 37.9826C202.382 37.5343 202.69 37.1843 203.089 36.9328C203.487 36.6812 203.957 36.5554 204.497 36.5554C204.933 36.5554 205.322 36.6363 205.663 36.7982C206.004 36.9577 206.28 37.1818 206.489 37.4708C206.701 37.7597 206.826 38.0972 206.866 38.4833H205.779C205.719 38.2143 205.582 37.9826 205.368 37.7884C205.156 37.5941 204.872 37.4969 204.516 37.4969C204.205 37.4969 203.932 37.5791 203.698 37.7435C203.466 37.9054 203.286 38.1371 203.156 38.4385C203.027 38.7374 202.962 39.0911 202.962 39.4996C202.962 39.918 203.025 40.2792 203.152 40.5831C203.279 40.887 203.459 41.1224 203.69 41.2892C203.925 41.4561 204.2 41.5396 204.516 41.5396C204.728 41.5396 204.92 41.501 205.092 41.4237C205.266 41.344 205.412 41.2307 205.529 41.0837C205.648 40.9368 205.732 40.7599 205.779 40.5532H206.866C206.826 40.9243 206.706 41.2556 206.504 41.547C206.302 41.8385 206.032 42.0676 205.693 42.2345C205.357 42.4014 204.962 42.4848 204.509 42.4848ZM212.361 38.0312L211.349 38.2106C211.307 38.081 211.239 37.9577 211.147 37.8407C211.057 37.7236 210.935 37.6277 210.781 37.553C210.627 37.4782 210.433 37.4409 210.202 37.4409C209.885 37.4409 209.621 37.5119 209.41 37.6538C209.198 37.7933 209.092 37.9739 209.092 38.1956C209.092 38.3874 209.163 38.5418 209.305 38.6589C209.447 38.776 209.676 38.8719 209.993 38.9466L210.904 39.1558C211.432 39.2779 211.826 39.4659 212.085 39.72C212.344 39.9741 212.473 40.3041 212.473 40.7101C212.473 41.0539 212.374 41.3602 212.175 41.6292C211.978 41.8958 211.703 42.105 211.349 42.2569C210.998 42.4089 210.59 42.4848 210.127 42.4848C209.484 42.4848 208.96 42.3478 208.554 42.0739C208.148 41.7974 207.899 41.4051 207.807 40.8969L208.887 40.7325C208.954 41.014 209.092 41.227 209.301 41.3714C209.511 41.5134 209.783 41.5844 210.12 41.5844C210.486 41.5844 210.778 41.5084 210.998 41.3565C211.217 41.2021 211.326 41.014 211.326 40.7923C211.326 40.613 211.259 40.4623 211.125 40.3402C210.993 40.2182 210.79 40.126 210.516 40.0637L209.544 39.8508C209.009 39.7287 208.613 39.5344 208.356 39.2679C208.102 39.0014 207.975 38.6639 207.975 38.2554C207.975 37.9166 208.07 37.6202 208.259 37.3662C208.448 37.1121 208.71 36.9141 209.044 36.7721C209.377 36.6276 209.76 36.5554 210.191 36.5554C210.811 36.5554 211.299 36.6899 211.655 36.9589C212.011 37.2254 212.247 37.5829 212.361 38.0312Z" fill="black"/>
<g clip-path="url(#clip0_99_356)">
<path d="M180.181 20.6301C180.388 20.7227 180.502 20.5593 180.622 20.3687C181.989 18.2117 183.356 16.0601 184.729 13.9085C184.822 13.7615 184.822 13.6689 184.729 13.5164C184.125 12.5958 184.201 11.4084 184.893 10.5641C185.595 9.70891 186.755 9.40388 187.785 9.80695C188.803 10.2046 189.463 11.2341 189.392 12.3289C189.375 12.5958 189.321 12.8518 189.212 13.0969C189.152 13.2222 189.179 13.2985 189.277 13.3911C190.329 14.4369 191.374 15.4827 192.415 16.5285C192.502 16.6157 192.573 16.6375 192.687 16.5885C193.101 16.4196 193.531 16.3433 193.978 16.4305C194.142 16.4632 194.169 16.3433 194.223 16.2507C195.046 14.8073 195.868 13.3638 196.696 11.9149C197.257 10.929 197.818 9.94313 198.385 8.95722C198.466 8.81015 198.461 8.723 198.363 8.59228C197.693 7.68263 197.682 6.48429 198.33 5.58554C198.984 4.68134 200.111 4.30005 201.163 4.62687C202.219 4.95369 202.949 5.92325 202.971 7.03988C202.998 8.53236 201.669 9.76883 200.177 9.61086C200.019 9.59452 199.943 9.6272 199.866 9.76338C198.472 12.2309 197.072 14.6929 195.667 17.1495C195.59 17.2802 195.607 17.3565 195.688 17.4763C196.342 18.4077 196.32 19.5897 195.639 20.4776C194.975 21.3437 193.831 21.6868 192.802 21.3273C191.75 20.9569 191.069 19.971 191.097 18.849C191.102 18.5657 191.167 18.2879 191.271 18.0265C191.325 17.8957 191.32 17.814 191.211 17.7051C190.165 16.6702 189.125 15.6298 188.09 14.584C188.003 14.4968 187.932 14.4532 187.796 14.5077C187.365 14.6929 186.913 14.7528 186.456 14.6548C186.325 14.6275 186.249 14.6657 186.178 14.7801C184.8 16.9534 183.427 19.1213 182.038 21.2838C181.946 21.4308 182.011 21.4962 182.087 21.5942C182.67 22.3786 182.812 23.2283 182.431 24.1325C182.055 25.0367 181.347 25.5433 180.382 25.674C179.042 25.8538 177.811 24.8842 177.583 23.4843C177.376 22.2206 178.307 20.9079 179.582 20.6682C179.761 20.6356 179.947 20.6029 180.186 20.6247L180.181 20.6301ZM194.468 18.9307C194.468 18.4677 194.093 18.0918 193.63 18.0864C193.161 18.0864 192.774 18.4731 192.78 18.947C192.785 19.4045 193.172 19.7804 193.635 19.7749C194.093 19.7749 194.474 19.3882 194.468 18.9307ZM201.234 7.08891C201.234 6.62591 200.858 6.25007 200.395 6.24462C199.932 6.24462 199.55 6.61502 199.545 7.07801C199.545 7.5519 199.926 7.93864 200.395 7.93319C200.858 7.93319 201.234 7.5519 201.234 7.08891ZM187.703 12.1709C187.703 11.708 187.333 11.3267 186.87 11.3212C186.407 11.3103 186.02 11.6862 186.009 12.1437C185.998 12.6176 186.38 13.0098 186.853 13.0098C187.316 13.0098 187.692 12.6339 187.698 12.1709H187.703ZM180.933 23.163C180.933 22.7 180.562 22.3187 180.099 22.3132C179.636 22.3078 179.249 22.6782 179.244 23.1357C179.233 23.6096 179.614 24.0018 180.088 24.0018C180.551 24.0018 180.927 23.626 180.933 23.163Z" fill="#7738CF"/>
<path d="M190.236 28.2342C194.365 28.2342 198.499 28.2342 202.628 28.2288C202.868 28.2288 202.944 28.2887 202.927 28.5283C202.906 28.9314 202.917 29.3399 202.927 29.743C202.927 29.8737 202.9 29.9446 202.753 29.9228C202.71 29.9173 202.666 29.9228 202.622 29.9228C194.37 29.9228 186.113 29.9228 177.86 29.9282C177.604 29.9282 177.528 29.8737 177.545 29.6123C177.566 29.2419 177.566 28.8715 177.545 28.5011C177.534 28.2887 177.588 28.2179 177.817 28.2233C179.07 28.2342 180.317 28.2288 181.57 28.2288H190.236V28.2342Z" fill="#7738CF"/>
<path d="M180.11 20.6248C178.71 20.6248 177.577 21.7577 177.577 23.1576C177.577 24.5575 178.71 25.6959 180.11 25.6959C181.51 25.6959 182.648 24.5629 182.648 23.1576C182.648 21.7523 181.515 20.6248 180.11 20.6248ZM180.11 24.0019C179.647 24.0019 179.266 23.6206 179.266 23.1576C179.266 22.6946 179.647 22.3133 180.11 22.3133C180.573 22.3133 180.954 22.6892 180.954 23.1576C180.954 23.626 180.578 24.0019 180.11 24.0019Z" fill="#F3771E"/>
<path d="M186.853 9.62732C185.454 9.62732 184.321 10.7603 184.321 12.1602C184.321 13.56 185.454 14.6985 186.853 14.6985C188.253 14.6985 189.392 13.56 189.392 12.1602C189.392 10.7603 188.253 9.62732 186.853 9.62732ZM186.853 13.0045C186.385 13.0045 186.009 12.6286 186.009 12.1602C186.009 11.6917 186.385 11.3159 186.853 11.3159C187.322 11.3159 187.698 11.6972 187.698 12.1602C187.698 12.6232 187.322 13.0045 186.853 13.0045Z" fill="#F3771E"/>
<path d="M193.619 16.3925C192.219 16.3925 191.086 17.5254 191.086 18.9308C191.086 20.3361 192.219 21.4636 193.619 21.4636C195.018 21.4636 196.157 20.3306 196.157 18.9308C196.157 17.5309 195.024 16.3925 193.619 16.3925ZM193.619 19.775C193.156 19.775 192.774 19.3937 192.774 18.9308C192.774 18.4678 193.156 18.0865 193.619 18.0865C194.082 18.0865 194.463 18.4623 194.463 18.9308C194.463 19.3992 194.087 19.775 193.619 19.775Z" fill="#F3771E"/>
<path d="M200.389 4.55066C198.989 4.55066 197.851 5.68363 197.851 7.08896C197.851 8.49428 198.989 9.62181 200.389 9.62181C201.789 9.62181 202.922 8.48883 202.922 7.08896C202.922 5.68908 201.789 4.55066 200.389 4.55066ZM200.389 7.93324C199.921 7.93324 199.545 7.55195 199.545 7.08896C199.545 6.62596 199.921 6.24467 200.389 6.24467C200.858 6.24467 201.233 6.62051 201.233 7.08896C201.233 7.5574 200.852 7.93324 200.389 7.93324Z" fill="#F3771E"/>
</g>
<defs>
<clipPath id="clip0_99_356">
<rect width="25.4211" height="25.4265" fill="white" transform="translate(177.545 4.50708)"/>
</clipPath>
</defs>
</svg>
