<svg width="1073" height="155" viewBox="0 0 1073 155" fill="none" xmlns="http://www.w3.org/2000/svg">
<path d="M32.55 58.5V135H11.55V58.5H0V41.7H10.95C8.7 37.5 6.9 32.85 6.9 26.85C6.9 10.35 20.55 0.599996 43.5 0.599996C78.15 0.599996 105.75 19.65 121.5 42.75H100.65C85.8 26.85 68.55 17.55 48 17.55C34.65 17.55 27.9 22.65 27.9 31.35C27.9 35.55 29.4 38.85 31.2 41.7H46.35V58.5H32.55ZM139.042 58.5H125.242V135H104.392V117.3C98.3918 120.45 91.3418 122.1 82.6418 122.1C62.0918 122.1 49.3418 111.45 49.3418 94.35C49.3418 76.35 62.5418 67.05 82.9418 67.05C89.3918 67.05 94.7918 67.65 99.7418 68.85L98.0918 84.15C94.6418 83.4 90.4418 82.8 85.6418 82.8C85.3418 82.8 84.8918 82.8 84.4418 82.8L99.1418 101.4C101.092 100.05 102.892 98.55 104.392 97.05V58.5H44.0918V41.7H139.042V58.5ZM68.9918 94.95C68.9918 102.75 74.6918 106.35 83.3918 106.35C85.0418 106.35 86.6918 106.2 88.1918 105.9L72.7418 86.4C70.3418 88.35 68.9918 91.2 68.9918 94.95ZM243.313 58.5V135H222.313V86.55H211.813C207.613 86.55 204.313 86.4 201.763 86.1C207.313 91.05 210.313 96.75 210.313 103.95C210.313 118.05 199.513 125.55 185.413 125.55C166.813 125.55 151.963 114.9 139.813 78L157.063 71.7C164.863 96.3 172.663 108.6 181.963 108.6C186.613 108.6 189.763 106.35 189.763 100.8C189.763 93.9 184.963 88.35 176.563 82.95L181.813 70.2H222.313V58.5H136.963V41.7H257.113V58.5H243.313ZM171.313 143.55C171.313 137.55 175.963 132.75 182.263 132.75C188.413 132.75 192.913 137.55 192.913 143.55C192.913 149.85 188.413 154.35 182.263 154.35C175.963 154.35 171.313 149.85 171.313 143.55ZM254.883 41.7H349.383V58.5H335.583V135H314.583V95.85H292.383V99.15C292.383 108 288.633 112.05 281.883 112.05C271.983 112.05 259.533 98.7 259.533 88.8C259.533 82.95 262.083 79.05 271.233 79.05H314.583V58.5H254.883V41.7ZM315.368 42.75C308.468 21.9 305.318 17.7 296.768 17.7C293.168 17.7 289.118 18.6 285.668 19.95L280.418 3.59999C285.818 1.49999 291.818 0.599996 297.668 0.599996C316.118 0.599996 323.018 9.29999 333.368 42.75H315.368ZM388.718 138.45C372.218 122.1 361.568 109.05 356.618 100.05C353.318 94.5 352.118 90.15 352.118 86.25C352.118 79.95 355.868 75.6 363.368 75.6C368.168 75.6 372.068 77.7 375.668 80.85C378.518 77.55 379.718 73.5 379.718 68.4C379.718 64.8 379.118 61.35 377.918 58.5H347.168V41.7H460.118V58.5H446.318V135H425.318V101.1C421.268 101.85 416.618 102.3 411.818 102.3C403.568 102.3 394.568 100.65 386.018 96.15C383.768 97.65 381.218 99.15 378.368 100.35C385.268 108.45 394.568 117.15 404.168 125.85L388.718 138.45ZM411.818 85.35C416.468 85.35 420.968 84.9 425.318 83.85V58.5H398.768C399.968 62.1 400.568 65.85 400.568 70.65C400.568 75.75 399.368 80.1 397.418 83.7C402.068 84.9 406.418 85.35 411.818 85.35ZM623.625 58.5H574.725V79.5C579.075 76.65 584.175 75 590.925 75C606.525 75 616.425 84.75 616.425 100.8C616.425 110.55 613.125 120 604.725 130.65L586.575 120.6C591.975 114.3 595.575 108.15 595.575 101.1C595.575 94.8 592.425 91.65 587.025 91.65C582.075 91.65 577.275 94.8 574.725 99V135H553.725V115.95C548.025 119.55 540.975 121.35 533.325 121.35C514.875 121.35 502.125 111.75 502.125 94.2C502.125 77.25 513.975 67.65 534.525 67.65C539.625 67.65 544.725 68.1 549.225 69L547.425 85.65C544.425 84.9 540.825 84.45 537.075 84.45C528.075 84.45 523.125 88.2 523.125 94.8C523.125 101.25 527.925 104.55 534.975 104.55C542.775 104.55 549.675 100.05 553.725 94.8V58.5H496.875V41.7H623.625V58.5ZM653.937 58.5V135H632.937V58.5H621.387V41.7H667.737V58.5H653.937ZM751.993 106.05C747.043 106.05 741.193 106.95 736.093 108.3C725.743 102.75 717.643 95.1 717.643 85.2C717.643 73.35 725.593 67.2 742.543 67.2H757.243V58.5H702.793V41.7H791.893V58.5H777.943V81.45H745.993C740.443 81.45 738.193 83.4 738.193 86.85C738.193 88.95 739.693 91.05 741.643 92.55C746.143 91.65 751.543 90.75 757.843 90.75C776.443 90.75 784.693 99.3 784.693 112.2C784.693 125.4 775.693 135.75 751.393 135.75C733.393 135.75 719.143 130.05 705.793 119.7L714.943 104.7C726.193 114.45 737.443 119.7 749.743 119.7C759.343 119.7 763.393 117 763.393 112.5C763.393 108.45 760.693 106.05 751.993 106.05ZM838.59 7.5C836.34 27.9 824.64 35.55 806.79 35.55C788.79 35.55 777.09 27.9 774.84 7.5L791.19 4.19999C792.54 16.05 797.34 21 806.79 21C816.09 21 820.89 16.05 822.39 4.19999L838.59 7.5ZM822.54 58.5V135H801.54V58.5H789.99V41.7H836.34V58.5H822.54ZM933.682 58.5H911.932V83.55C915.832 81.6 920.182 80.55 926.632 80.55H937.282V97.35H926.782C919.282 97.35 915.682 98.4 911.932 100.95V135H890.932V115.95C885.232 119.55 878.182 121.35 870.532 121.35C852.082 121.35 839.332 111.75 839.332 94.2C839.332 77.25 851.182 67.65 871.732 67.65C876.832 67.65 881.932 68.1 886.432 69L884.632 85.65C881.632 84.9 878.032 84.45 874.282 84.45C865.282 84.45 860.332 88.2 860.332 94.8C860.332 101.25 865.132 104.55 872.182 104.55C879.982 104.55 886.882 100.05 890.932 94.8V58.5H834.082V41.7H933.682V58.5ZM1005.94 58.5H988.695V86.4H972.495C957.045 86.4 949.395 91.35 949.395 102.15C949.395 111.9 957.495 117.3 968.595 117.3C977.595 117.3 984.945 114.45 993.945 108.45L1001.59 123.9C992.895 131.25 982.095 135 967.845 135C944.595 135 928.395 122.7 928.395 101.4C928.395 80.25 943.245 70.5 967.995 70.5V58.5H923.145V41.7H1005.94V58.5ZM1065.51 124.95L1051.11 138.3C1034.91 124.5 1022.91 112.65 1015.56 102.3C1010.76 95.85 1008.81 91.05 1008.81 85.95C1008.81 79.65 1013.16 75.6 1019.91 75.6C1025.01 75.6 1029.21 77.7 1033.71 81.6C1038.51 78.3 1040.61 73.95 1040.61 68.1C1040.61 64.65 1040.01 61.35 1038.96 58.5H1003.86V41.7H1072.26V58.5H1059.66C1060.71 61.95 1061.46 66 1061.46 71.1C1061.46 85.8 1052.31 95.1 1037.61 100.8C1045.86 108.9 1055.16 116.85 1065.51 124.95Z" fill="#F8F5F5"/>
</svg>
