<svg width="222" height="55" viewBox="0 0 222 55" fill="none" xmlns="http://www.w3.org/2000/svg">
<rect x="0.0493164" width="71.951" height="54.4084" rx="8.67821" fill="white"/>
<rect x="76" y="1" width="70.0626" height="52.9804" rx="8.45045" fill="white"/>
<path d="M22.2251 39.1003C22.1485 38.866 22.0476 38.6561 21.9223 38.4705C21.7994 38.2825 21.652 38.1225 21.4804 37.9902C21.311 37.858 21.1185 37.7571 20.9027 37.6875C20.6869 37.6179 20.4503 37.5831 20.1928 37.5831C19.7706 37.5831 19.3866 37.6921 19.041 37.9102C18.6953 38.1283 18.4204 38.4496 18.2162 38.8741C18.0121 39.2987 17.91 39.8195 17.91 40.4366C17.91 41.0537 18.0132 41.5745 18.2197 41.9991C18.4262 42.4236 18.7057 42.7449 19.0584 42.963C19.411 43.1811 19.8077 43.2901 20.2485 43.2901C20.6568 43.2901 21.0164 43.2031 21.3272 43.0291C21.6404 42.8528 21.884 42.6046 22.058 42.2844C22.2343 41.9619 22.3225 41.5826 22.3225 41.1465L22.587 41.2022H20.4434V40.4366H23.1577V41.2022C23.1577 41.7891 23.0324 42.2995 22.7818 42.7333C22.5336 43.1671 22.1903 43.5035 21.7518 43.7425C21.3156 43.9791 20.8145 44.0974 20.2485 44.0974C19.6175 44.0974 19.063 43.949 18.5851 43.652C18.1095 43.3551 17.7383 42.9328 17.4715 42.3853C17.2071 41.8378 17.0748 41.1883 17.0748 40.4366C17.0748 39.8729 17.1502 39.3659 17.301 38.9159C17.4541 38.4635 17.6699 38.0784 17.9483 37.7606C18.2267 37.4427 18.5561 37.1991 18.9366 37.0298C19.317 36.8604 19.7358 36.7758 20.1928 36.7758C20.5686 36.7758 20.9189 36.8326 21.2437 36.9463C21.5708 37.0576 21.862 37.2165 22.1172 37.423C22.3747 37.6272 22.5893 37.8719 22.761 38.1573C22.9326 38.4403 23.051 38.7546 23.1159 39.1003H22.2251ZM28.5332 38.6549C28.4915 38.3023 28.3221 38.0285 28.0252 37.8336C27.7282 37.6388 27.364 37.5413 26.9325 37.5413C26.617 37.5413 26.3409 37.5924 26.1043 37.6944C25.87 37.7965 25.6867 37.9369 25.5544 38.1155C25.4245 38.2941 25.3596 38.4971 25.3596 38.7245C25.3596 38.9147 25.4048 39.0783 25.4953 39.2152C25.5881 39.3497 25.7064 39.4622 25.8502 39.5527C25.9941 39.6409 26.1449 39.7139 26.3026 39.7719C26.4604 39.8276 26.6054 39.8729 26.7376 39.9077L27.4614 40.1025C27.647 40.1512 27.8535 40.2185 28.0808 40.3044C28.3105 40.3902 28.5297 40.5074 28.7385 40.6558C28.9497 40.802 29.1236 40.9899 29.2605 41.2196C29.3974 41.4492 29.4658 41.7311 29.4658 42.0652C29.4658 42.4503 29.3649 42.7983 29.1631 43.1091C28.9636 43.42 28.6713 43.6671 28.2862 43.8504C27.9034 44.0336 27.4382 44.1253 26.8907 44.1253C26.3803 44.1253 25.9384 44.0429 25.5649 43.8782C25.1937 43.7135 24.9014 43.4838 24.6879 43.1892C24.4768 42.8946 24.3574 42.5524 24.3295 42.1626H25.2204C25.2436 42.4317 25.334 42.6544 25.4918 42.8308C25.6519 43.0048 25.8537 43.1347 26.0973 43.2205C26.3432 43.304 26.6077 43.3458 26.8907 43.3458C27.2201 43.3458 27.5159 43.2924 27.7781 43.1857C28.0402 43.0767 28.2479 42.9259 28.401 42.7333C28.5541 42.5384 28.6307 42.3111 28.6307 42.0513C28.6307 41.8146 28.5645 41.6221 28.4323 41.4736C28.3001 41.3251 28.1261 41.2045 27.9103 41.1117C27.6946 41.0189 27.4614 40.9377 27.2109 40.8681L26.3339 40.6175C25.7772 40.4575 25.3364 40.229 25.0116 39.932C24.6868 39.6351 24.5244 39.2465 24.5244 38.7662C24.5244 38.3672 24.6323 38.0192 24.848 37.7223C25.0661 37.423 25.3584 37.191 25.725 37.0263C26.0938 36.8593 26.5056 36.7758 26.9603 36.7758C27.4197 36.7758 27.828 36.8581 28.1852 37.0228C28.5425 37.1852 28.8255 37.4079 29.0343 37.691C29.2454 37.974 29.3568 38.2953 29.3684 38.6549H28.5332ZM30.495 37.6388V36.8732H35.8401V37.6388H33.5991V44H32.7361V37.6388H30.495ZM37.172 44V36.8732H39.5801C40.1369 36.8732 40.5939 36.9683 40.9512 37.1585C41.3085 37.3465 41.5729 37.6051 41.7446 37.9346C41.9163 38.264 42.0021 38.6387 42.0021 39.0586C42.0021 39.4785 41.9163 39.8508 41.7446 40.1756C41.5729 40.5004 41.3096 40.7556 40.9547 40.9412C40.5997 41.1245 40.1462 41.2161 39.594 41.2161H37.6453V40.4366H39.5662C39.9467 40.4366 40.2529 40.3809 40.4849 40.2696C40.7192 40.1582 40.8886 40.0004 40.993 39.7963C41.0997 39.5898 41.153 39.3439 41.153 39.0586C41.153 38.7732 41.0997 38.5238 40.993 38.3104C40.8862 38.097 40.7157 37.9322 40.4814 37.8162C40.2471 37.6979 39.9374 37.6388 39.5523 37.6388H38.0351V44H37.172ZM40.5267 40.7985L42.2805 44H41.2783L39.5523 40.7985H40.5267ZM46.3911 40.0538V40.8194H43.2732V40.0538H46.3911ZM50.3278 36.8732V44H49.4648V37.778H49.423L47.683 38.9333V38.0564L49.4648 36.8732H50.3278Z" fill="black"/>
<path d="M95.2944 39.1003C95.2179 38.866 95.1169 38.6561 94.9917 38.4705C94.8687 38.2825 94.7214 38.1225 94.5497 37.9902C94.3804 37.858 94.1878 37.7571 93.9721 37.6875C93.7563 37.6179 93.5197 37.5831 93.2622 37.5831C92.8399 37.5831 92.456 37.6921 92.1103 37.9102C91.7646 38.1283 91.4897 38.4496 91.2856 38.8741C91.0814 39.2987 90.9793 39.8195 90.9793 40.4366C90.9793 41.0537 91.0826 41.5745 91.2891 41.9991C91.4955 42.4236 91.7751 42.7449 92.1277 42.963C92.4803 43.1811 92.877 43.2901 93.3178 43.2901C93.7261 43.2901 94.0857 43.2031 94.3966 43.0291C94.7098 42.8528 94.9534 42.6046 95.1274 42.2844C95.3037 41.9619 95.3918 41.5826 95.3918 41.1465L95.6563 41.2022H93.5127V40.4366H96.227V41.2022C96.227 41.7891 96.1017 42.2995 95.8512 42.7333C95.603 43.1671 95.2596 43.5035 94.8211 43.7425C94.385 43.9791 93.8839 44.0974 93.3178 44.0974C92.6868 44.0974 92.1324 43.949 91.6544 43.652C91.1789 43.3551 90.8077 42.9328 90.5409 42.3853C90.2764 41.8378 90.1442 41.1883 90.1442 40.4366C90.1442 39.8729 90.2196 39.3659 90.3704 38.9159C90.5235 38.4635 90.7392 38.0784 91.0176 37.7606C91.296 37.4427 91.6254 37.1991 92.0059 37.0298C92.3864 36.8604 92.8051 36.7758 93.2622 36.7758C93.638 36.7758 93.9883 36.8326 94.3131 36.9463C94.6402 37.0576 94.9313 37.2165 95.1865 37.423C95.444 37.6272 95.6586 37.8719 95.8303 38.1573C96.002 38.4403 96.1203 38.7546 96.1853 39.1003H95.2944ZM101.603 38.6549C101.561 38.3023 101.391 38.0285 101.095 37.8336C100.798 37.6388 100.433 37.5413 100.002 37.5413C99.6863 37.5413 99.4102 37.5924 99.1736 37.6944C98.9393 37.7965 98.756 37.9369 98.6238 38.1155C98.4939 38.2941 98.4289 38.4971 98.4289 38.7245C98.4289 38.9147 98.4742 39.0783 98.5646 39.2152C98.6574 39.3497 98.7757 39.4622 98.9196 39.5527C99.0634 39.6409 99.2142 39.7139 99.372 39.7719C99.5297 39.8276 99.6747 39.8729 99.807 39.9077L100.531 40.1025C100.716 40.1512 100.923 40.2185 101.15 40.3044C101.38 40.3902 101.599 40.5074 101.808 40.6558C102.019 40.802 102.193 40.9899 102.33 41.2196C102.467 41.4492 102.535 41.7311 102.535 42.0652C102.535 42.4503 102.434 42.7983 102.232 43.1091C102.033 43.42 101.741 43.6671 101.356 43.8504C100.973 44.0336 100.508 44.1253 99.9601 44.1253C99.4497 44.1253 99.0077 44.0429 98.6342 43.8782C98.263 43.7135 97.9707 43.4838 97.7573 43.1892C97.5462 42.8946 97.4267 42.5524 97.3989 42.1626H98.2897C98.3129 42.4317 98.4034 42.6544 98.5612 42.8308C98.7212 43.0048 98.9231 43.1347 99.1667 43.2205C99.4126 43.304 99.677 43.3458 99.9601 43.3458C100.289 43.3458 100.585 43.2924 100.847 43.1857C101.11 43.0767 101.317 42.9259 101.47 42.7333C101.623 42.5384 101.7 42.3111 101.7 42.0513C101.7 41.8146 101.634 41.6221 101.502 41.4736C101.369 41.3251 101.195 41.2045 100.98 41.1117C100.764 41.0189 100.531 40.9377 100.28 40.8681L99.4033 40.6175C98.8465 40.4575 98.4057 40.229 98.0809 39.932C97.7561 39.6351 97.5937 39.2465 97.5937 38.7662C97.5937 38.3672 97.7016 38.0192 97.9174 37.7223C98.1354 37.423 98.4278 37.191 98.7943 37.0263C99.1632 36.8593 99.575 36.7758 100.03 36.7758C100.489 36.7758 100.897 36.8581 101.255 37.0228C101.612 37.1852 101.895 37.4079 102.104 37.691C102.315 37.974 102.426 38.2953 102.438 38.6549H101.603ZM103.564 37.6388V36.8732H108.909V37.6388H106.668V44H105.805V37.6388H103.564ZM110.241 44V36.8732H112.649C113.206 36.8732 113.663 36.9683 114.021 37.1585C114.378 37.3465 114.642 37.6051 114.814 37.9346C114.986 38.264 115.071 38.6387 115.071 39.0586C115.071 39.4785 114.986 39.8508 114.814 40.1756C114.642 40.5004 114.379 40.7556 114.024 40.9412C113.669 41.1245 113.216 41.2161 112.663 41.2161H110.715V40.4366H112.636C113.016 40.4366 113.322 40.3809 113.554 40.2696C113.789 40.1582 113.958 40.0004 114.062 39.7963C114.169 39.5898 114.222 39.3439 114.222 39.0586C114.222 38.7732 114.169 38.5238 114.062 38.3104C113.956 38.097 113.785 37.9322 113.551 37.8162C113.316 37.6979 113.007 37.6388 112.622 37.6388H111.104V44H110.241ZM113.596 40.7985L115.35 44H114.348L112.622 40.7985H113.596ZM119.46 40.0538V40.8194H116.343V40.0538H119.46ZM123.185 44.0974C122.725 44.0974 122.316 44.0186 121.956 43.8608C121.599 43.703 121.315 43.4838 121.104 43.2031C120.895 42.9201 120.781 42.5918 120.763 42.2183H121.64C121.658 42.448 121.737 42.6463 121.876 42.8134C122.016 42.9781 122.198 43.1057 122.423 43.1961C122.648 43.2866 122.897 43.3319 123.171 43.3319C123.477 43.3319 123.749 43.2785 123.985 43.1718C124.222 43.0651 124.407 42.9166 124.542 42.7264C124.677 42.5361 124.744 42.3157 124.744 42.0652C124.744 41.803 124.679 41.5722 124.549 41.3727C124.419 41.1709 124.229 41.0131 123.978 40.8994C123.728 40.7857 123.421 40.7289 123.06 40.7289H122.489V39.9633H123.06C123.343 39.9633 123.591 39.9123 123.804 39.8102C124.02 39.7081 124.188 39.5643 124.309 39.3787C124.432 39.1931 124.493 38.975 124.493 38.7245C124.493 38.4832 124.44 38.2733 124.333 38.0946C124.226 37.916 124.076 37.7768 123.881 37.677C123.688 37.5773 123.461 37.5274 123.199 37.5274C122.953 37.5274 122.721 37.5726 122.503 37.6631C122.287 37.7513 122.111 37.88 121.974 38.0494C121.837 38.2164 121.763 38.4183 121.751 38.6549H120.916C120.93 38.2814 121.042 37.9543 121.254 37.6736C121.465 37.3905 121.741 37.1701 122.082 37.0124C122.425 36.8546 122.802 36.7758 123.213 36.7758C123.653 36.7758 124.032 36.8651 124.347 37.0437C124.663 37.22 124.905 37.4532 125.074 37.7432C125.244 38.0332 125.328 38.3463 125.328 38.6827C125.328 39.0841 125.223 39.4263 125.012 39.7093C124.803 39.9923 124.519 40.1884 124.159 40.2974V40.3531C124.609 40.4273 124.961 40.6187 125.214 40.9273C125.466 41.2335 125.593 41.6128 125.593 42.0652C125.593 42.4526 125.487 42.8006 125.276 43.1091C125.067 43.4154 124.782 43.6567 124.42 43.833C124.058 44.0093 123.647 44.0974 123.185 44.0974ZM127.141 44V36.8732H129.633C130.13 36.8732 130.539 36.959 130.861 37.1307C131.184 37.3001 131.424 37.5286 131.582 37.8162C131.74 38.1016 131.818 38.4183 131.818 38.7662C131.818 39.0725 131.764 39.3254 131.655 39.5249C131.548 39.7244 131.407 39.8821 131.23 39.9981C131.056 40.1141 130.867 40.2 130.663 40.2556V40.3252C130.881 40.3392 131.1 40.4157 131.321 40.5549C131.541 40.6941 131.726 40.8936 131.874 41.1535C132.023 41.4133 132.097 41.7311 132.097 42.1069C132.097 42.4642 132.016 42.7855 131.853 43.0709C131.691 43.3562 131.434 43.5824 131.084 43.7494C130.734 43.9165 130.278 44 129.717 44H127.141ZM128.004 43.2344H129.717C130.28 43.2344 130.681 43.1254 130.917 42.9073C131.156 42.6869 131.276 42.4201 131.276 42.1069C131.276 41.8657 131.214 41.643 131.091 41.4388C130.968 41.2323 130.793 41.0676 130.566 40.9447C130.338 40.8194 130.069 40.7567 129.758 40.7567H128.004V43.2344ZM128.004 40.0051H129.605C129.865 40.0051 130.099 39.9541 130.308 39.852C130.519 39.7499 130.686 39.6061 130.809 39.4205C130.935 39.2349 130.997 39.0168 130.997 38.7662C130.997 38.4531 130.888 38.1874 130.67 37.9694C130.452 37.749 130.106 37.6388 129.633 37.6388H128.004V40.0051Z" fill="black"/>
<path d="M42.9375 12.875H41.3125C41.2048 12.875 41.1014 12.9178 41.0253 12.994L39.6875 14.3318L38.875 13.5193V9.21875C38.875 9.11101 38.8322 9.00767 38.756 8.93149C38.6798 8.8553 38.5765 8.8125 38.4688 8.8125H36.8438C36.736 8.81252 36.6327 8.85534 36.5565 8.93153L35.2188 10.2693L33.881 8.93153C33.8048 8.85534 33.7015 8.81252 33.5938 8.8125H31.9688C31.861 8.81252 31.7577 8.85534 31.6815 8.93153L30.3438 10.2693L29.006 8.93153C28.9298 8.85534 28.8265 8.81252 28.7188 8.8125H27.0938C26.986 8.81252 26.8827 8.85534 26.8065 8.93153L25.4688 10.2693L24.131 8.93153C24.0548 8.85534 23.9515 8.81252 23.8438 8.8125H22.2188C22.111 8.8125 22.0077 8.8553 21.9315 8.93149C21.8553 9.00767 21.8125 9.11101 21.8125 9.21875V28.7188C21.8125 28.8265 21.8553 28.9298 21.9315 29.006C22.0077 29.0822 22.111 29.125 22.2188 29.125H23.8438C23.9515 29.125 24.0548 29.0822 24.131 29.006L25.4688 27.6682L26.2812 28.4807V32.7812C26.2812 32.889 26.3241 32.9923 26.4002 33.0685C26.4764 33.1447 26.5798 33.1875 26.6875 33.1875H28.3125C28.4202 33.1875 28.5236 33.1447 28.5997 33.0685L29.9375 31.7307L31.2753 33.0685C31.3514 33.1447 31.4548 33.1875 31.5625 33.1875H33.1875C33.2952 33.1875 33.3986 33.1447 33.4747 33.0685L34.8125 31.7307L36.1503 33.0685C36.2264 33.1447 36.3298 33.1875 36.4375 33.1875H38.0625C38.1702 33.1875 38.2736 33.1447 38.3497 33.0685L39.6875 31.7307L41.0253 33.0685C41.1014 33.1447 41.2048 33.1875 41.3125 33.1875H42.9375C43.0452 33.1875 43.1486 33.1447 43.2248 33.0685C43.3009 32.9923 43.3438 32.889 43.3438 32.7812V13.2812C43.3438 13.1735 43.3009 13.0702 43.2248 12.994C43.1486 12.9178 43.0452 12.875 42.9375 12.875ZM25.1815 26.8065L23.6756 28.3125H22.625V9.625H23.6756L25.1815 11.131C25.2577 11.2071 25.361 11.2499 25.4688 11.2499C25.5765 11.2499 25.6798 11.2071 25.756 11.131L27.2619 9.625H28.5506L30.0565 11.131C30.1327 11.2071 30.236 11.2499 30.3438 11.2499C30.4515 11.2499 30.5548 11.2071 30.631 11.131L32.1369 9.625H33.4256L34.9315 11.131C35.0077 11.2071 35.111 11.2499 35.2188 11.2499C35.3265 11.2499 35.4298 11.2071 35.506 11.131L37.0119 9.625H38.0625V28.3125H37.0119L35.506 26.8065C35.4298 26.7304 35.3265 26.6876 35.2188 26.6876C35.111 26.6876 35.0077 26.7304 34.9315 26.8065L33.4256 28.3125H32.1369L30.631 26.8065C30.5548 26.7304 30.4515 26.6876 30.3438 26.6876C30.236 26.6876 30.1327 26.7304 30.0565 26.8065L28.5506 28.3125H27.2619L25.756 26.8065C25.6798 26.7304 25.5765 26.6876 25.4688 26.6876C25.361 26.6876 25.2577 26.7304 25.1815 26.8065ZM42.5312 32.375H41.4807L39.9747 30.869C39.8985 30.7929 39.7952 30.7501 39.6875 30.7501C39.5798 30.7501 39.4765 30.7929 39.4003 30.869L37.8943 32.375H36.6057L35.0997 30.869C35.0235 30.7929 34.9202 30.7501 34.8125 30.7501C34.7048 30.7501 34.6015 30.7929 34.5253 30.869L33.0193 32.375H31.7307L30.2247 30.869C30.1485 30.7929 30.0452 30.7501 29.9375 30.7501C29.8298 30.7501 29.7265 30.7929 29.6503 30.869L28.1443 32.375H27.0938V29.125H28.7188C28.8265 29.125 28.9298 29.0822 29.006 29.006L30.3438 27.6682L31.6815 29.006C31.7577 29.0822 31.861 29.125 31.9688 29.125H33.5938C33.7015 29.125 33.8048 29.0822 33.881 29.006L35.2188 27.6682L36.5565 29.006C36.6327 29.0822 36.736 29.125 36.8438 29.125H38.4688C38.5765 29.125 38.6798 29.0822 38.756 29.006C38.8322 28.9298 38.875 28.8265 38.875 28.7188V14.6682L39.4003 15.1935C39.4765 15.2696 39.5798 15.3124 39.6875 15.3124C39.7952 15.3124 39.8985 15.2696 39.9747 15.1935L41.4807 13.6875H42.5312V32.375Z" fill="#7738CF"/>
<path d="M27.0938 20.1875V16.5312H28.3125V15.7188H25.0625V16.5312H26.2812V20.1875H27.0938Z" fill="#F3771E"/>
<path d="M31.9688 20.1875V17.75C31.9688 17.687 31.9542 17.6248 31.9261 17.5684L31.1136 15.9434C31.0798 15.8759 31.028 15.8191 30.9637 15.7794C30.8995 15.7397 30.8255 15.7187 30.75 15.7188H29.9375C29.862 15.7187 29.788 15.7397 29.7238 15.7794C29.6595 15.8191 29.6077 15.8759 29.5739 15.9434L28.7614 17.5684C28.7333 17.6248 28.7187 17.687 28.7188 17.75V20.1875H29.5313V18.9688H31.1563V20.1875H31.9688ZM29.5313 18.1562V17.8459L30.1886 16.5312H30.4989L31.1563 17.8459V18.1562H29.5313ZM35.625 16.5312V15.7188H34.8125C34.7339 15.7187 34.657 15.7415 34.5911 15.7844C34.5252 15.8272 34.4731 15.8882 34.4412 15.9601L34 16.9529L33.5588 15.9601C33.5269 15.8882 33.4748 15.8272 33.4089 15.7844C33.343 15.7415 33.2661 15.7187 33.1875 15.7188H32.375V16.5312H32.9234L33.5556 17.9531L32.9234 19.375H32.375V20.1875H33.1875C33.2661 20.1875 33.343 20.1647 33.4089 20.1219C33.4748 20.0791 33.5269 20.018 33.5588 19.9462L34 18.9533L34.4412 19.9462C34.4731 20.018 34.5252 20.0791 34.5911 20.1219C34.657 20.1647 34.7339 20.1875 34.8125 20.1875H35.625V19.375H35.0766L34.4444 17.9531L35.0766 16.5312H35.625Z" fill="#F3771E"/>
<path d="M36.4375 21H24.25V21.8125H36.4375V21Z" fill="#F3771E"/>
<path d="M36.4375 14.0938H24.25V14.9062H36.4375V14.0938Z" fill="#F3771E"/>
<path d="M117.5 18.8334V31.8334L115.333 30.2084L113.167 31.8334L111 30.2084L108.833 31.8334L106.667 30.2084L104.5 31.8334V10.1667L106.667 11.7917L108.833 10.1667L111 11.7917L113.167 10.1667L115.333 11.7917L117.5 10.1667V17.75V18.8334Z" fill="#FBF8F7"/>
<path d="M117.75 30.7495C117.628 30.7496 117.51 30.717 117.413 30.6567L115.5 29.4728L113.588 30.6567C113.49 30.7172 113.372 30.75 113.25 30.75C113.128 30.75 113.01 30.7172 112.912 30.6567L111 29.4728L109.088 30.6567C108.99 30.7172 108.872 30.75 108.75 30.75C108.628 30.75 108.51 30.7172 108.412 30.6567L106.5 29.4728L104.588 30.6567C104.504 30.7081 104.405 30.7393 104.301 30.7468C104.197 30.7544 104.092 30.738 103.999 30.6995C103.906 30.661 103.827 30.6019 103.772 30.5288C103.717 30.4556 103.688 30.3713 103.688 30.2853V11.7147C103.688 11.6286 103.717 11.5442 103.772 11.4709C103.827 11.3977 103.905 11.3385 103.999 11.3C104.092 11.2615 104.197 11.2451 104.301 11.2528C104.405 11.2604 104.504 11.2918 104.588 11.3433L106.5 12.5272L108.412 11.3433C108.51 11.2828 108.628 11.25 108.75 11.25C108.872 11.25 108.99 11.2828 109.088 11.3433L111 12.5272L112.912 11.3433C113.01 11.2828 113.128 11.25 113.25 11.25C113.372 11.25 113.49 11.2828 113.588 11.3433L115.5 12.5272L117.413 11.3433C117.496 11.2918 117.595 11.2604 117.699 11.2528C117.803 11.2451 117.908 11.2615 118.001 11.3C118.095 11.3385 118.173 11.3977 118.228 11.4709C118.283 11.5442 118.312 11.6286 118.312 11.7147V30.2853C118.312 30.4084 118.253 30.5264 118.148 30.6134C118.042 30.7005 117.899 30.7494 117.75 30.7495ZM111 28.4282C111.119 28.4282 111.237 28.4589 111.338 28.5211L113.25 29.7049L115.162 28.5211C115.26 28.4605 115.378 28.4277 115.5 28.4277C115.622 28.4277 115.74 28.4605 115.837 28.5211L117.188 29.3567V12.6433L115.837 13.4789C115.74 13.5395 115.622 13.5723 115.5 13.5723C115.378 13.5723 115.26 13.5395 115.162 13.4789L113.25 12.2951L111.338 13.4789C111.24 13.5395 111.122 13.5723 111 13.5723C110.878 13.5723 110.76 13.5395 110.662 13.4789L108.75 12.2951L106.838 13.4789C106.74 13.5395 106.622 13.5723 106.5 13.5723C106.378 13.5723 106.26 13.5395 106.162 13.4789L104.812 12.6433V29.3567L106.162 28.5211C106.26 28.4605 106.378 28.4277 106.5 28.4277C106.622 28.4277 106.74 28.4605 106.838 28.5211L108.75 29.7049L110.662 28.5211C110.76 28.4606 110.878 28.428 111 28.4282Z" fill="#8768EA"/>
<path d="M111.542 16.125H107.208C107.065 16.125 106.927 16.068 106.825 15.9664C106.724 15.8648 106.667 15.727 106.667 15.5834C106.667 15.4397 106.724 15.3019 106.825 15.2003C106.927 15.0988 107.065 15.0417 107.208 15.0417H111.542C111.685 15.0417 111.823 15.0988 111.925 15.2003C112.026 15.3019 112.083 15.4397 112.083 15.5834C112.083 15.727 112.026 15.8648 111.925 15.9664C111.823 16.068 111.685 16.125 111.542 16.125ZM114.792 16.125H113.708C113.565 16.125 113.427 16.068 113.325 15.9664C113.224 15.8648 113.167 15.727 113.167 15.5834C113.167 15.4397 113.224 15.3019 113.325 15.2003C113.427 15.0988 113.565 15.0417 113.708 15.0417H114.792C114.935 15.0417 115.073 15.0988 115.175 15.2003C115.276 15.3019 115.333 15.4397 115.333 15.5834C115.333 15.727 115.276 15.8648 115.175 15.9664C115.073 16.068 114.935 16.125 114.792 16.125ZM111.542 18.2917H107.208C107.065 18.2917 106.927 18.2346 106.825 18.133C106.724 18.0315 106.667 17.8937 106.667 17.75C106.667 17.6064 106.724 17.4686 106.825 17.367C106.927 17.2654 107.065 17.2084 107.208 17.2084H111.542C111.685 17.2084 111.823 17.2654 111.925 17.367C112.026 17.4686 112.083 17.6064 112.083 17.75C112.083 17.8937 112.026 18.0315 111.925 18.133C111.823 18.2346 111.685 18.2917 111.542 18.2917ZM114.792 18.2917H113.708C113.565 18.2917 113.427 18.2346 113.325 18.133C113.224 18.0315 113.167 17.8937 113.167 17.75C113.167 17.6064 113.224 17.4686 113.325 17.367C113.427 17.2654 113.565 17.2084 113.708 17.2084H114.792C114.935 17.2084 115.073 17.2654 115.175 17.367C115.276 17.4686 115.333 17.6064 115.333 17.75C115.333 17.8937 115.276 18.0315 115.175 18.133C115.073 18.2346 114.935 18.2917 114.792 18.2917ZM111.542 20.4584H107.208C107.065 20.4584 106.927 20.4013 106.825 20.2997C106.724 20.1981 106.667 20.0603 106.667 19.9167C106.667 19.773 106.724 19.6353 106.825 19.5337C106.927 19.4321 107.065 19.375 107.208 19.375H111.542C111.685 19.375 111.823 19.4321 111.925 19.5337C112.026 19.6353 112.083 19.773 112.083 19.9167C112.083 20.0603 112.026 20.1981 111.925 20.2997C111.823 20.4013 111.685 20.4584 111.542 20.4584ZM114.792 20.4584H113.708C113.565 20.4584 113.427 20.4013 113.325 20.2997C113.224 20.1981 113.167 20.0603 113.167 19.9167C113.167 19.773 113.224 19.6353 113.325 19.5337C113.427 19.4321 113.565 19.375 113.708 19.375H114.792C114.935 19.375 115.073 19.4321 115.175 19.5337C115.276 19.6353 115.333 19.773 115.333 19.9167C115.333 20.0603 115.276 20.1981 115.175 20.2997C115.073 20.4013 114.935 20.4584 114.792 20.4584ZM111.542 22.625H107.208C107.065 22.625 106.927 22.568 106.825 22.4664C106.724 22.3648 106.667 22.227 106.667 22.0834C106.667 21.9397 106.724 21.8019 106.825 21.7003C106.927 21.5988 107.065 21.5417 107.208 21.5417H111.542C111.685 21.5417 111.823 21.5988 111.925 21.7003C112.026 21.8019 112.083 21.9397 112.083 22.0834C112.083 22.227 112.026 22.3648 111.925 22.4664C111.823 22.568 111.685 22.625 111.542 22.625ZM111.542 24.7917H107.208C107.065 24.7917 106.927 24.7346 106.825 24.633C106.724 24.5315 106.667 24.3937 106.667 24.25C106.667 24.1064 106.724 23.9686 106.825 23.867C106.927 23.7654 107.065 23.7084 107.208 23.7084H111.542C111.685 23.7084 111.823 23.7654 111.925 23.867C112.026 23.9686 112.083 24.1064 112.083 24.25C112.083 24.3937 112.026 24.5315 111.925 24.633C111.823 24.7346 111.685 24.7917 111.542 24.7917ZM114.792 22.625H113.708C113.565 22.625 113.427 22.568 113.325 22.4664C113.224 22.3648 113.167 22.227 113.167 22.0834C113.167 21.9397 113.224 21.8019 113.325 21.7003C113.427 21.5988 113.565 21.5417 113.708 21.5417H114.792C114.935 21.5417 115.073 21.5988 115.175 21.7003C115.276 21.8019 115.333 21.9397 115.333 22.0834C115.333 22.227 115.276 22.3648 115.175 22.4664C115.073 22.568 114.935 22.625 114.792 22.625Z" fill="#F3771E"/>
<rect x="151" y="1" width="70.0626" height="52.9804" rx="8.45045" fill="white"/>
<path d="M175.102 39.1003C175.026 38.866 174.925 38.6561 174.799 38.4705C174.676 38.2825 174.529 38.1225 174.357 37.9902C174.188 37.858 173.996 37.7571 173.78 37.6875C173.564 37.6179 173.327 37.5831 173.07 37.5831C172.648 37.5831 172.264 37.6921 171.918 37.9102C171.572 38.1283 171.297 38.4496 171.093 38.8741C170.889 39.2987 170.787 39.8195 170.787 40.4366C170.787 41.0537 170.89 41.5745 171.097 41.9991C171.303 42.4236 171.583 42.7449 171.935 42.963C172.288 43.1811 172.685 43.2901 173.126 43.2901C173.534 43.2901 173.893 43.2031 174.204 43.0291C174.517 42.8528 174.761 42.6046 174.935 42.2844C175.111 41.9619 175.2 41.5826 175.2 41.1465L175.464 41.2022H173.32V40.4366H176.035V41.2022C176.035 41.7891 175.909 42.2995 175.659 42.7333C175.411 43.1671 175.067 43.5035 174.629 43.7425C174.193 43.9791 173.692 44.0974 173.126 44.0974C172.495 44.0974 171.94 43.949 171.462 43.652C170.987 43.3551 170.615 42.9328 170.349 42.3853C170.084 41.8378 169.952 41.1883 169.952 40.4366C169.952 39.8729 170.027 39.3659 170.178 38.9159C170.331 38.4635 170.547 38.0784 170.825 37.7606C171.104 37.4427 171.433 37.1991 171.814 37.0298C172.194 36.8604 172.613 36.7758 173.07 36.7758C173.446 36.7758 173.796 36.8326 174.121 36.9463C174.448 37.0576 174.739 37.2165 174.994 37.423C175.252 37.6272 175.466 37.8719 175.638 38.1573C175.81 38.4403 175.928 38.7546 175.993 39.1003H175.102ZM181.41 38.6549C181.369 38.3023 181.199 38.0285 180.902 37.8336C180.605 37.6388 180.241 37.5413 179.81 37.5413C179.494 37.5413 179.218 37.5924 178.981 37.6944C178.747 37.7965 178.564 37.9369 178.431 38.1155C178.302 38.2941 178.237 38.4971 178.237 38.7245C178.237 38.9147 178.282 39.0783 178.372 39.2152C178.465 39.3497 178.583 39.4622 178.727 39.5527C178.871 39.6409 179.022 39.7139 179.18 39.7719C179.337 39.8276 179.482 39.8729 179.615 39.9077L180.338 40.1025C180.524 40.1512 180.731 40.2185 180.958 40.3044C181.188 40.3902 181.407 40.5074 181.616 40.6558C181.827 40.802 182.001 40.9899 182.138 41.2196C182.274 41.4492 182.343 41.7311 182.343 42.0652C182.343 42.4503 182.242 42.7983 182.04 43.1091C181.841 43.42 181.548 43.6671 181.163 43.8504C180.78 44.0336 180.315 44.1253 179.768 44.1253C179.257 44.1253 178.815 44.0429 178.442 43.8782C178.071 43.7135 177.778 43.4838 177.565 43.1892C177.354 42.8946 177.234 42.5524 177.207 42.1626H178.097C178.121 42.4317 178.211 42.6544 178.369 42.8308C178.529 43.0048 178.731 43.1347 178.974 43.2205C179.22 43.304 179.485 43.3458 179.768 43.3458C180.097 43.3458 180.393 43.2924 180.655 43.1857C180.917 43.0767 181.125 42.9259 181.278 42.7333C181.431 42.5384 181.508 42.3111 181.508 42.0513C181.508 41.8146 181.442 41.6221 181.309 41.4736C181.177 41.3251 181.003 41.2045 180.787 41.1117C180.572 41.0189 180.338 40.9377 180.088 40.8681L179.211 40.6175C178.654 40.4575 178.213 40.229 177.889 39.932C177.564 39.6351 177.401 39.2465 177.401 38.7662C177.401 38.3672 177.509 38.0192 177.725 37.7223C177.943 37.423 178.235 37.191 178.602 37.0263C178.971 36.8593 179.383 36.7758 179.837 36.7758C180.297 36.7758 180.705 36.8581 181.062 37.0228C181.42 37.1852 181.703 37.4079 181.911 37.691C182.122 37.974 182.234 38.2953 182.245 38.6549H181.41ZM183.372 37.6388V36.8732H188.717V37.6388H186.476V44H185.613V37.6388H183.372ZM190.049 44V36.8732H192.457C193.014 36.8732 193.471 36.9683 193.828 37.1585C194.186 37.3465 194.45 37.6051 194.622 37.9346C194.793 38.264 194.879 38.6387 194.879 39.0586C194.879 39.4785 194.793 39.8508 194.622 40.1756C194.45 40.5004 194.187 40.7556 193.832 40.9412C193.477 41.1245 193.023 41.2161 192.471 41.2161H190.522V40.4366H192.443C192.824 40.4366 193.13 40.3809 193.362 40.2696C193.596 40.1582 193.766 40.0004 193.87 39.7963C193.977 39.5898 194.03 39.3439 194.03 39.0586C194.03 38.7732 193.977 38.5238 193.87 38.3104C193.763 38.097 193.593 37.9322 193.358 37.8162C193.124 37.6979 192.814 37.6388 192.429 37.6388H190.912V44H190.049ZM193.404 40.7985L195.158 44H194.155L192.429 40.7985H193.404ZM199.268 40.0538V40.8194H196.15V40.0538H199.268ZM202.968 36.7758C203.26 36.7781 203.553 36.8338 203.845 36.9428C204.137 37.0518 204.404 37.2328 204.645 37.4856C204.887 37.7362 205.08 38.0784 205.227 38.5122C205.373 38.946 205.446 39.4901 205.446 40.1443C205.446 40.7776 205.386 41.3402 205.265 41.832C205.147 42.3215 204.975 42.7345 204.75 43.0709C204.527 43.4073 204.256 43.6625 203.936 43.8364C203.618 44.0104 203.258 44.0974 202.857 44.0974C202.458 44.0974 202.102 44.0186 201.789 43.8608C201.478 43.7007 201.222 43.4792 201.023 43.1961C200.826 42.9108 200.699 42.5802 200.644 42.2044H201.493C201.569 42.5315 201.721 42.8018 201.949 43.0152C202.178 43.2263 202.481 43.3319 202.857 43.3319C203.407 43.3319 203.84 43.0917 204.158 42.6115C204.478 42.1313 204.639 41.4527 204.639 40.5758H204.583C204.453 40.7707 204.299 40.9389 204.12 41.0804C203.941 41.2219 203.743 41.3309 203.525 41.4075C203.307 41.484 203.075 41.5223 202.829 41.5223C202.421 41.5223 202.046 41.4214 201.705 41.2196C201.366 41.0154 201.095 40.7359 200.891 40.3809C200.689 40.0236 200.588 39.6153 200.588 39.156C200.588 38.7199 200.685 38.3208 200.88 37.9589C201.077 37.5947 201.354 37.3047 201.708 37.0889C202.066 36.8732 202.486 36.7688 202.968 36.7758ZM202.968 37.5413C202.676 37.5413 202.413 37.6144 202.178 37.7606C201.946 37.9044 201.762 38.0993 201.625 38.3452C201.49 38.5888 201.423 38.859 201.423 39.156C201.423 39.4529 201.488 39.7232 201.618 39.9668C201.75 40.2081 201.93 40.4006 202.157 40.5445C202.387 40.686 202.648 40.7567 202.94 40.7567C203.161 40.7567 203.366 40.7138 203.556 40.628C203.747 40.5398 203.912 40.4204 204.054 40.2696C204.198 40.1164 204.31 39.9436 204.391 39.7511C204.473 39.5562 204.513 39.3532 204.513 39.1421C204.513 38.8637 204.446 38.6027 204.311 38.3591C204.179 38.1155 203.996 37.9183 203.762 37.7675C203.53 37.6167 203.265 37.5413 202.968 37.5413Z" fill="black"/>
<path d="M180.333 30C180.675 30 181.016 29.8697 181.276 29.6093L194.609 16.2761C195.13 15.7553 195.13 14.9116 194.609 14.3906C194.088 13.8697 193.245 13.8699 192.724 14.3906L179.391 27.7239C178.87 28.2447 178.87 29.0884 179.391 29.6093C179.651 29.8697 179.992 30 180.333 30ZM181.444 18.8887C182.793 18.8887 183.889 17.7924 183.889 16.4448C183.889 15.0965 182.793 14.0001 181.444 14.0001C180.096 14.0001 179 15.0965 179 16.4448C179 17.7924 180.096 18.8887 181.444 18.8887ZM181.444 16.2221C181.566 16.2221 181.667 16.3217 181.667 16.4448C181.667 16.6896 181.223 16.6896 181.223 16.4448C181.223 16.3217 181.322 16.2221 181.444 16.2221ZM192.556 25.1114C191.207 25.1114 190.111 26.2078 190.111 27.5554C190.111 28.9036 191.207 30 192.556 30C193.904 30 195 28.9036 195 27.5554C195 26.2078 193.904 25.1114 192.556 25.1114ZM192.333 27.5554C192.333 27.433 192.434 27.3334 192.556 27.3334C192.678 27.3334 192.777 27.433 192.777 27.5554C192.777 27.8015 192.333 27.8015 192.333 27.5554Z" fill="#7738CF"/>
</svg>
