<svg width="251" height="60" viewBox="0 0 251 60" fill="none" xmlns="http://www.w3.org/2000/svg">
<rect x="0.000488281" width="78.049" height="59.0196" rx="9.4137" fill="white"/>
<rect x="86.2656" width="78.049" height="59.0196" rx="9.4137" fill="white"/>
<rect x="172.53" width="78.049" height="59.0196" rx="9.4137" fill="white"/>
<g clip-path="url(#clip0_455_720)">
<path d="M211.563 9.16348C211.194 9.34805 211.01 9.53789 210.82 9.94922C210.698 10.2182 210.688 10.3025 210.667 11.2254L210.646 12.2168H217.823H225V11.199V10.176L224.837 9.8543C224.657 9.49043 224.462 9.30586 224.077 9.12656L223.814 9H217.849H211.885L211.563 9.16348Z" fill="#7738CF"/>
<path d="M204.987 12.2484C203.073 12.6544 201.686 14.3156 201.554 16.3564L201.518 16.9101L201.138 16.5462C200.864 16.2773 200.711 16.1718 200.568 16.1455C200.178 16.0716 199.825 16.2246 199.661 16.541C199.561 16.7361 199.561 17.1369 199.656 17.3214C199.698 17.4005 200.236 17.9648 200.858 18.5765C202.44 20.148 202.314 20.148 203.896 18.5765C204.486 17.9964 205.014 17.4269 205.072 17.3214C205.283 16.9101 205.13 16.3986 204.734 16.2193C204.302 16.0242 203.991 16.1191 203.49 16.6095L203.158 16.9365L203.194 16.4988C203.258 15.7078 203.463 15.2121 203.933 14.7058C204.276 14.3367 204.608 14.1099 205.045 13.9464C205.325 13.8462 205.494 13.8304 206.791 13.8041C208.13 13.7724 208.231 13.7671 208.368 13.6617C208.747 13.3769 208.853 12.9814 208.642 12.5912C208.42 12.1746 208.362 12.164 206.754 12.1693C205.736 12.1693 205.256 12.1957 204.987 12.2484Z" fill="#F3771E"/>
<path d="M210.667 15.9188L210.683 18.0967L210.825 18.3973C211.004 18.7822 211.326 19.0934 211.69 19.2305C211.975 19.3359 212.064 19.3359 217.855 19.3359C223.597 19.3359 223.735 19.3359 224.014 19.2305C224.357 19.1039 224.705 18.7717 224.874 18.4131C225 18.1494 225 18.1494 225 15.9451V13.7461H217.823H210.651L210.667 15.9188Z" fill="#7738CF"/>
<path d="M219.068 22.1625C218.904 22.2521 217.006 24.1031 216.816 24.3615C216.468 24.8414 216.679 25.5006 217.227 25.664C217.575 25.7695 217.839 25.664 218.261 25.2527L218.619 24.9099V26.8136C218.619 27.9896 218.598 28.8228 218.561 28.9969C218.403 29.751 217.834 30.5156 217.164 30.8689C216.552 31.1959 216.478 31.2011 213.167 31.2011C210.271 31.2011 210.155 31.2064 209.944 31.3066C209.391 31.5756 209.349 32.3719 209.865 32.7199L210.045 32.8412L213.372 32.8254C216.642 32.8043 216.7 32.8043 217.079 32.6883C218.324 32.3086 219.326 31.4437 219.853 30.2941C220.217 29.5136 220.217 29.5031 220.238 27.0984L220.259 24.9152L220.618 25.258C221.003 25.6324 221.272 25.7484 221.604 25.6851C221.884 25.6324 222.184 25.3265 222.232 25.047C222.3 24.6199 222.221 24.5092 221.077 23.3543C220.497 22.7636 219.927 22.2363 219.822 22.1783C219.584 22.057 219.284 22.0517 219.068 22.1625Z" fill="#F5883A"/>
<path d="M198.86 22.6582C198.49 22.8427 198.306 23.0379 198.127 23.4228L198 23.6865V29.2552V34.824L198.163 35.1457C198.343 35.5148 198.538 35.6994 198.933 35.8787L199.202 36.0052L202.44 35.9894C205.657 35.9736 205.673 35.9736 205.889 35.8576C206.211 35.6888 206.58 35.2511 206.675 34.9295C206.796 34.5287 206.796 23.9713 206.675 23.5705C206.58 23.2488 206.211 22.8111 205.889 22.6424C205.673 22.5263 205.657 22.5263 202.43 22.5105L199.181 22.4947L198.86 22.6582ZM202.678 32.9414C202.994 33.0838 203.126 33.3105 203.099 33.6691C203.084 33.9064 203.052 33.9802 202.888 34.1385C202.73 34.3019 202.656 34.3336 202.419 34.3494C202.055 34.3758 201.829 34.2439 201.686 33.917C201.512 33.5215 201.686 33.0838 202.087 32.9097C202.303 32.8148 202.419 32.8201 202.678 32.9414Z" fill="#7738CF"/>
</g>
<path d="M15.0242 44.8779H13.9812C13.9411 44.655 13.8664 44.4589 13.7572 44.2895C13.648 44.1201 13.5143 43.9764 13.356 43.8583C13.1978 43.7402 13.0206 43.651 12.8245 43.5908C12.6306 43.5307 12.4245 43.5006 12.2061 43.5006C11.8116 43.5006 11.4584 43.5998 11.1464 43.7981C10.8366 43.9964 10.5914 44.2873 10.4109 44.6706C10.2326 45.0539 10.1435 45.5219 10.1435 46.0746C10.1435 46.6318 10.2326 47.102 10.4109 47.4854C10.5914 47.8687 10.8377 48.1584 11.1497 48.3545C11.4617 48.5506 11.8127 48.6487 12.2027 48.6487C12.4189 48.6487 12.6239 48.6197 12.8178 48.5618C13.014 48.5016 13.1911 48.4136 13.3494 48.2977C13.5076 48.1818 13.6413 48.0403 13.7505 47.8731C13.8619 47.7038 13.9388 47.5099 13.9812 47.2915L15.0242 47.2948C14.9685 47.6313 14.8604 47.9411 14.6999 48.2241C14.5417 48.505 14.3378 48.7479 14.0881 48.9529C13.8408 49.1557 13.5577 49.3128 13.239 49.4243C12.9203 49.5357 12.5727 49.5914 12.196 49.5914C11.6032 49.5914 11.075 49.451 10.6115 49.1702C10.1479 48.8872 9.78245 48.4827 9.51501 47.9567C9.24981 47.4308 9.1172 46.8034 9.1172 46.0746C9.1172 45.3437 9.25092 44.7163 9.51836 44.1926C9.78579 43.6666 10.1513 43.2632 10.6148 42.9824C11.0784 42.6994 11.6055 42.5579 12.196 42.5579C12.5593 42.5579 12.8981 42.6102 13.2123 42.715C13.5288 42.8175 13.8129 42.9691 14.0647 43.1696C14.3166 43.368 14.525 43.6109 14.6899 43.8984C14.8548 44.1837 14.9662 44.5101 15.0242 44.8779ZM17.6743 49.6115C17.3489 49.6115 17.0547 49.5513 16.7917 49.4309C16.5288 49.3084 16.3204 49.1312 16.1666 48.8994C16.0151 48.6676 15.9393 48.3835 15.9393 48.047C15.9393 47.7572 15.995 47.5188 16.1064 47.3316C16.2179 47.1444 16.3683 46.9962 16.5577 46.887C16.7472 46.7778 16.9589 46.6953 17.1929 46.6396C17.4269 46.5839 17.6654 46.5415 17.9083 46.5126C18.2158 46.4769 18.4654 46.4479 18.6571 46.4256C18.8488 46.4011 18.9881 46.3621 19.075 46.3086C19.1619 46.2552 19.2053 46.1682 19.2053 46.0479V46.0245C19.2053 45.7325 19.1229 45.5063 18.958 45.3459C18.7953 45.1854 18.5524 45.1052 18.2292 45.1052C17.8927 45.1052 17.6275 45.1798 17.4336 45.3292C17.2419 45.4763 17.1093 45.6401 17.0358 45.8206L16.0964 45.6066C16.2078 45.2946 16.3705 45.0428 16.5845 44.8511C16.8007 44.6572 17.0491 44.5168 17.33 44.4299C17.6108 44.3408 17.9061 44.2962 18.2158 44.2962C18.4209 44.2962 18.6382 44.3207 18.8677 44.3697C19.0995 44.4165 19.3157 44.5035 19.5162 44.6305C19.719 44.7575 19.8851 44.9392 20.0143 45.1754C20.1436 45.4094 20.2082 45.7136 20.2082 46.088V49.4978H19.2321V48.7958H19.192C19.1273 48.925 19.0304 49.0521 18.9011 49.1769C18.7719 49.3017 18.6058 49.4053 18.403 49.4878C18.2002 49.5702 17.9573 49.6115 17.6743 49.6115ZM17.8916 48.8092C18.1679 48.8092 18.4042 48.7546 18.6003 48.6454C18.7986 48.5362 18.949 48.3935 19.0516 48.2175C19.1563 48.0392 19.2087 47.8486 19.2087 47.6458V46.9839C19.173 47.0196 19.1039 47.053 19.0014 47.0842C18.9011 47.1132 18.7864 47.1388 18.6571 47.1611C18.5278 47.1811 18.4019 47.2001 18.2793 47.2179C18.1568 47.2335 18.0543 47.2469 17.9718 47.258C17.7779 47.2826 17.6007 47.3238 17.4403 47.3817C17.282 47.4397 17.155 47.5232 17.0592 47.6324C16.9656 47.7394 16.9188 47.8821 16.9188 48.0603C16.9188 48.3077 17.0101 48.4949 17.1929 48.622C17.3756 48.7468 17.6085 48.8092 17.8916 48.8092ZM25.3873 45.6167L24.4813 45.7771C24.4434 45.6612 24.3833 45.5509 24.3008 45.4462C24.2206 45.3414 24.1114 45.2556 23.9732 45.1888C23.835 45.1219 23.6623 45.0885 23.455 45.0885C23.172 45.0885 22.9358 45.152 22.7463 45.279C22.5569 45.4038 22.4622 45.5654 22.4622 45.7637C22.4622 45.9354 22.5257 46.0735 22.6527 46.1783C22.7798 46.283 22.9848 46.3688 23.2678 46.4357L24.0835 46.6229C24.556 46.7321 24.9081 46.9003 25.1399 47.1277C25.3717 47.355 25.4875 47.6503 25.4875 48.0135C25.4875 48.3211 25.3984 48.5952 25.2201 48.8359C25.0441 49.0744 24.7978 49.2616 24.4813 49.3975C24.1671 49.5335 23.8027 49.6014 23.3882 49.6014C22.8132 49.6014 22.3441 49.4789 21.9808 49.2337C21.6175 48.9863 21.3947 48.6353 21.3122 48.1807L22.2783 48.0336C22.3385 48.2854 22.4622 48.476 22.6494 48.6052C22.8366 48.7323 23.0806 48.7958 23.3815 48.7958C23.7091 48.7958 23.971 48.7278 24.1671 48.5919C24.3632 48.4537 24.4613 48.2854 24.4613 48.0871C24.4613 47.9266 24.4011 47.7918 24.2807 47.6826C24.1626 47.5734 23.981 47.4909 23.7359 47.4352L22.8667 47.2447C22.3875 47.1355 22.0332 46.9616 21.8036 46.7232C21.5763 46.4847 21.4627 46.1827 21.4627 45.8172C21.4627 45.5141 21.5473 45.2489 21.7167 45.0216C21.8861 44.7943 22.1201 44.6171 22.4187 44.4901C22.7174 44.3608 23.0595 44.2962 23.445 44.2962C23.9999 44.2962 24.4368 44.4165 24.7554 44.6572C25.0741 44.8957 25.2847 45.2155 25.3873 45.6167ZM27.5861 46.449V49.4978H26.5865V42.6515H27.5727V45.1988H27.6362C27.7566 44.9224 27.9404 44.7029 28.1878 44.5402C28.4352 44.3775 28.7583 44.2962 29.1573 44.2962C29.5094 44.2962 29.8169 44.3686 30.0799 44.5135C30.3451 44.6583 30.5501 44.8745 30.695 45.162C30.8421 45.4473 30.9156 45.8039 30.9156 46.2318V49.4978H29.9161V46.3521C29.9161 45.9755 29.8192 45.6835 29.6253 45.4763C29.4314 45.2668 29.1617 45.162 28.8163 45.162C28.58 45.162 28.3683 45.2122 28.1811 45.3125C27.9961 45.4127 27.8502 45.5598 27.7432 45.7537C27.6384 45.9454 27.5861 46.1772 27.5861 46.449ZM34.7408 49.4978V44.3631H35.7403V49.4978H34.7408ZM35.2456 43.5708C35.0717 43.5708 34.9224 43.5128 34.7976 43.3969C34.675 43.2788 34.6138 43.1384 34.6138 42.9757C34.6138 42.8108 34.675 42.6704 34.7976 42.5545C34.9224 42.4364 35.0717 42.3774 35.2456 42.3774C35.4194 42.3774 35.5676 42.4364 35.6902 42.5545C35.815 42.6704 35.8774 42.8108 35.8774 42.9757C35.8774 43.1384 35.815 43.2788 35.6902 43.3969C35.5676 43.5128 35.4194 43.5708 35.2456 43.5708ZM38.0846 46.449V49.4978H37.085V44.3631H38.0444V45.1988H38.108C38.2261 44.9269 38.411 44.7085 38.6629 44.5436C38.9169 44.3787 39.2368 44.2962 39.6223 44.2962C39.9722 44.2962 40.2786 44.3697 40.5416 44.5168C40.8046 44.6617 41.0085 44.8779 41.1534 45.1654C41.2982 45.4529 41.3707 45.8083 41.3707 46.2318V49.4978H40.3711V46.3521C40.3711 45.9799 40.2742 45.6891 40.0803 45.4796C39.8864 45.2679 39.6201 45.162 39.2813 45.162C39.0495 45.162 38.8434 45.2122 38.6629 45.3125C38.4846 45.4127 38.3431 45.5598 38.2383 45.7537C38.1358 45.9454 38.0846 46.1772 38.0846 46.449ZM45.2827 49.4978V42.6515H46.3157V45.6267H49.7288V42.6515H50.7651V49.4978H49.7288V46.5126H46.3157V49.4978H45.2827ZM53.6835 49.6115C53.3581 49.6115 53.064 49.5513 52.801 49.4309C52.538 49.3084 52.3296 49.1312 52.1759 48.8994C52.0243 48.6676 51.9485 48.3835 51.9485 48.047C51.9485 47.7572 52.0043 47.5188 52.1157 47.3316C52.2271 47.1444 52.3775 46.9962 52.567 46.887C52.7564 46.7778 52.9681 46.6953 53.2021 46.6396C53.4361 46.5839 53.6746 46.5415 53.9175 46.5126C54.2251 46.4769 54.4747 46.4479 54.6663 46.4256C54.858 46.4011 54.9973 46.3621 55.0842 46.3086C55.1711 46.2552 55.2146 46.1682 55.2146 46.0479V46.0245C55.2146 45.7325 55.1321 45.5063 54.9672 45.3459C54.8045 45.1854 54.5616 45.1052 54.2384 45.1052C53.9019 45.1052 53.6367 45.1798 53.4428 45.3292C53.2512 45.4763 53.1186 45.6401 53.045 45.8206L52.1057 45.6066C52.2171 45.2946 52.3798 45.0428 52.5937 44.8511C52.8099 44.6572 53.0584 44.5168 53.3392 44.4299C53.62 44.3408 53.9153 44.2962 54.2251 44.2962C54.4301 44.2962 54.6474 44.3207 54.8769 44.3697C55.1087 44.4165 55.3249 44.5035 55.5255 44.6305C55.7283 44.7575 55.8943 44.9392 56.0236 45.1754C56.1528 45.4094 56.2175 45.7136 56.2175 46.088V49.4978H55.2413V48.7958H55.2012C55.1366 48.925 55.0396 49.0521 54.9104 49.1769C54.7811 49.3017 54.6151 49.4053 54.4123 49.4878C54.2095 49.5702 53.9666 49.6115 53.6835 49.6115ZM53.9008 48.8092C54.1772 48.8092 54.4134 48.7546 54.6095 48.6454C54.8079 48.5362 54.9583 48.3935 55.0608 48.2175C55.1656 48.0392 55.2179 47.8486 55.2179 47.6458V46.9839C55.1823 47.0196 55.1132 47.053 55.0107 47.0842C54.9104 47.1132 54.7956 47.1388 54.6663 47.1611C54.5371 47.1811 54.4112 47.2001 54.2886 47.2179C54.166 47.2335 54.0635 47.2469 53.981 47.258C53.7872 47.2826 53.61 47.3238 53.4495 47.3817C53.2913 47.4397 53.1643 47.5232 53.0684 47.6324C52.9748 47.7394 52.928 47.8821 52.928 48.0603C52.928 48.3077 53.0194 48.4949 53.2021 48.622C53.3849 48.7468 53.6178 48.8092 53.9008 48.8092ZM58.5483 46.449V49.4978H57.5488V44.3631H58.5082V45.1988H58.5717C58.6898 44.9269 58.8748 44.7085 59.1267 44.5436C59.3807 44.3787 59.7005 44.2962 60.0861 44.2962C60.436 44.2962 60.7424 44.3697 61.0054 44.5168C61.2684 44.6617 61.4723 44.8779 61.6171 45.1654C61.762 45.4529 61.8344 45.8083 61.8344 46.2318V49.4978H60.8349V46.3521C60.8349 45.9799 60.7379 45.6891 60.5441 45.4796C60.3502 45.2679 60.0838 45.162 59.7451 45.162C59.5133 45.162 59.3072 45.2122 59.1267 45.3125C58.9484 45.4127 58.8068 45.5598 58.7021 45.7537C58.5996 45.9454 58.5483 46.1772 58.5483 46.449ZM65.0971 49.5981C64.6826 49.5981 64.3127 49.4922 63.9873 49.2805C63.6641 49.0666 63.4101 48.7624 63.2251 48.3679C63.0423 47.9712 62.951 47.4954 62.951 46.9405C62.951 46.3855 63.0435 45.9108 63.2284 45.5164C63.4156 45.1219 63.6719 44.8199 63.9973 44.6104C64.3227 44.4009 64.6915 44.2962 65.1038 44.2962C65.4225 44.2962 65.6788 44.3497 65.8727 44.4567C66.0688 44.5614 66.2204 44.684 66.3273 44.8244C66.4365 44.9648 66.5212 45.0885 66.5814 45.1954H66.6416V42.6515H67.6411V49.4978H66.665V48.6988H66.5814C66.5212 48.808 66.4343 48.9328 66.3206 49.0733C66.2092 49.2137 66.0554 49.3362 65.8593 49.441C65.6632 49.5457 65.4091 49.5981 65.0971 49.5981ZM65.3178 48.7456C65.6053 48.7456 65.8482 48.6699 66.0465 48.5183C66.2471 48.3645 66.3986 48.1517 66.5012 47.8798C66.6059 47.6079 66.6583 47.2915 66.6583 46.9304C66.6583 46.5739 66.607 46.2618 66.5045 45.9944C66.402 45.727 66.2516 45.5186 66.0532 45.3693C65.8549 45.22 65.6097 45.1453 65.3178 45.1453C65.0169 45.1453 64.7662 45.2233 64.5656 45.3793C64.365 45.5353 64.2135 45.7481 64.111 46.0178C64.0107 46.2875 63.9605 46.5917 63.9605 46.9304C63.9605 47.2736 64.0118 47.5823 64.1143 47.8564C64.2168 48.1305 64.3684 48.3478 64.5689 48.5083C64.7718 48.6665 65.0214 48.7456 65.3178 48.7456Z" fill="black"/>
<path d="M96.3301 49.4978V42.6515H98.8373C99.3232 42.6515 99.7255 42.7317 100.044 42.8922C100.363 43.0504 100.601 43.2655 100.76 43.5374C100.918 43.807 100.997 44.1112 100.997 44.45C100.997 44.7352 100.945 44.9759 100.84 45.172C100.735 45.3659 100.595 45.5219 100.419 45.6401C100.245 45.7559 100.053 45.8406 99.8436 45.8941V45.961C100.071 45.9721 100.293 46.0457 100.509 46.1816C100.727 46.3153 100.908 46.5059 101.05 46.7533C101.193 47.0006 101.264 47.3015 101.264 47.6558C101.264 48.0057 101.182 48.32 101.017 48.5986C100.854 48.8749 100.602 49.0944 100.261 49.2571C99.9205 49.4176 99.4848 49.4978 98.9544 49.4978H96.3301ZM97.3631 48.6119H98.8541C99.3488 48.6119 99.7032 48.5161 99.9171 48.3244C100.131 48.1328 100.238 47.8932 100.238 47.6057C100.238 47.3895 100.183 47.1912 100.074 47.0107C99.965 46.8301 99.809 46.6864 99.6062 46.5794C99.4056 46.4724 99.1672 46.419 98.8908 46.419H97.3631V48.6119ZM97.3631 45.6133H98.7471C98.9789 45.6133 99.1872 45.5687 99.3722 45.4796C99.5594 45.3905 99.7076 45.2656 99.8168 45.1052C99.9283 44.9425 99.984 44.7508 99.984 44.5302C99.984 44.2472 99.8848 44.0098 99.6865 43.8182C99.4881 43.6265 99.1839 43.5307 98.7738 43.5307H97.3631V45.6133ZM103.904 49.6115C103.578 49.6115 103.284 49.5513 103.021 49.4309C102.758 49.3084 102.55 49.1312 102.396 48.8994C102.244 48.6676 102.169 48.3835 102.169 48.047C102.169 47.7572 102.224 47.5188 102.336 47.3316C102.447 47.1444 102.598 46.9962 102.787 46.887C102.976 46.7778 103.188 46.6953 103.422 46.6396C103.656 46.5839 103.895 46.5415 104.138 46.5126C104.445 46.4769 104.695 46.4479 104.886 46.4256C105.078 46.4011 105.217 46.3621 105.304 46.3086C105.391 46.2552 105.435 46.1682 105.435 46.0479V46.0245C105.435 45.7325 105.352 45.5063 105.187 45.3459C105.025 45.1854 104.782 45.1052 104.458 45.1052C104.122 45.1052 103.857 45.1798 103.663 45.3292C103.471 45.4763 103.339 45.6401 103.265 45.8206L102.326 45.6066C102.437 45.2946 102.6 45.0428 102.814 44.8511C103.03 44.6572 103.278 44.5168 103.559 44.4299C103.84 44.3408 104.135 44.2962 104.445 44.2962C104.65 44.2962 104.867 44.3207 105.097 44.3697C105.329 44.4165 105.545 44.5035 105.746 44.6305C105.948 44.7575 106.114 44.9392 106.244 45.1754C106.373 45.4094 106.438 45.7136 106.438 46.088V49.4978H105.461V48.7958H105.421C105.357 48.925 105.26 49.0521 105.13 49.1769C105.001 49.3017 104.835 49.4053 104.632 49.4878C104.43 49.5702 104.187 49.6115 103.904 49.6115ZM104.121 48.8092C104.397 48.8092 104.633 48.7546 104.83 48.6454C105.028 48.5362 105.178 48.3935 105.281 48.2175C105.386 48.0392 105.438 47.8486 105.438 47.6458V46.9839C105.402 47.0196 105.333 47.053 105.231 47.0842C105.13 47.1132 105.016 47.1388 104.886 47.1611C104.757 47.1811 104.631 47.2001 104.509 47.2179C104.386 47.2335 104.284 47.2469 104.201 47.258C104.007 47.2826 103.83 47.3238 103.67 47.3817C103.511 47.4397 103.384 47.5232 103.288 47.6324C103.195 47.7394 103.148 47.8821 103.148 48.0603C103.148 48.3077 103.239 48.4949 103.422 48.622C103.605 48.7468 103.838 48.8092 104.121 48.8092ZM108.768 46.449V49.4978H107.769V44.3631H108.728V45.1988H108.792C108.91 44.9269 109.095 44.7085 109.347 44.5436C109.601 44.3787 109.921 44.2962 110.306 44.2962C110.656 44.2962 110.962 44.3697 111.225 44.5168C111.488 44.6617 111.692 44.8779 111.837 45.1654C111.982 45.4529 112.054 45.8083 112.054 46.2318V49.4978H111.055V46.3521C111.055 45.9799 110.958 45.6891 110.764 45.4796C110.57 45.2679 110.304 45.162 109.965 45.162C109.733 45.162 109.527 45.2122 109.347 45.3125C109.168 45.4127 109.027 45.5598 108.922 45.7537C108.82 45.9454 108.768 46.1772 108.768 46.449ZM114.314 47.7561L114.308 46.536H114.481L116.527 44.3631H117.724L115.391 46.8368H115.234L114.314 47.7561ZM113.395 49.4978V42.6515H114.395V49.4978H113.395ZM116.638 49.4978L114.799 47.0575L115.488 46.3588L117.864 49.4978H116.638ZM123.423 49.4978H121.207V42.6515H123.493C124.164 42.6515 124.74 42.7885 125.221 43.0627C125.703 43.3345 126.072 43.7257 126.328 44.236C126.586 44.7442 126.716 45.3537 126.716 46.0646C126.716 46.7778 126.585 47.3906 126.325 47.9032C126.066 48.4158 125.692 48.8103 125.201 49.0866C124.711 49.3607 124.118 49.4978 123.423 49.4978ZM122.24 48.5952H123.366C123.888 48.5952 124.321 48.4972 124.667 48.301C125.012 48.1027 125.27 47.8163 125.442 47.4419C125.614 47.0653 125.699 46.6062 125.699 46.0646C125.699 45.5275 125.614 45.0718 125.442 44.6974C125.273 44.3229 125.02 44.0388 124.683 43.8449C124.347 43.651 123.929 43.5541 123.43 43.5541H122.24V48.5952ZM130.133 49.6014C129.627 49.6014 129.191 49.4933 128.826 49.2772C128.463 49.0588 128.182 48.7523 127.984 48.3579C127.787 47.9612 127.689 47.4965 127.689 46.9639C127.689 46.4379 127.787 45.9744 127.984 45.5732C128.182 45.172 128.458 44.8589 128.813 44.6338C129.169 44.4087 129.586 44.2962 130.063 44.2962C130.353 44.2962 130.633 44.3441 130.905 44.4399C131.177 44.5358 131.421 44.6862 131.637 44.8912C131.854 45.0963 132.024 45.3626 132.149 45.6902C132.274 46.0156 132.336 46.4112 132.336 46.8769V47.2313H128.254V46.4825H131.357C131.357 46.2195 131.303 45.9866 131.196 45.7838C131.089 45.5788 130.939 45.4172 130.745 45.2991C130.553 45.181 130.328 45.1219 130.07 45.1219C129.789 45.1219 129.544 45.191 129.334 45.3292C129.127 45.4651 128.966 45.6434 128.853 45.864C128.741 46.0824 128.686 46.3198 128.686 46.5761V47.1611C128.686 47.5043 128.746 47.7962 128.866 48.0369C128.989 48.2776 129.159 48.4615 129.378 48.5885C129.596 48.7133 129.851 48.7757 130.143 48.7757C130.333 48.7757 130.505 48.749 130.661 48.6955C130.817 48.6398 130.952 48.5573 131.066 48.4481C131.179 48.3389 131.266 48.2041 131.326 48.0436L132.273 48.2141C132.197 48.4927 132.061 48.7367 131.865 48.9462C131.671 49.1535 131.427 49.3151 131.133 49.4309C130.841 49.5446 130.507 49.6014 130.133 49.6014ZM133.445 51.4233V44.3631H134.421V45.1954H134.505C134.563 45.0885 134.646 44.9648 134.755 44.8244C134.865 44.684 135.016 44.5614 135.21 44.4567C135.404 44.3497 135.66 44.2962 135.979 44.2962C136.394 44.2962 136.763 44.4009 137.089 44.6104C137.414 44.8199 137.669 45.1219 137.854 45.5164C138.042 45.9108 138.135 46.3855 138.135 46.9405C138.135 47.4954 138.043 47.9712 137.858 48.3679C137.673 48.7624 137.419 49.0666 137.096 49.2805C136.772 49.4922 136.404 49.5981 135.989 49.5981C135.677 49.5981 135.422 49.5457 135.224 49.441C135.027 49.3362 134.874 49.2137 134.762 49.0733C134.651 48.9328 134.565 48.808 134.505 48.6988H134.445V51.4233H133.445ZM134.425 46.9304C134.425 47.2915 134.477 47.6079 134.582 47.8798C134.686 48.1517 134.838 48.3645 135.036 48.5183C135.235 48.6699 135.478 48.7456 135.765 48.7456C136.064 48.7456 136.313 48.6665 136.514 48.5083C136.714 48.3478 136.866 48.1305 136.969 47.8564C137.073 47.5823 137.126 47.2736 137.126 46.9304C137.126 46.5917 137.074 46.2875 136.972 46.0178C136.872 45.7481 136.72 45.5353 136.517 45.3793C136.317 45.2233 136.066 45.1453 135.765 45.1453C135.475 45.1453 135.23 45.22 135.03 45.3693C134.831 45.5186 134.681 45.727 134.578 45.9944C134.476 46.2618 134.425 46.5739 134.425 46.9304ZM141.418 49.6014C140.937 49.6014 140.516 49.4911 140.158 49.2705C139.799 49.0498 139.52 48.7412 139.322 48.3445C139.124 47.9478 139.024 47.4842 139.024 46.9538C139.024 46.4212 139.124 45.9554 139.322 45.5565C139.52 45.1576 139.799 44.8478 140.158 44.6271C140.516 44.4065 140.937 44.2962 141.418 44.2962C141.899 44.2962 142.319 44.4065 142.678 44.6271C143.037 44.8478 143.316 45.1576 143.514 45.5565C143.712 45.9554 143.812 46.4212 143.812 46.9538C143.812 47.4842 143.712 47.9478 143.514 48.3445C143.316 48.7412 143.037 49.0498 142.678 49.2705C142.319 49.4911 141.899 49.6014 141.418 49.6014ZM141.421 48.7624C141.733 48.7624 141.992 48.6799 142.197 48.515C142.402 48.3501 142.553 48.1305 142.652 47.8564C142.752 47.5823 142.802 47.2803 142.802 46.9505C142.802 46.6229 142.752 46.322 142.652 46.0479C142.553 45.7715 142.402 45.5498 142.197 45.3827C141.992 45.2155 141.733 45.1319 141.421 45.1319C141.107 45.1319 140.846 45.2155 140.639 45.3827C140.434 45.5498 140.281 45.7715 140.181 46.0479C140.083 46.322 140.034 46.6229 140.034 46.9505C140.034 47.2803 140.083 47.5823 140.181 47.8564C140.281 48.1305 140.434 48.3501 140.639 48.515C140.846 48.6799 141.107 48.7624 141.421 48.7624ZM148.775 45.6167L147.869 45.7771C147.831 45.6612 147.771 45.5509 147.688 45.4462C147.608 45.3414 147.499 45.2556 147.361 45.1888C147.223 45.1219 147.05 45.0885 146.843 45.0885C146.56 45.0885 146.323 45.152 146.134 45.279C145.945 45.4038 145.85 45.5654 145.85 45.7637C145.85 45.9354 145.913 46.0735 146.04 46.1783C146.167 46.283 146.372 46.3688 146.656 46.4357L147.471 46.6229C147.944 46.7321 148.296 46.9003 148.528 47.1277C148.759 47.355 148.875 47.6503 148.875 48.0135C148.875 48.3211 148.786 48.5952 148.608 48.8359C148.432 49.0744 148.185 49.2616 147.869 49.3975C147.555 49.5335 147.19 49.6014 146.776 49.6014C146.201 49.6014 145.732 49.4789 145.368 49.2337C145.005 48.9863 144.782 48.6353 144.7 48.1807L145.666 48.0336C145.726 48.2854 145.85 48.476 146.037 48.6052C146.224 48.7323 146.468 48.7958 146.769 48.7958C147.097 48.7958 147.359 48.7278 147.555 48.5919C147.751 48.4537 147.849 48.2854 147.849 48.0871C147.849 47.9266 147.789 47.7918 147.668 47.6826C147.55 47.5734 147.369 47.4909 147.124 47.4352L146.254 47.2447C145.775 47.1355 145.421 46.9616 145.191 46.7232C144.964 46.4847 144.85 46.1827 144.85 45.8172C144.85 45.5141 144.935 45.2489 145.104 45.0216C145.274 44.7943 145.508 44.6171 145.806 44.4901C146.105 44.3608 146.447 44.2962 146.833 44.2962C147.388 44.2962 147.824 44.4165 148.143 44.6572C148.462 44.8957 148.672 45.2155 148.775 45.6167ZM149.974 49.4978V44.3631H150.974V49.4978H149.974ZM150.479 43.5708C150.305 43.5708 150.156 43.5128 150.031 43.3969C149.908 43.2788 149.847 43.1384 149.847 42.9757C149.847 42.8108 149.908 42.6704 150.031 42.5545C150.156 42.4364 150.305 42.3774 150.479 42.3774C150.653 42.3774 150.801 42.4364 150.924 42.5545C151.048 42.6704 151.111 42.8108 151.111 42.9757C151.111 43.1384 151.048 43.2788 150.924 43.3969C150.801 43.5128 150.653 43.5708 150.479 43.5708ZM154.715 44.3631V45.1654H151.911V44.3631H154.715ZM152.663 43.1329H153.662V47.9901C153.662 48.184 153.691 48.33 153.749 48.4281C153.807 48.5239 153.882 48.5896 153.973 48.6253C154.067 48.6587 154.168 48.6754 154.277 48.6754C154.358 48.6754 154.428 48.6699 154.488 48.6587C154.548 48.6476 154.595 48.6387 154.628 48.632L154.809 49.4577C154.751 49.48 154.669 49.5023 154.562 49.5245C154.455 49.5491 154.321 49.5624 154.16 49.5647C153.897 49.5691 153.652 49.5223 153.425 49.4243C153.198 49.3262 153.014 49.1747 152.873 48.9696C152.733 48.7646 152.663 48.5072 152.663 48.1974V43.1329Z" fill="black"/>
<path d="M182.563 48.4978H180.532V42.222H182.628C183.243 42.222 183.771 42.3476 184.212 42.5989C184.653 42.8482 184.991 43.2067 185.226 43.6745C185.463 44.1403 185.582 44.699 185.582 45.3507C185.582 46.0044 185.462 46.5662 185.223 47.0361C184.986 47.506 184.643 47.8676 184.194 48.1209C183.744 48.3722 183.201 48.4978 182.563 48.4978ZM181.479 47.6704H182.511C182.989 47.6704 183.387 47.5805 183.703 47.4008C184.02 47.2189 184.257 46.9564 184.414 46.6132C184.571 46.268 184.65 45.8471 184.65 45.3507C184.65 44.8584 184.571 44.4406 184.414 44.0974C184.259 43.7542 184.027 43.4937 183.719 43.316C183.41 43.1382 183.027 43.0494 182.569 43.0494H181.479V47.6704ZM186.686 48.4978V43.791H187.602V48.4978H186.686ZM187.148 43.0647C186.989 43.0647 186.852 43.0116 186.738 42.9054C186.625 42.7971 186.569 42.6684 186.569 42.5192C186.569 42.3681 186.625 42.2394 186.738 42.1331C186.852 42.0249 186.989 41.9707 187.148 41.9707C187.308 41.9707 187.444 42.0249 187.556 42.1331C187.67 42.2394 187.728 42.3681 187.728 42.5192C187.728 42.6684 187.67 42.7971 187.556 42.9054C187.444 43.0116 187.308 43.0647 187.148 43.0647ZM190.808 50.3609C190.434 50.3609 190.112 50.3119 189.843 50.2138C189.575 50.1158 189.356 49.9861 189.187 49.8247C189.017 49.6633 188.891 49.4866 188.807 49.2945L189.594 48.9697C189.65 49.0596 189.723 49.1546 189.815 49.2547C189.909 49.3568 190.036 49.4437 190.195 49.5152C190.356 49.5867 190.564 49.6224 190.817 49.6224C191.164 49.6224 191.451 49.5376 191.678 49.3681C191.905 49.2006 192.018 48.9329 192.018 48.5652V47.6398H191.96C191.905 47.7399 191.825 47.8512 191.721 47.9738C191.619 48.0964 191.478 48.2026 191.298 48.2925C191.118 48.3824 190.885 48.4273 190.597 48.4273C190.225 48.4273 189.89 48.3405 189.591 48.1669C189.295 47.9912 189.06 47.7327 188.887 47.3916C188.715 47.0484 188.629 46.6265 188.629 46.126C188.629 45.6255 188.714 45.1965 188.884 44.839C189.055 44.4815 189.29 44.2077 189.588 44.0177C189.887 43.8257 190.225 43.7297 190.603 43.7297C190.895 43.7297 191.131 43.7787 191.311 43.8768C191.49 43.9728 191.63 44.0851 191.73 44.2138C191.832 44.3425 191.911 44.4559 191.966 44.554H192.034V43.791H192.932V48.602C192.932 49.0065 192.838 49.3385 192.65 49.5979C192.462 49.8574 192.207 50.0494 191.887 50.174C191.568 50.2986 191.208 50.3609 190.808 50.3609ZM190.799 47.6674C191.062 47.6674 191.285 47.6061 191.467 47.4835C191.651 47.3589 191.79 47.1812 191.884 46.9503C191.98 46.7174 192.028 46.4386 192.028 46.1137C192.028 45.7971 191.981 45.5182 191.887 45.2772C191.793 45.0361 191.655 44.8482 191.473 44.7133C191.291 44.5764 191.066 44.508 190.799 44.508C190.523 44.508 190.293 44.5795 190.109 44.7225C189.925 44.8635 189.786 45.0555 189.693 45.2986C189.601 45.5417 189.555 45.8134 189.555 46.1137C189.555 46.4222 189.602 46.6929 189.696 46.9258C189.79 47.1587 189.928 47.3405 190.112 47.4712C190.298 47.602 190.527 47.6674 190.799 47.6674ZM194.16 48.4978V43.791H195.077V48.4978H194.16ZM194.623 43.0647C194.464 43.0647 194.327 43.0116 194.212 42.9054C194.1 42.7971 194.044 42.6684 194.044 42.5192C194.044 42.3681 194.1 42.2394 194.212 42.1331C194.327 42.0249 194.464 41.9707 194.623 41.9707C194.782 41.9707 194.918 42.0249 195.031 42.1331C195.145 42.2394 195.202 42.3681 195.202 42.5192C195.202 42.6684 195.145 42.7971 195.031 42.9054C194.918 43.0116 194.782 43.0647 194.623 43.0647ZM198.506 43.791V44.5264H195.935V43.791H198.506ZM196.625 42.6633H197.541V47.1158C197.541 47.2935 197.568 47.4273 197.621 47.5172C197.674 47.6051 197.742 47.6653 197.826 47.698C197.912 47.7286 198.005 47.744 198.105 47.744C198.178 47.744 198.243 47.7389 198.298 47.7286C198.353 47.7184 198.396 47.7103 198.427 47.7041L198.592 48.461C198.539 48.4815 198.463 48.5019 198.365 48.5223C198.267 48.5448 198.145 48.557 197.998 48.5591C197.757 48.5632 197.532 48.5203 197.324 48.4304C197.115 48.3405 196.947 48.2016 196.818 48.0136C196.689 47.8257 196.625 47.5897 196.625 47.3058V42.6633ZM200.89 48.602C200.591 48.602 200.322 48.5468 200.081 48.4365C199.84 48.3242 199.649 48.1617 199.508 47.9493C199.369 47.7368 199.299 47.4764 199.299 47.1679C199.299 46.9023 199.35 46.6837 199.452 46.5121C199.555 46.3405 199.693 46.2046 199.866 46.1045C200.04 46.0044 200.234 45.9289 200.448 45.8778C200.663 45.8267 200.882 45.7879 201.104 45.7613C201.386 45.7286 201.615 45.7021 201.791 45.6817C201.966 45.6592 202.094 45.6234 202.174 45.5744C202.253 45.5254 202.293 45.4457 202.293 45.3354V45.3139C202.293 45.0463 202.218 44.839 202.066 44.6919C201.917 44.5448 201.695 44.4712 201.398 44.4712C201.09 44.4712 200.847 44.5397 200.669 44.6766C200.493 44.8114 200.372 44.9615 200.304 45.127L199.443 44.9309C199.545 44.6449 199.695 44.414 199.891 44.2383C200.089 44.0606 200.317 43.9319 200.574 43.8522C200.831 43.7705 201.102 43.7297 201.386 43.7297C201.574 43.7297 201.773 43.7521 201.984 43.7971C202.196 43.84 202.394 43.9197 202.578 44.0361C202.764 44.1525 202.916 44.319 203.035 44.5356C203.153 44.7501 203.212 45.029 203.212 45.3722V48.4978H202.318V47.8543H202.281C202.222 47.9728 202.133 48.0892 202.014 48.2036C201.896 48.318 201.744 48.413 201.558 48.4886C201.372 48.5642 201.149 48.602 200.89 48.602ZM201.089 47.8665C201.342 47.8665 201.559 47.8165 201.739 47.7164C201.92 47.6163 202.058 47.4855 202.152 47.3242C202.248 47.1607 202.296 46.9861 202.296 46.8001V46.1934C202.264 46.2261 202.2 46.2567 202.106 46.2853C202.014 46.3119 201.909 46.3354 201.791 46.3558C201.672 46.3742 201.557 46.3916 201.444 46.4079C201.332 46.4222 201.238 46.4345 201.162 46.4447C200.985 46.4672 200.822 46.505 200.675 46.5581C200.53 46.6112 200.414 46.6878 200.326 46.7879C200.24 46.886 200.197 47.0167 200.197 47.1801C200.197 47.4069 200.281 47.5785 200.448 47.6949C200.616 47.8093 200.829 47.8665 201.089 47.8665ZM205.349 42.222V48.4978H204.433V42.222H205.349ZM208.629 43.0371V42.222H213.486V43.0371H211.528V48.4978H210.585V43.0371H208.629ZM213.997 48.4978V43.791H214.883V44.5387H214.932C215.018 44.2853 215.169 44.0862 215.386 43.9411C215.604 43.794 215.851 43.7205 216.127 43.7205C216.184 43.7205 216.252 43.7225 216.329 43.7266C216.409 43.7307 216.471 43.7358 216.516 43.7419V44.6183C216.48 44.6081 216.414 44.5969 216.32 44.5846C216.226 44.5703 216.132 44.5632 216.038 44.5632C215.822 44.5632 215.629 44.6091 215.459 44.7011C215.292 44.791 215.159 44.9166 215.061 45.078C214.963 45.2373 214.914 45.4191 214.914 45.6234V48.4978H213.997ZM218.637 48.602C218.339 48.602 218.069 48.5468 217.828 48.4365C217.587 48.3242 217.396 48.1617 217.255 47.9493C217.116 47.7368 217.046 47.4764 217.046 47.1679C217.046 46.9023 217.098 46.6837 217.2 46.5121C217.302 46.3405 217.44 46.2046 217.613 46.1045C217.787 46.0044 217.981 45.9289 218.196 45.8778C218.41 45.8267 218.629 45.7879 218.851 45.7613C219.133 45.7286 219.362 45.7021 219.538 45.6817C219.714 45.6592 219.841 45.6234 219.921 45.5744C220.001 45.5254 220.04 45.4457 220.04 45.3354V45.3139C220.04 45.0463 219.965 44.839 219.814 44.6919C219.664 44.5448 219.442 44.4712 219.146 44.4712C218.837 44.4712 218.594 44.5397 218.416 44.6766C218.241 44.8114 218.119 44.9615 218.052 45.127L217.191 44.9309C217.293 44.6449 217.442 44.414 217.638 44.2383C217.836 44.0606 218.064 43.9319 218.321 43.8522C218.579 43.7705 218.849 43.7297 219.133 43.7297C219.321 43.7297 219.52 43.7521 219.731 43.7971C219.943 43.84 220.141 43.9197 220.325 44.0361C220.511 44.1525 220.663 44.319 220.782 44.5356C220.9 44.7501 220.96 45.029 220.96 45.3722V48.4978H220.065V47.8543H220.028C219.969 47.9728 219.88 48.0892 219.762 48.2036C219.643 48.318 219.491 48.413 219.305 48.4886C219.119 48.5642 218.896 48.602 218.637 48.602ZM218.836 47.8665C219.089 47.8665 219.306 47.8165 219.486 47.7164C219.668 47.6163 219.805 47.4855 219.899 47.3242C219.995 47.1607 220.043 46.9861 220.043 46.8001V46.1934C220.011 46.2261 219.947 46.2567 219.853 46.2853C219.762 46.3119 219.656 46.3354 219.538 46.3558C219.419 46.3742 219.304 46.3916 219.192 46.4079C219.079 46.4222 218.985 46.4345 218.91 46.4447C218.732 46.4672 218.569 46.505 218.422 46.5581C218.277 46.6112 218.161 46.6878 218.073 46.7879C217.987 46.886 217.944 47.0167 217.944 47.1801C217.944 47.4069 218.028 47.5785 218.196 47.6949C218.363 47.8093 218.577 47.8665 218.836 47.8665ZM223.096 45.7031V48.4978H222.18V43.791H223.06V44.557H223.118C223.226 44.3078 223.396 44.1076 223.626 43.9564C223.859 43.8053 224.152 43.7297 224.506 43.7297C224.827 43.7297 225.108 43.7971 225.349 43.9319C225.59 44.0647 225.777 44.2629 225.909 44.5264C226.042 44.7899 226.109 45.1158 226.109 45.5039V48.4978H225.192V45.6142C225.192 45.2731 225.103 45.0065 224.926 44.8144C224.748 44.6204 224.504 44.5233 224.193 44.5233C223.981 44.5233 223.792 44.5693 223.626 44.6612C223.463 44.7532 223.333 44.888 223.237 45.0657C223.143 45.2414 223.096 45.4539 223.096 45.7031ZM230.864 44.9401L230.034 45.0872C229.999 44.9809 229.944 44.8798 229.869 44.7838C229.795 44.6878 229.695 44.6091 229.568 44.5478C229.442 44.4866 229.283 44.4559 229.093 44.4559C228.834 44.4559 228.617 44.5141 228.444 44.6306C228.27 44.745 228.183 44.8931 228.183 45.0749C228.183 45.2322 228.241 45.3589 228.358 45.4549C228.474 45.5509 228.662 45.6296 228.922 45.6909L229.669 45.8625C230.102 45.9626 230.425 46.1168 230.638 46.3252C230.85 46.5336 230.956 46.8042 230.956 47.1372C230.956 47.4191 230.875 47.6704 230.711 47.8911C230.55 48.1097 230.324 48.2813 230.034 48.4059C229.746 48.5305 229.412 48.5928 229.032 48.5928C228.505 48.5928 228.075 48.4804 227.742 48.2557C227.409 48.029 227.205 47.7072 227.129 47.2904L228.015 47.1556C228.07 47.3865 228.183 47.5611 228.355 47.6796C228.526 47.7961 228.75 47.8543 229.026 47.8543C229.326 47.8543 229.566 47.792 229.746 47.6674C229.926 47.5407 230.016 47.3865 230.016 47.2046C230.016 47.0576 229.96 46.934 229.85 46.8339C229.742 46.7338 229.575 46.6582 229.351 46.6071L228.554 46.4324C228.115 46.3323 227.79 46.173 227.579 45.9544C227.371 45.7358 227.267 45.459 227.267 45.1239C227.267 44.8461 227.345 44.603 227.5 44.3946C227.655 44.1863 227.87 44.0238 228.143 43.9074C228.417 43.7889 228.731 43.7297 229.084 43.7297C229.593 43.7297 229.993 43.84 230.285 44.0606C230.577 44.2792 230.77 44.5724 230.864 44.9401ZM234.204 43.791V44.5264H231.544V43.791H234.204ZM232.273 48.4978V43.2455C232.273 42.9513 232.338 42.7072 232.466 42.5131C232.595 42.317 232.766 42.1709 232.978 42.0749C233.191 41.9769 233.421 41.9278 233.671 41.9278C233.854 41.9278 234.012 41.9431 234.143 41.9738C234.273 42.0024 234.37 42.0289 234.434 42.0535L234.219 42.795C234.176 42.7828 234.121 42.7685 234.054 42.7521C233.986 42.7338 233.905 42.7246 233.809 42.7246C233.586 42.7246 233.426 42.7797 233.33 42.89C233.236 43.0003 233.19 43.1597 233.19 43.3681V48.4978H232.273ZM236.992 48.5928C236.529 48.5928 236.129 48.4937 235.794 48.2956C235.461 48.0954 235.204 47.8145 235.022 47.4529C234.842 47.0892 234.752 46.6633 234.752 46.175C234.752 45.6929 234.842 45.268 235.022 44.9002C235.204 44.5325 235.457 44.2455 235.782 44.0392C236.109 43.8328 236.491 43.7297 236.928 43.7297C237.194 43.7297 237.451 43.7736 237.7 43.8614C237.949 43.9493 238.173 44.0872 238.371 44.2751C238.569 44.4631 238.726 44.7072 238.84 45.0075C238.955 45.3058 239.012 45.6684 239.012 46.0953V46.4202H235.27V45.7338H238.114C238.114 45.4927 238.065 45.2792 237.967 45.0933C237.869 44.9054 237.731 44.7572 237.553 44.649C237.377 44.5407 237.171 44.4866 236.934 44.4866C236.677 44.4866 236.452 44.5499 236.26 44.6766C236.07 44.8012 235.923 44.9646 235.819 45.1668C235.717 45.3671 235.666 45.5846 235.666 45.8196V46.3558C235.666 46.6704 235.721 46.938 235.831 47.1587C235.943 47.3793 236.1 47.5479 236.3 47.6643C236.5 47.7787 236.734 47.8359 237.002 47.8359C237.175 47.8359 237.334 47.8114 237.477 47.7624C237.62 47.7113 237.743 47.6357 237.847 47.5356C237.952 47.4355 238.031 47.3119 238.086 47.1648L238.954 47.3211C238.884 47.5765 238.759 47.8002 238.58 47.9922C238.402 48.1822 238.178 48.3303 237.909 48.4365C237.641 48.5407 237.336 48.5928 236.992 48.5928ZM240.028 48.4978V43.791H240.914V44.5387H240.963C241.049 44.2853 241.2 44.0862 241.417 43.9411C241.635 43.794 241.882 43.7205 242.158 43.7205C242.215 43.7205 242.283 43.7225 242.36 43.7266C242.44 43.7307 242.502 43.7358 242.547 43.7419V44.6183C242.511 44.6081 242.445 44.5969 242.351 44.5846C242.257 44.5703 242.163 44.5632 242.069 44.5632C241.853 44.5632 241.66 44.6091 241.49 44.7011C241.323 44.791 241.19 44.9166 241.092 45.078C240.994 45.2373 240.945 45.4191 240.945 45.6234V48.4978H240.028Z" fill="black"/>
<g clip-path="url(#clip1_455_720)">
<path d="M43.625 8.9375C38.9727 8.9375 35.1875 12.7227 35.1875 17.375C35.1875 22.0273 38.9727 25.8125 43.625 25.8125C48.2773 25.8125 52.0625 22.0273 52.0625 17.375C52.0625 12.7227 48.2773 8.9375 43.625 8.9375Z" fill="#FF8000"/>
<path d="M41.75 23.9375C40.1487 23.9375 38.6314 23.5705 37.2781 22.9166C38.8259 24.687 41.0942 25.8125 43.625 25.8125C48.2773 25.8125 52.0625 22.0273 52.0625 17.375C52.0625 16.7656 51.994 16.1722 51.8707 15.5994C50.9468 20.3441 46.7609 23.9375 41.75 23.9375Z" fill="#F3771E"/>
<path d="M44.5813 16.9062H42.6687C41.9037 16.9062 41.2812 16.2838 41.2812 15.4813C41.2817 15.1134 41.4281 14.7608 41.6882 14.5007C41.9483 14.2406 42.3009 14.0942 42.6687 14.0938H46.4375C46.5618 14.0938 46.681 14.0444 46.769 13.9565C46.8569 13.8685 46.9062 13.7493 46.9062 13.625C46.9062 13.5007 46.8569 13.3815 46.769 13.2935C46.681 13.2056 46.5618 13.1562 46.4375 13.1562H45.0312V12.2188C45.0312 12.0944 44.9819 11.9752 44.894 11.8873C44.806 11.7994 44.6868 11.75 44.5625 11.75C44.4382 11.75 44.319 11.7994 44.231 11.8873C44.1431 11.9752 44.0938 12.0944 44.0938 12.2188V13.1562H43.1562V12.2188C43.1562 12.0944 43.1069 11.9752 43.019 11.8873C42.931 11.7994 42.8118 11.75 42.6875 11.75C42.5632 11.75 42.444 11.7994 42.356 11.8873C42.2681 11.9752 42.2188 12.0944 42.2188 12.2188V13.2017C41.1514 13.4127 40.3438 14.3577 40.3438 15.5188C40.3445 16.1352 40.5897 16.7261 41.0255 17.162C41.4614 17.5978 42.0523 17.843 42.6687 17.8438H44.5813C45.3463 17.8438 45.9688 18.4663 45.9688 19.2688C45.9683 19.6366 45.8219 19.9892 45.5618 20.2493C45.3017 20.5094 44.9491 20.6558 44.5813 20.6562H40.8125C40.6882 20.6562 40.569 20.7056 40.481 20.7935C40.3931 20.8815 40.3438 21.0007 40.3438 21.125C40.3438 21.2493 40.3931 21.3685 40.481 21.4565C40.569 21.5444 40.6882 21.5938 40.8125 21.5938H42.2188V22.5312C42.2188 22.6556 42.2681 22.7748 42.356 22.8627C42.444 22.9506 42.5632 23 42.6875 23C42.8118 23 42.931 22.9506 43.019 22.8627C43.1069 22.7748 43.1562 22.6556 43.1562 22.5312V21.5938H44.0938V22.5312C44.0938 22.6556 44.1431 22.7748 44.231 22.8627C44.319 22.9506 44.4382 23 44.5625 23C44.6868 23 44.806 22.9506 44.894 22.8627C44.9819 22.7748 45.0312 22.6556 45.0312 22.5312V21.5483C46.0986 21.3373 46.9062 20.3923 46.9062 19.2312C46.9055 18.6148 46.6603 18.0239 46.2245 17.588C45.7886 17.1522 45.1977 16.907 44.5813 16.9062Z" fill="white"/>
<path d="M51.9425 28.5275C51.8362 28.277 51.6582 28.0635 51.4308 27.914C51.2034 27.7646 50.9368 27.6857 50.6647 27.6875H50.4073C50.0394 27.6875 49.6784 27.838 49.4188 28.1014L46.1187 31.4375H41.6689C41.4214 31.4375 41.2194 31.2317 41.2194 30.9594C41.2181 30.8389 41.2648 30.7228 41.3491 30.6367C41.4334 30.5505 41.5484 30.5014 41.6689 30.5H44.1134C44.878 30.5 45.5 29.8733 45.5 29.0844C45.5 28.3138 44.878 27.6875 44.1134 27.6875H39.3598C39.2973 27.6875 39.2353 27.6999 39.1777 27.7243C39.12 27.7486 39.0678 27.7842 39.0242 27.8291L37.3334 29.5625H35.1875C35.0632 29.5625 34.944 29.6119 34.856 29.6998C34.7681 29.7877 34.7188 29.907 34.7188 30.0313V34.7188C34.7188 34.8431 34.7681 34.9623 34.856 35.0502C34.944 35.1381 35.0632 35.1875 35.1875 35.1875H37.3372L38.1373 35.9877C38.1808 36.0313 38.2325 36.0659 38.2893 36.0895C38.3462 36.113 38.4072 36.1251 38.4688 36.125H45.8506C45.9151 36.125 45.9789 36.1117 46.0381 36.0859C46.0972 36.0601 46.1504 36.0223 46.1942 35.975L51.6847 30.0538C51.8735 29.8533 51.9988 29.6013 52.0447 29.3297C52.0906 29.0581 52.055 28.779 51.9425 28.5275Z" fill="#FFBA74"/>
<path d="M35.1875 28.625H33.3125C33.1882 28.625 33.069 28.6744 32.981 28.7623C32.8931 28.8502 32.8438 28.9694 32.8438 29.0938V35.6562C32.8438 35.7806 32.8931 35.8998 32.981 35.9877C33.069 36.0756 33.1882 36.125 33.3125 36.125H35.1875C35.3118 36.125 35.431 36.0756 35.519 35.9877C35.6069 35.8998 35.6562 35.7806 35.6562 35.6562V29.0938C35.6562 28.9694 35.6069 28.8502 35.519 28.7623C35.431 28.6744 35.3118 28.625 35.1875 28.625Z" fill="#CCCCCC"/>
<path d="M33.3125 27.6875H23.4688V37.0625H33.3125C33.4368 37.0625 33.556 37.0131 33.644 36.9252C33.7319 36.8373 33.7812 36.7181 33.7812 36.5938V28.1562C33.7812 28.0319 33.7319 27.9127 33.644 27.8248C33.556 27.7369 33.4368 27.6875 33.3125 27.6875Z" fill="#7738CF"/>
<path d="M29.0938 34.25H30.0312V35.1875H29.0938V34.25ZM30.9688 34.25H31.9062V35.1875H30.9688V34.25Z" fill="white"/>
</g>
<g clip-path="url(#clip2_455_720)">
<path d="M139.639 19.799L126.437 9.58315C126.312 9.48614 126.158 9.43347 126 9.43347C125.842 9.43347 125.688 9.48614 125.563 9.58315L112.361 19.799C112.244 19.89 112.157 20.0155 112.114 20.1581C112.071 20.3007 112.074 20.4531 112.122 20.594C112.17 20.7348 112.261 20.857 112.383 20.9436C112.504 21.0301 112.649 21.0767 112.798 21.0769H139.202C139.499 21.0769 139.776 20.8904 139.878 20.594C139.926 20.4531 139.928 20.3008 139.886 20.1583C139.843 20.0157 139.757 19.8901 139.639 19.799ZM120.269 17.8105L126 13.3756L131.731 17.8105H120.269ZM120.88 31.4608H120.162V23.9057C120.681 23.9057 121.107 23.4805 121.107 22.9614C121.107 22.4416 120.681 22.017 120.162 22.017H116.503C115.984 22.017 115.559 22.4416 115.559 22.9614C115.559 23.4805 115.984 23.9057 116.503 23.9057V31.4608H115.786C115.661 31.4608 115.559 31.5625 115.559 31.6871V32.1401C115.559 32.2648 115.661 32.3669 115.786 32.3669H120.88C121.005 32.3669 121.107 32.2648 121.107 32.1401V31.6871C121.107 31.5623 121.004 31.4608 120.88 31.4608ZM128.547 31.4608H127.83V23.9057C128.349 23.9057 128.774 23.4805 128.774 22.9614C128.774 22.4416 128.349 22.017 127.83 22.017H124.171C123.651 22.017 123.226 22.4416 123.226 22.9614C123.226 23.4805 123.651 23.9057 124.171 23.9057V31.4608H123.453C123.328 31.4608 123.226 31.5625 123.226 31.6871V32.1401C123.226 32.2648 123.328 32.3669 123.453 32.3669H128.547C128.672 32.3669 128.774 32.2648 128.774 32.1401V31.6871C128.774 31.627 128.75 31.5695 128.707 31.5271C128.665 31.4847 128.607 31.4609 128.547 31.4608ZM136.215 31.4608H135.497V23.9057C136.016 23.9057 136.441 23.4805 136.441 22.9614C136.441 22.4416 136.016 22.017 135.497 22.017H131.838C131.319 22.017 130.894 22.4416 130.894 22.9614C130.894 23.4805 131.319 23.9057 131.838 23.9057V31.4608H131.12C130.996 31.4608 130.894 31.5625 130.894 31.6871V32.1401C130.894 32.2648 130.996 32.3669 131.12 32.3669H136.215C136.339 32.3669 136.441 32.2648 136.441 32.1401V31.6871C136.441 31.5623 136.339 31.4608 136.215 31.4608ZM137.667 34.9334V33.7672C137.667 33.7058 137.655 33.645 137.631 33.5884C137.608 33.5317 137.573 33.4803 137.53 33.4371C137.487 33.3936 137.435 33.3591 137.379 33.3357C137.322 33.3122 137.262 33.3002 137.2 33.3004H114.8C114.681 33.3004 114.561 33.3455 114.47 33.4371C114.427 33.4804 114.392 33.5318 114.369 33.5885C114.345 33.6451 114.333 33.7059 114.334 33.7672V34.9334H112.467C112.405 34.9333 112.345 34.9453 112.288 34.9688C112.231 34.9922 112.18 35.0266 112.137 35.0699C112.093 35.1133 112.059 35.1648 112.035 35.2214C112.012 35.2781 112 35.3388 112 35.4001V36.5665H140V35.4001C140 35.2807 139.954 35.1614 139.863 35.07C139.82 35.0266 139.768 34.9922 139.712 34.9688C139.655 34.9453 139.595 34.9333 139.533 34.9334H137.667Z" fill="#7738CF"/>
</g>
<defs>
<clipPath id="clip0_455_720">
<rect width="27" height="27" fill="white" transform="translate(198 9)"/>
</clipPath>
<clipPath id="clip1_455_720">
<rect width="30" height="30" fill="white" transform="translate(23 8)"/>
</clipPath>
<clipPath id="clip2_455_720">
<rect width="28" height="28" fill="white" transform="translate(112 9)"/>
</clipPath>
</defs>
</svg>
