<svg width="229" height="53" viewBox="0 0 229 53" fill="none" xmlns="http://www.w3.org/2000/svg">
<rect x="79" width="70.0626" height="52.9804" rx="8.45045" fill="white"/>
<rect width="70.0626" height="52.9804" rx="8.45045" fill="white"/>
<rect x="158" width="70.0626" height="52.9804" rx="8.45045" fill="white"/>
<path d="M24.059 38.6545C24.0173 38.3019 23.8479 38.0281 23.5509 37.8332C23.254 37.6384 22.8897 37.5409 22.4582 37.5409C22.1427 37.5409 21.8666 37.592 21.6299 37.694C21.3956 37.7961 21.2123 37.9365 21.0801 38.1151C20.9501 38.2938 20.8852 38.4968 20.8852 38.7241C20.8852 38.9144 20.9304 39.078 21.0209 39.2148C21.1137 39.3494 21.232 39.4619 21.3759 39.5524C21.5197 39.6406 21.6705 39.7137 21.8283 39.7717C21.986 39.8273 22.1311 39.8726 22.2633 39.9074L22.9872 40.1023C23.1728 40.151 23.3793 40.2183 23.6066 40.3041C23.8363 40.39 24.0556 40.5071 24.2644 40.6556C24.4755 40.8018 24.6495 40.9897 24.7864 41.2194C24.9233 41.4491 24.9917 41.731 24.9917 42.0651C24.9917 42.4502 24.8908 42.7982 24.6889 43.1091C24.4894 43.42 24.1971 43.6671 23.8119 43.8504C23.4291 44.0336 22.964 44.1253 22.4164 44.1253C21.906 44.1253 21.464 44.0429 21.0905 43.8782C20.7193 43.7135 20.427 43.4838 20.2135 43.1891C20.0024 42.8945 19.8829 42.5523 19.8551 42.1625H20.746C20.7692 42.4316 20.8597 42.6544 21.0174 42.8307C21.1775 43.0047 21.3793 43.1346 21.623 43.2205C21.8689 43.304 22.1334 43.3457 22.4164 43.3457C22.7459 43.3457 23.0417 43.2924 23.3039 43.1857C23.566 43.0766 23.7737 42.9258 23.9268 42.7332C24.0799 42.5384 24.1565 42.311 24.1565 42.0511C24.1565 41.8145 24.0904 41.6219 23.9581 41.4734C23.8259 41.325 23.6519 41.2043 23.4361 41.1115C23.2203 41.0187 22.9872 40.9375 22.7366 40.8679L21.8596 40.6173C21.3028 40.4572 20.862 40.2287 20.5372 39.9317C20.2124 39.6348 20.0499 39.2462 20.0499 38.7659C20.0499 38.3669 20.1578 38.0188 20.3736 37.7219C20.5917 37.4226 20.884 37.1906 21.2506 37.0259C21.6195 36.8588 22.0313 36.7753 22.486 36.7753C22.9454 36.7753 23.3537 36.8576 23.711 37.0224C24.0683 37.1848 24.3514 37.4075 24.5602 37.6906C24.7713 37.9736 24.8827 38.2949 24.8943 38.6545H24.059ZM28.6241 38.6545V39.3506H25.8539V38.6545H28.6241ZM26.6613 37.3739H27.4826V42.4687C27.4826 42.7008 27.5162 42.8748 27.5835 42.9908C27.6531 43.1045 27.7413 43.181 27.848 43.2205C27.9571 43.2576 28.0719 43.2761 28.1925 43.2761C28.283 43.2761 28.3573 43.2715 28.4153 43.2622C28.4733 43.2506 28.5197 43.2413 28.5545 43.2344L28.7215 43.9722C28.6658 43.993 28.5881 44.0139 28.4884 44.0348C28.3886 44.058 28.2621 44.0696 28.109 44.0696C27.877 44.0696 27.6496 44.0197 27.4269 43.92C27.2065 43.8202 27.0232 43.6682 26.8771 43.4641C26.7332 43.2599 26.6613 43.0024 26.6613 42.6915V37.3739ZM31.9737 44.1114C31.4911 44.1114 31.0677 43.9965 30.7034 43.7668C30.3415 43.5371 30.0585 43.2158 29.8543 42.8028C29.6524 42.3899 29.5515 41.9073 29.5515 41.3551C29.5515 40.7983 29.6524 40.3122 29.8543 39.8969C30.0585 39.4817 30.3415 39.1592 30.7034 38.9295C31.0677 38.6998 31.4911 38.5849 31.9737 38.5849C32.4563 38.5849 32.8785 38.6998 33.2404 38.9295C33.6047 39.1592 33.8877 39.4817 34.0896 39.8969C34.2938 40.3122 34.3958 40.7983 34.3958 41.3551C34.3958 41.9073 34.2938 42.3899 34.0896 42.8028C33.8877 43.2158 33.6047 43.5371 33.2404 43.7668C32.8785 43.9965 32.4563 44.1114 31.9737 44.1114ZM31.9737 43.3736C32.3403 43.3736 32.6419 43.2796 32.8785 43.0917C33.1152 42.9038 33.2903 42.6567 33.404 42.3504C33.5177 42.0442 33.5745 41.7124 33.5745 41.3551C33.5745 40.9978 33.5177 40.6649 33.404 40.3563C33.2903 40.0478 33.1152 39.7983 32.8785 39.6081C32.6419 39.4179 32.3403 39.3227 31.9737 39.3227C31.6071 39.3227 31.3055 39.4179 31.0689 39.6081C30.8322 39.7983 30.657 40.0478 30.5434 40.3563C30.4297 40.6649 30.3728 40.9978 30.3728 41.3551C30.3728 41.7124 30.4297 42.0442 30.5434 42.3504C30.657 42.6567 30.8322 42.9038 31.0689 43.0917C31.3055 43.2796 31.6071 43.3736 31.9737 43.3736ZM37.8211 44.1114C37.32 44.1114 36.8885 43.993 36.5265 43.7564C36.1646 43.5197 35.8862 43.1938 35.6913 42.7785C35.4964 42.3632 35.399 41.8887 35.399 41.3551C35.399 40.8122 35.4988 40.3331 35.6983 39.9178C35.9001 39.5002 36.1809 39.1742 36.5405 38.9399C36.9024 38.7033 37.3247 38.5849 37.8072 38.5849C38.1831 38.5849 38.5218 38.6545 38.8234 38.7937C39.125 38.933 39.3721 39.1278 39.5647 39.3784C39.7572 39.629 39.8767 39.9213 39.9231 40.2554H39.1018C39.0392 40.0118 38.9 39.796 38.6842 39.6081C38.4708 39.4179 38.1831 39.3227 37.8211 39.3227C37.501 39.3227 37.2202 39.4062 36.979 39.5733C36.74 39.738 36.5532 39.9712 36.4187 40.2728C36.2864 40.5721 36.2203 40.9236 36.2203 41.3273C36.2203 41.7402 36.2853 42.0999 36.4152 42.4061C36.5474 42.7124 36.733 42.9502 36.972 43.1195C37.2133 43.2889 37.4963 43.3736 37.8211 43.3736C38.0346 43.3736 38.2283 43.3365 38.4023 43.2622C38.5763 43.188 38.7237 43.0812 38.8443 42.942C38.9649 42.8028 39.0508 42.6358 39.1018 42.4409H39.9231C39.8767 42.7564 39.7619 43.0406 39.5786 43.2935C39.3976 43.5441 39.1575 43.7436 38.8582 43.8921C38.5613 44.0383 38.2156 44.1114 37.8211 44.1114ZM41.8894 42.0511L41.8755 41.0349H42.0425L44.3812 38.6545H45.3974L42.9056 41.1741H42.836L41.8894 42.0511ZM41.1238 44V36.8727H41.9451V44H41.1238ZM44.5204 44L42.4323 41.3551L43.017 40.7844L45.5644 44H44.5204Z" fill="black"/>
<g clip-path="url(#clip0_455_722)">
<path d="M46.9892 18.1088C44.9829 18.1008 42.9846 18.1088 40.9784 18.1088C40.4988 18.1088 40.5707 18.1567 40.5707 17.6851C40.5627 13.8324 40.5627 9.98773 40.5627 6.13503C40.5627 5.31973 40.251 5 39.4357 5H25.6235C24.8002 5 24.4885 5.31973 24.4885 6.13503C24.4885 10.0117 24.4885 13.8884 24.4885 17.7731C24.4965 18.0528 24.4086 18.1168 24.1368 18.1088C22.1545 18.1008 20.1722 18.1168 18.1819 18.1008C17.6304 18.1008 17.2467 18.2686 17.0469 18.7882V32.3366C17.2867 32.8401 17.6943 33 18.2379 33C27.7657 32.992 37.2855 32.992 46.8054 32.992H47.0771C47.6446 32.96 48.0043 32.6083 48.0043 32.0488V19.044C48.0043 18.4445 47.6367 18.1088 46.9892 18.1088ZM31.6344 30.9138C31.6344 31.1456 31.5704 31.2015 31.3466 31.2015C29.3084 31.1935 27.2781 31.1936 25.2399 31.1936C23.2016 31.1936 21.1713 31.1935 19.1331 31.2015C18.9013 31.2015 18.8293 31.1456 18.8293 30.8978C18.8373 27.3249 18.8373 23.7439 18.8293 20.171C18.8293 19.9552 18.8773 19.8753 19.1171 19.8753C19.3649 19.8832 19.6207 19.8832 19.8764 19.8832C20.428 19.8912 20.9795 19.8832 21.531 19.8753H28.6449C29.1085 19.8832 29.5641 19.8912 30.0277 19.8912C30.4674 19.8912 30.899 19.8832 31.3386 19.8832C31.5544 19.8753 31.6344 19.9152 31.6344 20.155C31.6344 23.7439 31.6344 27.3329 31.6344 30.9138ZM26.6307 18.1088C26.3669 18.1168 26.271 18.0608 26.271 17.7731C26.287 14.2241 26.287 10.6751 26.271 7.12618C26.271 6.84642 26.3589 6.78247 26.6307 6.78247C27.0463 6.79047 27.4619 6.79846 27.8776 6.79846C28.2373 6.79846 28.589 6.79047 28.9567 6.78247H36.0945C36.4622 6.79047 36.8219 6.79846 37.1976 6.79846C37.6212 6.79846 38.0529 6.79846 38.4765 6.79047C38.6923 6.78247 38.7802 6.83043 38.7802 7.06223C38.7802 10.6512 38.7802 14.2401 38.7802 17.829C38.7802 18.0608 38.7003 18.1088 38.4845 18.1088C36.4942 18.1008 34.5119 18.1088 32.5296 18.1088C30.5473 18.1088 28.597 18.1008 26.6307 18.1088ZM46.2219 30.9458C46.2219 31.1696 46.126 31.2015 45.9341 31.2015C43.8879 31.1935 41.8496 31.1936 39.8034 31.1936C37.7571 31.1936 35.7508 31.1935 33.7286 31.2015C33.4968 31.2015 33.4168 31.1536 33.4168 30.9058C33.4248 27.3329 33.4248 23.7519 33.4168 20.179C33.4168 20.147 33.4009 20.0111 33.4808 19.9392C33.5447 19.8753 33.6327 19.8673 33.7206 19.8753C37.7971 19.8753 41.8736 19.8832 45.9501 19.8832C46.014 19.8753 46.102 19.8753 46.1579 19.9312C46.2379 20.0031 46.2219 20.123 46.2219 20.155C46.2219 23.7519 46.2219 27.3488 46.2219 30.9458Z" fill="#7738CF"/>
<path d="M45.0308 28.5159C45.0308 29.0035 44.6471 29.4031 44.1195 29.4111C43.3362 29.4271 42.5449 29.4271 41.7616 29.4111C41.226 29.3951 40.8583 29.0115 40.8663 28.5079C40.8743 28.0123 41.25 27.6366 41.7856 27.6286C42.1772 27.6127 42.5689 27.6207 42.9605 27.6207C43.3522 27.6207 43.7119 27.6207 44.0796 27.6286C44.6311 27.6286 45.0228 28.0123 45.0308 28.5159Z" fill="#F3771E"/>
<path d="M28.0456 27.6206C28.4292 27.6206 28.8129 27.6206 29.1966 27.6206C29.7481 27.6286 30.1398 28.0123 30.1398 28.5158C30.1398 29.0114 29.7641 29.3951 29.2286 29.4111C28.4452 29.4271 27.6619 29.4271 26.8706 29.4111C26.327 29.3951 25.9753 29.0114 25.9753 28.5078C25.9753 28.0043 26.359 27.6446 26.8946 27.6286C27.2782 27.6206 27.6619 27.6286 28.0456 27.6286V27.6206Z" fill="#F3771E"/>
<path d="M35.5031 16.3103C35.1114 16.3103 34.7197 16.3103 34.3281 16.3103C33.8085 16.3024 33.4328 15.9347 33.4248 15.4551C33.4089 14.9595 33.7606 14.5598 34.2721 14.5439C35.0874 14.5199 35.9027 14.5199 36.718 14.5439C37.2296 14.5598 37.5973 14.9595 37.5893 15.4391C37.5733 15.9347 37.1896 16.3024 36.6621 16.3103C36.2784 16.3103 35.8947 16.3103 35.519 16.3103H35.5031Z" fill="#F3771E"/>
<path d="M41.1623 19.8673V23.8559C41.1623 23.9838 41.0584 24.0877 40.9305 24.0877H38.3807C38.2528 24.0877 38.1489 23.9918 38.1489 23.8639L38.1649 19.8673C37.5734 19.8673 36.9819 19.8673 36.3904 19.8673V24.911C36.3904 25.4305 36.814 25.8462 37.3336 25.8462H41.9856C42.5051 25.8462 42.9208 25.4305 42.9208 24.911V19.8673H41.1623Z" fill="#F3771E"/>
<path d="M26.5746 19.8673V23.8559C26.5746 23.9838 26.4707 24.0877 26.3428 24.0877H23.793C23.6651 24.0877 23.5612 23.9918 23.5612 23.8639L23.5772 19.8673C22.9857 19.8673 22.3942 19.8673 21.8027 19.8673V24.911C21.8027 25.4305 22.2264 25.8462 22.7459 25.8462H27.3979C27.9175 25.8462 28.3331 25.4305 28.3331 24.911V19.8673H26.5746Z" fill="#F3771E"/>
<path d="M34.0163 6.78247V10.7711C34.0163 10.8989 33.9124 11.0029 33.7845 11.0029H31.2347C31.1068 11.0029 31.0029 10.9069 31.0029 10.779L31.0189 6.78247C30.4274 6.78247 29.8359 6.78247 29.2444 6.78247V11.8261C29.2444 12.3457 29.668 12.7613 30.1876 12.7613H34.8396C35.3591 12.7613 35.7748 12.3457 35.7748 11.8261V6.78247H34.0163Z" fill="#F3771E"/>
<path d="M34.3999 19.8752H36.0625C35.511 19.8832 34.9594 19.8912 34.3999 19.8832V19.8752Z" fill="#7738CF"/>
<path d="M44.7832 19.8752V19.8912C44.2956 19.8912 43.8 19.8912 43.3044 19.8752H44.7832Z" fill="#7738CF"/>
<path d="M19.8604 19.8752H21.5149C20.9634 19.8832 20.4119 19.8912 19.8604 19.8832V19.8752Z" fill="#F3771E"/>
<path d="M30.0117 19.8752V19.8912C29.5481 19.8912 29.0925 19.8832 28.6289 19.8752H30.0117Z" fill="#F3771E"/>
<path d="M27.8777 6.78247H28.9568C28.5891 6.79046 28.2374 6.79846 27.8777 6.79846V6.78247Z" fill="#7738CF"/>
<path d="M37.1975 6.78247V6.79846C36.8219 6.79846 36.4622 6.79046 36.0945 6.78247H37.1975Z" fill="#7738CF"/>
</g>
<path d="M101.188 28.6206C101.413 28.1463 101.787 27.9789 102.291 28.0068C102.733 28.0347 103.175 28.0068 103.651 28.0068C103.651 27.8604 103.651 27.7418 103.651 27.6232C103.651 23.8152 103.651 20.0002 103.651 16.1922C103.651 15.4111 103.944 15.1182 104.713 15.1182C106.067 15.1182 107.421 15.1182 108.775 15.1182C109.537 15.1182 109.816 15.4041 109.816 16.1992C109.816 20.0002 109.816 23.8013 109.816 27.6023V27.9789H112.061C112.061 27.8464 112.061 27.7209 112.061 27.5953C112.061 23.0132 112.061 18.431 112.061 13.8489C112.061 13.7442 112.061 13.6466 112.061 13.542C112.089 13.0329 112.395 12.6981 112.892 12.6981C114.388 12.6841 115.885 12.6841 117.389 12.6981C117.886 12.6981 118.192 13.0329 118.219 13.542C118.219 13.6466 118.219 13.7442 118.219 13.8489C118.219 18.424 118.219 22.9922 118.219 27.5674C118.219 27.6999 118.219 27.8255 118.219 27.9789H120.465V27.6302C120.465 24.1081 120.465 20.5861 120.465 17.064C120.465 16.2969 120.75 16.0109 121.499 16.0109C122.887 16.0109 124.275 16.0109 125.67 16.0109C126.303 16.0109 126.623 16.3387 126.623 16.9873C126.623 20.5303 126.623 24.0733 126.623 27.6093V28.0068C127.085 28.0068 127.528 28.0068 127.97 28.0068C128.079 28.0068 128.188 28.0068 128.296 28.0068C128.759 28.0417 129.099 28.4183 129.086 28.8716C129.072 29.318 128.732 29.6597 128.269 29.6737C128.188 29.6737 128.106 29.6737 128.024 29.6737C119.43 29.6737 110.843 29.6737 102.25 29.6807C101.746 29.6807 101.392 29.5272 101.188 29.053V28.6066L101.188 28.6206ZM116.559 27.9998V14.3998H113.715V27.9998H116.559ZM105.305 27.9998H108.156V16.8199H105.305V27.9998ZM122.118 17.6987V27.9929H124.962V17.6987H122.118Z" fill="#7738CF"/>
<path d="M126.466 12.2238C125.656 12.7329 124.894 13.1862 124.159 13.6884C123.704 13.9952 123.302 14.0022 122.826 13.7232C120.295 12.2307 117.757 10.7591 115.219 9.2736C115.048 9.17595 114.919 9.16898 114.749 9.25965C112.211 10.4871 109.66 11.7076 107.122 12.9351C106.747 13.1165 106.421 13.0886 106.074 12.8654C104.74 12.0006 103.393 11.1567 102.059 10.2919C101.488 9.92221 101.488 9.15503 102.052 8.82724C102.372 8.6459 102.678 8.70867 102.978 8.89698C104.141 9.64324 105.305 10.3755 106.462 11.1288C106.632 11.2404 106.761 11.2613 106.951 11.1636C109.483 9.93616 112.027 8.71565 114.572 7.48816C114.926 7.3138 115.246 7.35565 115.579 7.55093C118.124 9.03647 120.669 10.515 123.214 12.0075C123.404 12.1191 123.54 12.1191 123.724 12.0006C124.316 11.61 124.921 11.2334 125.581 10.8149C125.323 10.7522 125.126 10.7033 124.928 10.6545C124.398 10.522 124.125 10.0966 124.241 9.60139C124.35 9.13411 124.792 8.89698 125.316 9.02252C126.146 9.22477 126.97 9.43401 127.8 9.64324C128.337 9.78272 128.575 10.1733 128.46 10.7312C128.283 11.5751 128.113 12.419 127.936 13.2629C127.847 13.6953 127.609 13.9534 127.262 14.0092C126.677 14.1068 126.241 13.6884 126.31 13.0816C126.337 12.8096 126.405 12.5376 126.466 12.2238Z" fill="#F3771E"/>
<path d="M207.404 24.6149C206.719 21.2637 203.955 19.0067 200.536 19.0067H200.393C200.28 19.0067 200.265 18.9915 200.258 18.8624C200.258 18.8624 199.896 12.5398 199.821 11.0504C199.806 10.8072 199.716 10.716 199.467 10.716C199.136 10.716 197.547 10.716 197.547 10.716C197.073 10.716 196.598 10.716 196.109 10.7236C196.003 10.7236 195.943 10.7084 195.913 10.678C195.883 10.6476 195.868 10.5792 195.875 10.4577C195.898 10.0625 195.89 9.66734 195.875 9.26458V9.16579C195.838 7.03802 194.603 5.25221 192.652 4.49989C192.396 4.4011 192.133 4.34791 191.877 4.28711C191.741 4.25672 191.606 4.22632 191.455 4.19592H190.408L190.273 4.21872L190.25 4.24912C188.27 4.53789 186.673 5.99693 186.176 7.96512C186.011 8.63385 186.018 9.31018 186.033 9.9713C186.033 10.1385 186.033 10.3057 186.033 10.4805C186.033 10.678 186.003 10.7084 185.807 10.7084C185.273 10.7084 184.745 10.7008 184.211 10.7008H182.366C182.23 10.7008 182.102 10.7312 182.087 10.9744C181.967 13.2466 181.831 15.5187 181.696 17.7909L181.522 20.8001C181.447 22.13 181.364 23.4675 181.289 24.7973L181.266 25.1545C181.221 25.8004 181.176 26.4615 181.349 27.1227C181.854 29.0529 183.541 30.3523 185.551 30.3599H189.384H195.1C195.243 30.3599 195.341 30.3599 195.438 30.4739C196.869 32.0697 198.594 32.8753 200.567 32.8753C200.981 32.8753 201.402 32.8373 201.839 32.7689C203.609 32.4801 205.235 31.4314 206.297 29.8888C207.366 28.3309 207.766 26.4007 207.404 24.5997V24.6149ZM197.057 29.562C196.094 28.5893 195.566 27.305 195.566 25.9372C195.566 23.1179 197.848 20.8229 200.642 20.8153L200.657 20.7394V20.8153C202.005 20.8153 203.277 21.3549 204.241 22.3276C205.205 23.3003 205.732 24.5921 205.732 25.9524C205.732 28.7717 203.451 31.0667 200.649 31.0742C199.294 31.0742 198.021 30.5423 197.057 29.5696V29.562ZM194.203 28.3765C194.249 28.5057 194.234 28.5285 194.234 28.5285C194.234 28.5285 194.211 28.5513 194.075 28.5513C193.338 28.5513 192.592 28.5513 191.854 28.5513H185.657C184.843 28.5513 184.166 28.2777 183.691 27.7686C183.209 27.2519 182.991 26.5299 183.044 25.694C183.141 24.2502 183.224 22.7987 183.3 21.3549L183.458 18.5356C183.571 16.5826 183.684 14.6296 183.789 12.6766C183.789 12.555 183.812 12.5398 183.925 12.5398C183.925 12.5398 184.602 12.5398 184.934 12.5398C185.25 12.5398 185.566 12.5398 185.898 12.5398C185.95 12.5398 185.98 12.5398 185.995 12.5626C186.018 12.5854 186.018 12.6462 186.018 12.6918C186.018 12.9502 186.018 13.201 186.018 13.4593C186.018 13.7481 186.018 14.0445 186.018 14.3332C186.018 14.4092 186.018 14.5004 186.086 14.5612C186.146 14.622 186.229 14.6296 186.312 14.6296C186.515 14.6296 186.726 14.6296 186.929 14.6296C187.133 14.6296 187.343 14.6296 187.562 14.6296C187.622 14.6296 187.705 14.6296 187.758 14.5612C187.818 14.5004 187.825 14.4092 187.818 14.3408C187.818 14.0977 187.818 13.8469 187.818 13.6037C187.818 13.3073 187.818 13.0186 187.818 12.7222C187.818 12.631 187.818 12.5778 187.848 12.5626C187.871 12.5398 187.916 12.5322 187.999 12.5322C187.999 12.5322 189.956 12.5322 190.935 12.5322C191.914 12.5322 192.893 12.5322 193.88 12.5322C193.963 12.5322 194.015 12.5398 194.038 12.5626C194.06 12.5854 194.068 12.631 194.068 12.7146C194.06 12.9882 194.068 13.2618 194.068 13.5353C194.068 13.7785 194.068 14.0293 194.068 14.2724C194.068 14.3788 194.068 14.4776 194.143 14.546C194.188 14.5916 194.264 14.622 194.399 14.622H194.407C194.588 14.6144 194.776 14.6068 194.957 14.6068C195.16 14.6068 195.363 14.6068 195.589 14.622C195.657 14.622 195.755 14.6144 195.815 14.546C195.868 14.4928 195.89 14.4168 195.883 14.2952C195.883 14.0369 195.883 13.7785 195.883 13.5201C195.883 13.2542 195.883 12.9958 195.883 12.7298C195.883 12.631 195.883 12.5778 195.913 12.555C195.935 12.5322 195.981 12.5246 196.071 12.5246C196.372 12.5322 196.673 12.5398 196.982 12.5398C197.291 12.5398 197.592 12.5398 197.923 12.5246C198.074 12.5246 198.104 12.5626 198.119 12.7298C198.172 13.6797 198.225 14.6372 198.277 15.5871L198.39 17.5933C198.42 18.1024 198.443 18.6116 198.481 19.1283C198.496 19.2879 198.473 19.3487 198.308 19.4171C195.928 20.3518 194.444 22.0996 193.91 24.6073C193.646 25.846 193.752 27.1151 194.226 28.3689L194.203 28.3765ZM191.229 6.04253C192.825 6.20971 194.015 7.51677 194.06 9.15059C194.06 9.39377 194.06 9.63694 194.06 9.88011C194.06 10.1081 194.06 10.3361 194.06 10.5716C194.06 10.64 194.06 10.678 194.038 10.7008C194.023 10.716 193.978 10.7312 193.902 10.7312C193.902 10.7312 192.908 10.7312 192.411 10.7312H189.422C188.955 10.7312 188.488 10.7312 188.014 10.7312C187.923 10.7312 187.871 10.7236 187.848 10.6932C187.825 10.6704 187.818 10.6172 187.818 10.5336C187.833 10.2905 187.825 10.0473 187.818 9.80412C187.81 9.37097 187.803 8.92262 187.901 8.48946C188.232 7.06082 189.497 6.02733 190.913 6.02733C191.018 6.02733 191.116 6.02733 191.221 6.04253H191.229Z" fill="#7738CF"/>
<path d="M203.195 23.4599C203.112 23.3763 203.029 23.2927 202.916 23.2927C202.826 23.2927 202.743 23.3459 202.637 23.4523C202.193 23.9311 201.741 24.4022 201.289 24.8734C200.838 25.3445 200.386 25.8157 199.941 26.2944C199.874 26.3628 199.821 26.4008 199.791 26.4008C199.753 26.4008 199.693 26.34 199.64 26.2792C199.362 25.9372 199.068 25.6105 198.774 25.2761L198.466 24.919C198.428 24.8658 198.375 24.805 198.292 24.7822L198.187 24.8278L198.157 24.8506L197.08 25.8081C197.035 25.8537 197.005 25.8916 197.005 25.9448C197.005 26.0132 197.05 26.0664 197.103 26.1196C197.103 26.1196 198.978 28.255 199.55 28.9161C199.595 28.9693 199.655 29.0301 199.738 29.0301C199.821 29.0301 199.874 28.9769 199.919 28.9313C201.282 27.4951 202.652 26.0664 204.023 24.6454C204.068 24.5998 204.121 24.5314 204.121 24.4554C204.121 24.3794 204.068 24.3186 204.015 24.273C203.737 24.007 203.451 23.7411 203.187 23.4599H203.195Z" fill="#F3771E"/>
<path d="M190.784 4.18839C188.036 4.26439 185.92 6.63533 185.92 9.35584V14.3333C185.92 14.5081 186.055 14.6449 186.229 14.6449H187.531C187.705 14.6449 187.848 14.5005 187.848 14.3257V9.28745C187.848 7.69162 189.022 6.26297 190.626 6.10339C192.464 5.92101 194.023 7.35725 194.023 9.14306V14.3713C194.023 14.5157 194.135 14.6297 194.279 14.6297H195.687C195.83 14.6297 195.943 14.5157 195.943 14.3713V9.15066C195.95 6.36176 193.631 4.1124 190.784 4.18839Z" fill="#F3771E"/>
<path d="M108.061 38.6545C108.019 38.3019 107.85 38.0281 107.553 37.8332C107.256 37.6384 106.892 37.5409 106.46 37.5409C106.145 37.5409 105.869 37.592 105.632 37.694C105.398 37.7961 105.214 37.9365 105.082 38.1151C104.952 38.2938 104.887 38.4968 104.887 38.7241C104.887 38.9144 104.932 39.078 105.023 39.2148C105.116 39.3494 105.234 39.4619 105.378 39.5524C105.522 39.6406 105.672 39.7137 105.83 39.7717C105.988 39.8273 106.133 39.8726 106.265 39.9074L106.989 40.1023C107.175 40.151 107.381 40.2183 107.609 40.3041C107.838 40.39 108.058 40.5071 108.266 40.6556C108.477 40.8018 108.651 40.9897 108.788 41.2194C108.925 41.4491 108.994 41.731 108.994 42.0651C108.994 42.4502 108.893 42.7982 108.691 43.1091C108.491 43.42 108.199 43.6671 107.814 43.8504C107.431 44.0336 106.966 44.1253 106.418 44.1253C105.908 44.1253 105.466 44.0429 105.092 43.8782C104.721 43.7135 104.429 43.4838 104.215 43.1891C104.004 42.8945 103.885 42.5523 103.857 42.1625H104.748C104.771 42.4316 104.862 42.6544 105.019 42.8307C105.179 43.0047 105.381 43.1346 105.625 43.2205C105.871 43.304 106.135 43.3457 106.418 43.3457C106.748 43.3457 107.044 43.2924 107.306 43.1857C107.568 43.0766 107.776 42.9258 107.929 42.7332C108.082 42.5384 108.158 42.311 108.158 42.0511C108.158 41.8145 108.092 41.6219 107.96 41.4734C107.828 41.325 107.654 41.2043 107.438 41.1115C107.222 41.0187 106.989 40.9375 106.739 40.8679L105.862 40.6173C105.305 40.4572 104.864 40.2287 104.539 39.9317C104.214 39.6348 104.052 39.2462 104.052 38.7659C104.052 38.3669 104.16 38.0188 104.376 37.7219C104.594 37.4226 104.886 37.1906 105.253 37.0259C105.621 36.8588 106.033 36.7753 106.488 36.7753C106.947 36.7753 107.356 36.8576 107.713 37.0224C108.07 37.1848 108.353 37.4075 108.562 37.6906C108.773 37.9736 108.885 38.2949 108.896 38.6545H108.061ZM111.874 44.1253C111.536 44.1253 111.228 44.0615 110.952 43.9339C110.676 43.804 110.457 43.6172 110.294 43.3736C110.132 43.1277 110.051 42.8307 110.051 42.4827C110.051 42.1764 110.111 41.9282 110.232 41.7379C110.352 41.5454 110.514 41.3946 110.715 41.2855C110.917 41.1765 111.14 41.0953 111.384 41.0419C111.63 40.9862 111.877 40.9421 112.125 40.9097C112.45 40.8679 112.713 40.8366 112.915 40.8157C113.119 40.7925 113.268 40.7542 113.36 40.7009C113.455 40.6475 113.503 40.5547 113.503 40.4224V40.3946C113.503 40.0512 113.409 39.7844 113.221 39.5942C113.036 39.4039 112.754 39.3088 112.375 39.3088C111.983 39.3088 111.676 39.3946 111.453 39.5663C111.231 39.738 111.074 39.9213 110.983 40.1162L110.204 39.8378C110.343 39.513 110.529 39.2601 110.761 39.0791C110.995 38.8958 111.25 38.7682 111.526 38.6963C111.805 38.6221 112.078 38.5849 112.348 38.5849C112.519 38.5849 112.717 38.6058 112.939 38.6476C113.164 38.687 113.381 38.7694 113.59 38.8947C113.801 39.02 113.976 39.209 114.116 39.4619C114.255 39.7148 114.324 40.0536 114.324 40.4781V44H113.503V43.2761H113.461C113.406 43.3921 113.313 43.5163 113.183 43.6485C113.053 43.7808 112.88 43.8933 112.664 43.9861C112.449 44.0789 112.185 44.1253 111.874 44.1253ZM112 43.3875C112.324 43.3875 112.598 43.3237 112.821 43.1961C113.046 43.0685 113.215 42.9038 113.329 42.7019C113.445 42.5001 113.503 42.2878 113.503 42.0651V41.3134C113.468 41.3551 113.392 41.3934 113.273 41.4282C113.157 41.4607 113.023 41.4897 112.87 41.5152C112.719 41.5384 112.572 41.5593 112.428 41.5778C112.286 41.5941 112.171 41.608 112.083 41.6196C111.87 41.6474 111.67 41.6927 111.485 41.7553C111.301 41.8156 111.153 41.9073 111.039 42.0303C110.928 42.1509 110.872 42.3156 110.872 42.5244C110.872 42.8098 110.978 43.0256 111.189 43.1717C111.402 43.3156 111.672 43.3875 112 43.3875ZM116.645 36.8727V44H115.823V36.8727H116.645ZM120.39 44.1114C119.875 44.1114 119.431 43.9977 119.057 43.7703C118.686 43.5406 118.4 43.2205 118.198 42.8098C117.998 42.3968 117.898 41.9166 117.898 41.369C117.898 40.8215 117.998 40.3389 118.198 39.9213C118.4 39.5014 118.68 39.1742 119.04 38.9399C119.402 38.7033 119.824 38.5849 120.307 38.5849C120.585 38.5849 120.86 38.6313 121.131 38.7241C121.403 38.817 121.65 38.9678 121.873 39.1766C122.095 39.383 122.273 39.6568 122.405 39.9979C122.537 40.3389 122.604 40.7589 122.604 41.2577V41.6057H118.483V40.8957H121.768C121.768 40.5941 121.708 40.325 121.587 40.0884C121.469 39.8517 121.3 39.6649 121.079 39.5281C120.861 39.3912 120.604 39.3227 120.307 39.3227C119.98 39.3227 119.696 39.4039 119.457 39.5663C119.221 39.7264 119.039 39.9352 118.911 40.1928C118.784 40.4503 118.72 40.7264 118.72 41.021V41.4943C118.72 41.898 118.789 42.2402 118.929 42.521C119.07 42.7994 119.266 43.0116 119.517 43.1578C119.767 43.3017 120.058 43.3736 120.39 43.3736C120.606 43.3736 120.801 43.3434 120.975 43.2831C121.151 43.2205 121.303 43.1277 121.431 43.0047C121.558 42.8794 121.657 42.724 121.727 42.5384L122.52 42.7611C122.436 43.0302 122.296 43.2669 122.099 43.471C121.902 43.6729 121.658 43.8306 121.368 43.9443C121.078 44.0557 120.752 44.1114 120.39 44.1114ZM127.639 39.8517L126.901 40.0605C126.855 39.9375 126.787 39.8181 126.696 39.7021C126.608 39.5837 126.487 39.4863 126.334 39.4097C126.181 39.3332 125.985 39.2949 125.746 39.2949C125.419 39.2949 125.146 39.3703 124.928 39.5211C124.712 39.6696 124.605 39.8587 124.605 40.0884C124.605 40.2925 124.679 40.4538 124.827 40.5721C124.976 40.6904 125.208 40.789 125.523 40.8679L126.317 41.0628C126.795 41.1788 127.151 41.3563 127.385 41.5952C127.62 41.8319 127.737 42.137 127.737 42.5105C127.737 42.8168 127.649 43.0905 127.472 43.3318C127.298 43.5731 127.055 43.7634 126.741 43.9026C126.428 44.0418 126.064 44.1114 125.649 44.1114C125.103 44.1114 124.652 43.993 124.295 43.7564C123.938 43.5197 123.711 43.1741 123.616 42.7193L124.396 42.5244C124.47 42.8121 124.61 43.0279 124.817 43.1717C125.026 43.3156 125.298 43.3875 125.635 43.3875C126.018 43.3875 126.321 43.3063 126.546 43.1439C126.774 42.9792 126.888 42.782 126.888 42.5523C126.888 42.3667 126.823 42.2112 126.693 42.0859C126.563 41.9583 126.363 41.8632 126.094 41.8006L125.203 41.5918C124.714 41.4758 124.354 41.296 124.124 41.0523C123.897 40.8064 123.783 40.499 123.783 40.1301C123.783 39.8285 123.868 39.5617 124.037 39.3297C124.209 39.0977 124.442 38.9156 124.737 38.7833C125.034 38.6511 125.37 38.5849 125.746 38.5849C126.275 38.5849 126.69 38.7009 126.992 38.933C127.296 39.165 127.512 39.4712 127.639 39.8517Z" fill="black"/>
<path d="M169.833 44V36.8727H172.241C172.8 36.8727 173.257 36.9737 173.612 37.1755C173.97 37.375 174.234 37.6453 174.406 37.9864C174.577 38.3274 174.663 38.7079 174.663 39.1278C174.663 39.5478 174.577 39.9294 174.406 40.2728C174.236 40.6162 173.974 40.8899 173.619 41.0941C173.264 41.296 172.81 41.3969 172.255 41.3969H170.529V40.6312H172.227C172.61 40.6312 172.917 40.5651 173.149 40.4329C173.381 40.3006 173.55 40.122 173.654 39.8969C173.761 39.6696 173.814 39.4132 173.814 39.1278C173.814 38.8425 173.761 38.5873 173.654 38.3622C173.55 38.1372 173.38 37.9608 173.146 37.8332C172.912 37.7033 172.601 37.6384 172.213 37.6384H170.696V44H169.833ZM179.311 41.8145V38.6545H180.132V44H179.311V43.0952H179.255C179.13 43.3666 178.935 43.5975 178.671 43.7877C178.406 43.9756 178.072 44.0696 177.668 44.0696C177.334 44.0696 177.037 43.9965 176.778 43.8504C176.518 43.7019 176.313 43.4791 176.165 43.1822C176.017 42.8829 175.942 42.5059 175.942 42.0511V38.6545H176.764V41.9955C176.764 42.3852 176.873 42.6961 177.091 42.9281C177.311 43.1601 177.592 43.2761 177.933 43.2761C178.137 43.2761 178.345 43.2239 178.556 43.1195C178.769 43.0151 178.948 42.855 179.092 42.6393C179.238 42.4235 179.311 42.1486 179.311 41.8145ZM181.637 44V38.6545H182.43V39.4619H182.486C182.583 39.1974 182.76 38.9828 183.015 38.8181C183.27 38.6534 183.558 38.571 183.878 38.571C183.938 38.571 184.014 38.5722 184.104 38.5745C184.195 38.5768 184.263 38.5803 184.309 38.5849V39.4202C184.282 39.4132 184.218 39.4028 184.118 39.3888C184.02 39.3726 183.917 39.3645 183.808 39.3645C183.548 39.3645 183.316 39.419 183.112 39.5281C182.91 39.6348 182.75 39.7833 182.632 39.9735C182.516 40.1614 182.458 40.376 182.458 40.6173V44H181.637ZM187.292 44.1114C186.791 44.1114 186.359 43.993 185.997 43.7564C185.635 43.5197 185.357 43.1938 185.162 42.7785C184.967 42.3632 184.87 41.8887 184.87 41.3551C184.87 40.8122 184.969 40.3331 185.169 39.9178C185.371 39.5002 185.652 39.1742 186.011 38.9399C186.373 38.7033 186.795 38.5849 187.278 38.5849C187.654 38.5849 187.992 38.6545 188.294 38.7937C188.596 38.933 188.843 39.1278 189.035 39.3784C189.228 39.629 189.347 39.9213 189.394 40.2554H188.572C188.51 40.0118 188.371 39.796 188.155 39.6081C187.941 39.4179 187.654 39.3227 187.292 39.3227C186.972 39.3227 186.691 39.4062 186.45 39.5733C186.211 39.738 186.024 39.9712 185.889 40.2728C185.757 40.5721 185.691 40.9236 185.691 41.3273C185.691 41.7402 185.756 42.0999 185.886 42.4061C186.018 42.7124 186.204 42.9502 186.443 43.1195C186.684 43.2889 186.967 43.3736 187.292 43.3736C187.505 43.3736 187.699 43.3365 187.873 43.2622C188.047 43.188 188.194 43.0812 188.315 42.942C188.436 42.8028 188.521 42.6358 188.572 42.4409H189.394C189.347 42.7564 189.233 43.0406 189.049 43.2935C188.868 43.5441 188.628 43.7436 188.329 43.8921C188.032 44.0383 187.686 44.1114 187.292 44.1114ZM191.416 40.7844V44H190.594V36.8727H191.416V39.4898H191.485C191.611 39.2137 191.799 38.9944 192.049 38.832C192.302 38.6673 192.638 38.5849 193.058 38.5849C193.423 38.5849 193.742 38.658 194.015 38.8042C194.289 38.948 194.501 39.1696 194.652 39.4689C194.805 39.7659 194.882 40.144 194.882 40.6034V44H194.061V40.6591C194.061 40.2345 193.95 39.9062 193.73 39.6742C193.512 39.4399 193.209 39.3227 192.822 39.3227C192.553 39.3227 192.311 39.3796 192.098 39.4933C191.887 39.6069 191.72 39.7728 191.597 39.9909C191.476 40.209 191.416 40.4735 191.416 40.7844ZM197.957 44.1253C197.619 44.1253 197.311 44.0615 197.035 43.9339C196.759 43.804 196.54 43.6172 196.378 43.3736C196.215 43.1277 196.134 42.8307 196.134 42.4827C196.134 42.1764 196.194 41.9282 196.315 41.7379C196.436 41.5454 196.597 41.3946 196.799 41.2855C197 41.1765 197.223 41.0953 197.467 41.0419C197.713 40.9862 197.96 40.9421 198.208 40.9097C198.533 40.8679 198.796 40.8366 198.998 40.8157C199.202 40.7925 199.351 40.7542 199.443 40.7009C199.539 40.6475 199.586 40.5547 199.586 40.4224V40.3946C199.586 40.0512 199.492 39.7844 199.304 39.5942C199.119 39.4039 198.837 39.3088 198.459 39.3088C198.067 39.3088 197.759 39.3946 197.536 39.5663C197.314 39.738 197.157 39.9213 197.067 40.1162L196.287 39.8378C196.426 39.513 196.612 39.2601 196.844 39.0791C197.078 38.8958 197.333 38.7682 197.609 38.6963C197.888 38.6221 198.162 38.5849 198.431 38.5849C198.602 38.5849 198.8 38.6058 199.022 38.6476C199.247 38.687 199.464 38.7694 199.673 38.8947C199.884 39.02 200.059 39.209 200.199 39.4619C200.338 39.7148 200.407 40.0536 200.407 40.4781V44H199.586V43.2761H199.544C199.489 43.3921 199.396 43.5163 199.266 43.6485C199.136 43.7808 198.963 43.8933 198.747 43.9861C198.532 44.0789 198.268 44.1253 197.957 44.1253ZM198.083 43.3875C198.408 43.3875 198.681 43.3237 198.904 43.1961C199.129 43.0685 199.298 42.9038 199.412 42.7019C199.528 42.5001 199.586 42.2878 199.586 42.0651V41.3134C199.551 41.3551 199.475 41.3934 199.356 41.4282C199.24 41.4607 199.106 41.4897 198.953 41.5152C198.802 41.5384 198.655 41.5593 198.511 41.5778C198.369 41.5941 198.254 41.608 198.166 41.6196C197.953 41.6474 197.753 41.6927 197.568 41.7553C197.384 41.8156 197.236 41.9073 197.122 42.0303C197.011 42.1509 196.955 42.3156 196.955 42.5244C196.955 42.8098 197.061 43.0256 197.272 43.1717C197.485 43.3156 197.756 43.3875 198.083 43.3875ZM205.693 39.8517L204.955 40.0605C204.909 39.9375 204.84 39.8181 204.75 39.7021C204.662 39.5837 204.541 39.4863 204.388 39.4097C204.235 39.3332 204.039 39.2949 203.8 39.2949C203.473 39.2949 203.2 39.3703 202.982 39.5211C202.766 39.6696 202.658 39.8587 202.658 40.0884C202.658 40.2925 202.732 40.4538 202.881 40.5721C203.029 40.6904 203.261 40.789 203.577 40.8679L204.37 41.0628C204.848 41.1788 205.205 41.3563 205.439 41.5952C205.673 41.8319 205.79 42.137 205.79 42.5105C205.79 42.8168 205.702 43.0905 205.526 43.3318C205.352 43.5731 205.108 43.7634 204.795 43.9026C204.482 44.0418 204.118 44.1114 203.702 44.1114C203.157 44.1114 202.706 43.993 202.349 43.7564C201.991 43.5197 201.765 43.1741 201.67 42.7193L202.449 42.5244C202.524 42.8121 202.664 43.0279 202.871 43.1717C203.079 43.3156 203.352 43.3875 203.688 43.3875C204.071 43.3875 204.375 43.3063 204.6 43.1439C204.828 42.9792 204.941 42.782 204.941 42.5523C204.941 42.3667 204.876 42.2112 204.746 42.0859C204.616 41.9583 204.417 41.8632 204.148 41.8006L203.257 41.5918C202.767 41.4758 202.408 41.296 202.178 41.0523C201.951 40.8064 201.837 40.499 201.837 40.1301C201.837 39.8285 201.922 39.5617 202.091 39.3297C202.263 39.0977 202.496 38.9156 202.79 38.7833C203.087 38.6511 203.424 38.5849 203.8 38.5849C204.329 38.5849 204.744 38.7009 205.046 38.933C205.35 39.165 205.565 39.4712 205.693 39.8517ZM209.268 44.1114C208.753 44.1114 208.308 43.9977 207.935 43.7703C207.564 43.5406 207.277 43.2205 207.075 42.8098C206.876 42.3968 206.776 41.9166 206.776 41.369C206.776 40.8215 206.876 40.3389 207.075 39.9213C207.277 39.5014 207.558 39.1742 207.918 38.9399C208.279 38.7033 208.702 38.5849 209.184 38.5849C209.463 38.5849 209.738 38.6313 210.009 38.7241C210.281 38.817 210.528 38.9678 210.75 39.1766C210.973 39.383 211.151 39.6568 211.283 39.9979C211.415 40.3389 211.481 40.7589 211.481 41.2577V41.6057H207.361V40.8957H210.646C210.646 40.5941 210.586 40.325 210.465 40.0884C210.347 39.8517 210.177 39.6649 209.957 39.5281C209.739 39.3912 209.481 39.3227 209.184 39.3227C208.857 39.3227 208.574 39.4039 208.335 39.5663C208.099 39.7264 207.916 39.9352 207.789 40.1928C207.661 40.4503 207.597 40.7264 207.597 41.021V41.4943C207.597 41.898 207.667 42.2402 207.806 42.521C207.948 42.7994 208.144 43.0116 208.394 43.1578C208.645 43.3017 208.936 43.3736 209.268 43.3736C209.484 43.3736 209.678 43.3434 209.853 43.2831C210.029 43.2205 210.181 43.1277 210.308 43.0047C210.436 42.8794 210.535 42.724 210.604 42.5384L211.398 42.7611C211.314 43.0302 211.174 43.2669 210.977 43.471C210.779 43.6729 210.536 43.8306 210.246 43.9443C209.956 44.0557 209.63 44.1114 209.268 44.1114ZM216.517 39.8517L215.779 40.0605C215.733 39.9375 215.664 39.8181 215.574 39.7021C215.486 39.5837 215.365 39.4863 215.212 39.4097C215.059 39.3332 214.863 39.2949 214.624 39.2949C214.297 39.2949 214.024 39.3703 213.806 39.5211C213.59 39.6696 213.482 39.8587 213.482 40.0884C213.482 40.2925 213.557 40.4538 213.705 40.5721C213.853 40.6904 214.085 40.789 214.401 40.8679L215.194 41.0628C215.672 41.1788 216.029 41.3563 216.263 41.5952C216.497 41.8319 216.614 42.137 216.614 42.5105C216.614 42.8168 216.526 43.0905 216.35 43.3318C216.176 43.5731 215.932 43.7634 215.619 43.9026C215.306 44.0418 214.942 44.1114 214.526 44.1114C213.981 44.1114 213.53 43.993 213.173 43.7564C212.815 43.5197 212.589 43.1741 212.494 42.7193L213.273 42.5244C213.348 42.8121 213.488 43.0279 213.695 43.1717C213.903 43.3156 214.176 43.3875 214.512 43.3875C214.895 43.3875 215.199 43.3063 215.424 43.1439C215.652 42.9792 215.765 42.782 215.765 42.5523C215.765 42.3667 215.7 42.2112 215.57 42.0859C215.44 41.9583 215.241 41.8632 214.972 41.8006L214.081 41.5918C213.591 41.4758 213.232 41.296 213.002 41.0523C212.775 40.8064 212.661 40.499 212.661 40.1301C212.661 39.8285 212.746 39.5617 212.915 39.3297C213.087 39.0977 213.32 38.9156 213.615 38.7833C213.911 38.6511 214.248 38.5849 214.624 38.5849C215.153 38.5849 215.568 38.7009 215.87 38.933C216.174 39.165 216.389 39.4712 216.517 39.8517Z" fill="black"/>
<defs>
<clipPath id="clip0_455_722">
<rect width="30.9575" height="28" fill="white" transform="translate(17.0469 5)"/>
</clipPath>
</defs>
</svg>
