<svg width="708" height="503" viewBox="0 0 708 503" fill="none" xmlns="http://www.w3.org/2000/svg">
<path d="M690.066 0C686.966 0.00104641 683.915 0.779773 681.193 2.26489C678.471 3.75001 676.166 5.89408 674.487 8.50087C672.808 11.1077 671.81 14.0939 671.584 17.1863C671.357 20.2786 671.91 23.3783 673.192 26.2016L562.464 143.315C559.657 142.219 556.625 141.824 553.631 142.166C550.637 142.507 547.772 143.576 545.285 145.277C542.798 146.978 540.764 149.261 539.36 151.928C537.956 154.594 537.225 157.563 537.23 160.577C537.19 161.195 537.19 161.816 537.23 162.435L433.043 218.244C429.789 215.507 425.684 213.988 421.432 213.948C416.519 213.958 411.809 215.914 408.335 219.389C404.86 222.863 402.904 227.573 402.894 232.486C402.928 234.231 403.201 235.963 403.706 237.633L296.152 323.321C293.42 321.745 290.327 320.905 287.173 320.883C282.649 320.898 278.287 322.567 274.908 325.575C271.529 328.583 269.366 332.723 268.828 337.215L167.466 365.004C165.117 361.93 161.863 359.672 158.161 358.548C154.46 357.424 150.499 357.491 146.838 358.74C143.176 359.989 140 362.357 137.757 365.508C135.514 368.66 134.318 372.436 134.337 376.305C134.352 378.051 134.626 379.786 135.15 381.452L27.5953 467.333C24.8657 465.752 21.7706 464.912 18.6164 464.895C14.9389 464.887 11.3418 465.971 8.28086 468.009C5.21993 470.048 2.83286 472.949 1.422 476.345C0.0111359 479.741 -0.359997 483.479 0.355574 487.087C1.07115 490.694 2.84126 494.008 5.44166 496.608C8.04206 499.208 11.3557 500.979 14.963 501.694C18.5702 502.41 22.3086 502.038 25.7047 500.628C29.1008 499.217 32.0018 496.83 34.0402 493.769C36.0785 490.708 37.1625 487.111 37.1549 483.433C37.1206 481.688 36.8472 479.956 36.3421 478.286L143.935 392.598C146.665 394.179 149.76 395.02 152.914 395.037C157.426 395.013 161.774 393.346 165.144 390.346C168.514 387.347 170.674 383.221 171.22 378.743L272.582 350.916C274.926 354.005 278.184 356.279 281.893 357.412C285.601 358.546 289.573 358.483 293.244 357.232C296.915 355.982 300.099 353.607 302.344 350.444C304.588 347.282 305.78 343.493 305.75 339.615C305.716 337.87 305.443 336.138 304.938 334.467L412.492 248.78C415.224 250.356 418.317 251.196 421.471 251.218C426.391 251.218 431.111 249.266 434.593 245.791C438.076 242.315 440.038 237.6 440.048 232.68C440.048 232.022 440.048 231.441 439.855 230.783L544.042 175.013C547.257 177.691 551.287 179.197 555.471 179.284C559.655 179.371 563.744 178.034 567.068 175.492C570.393 172.951 572.755 169.355 573.768 165.295C574.781 161.235 574.384 156.951 572.643 153.146L683.41 35.9934C685.526 36.8483 687.784 37.2948 690.066 37.3092C694.842 37.0911 699.349 35.0406 702.651 31.5842C705.953 28.1278 707.796 23.5316 707.796 18.7514C707.796 13.9712 705.953 9.37489 702.651 5.9185C699.349 2.46211 694.842 0.411654 690.066 0.193524V0Z" fill="#B8B9BB"/>
</svg>
