<svg width="231" height="53" viewBox="0 0 231 53" fill="none" xmlns="http://www.w3.org/2000/svg">
<rect width="70.0626" height="52.9804" rx="8.45045" fill="white"/>
<rect x="160" width="70.0626" height="52.9804" rx="8.45045" fill="white"/>
<rect x="81" width="70.0626" height="52.9804" rx="8.45045" fill="white"/>
<path d="M14.0675 43H12.842L15.5956 35.3481H16.9294L19.6831 43H18.4576L16.2943 36.738H16.2345L14.0675 43ZM14.273 40.0035H18.2483V40.9749H14.273V40.0035ZM21.8155 39.5925V43H20.6984V37.2611H21.7707V38.1952H21.8417C21.9737 37.8913 22.1804 37.6472 22.4619 37.4629C22.7459 37.2785 23.1033 37.1864 23.5342 37.1864C23.9253 37.1864 24.2678 37.2686 24.5617 37.433C24.8556 37.5949 25.0835 37.8365 25.2454 38.1578C25.4073 38.4791 25.4883 38.8764 25.4883 39.3497V43H24.3711V39.4842C24.3711 39.0682 24.2628 38.7431 24.0461 38.509C23.8294 38.2724 23.5317 38.1541 23.1531 38.1541C22.8941 38.1541 22.6637 38.2101 22.4619 38.3222C22.2626 38.4343 22.1045 38.5987 21.9874 38.8154C21.8728 39.0296 21.8155 39.2886 21.8155 39.5925ZM28.6566 43.127C28.293 43.127 27.9642 43.0598 27.6703 42.9253C27.3763 42.7883 27.1435 42.5903 26.9716 42.3312C26.8022 42.0722 26.7175 41.7546 26.7175 41.3785C26.7175 41.0547 26.7798 40.7881 26.9043 40.5789C27.0289 40.3697 27.197 40.204 27.4087 40.082C27.6205 39.9599 27.8571 39.8678 28.1186 39.8055C28.3802 39.7432 28.6467 39.6959 28.9182 39.6635C29.2619 39.6237 29.5409 39.5913 29.7551 39.5664C29.9693 39.539 30.125 39.4954 30.2221 39.4356C30.3193 39.3758 30.3679 39.2787 30.3679 39.1442V39.118C30.3679 38.7917 30.2757 38.5389 30.0914 38.3596C29.9095 38.1802 29.638 38.0905 29.2769 38.0905C28.9007 38.0905 28.6043 38.174 28.3876 38.3409C28.1734 38.5053 28.0252 38.6883 27.943 38.8901L26.8931 38.651C27.0177 38.3023 27.1995 38.0208 27.4386 37.8066C27.6802 37.5899 27.958 37.433 28.2718 37.3358C28.5857 37.2362 28.9157 37.1864 29.2619 37.1864C29.4911 37.1864 29.7339 37.2138 29.9905 37.2686C30.2495 37.3209 30.4912 37.418 30.7153 37.56C30.942 37.702 31.1276 37.905 31.272 38.169C31.4165 38.4305 31.4887 38.7705 31.4887 39.189V43H30.3977V42.2154H30.3529C30.2807 42.3599 30.1723 42.5018 30.0279 42.6413C29.8834 42.7808 29.6978 42.8966 29.4711 42.9888C29.2445 43.081 28.973 43.127 28.6566 43.127ZM28.8995 42.2303C29.2084 42.2303 29.4724 42.1693 29.6916 42.0473C29.9133 41.9252 30.0814 41.7658 30.196 41.569C30.3131 41.3697 30.3716 41.1568 30.3716 40.9301V40.1903C30.3317 40.2302 30.2545 40.2675 30.1399 40.3024C30.0279 40.3348 29.8996 40.3634 29.7551 40.3883C29.6106 40.4108 29.4699 40.4319 29.3329 40.4519C29.1959 40.4693 29.0813 40.4842 28.9892 40.4967C28.7725 40.5241 28.5744 40.5702 28.3951 40.6349C28.2183 40.6997 28.0763 40.7931 27.9692 40.9152C27.8646 41.0347 27.8122 41.1941 27.8122 41.3934C27.8122 41.6699 27.9144 41.8791 28.1186 42.0211C28.3229 42.1606 28.5832 42.2303 28.8995 42.2303ZM34.0938 35.3481V43H32.9767V35.3481H34.0938ZM36.3029 45.1521C36.136 45.1521 35.9841 45.1384 35.8471 45.111C35.7101 45.0861 35.608 45.0587 35.5407 45.0288L35.8097 44.1134C36.014 44.1682 36.1958 44.1919 36.3552 44.1844C36.5146 44.1769 36.6554 44.1171 36.7774 44.0051C36.902 43.893 37.0116 43.7099 37.1062 43.4558L37.2445 43.0747L35.1447 37.2611H36.3403L37.7937 41.7147H37.8535L39.3069 37.2611H40.5062L38.1412 43.7659C38.0316 44.0648 37.8921 44.3177 37.7227 44.5244C37.5533 44.7336 37.3516 44.8906 37.1174 44.9952C36.8833 45.0998 36.6118 45.1521 36.3029 45.1521ZM44.235 37.2611V38.1578H41.1003V37.2611H44.235ZM41.9409 35.8861H43.0581V41.3149C43.0581 41.5316 43.0905 41.6948 43.1552 41.8044C43.22 41.9115 43.3034 41.985 43.4056 42.0248C43.5102 42.0622 43.6235 42.0809 43.7456 42.0809C43.8352 42.0809 43.9137 42.0747 43.9809 42.0622C44.0482 42.0497 44.1005 42.0398 44.1379 42.0323L44.3396 42.9552C44.2749 42.9801 44.1827 43.005 44.0631 43.0299C43.9436 43.0573 43.7941 43.0722 43.6148 43.0747C43.3209 43.0797 43.0469 43.0274 42.7928 42.9178C42.5387 42.8082 42.3332 42.6388 42.1763 42.4097C42.0194 42.1805 41.9409 41.8928 41.9409 41.5466V35.8861ZM45.4708 43V37.2611H46.5879V43H45.4708ZM46.035 36.3756C45.8407 36.3756 45.6738 36.3108 45.5343 36.1813C45.3973 36.0493 45.3288 35.8924 45.3288 35.7105C45.3288 35.5262 45.3973 35.3693 45.5343 35.2398C45.6738 35.1078 45.8407 35.0418 46.035 35.0418C46.2292 35.0418 46.3949 35.1078 46.5319 35.2398C46.6714 35.3693 46.7411 35.5262 46.7411 35.7105C46.7411 35.8924 46.6714 36.0493 46.5319 36.1813C46.3949 36.3108 46.2292 36.3756 46.035 36.3756ZM50.5082 43.1158C49.9527 43.1158 49.4745 42.99 49.0735 42.7385C48.6749 42.4844 48.3686 42.1344 48.1543 41.6886C47.9401 41.2427 47.833 40.7321 47.833 40.1567C47.833 39.5738 47.9426 39.0595 48.1618 38.6136C48.381 38.1653 48.6899 37.8153 49.0884 37.5637C49.487 37.3122 49.9565 37.1864 50.497 37.1864C50.9329 37.1864 51.3215 37.2673 51.6627 37.4292C52.004 37.5886 52.2792 37.8128 52.4884 38.1018C52.7001 38.3907 52.8259 38.7282 52.8658 39.1143H51.7785C51.7187 38.8453 51.5818 38.6136 51.3675 38.4193C51.1558 38.2251 50.8719 38.1279 50.5157 38.1279C50.2043 38.1279 49.9316 38.2101 49.6974 38.3745C49.4658 38.5364 49.2852 38.7681 49.1557 39.0694C49.0261 39.3683 48.9614 39.722 48.9614 40.1305C48.9614 40.549 49.0249 40.9102 49.1519 41.2141C49.279 41.5179 49.4583 41.7533 49.69 41.9202C49.9241 42.0871 50.1993 42.1705 50.5157 42.1705C50.7274 42.1705 50.9192 42.1319 51.0911 42.0547C51.2654 41.975 51.4111 41.8617 51.5282 41.7147C51.6478 41.5678 51.7312 41.3909 51.7785 41.1842H52.8658C52.8259 41.5553 52.7051 41.8866 52.5034 42.178C52.3016 42.4695 52.0313 42.6986 51.6926 42.8655C51.3563 43.0324 50.9615 43.1158 50.5082 43.1158ZM58.3609 38.6622L57.3484 38.8415C57.306 38.712 57.2388 38.5887 57.1466 38.4716C57.0569 38.3546 56.9349 38.2587 56.7805 38.184C56.626 38.1092 56.433 38.0719 56.2013 38.0719C55.885 38.0719 55.621 38.1429 55.4092 38.2848C55.1975 38.4243 55.0917 38.6049 55.0917 38.8266C55.0917 39.0184 55.1627 39.1728 55.3046 39.2899C55.4466 39.407 55.6758 39.5029 55.9921 39.5776L56.9038 39.7868C57.4318 39.9089 57.8254 40.0969 58.0844 40.351C58.3435 40.6051 58.473 40.9351 58.473 41.3411C58.473 41.6848 58.3734 41.9912 58.1741 42.2602C57.9773 42.5267 57.7021 42.736 57.3484 42.8879C56.9972 43.0399 56.5899 43.1158 56.1266 43.1158C55.484 43.1158 54.9596 42.9788 54.5536 42.7048C54.1476 42.4284 53.8985 42.036 53.8064 41.5279L54.8862 41.3635C54.9534 41.645 55.0917 41.8579 55.3009 42.0024C55.5101 42.1444 55.7829 42.2154 56.1191 42.2154C56.4853 42.2154 56.778 42.1394 56.9972 41.9875C57.2164 41.833 57.326 41.645 57.326 41.4233C57.326 41.244 57.2587 41.0933 57.1242 40.9712C56.9922 40.8492 56.7892 40.757 56.5152 40.6947L55.5438 40.4818C55.0082 40.3597 54.6122 40.1654 54.3556 39.8989C54.1016 39.6324 53.9745 39.2949 53.9745 38.8864C53.9745 38.5476 54.0692 38.2512 54.2585 37.9971C54.4478 37.7431 54.7093 37.5451 55.0431 37.4031C55.3769 37.2586 55.7592 37.1864 56.1901 37.1864C56.8103 37.1864 57.2986 37.3209 57.6547 37.5899C58.0109 37.8564 58.2463 38.2138 58.3609 38.6622Z" fill="black"/>
<g clip-path="url(#clip0_455_721)">
<path d="M26.1803 20.6301C26.3873 20.7227 26.5017 20.5593 26.6215 20.3687C27.9887 18.2117 29.3559 16.0601 30.7285 13.9085C30.8211 13.7615 30.8211 13.6689 30.7285 13.5164C30.1239 12.5958 30.2002 11.4084 30.8919 10.5641C31.5946 9.70891 32.7548 9.40388 33.7843 9.80695C34.8029 10.2046 35.462 11.2341 35.3911 12.3289C35.3748 12.5958 35.3203 12.8518 35.2114 13.0969C35.1515 13.2222 35.1787 13.2985 35.2768 13.3911C36.328 14.4369 37.3738 15.4827 38.4142 16.5285C38.5014 16.6157 38.5722 16.6375 38.6866 16.5885C39.1005 16.4196 39.5309 16.3433 39.9775 16.4305C40.1409 16.4632 40.1682 16.3433 40.2226 16.2507C41.0451 14.8073 41.8676 13.3638 42.6956 11.9149C43.2566 10.929 43.8176 9.94313 44.3841 8.95722C44.4658 8.81015 44.4604 8.723 44.3623 8.59228C43.6924 7.68263 43.6815 6.48429 44.3297 5.58554C44.9833 4.68134 46.1108 4.30005 47.1621 4.62687C48.2188 4.95369 48.9487 5.92325 48.9705 7.03988C48.9977 8.53236 47.6687 9.76883 46.1762 9.61086C46.0182 9.59452 45.942 9.6272 45.8657 9.76338C44.4713 12.2309 43.0714 14.6929 41.6661 17.1495C41.5898 17.2802 41.6062 17.3565 41.6879 17.4763C42.3415 18.4077 42.3197 19.5897 41.6388 20.4776C40.9743 21.3437 39.8304 21.6868 38.801 21.3273C37.7497 20.9569 37.0688 19.971 37.0961 18.849C37.1015 18.5657 37.1669 18.2879 37.2704 18.0265C37.3248 17.8957 37.3194 17.814 37.2104 17.7051C36.1646 16.6702 35.1242 15.6298 34.0893 14.584C34.0022 14.4968 33.9314 14.4532 33.7952 14.5077C33.3649 14.6929 32.9128 14.7528 32.4552 14.6548C32.3245 14.6275 32.2482 14.6657 32.1774 14.7801C30.7993 16.9534 29.4267 19.1213 28.0377 21.2838C27.9451 21.4308 28.0105 21.4962 28.0867 21.5942C28.6696 22.3786 28.8112 23.2283 28.4299 24.1325C28.0541 25.0367 27.3459 25.5433 26.3818 25.674C25.0419 25.8538 23.8108 24.8842 23.5821 23.4843C23.3751 22.2206 24.3065 20.9079 25.5811 20.6682C25.7609 20.6356 25.9461 20.6029 26.1857 20.6247L26.1803 20.6301ZM40.4677 18.9307C40.4677 18.4677 40.0919 18.0918 39.6289 18.0864C39.1605 18.0864 38.7737 18.4731 38.7792 18.947C38.7846 19.4045 39.1714 19.7804 39.6344 19.7749C40.0919 19.7749 40.4732 19.3882 40.4677 18.9307ZM47.2329 7.08891C47.2329 6.62591 46.8571 6.25007 46.3941 6.24462C45.9311 6.24462 45.5498 6.61502 45.5443 7.07801C45.5443 7.5519 45.9256 7.93864 46.3941 7.93319C46.8571 7.93319 47.2329 7.5519 47.2329 7.08891ZM33.7026 12.1709C33.7026 11.708 33.3322 11.3267 32.8692 11.3212C32.4062 11.3103 32.0195 11.6862 32.0086 12.1437C31.9977 12.6176 32.379 13.0098 32.8528 13.0098C33.3158 13.0098 33.6917 12.6339 33.6971 12.1709H33.7026ZM26.932 23.163C26.932 22.7 26.5616 22.3187 26.0986 22.3132C25.6356 22.3078 25.2489 22.6782 25.2434 23.1357C25.2325 23.6096 25.6138 24.0018 26.0877 24.0018C26.5507 24.0018 26.9265 23.626 26.932 23.163Z" fill="#7738CF"/>
<path d="M36.2353 28.2342C40.3642 28.2342 44.4984 28.2342 48.6272 28.2288C48.8669 28.2288 48.9432 28.2887 48.9268 28.5283C48.905 28.9314 48.9159 29.3399 48.9268 29.743C48.9268 29.8737 48.8996 29.9446 48.7525 29.9228C48.7089 29.9173 48.6654 29.9228 48.6218 29.9228C40.3696 29.9228 32.112 29.9228 23.8598 29.9282C23.6038 29.9282 23.5275 29.8737 23.5439 29.6123C23.5656 29.2419 23.5656 28.8715 23.5439 28.5011C23.533 28.2887 23.5874 28.2179 23.8162 28.2233C25.069 28.2342 26.3164 28.2288 27.5692 28.2288H36.2353V28.2342Z" fill="#7738CF"/>
<path d="M26.1095 20.6248C24.7096 20.6248 23.5767 21.7577 23.5767 23.1576C23.5767 24.5575 24.7096 25.6959 26.1095 25.6959C27.5094 25.6959 28.6478 24.5629 28.6478 23.1576C28.6478 21.7523 27.5148 20.6248 26.1095 20.6248ZM26.1095 24.0019C25.6465 24.0019 25.2652 23.6206 25.2652 23.1576C25.2652 22.6946 25.6465 22.3133 26.1095 22.3133C26.5725 22.3133 26.9538 22.6892 26.9538 23.1576C26.9538 23.626 26.578 24.0019 26.1095 24.0019Z" fill="#F3771E"/>
<path d="M32.8527 9.62732C31.4528 9.62732 30.3198 10.7603 30.3198 12.1602C30.3198 13.56 31.4528 14.6985 32.8527 14.6985C34.2525 14.6985 35.391 13.56 35.391 12.1602C35.391 10.7603 34.2525 9.62732 32.8527 9.62732ZM32.8527 13.0045C32.3842 13.0045 32.0084 12.6286 32.0084 12.1602C32.0084 11.6917 32.3842 11.3159 32.8527 11.3159C33.3211 11.3159 33.697 11.6972 33.697 12.1602C33.697 12.6232 33.3211 13.0045 32.8527 13.0045Z" fill="#F3771E"/>
<path d="M39.6181 16.3925C38.2182 16.3925 37.0852 17.5254 37.0852 18.9308C37.0852 20.3361 38.2182 21.4636 39.6181 21.4636C41.0179 21.4636 42.1563 20.3306 42.1563 18.9308C42.1563 17.5309 41.0234 16.3925 39.6181 16.3925ZM39.6181 19.775C39.1551 19.775 38.7738 19.3937 38.7738 18.9308C38.7738 18.4678 39.1551 18.0865 39.6181 18.0865C40.081 18.0865 40.4623 18.4623 40.4623 18.9308C40.4623 19.3992 40.0865 19.775 39.6181 19.775Z" fill="#F3771E"/>
<path d="M46.3886 4.55066C44.9888 4.55066 43.8503 5.68363 43.8503 7.08896C43.8503 8.49428 44.9888 9.62181 46.3886 9.62181C47.7885 9.62181 48.9215 8.48883 48.9215 7.08896C48.9215 5.68908 47.7885 4.55066 46.3886 4.55066ZM46.3886 7.93324C45.9202 7.93324 45.5444 7.55195 45.5444 7.08896C45.5444 6.62596 45.9202 6.24467 46.3886 6.24467C46.8571 6.24467 47.2329 6.62051 47.2329 7.08896C47.2329 7.5574 46.8516 7.93324 46.3886 7.93324Z" fill="#F3771E"/>
</g>
<path d="M88.5419 44H86.2346V36.8727H88.615C89.3133 36.8727 89.9131 37.0154 90.4142 37.3008C90.9153 37.5838 91.2993 37.991 91.5661 38.5223C91.8352 39.0513 91.9698 39.6858 91.9698 40.4259C91.9698 41.1683 91.8341 41.8064 91.5626 42.34C91.2935 42.8736 90.9037 43.2843 90.3933 43.5719C89.8829 43.8573 89.2658 44 88.5419 44ZM87.3099 43.0604H88.4827C89.0256 43.0604 89.4769 42.9583 89.8365 42.7541C90.1961 42.5476 90.4652 42.2495 90.6439 41.8597C90.8225 41.4676 90.9119 40.9897 90.9119 40.4259C90.9119 39.8668 90.8225 39.3923 90.6439 39.0026C90.4676 38.6128 90.2042 38.317 89.8539 38.1151C89.5036 37.9133 89.0686 37.8124 88.5489 37.8124H87.3099V43.0604ZM96.6097 41.7832V38.6545H97.6537V44H96.6306V43.0743H96.5749C96.4519 43.3597 96.2547 43.5975 95.9833 43.7877C95.7141 43.9756 95.3789 44.0696 94.9775 44.0696C94.6341 44.0696 94.3302 43.9942 94.0657 43.8434C93.8035 43.6903 93.5971 43.4641 93.4463 43.1648C93.2978 42.8655 93.2235 42.4954 93.2235 42.0546V38.6545H94.2641V41.9293C94.2641 42.2936 94.365 42.5836 94.5668 42.7994C94.7687 43.0151 95.0309 43.123 95.3534 43.123C95.5482 43.123 95.742 43.0743 95.9345 42.9768C96.1294 42.8794 96.2907 42.7321 96.4183 42.5349C96.5482 42.3377 96.612 42.0871 96.6097 41.7832ZM101.547 38.6545V39.4898H98.6273V38.6545H101.547ZM99.4103 37.3739H100.451V42.4305C100.451 42.6323 100.481 42.7843 100.541 42.8864C100.602 42.9861 100.679 43.0546 100.775 43.0917C100.872 43.1265 100.978 43.1439 101.091 43.1439C101.175 43.1439 101.248 43.1381 101.31 43.1265C101.373 43.1149 101.422 43.1056 101.457 43.0987L101.645 43.9582C101.584 43.9814 101.498 44.0046 101.387 44.0278C101.276 44.0534 101.136 44.0673 100.969 44.0696C100.696 44.0742 100.44 44.0255 100.204 43.9234C99.9671 43.8214 99.7757 43.6636 99.6295 43.4501C99.4834 43.2367 99.4103 42.9687 99.4103 42.6462V37.3739ZM103.356 46.0045C103.2 46.0045 103.059 45.9918 102.931 45.9663C102.804 45.9431 102.709 45.9175 102.646 45.8897L102.897 45.0371C103.087 45.0881 103.256 45.1102 103.405 45.1032C103.553 45.0962 103.684 45.0406 103.798 44.9362C103.914 44.8317 104.016 44.6612 104.104 44.4246L104.233 44.0696L102.277 38.6545H103.391L104.744 42.8028H104.8L106.154 38.6545H107.271L105.068 44.7134C104.966 44.9918 104.836 45.2273 104.678 45.4199C104.521 45.6148 104.333 45.7609 104.115 45.8584C103.896 45.9558 103.644 46.0045 103.356 46.0045ZM112.917 44.1009C112.439 44.1009 112.027 44.0139 111.681 43.8399C111.338 43.6659 111.073 43.4293 110.888 43.13C110.702 42.8284 110.609 42.4873 110.609 42.1068C110.609 41.8168 110.67 41.5593 110.79 41.3342C110.911 41.1069 111.079 40.8969 111.295 40.7043C111.511 40.5118 111.76 40.318 112.043 40.1232L113.192 39.3123C113.386 39.1847 113.538 39.0501 113.647 38.9086C113.756 38.7647 113.811 38.5873 113.811 38.3761C113.811 38.2091 113.739 38.049 113.595 37.8959C113.451 37.7428 113.259 37.6662 113.018 37.6662C112.85 37.6662 112.703 37.7068 112.576 37.788C112.45 37.8692 112.352 37.9736 112.28 38.1012C112.21 38.2265 112.175 38.3587 112.175 38.4979C112.175 38.6603 112.219 38.8239 112.308 38.9886C112.398 39.1534 112.514 39.3239 112.656 39.5002C112.797 39.6742 112.946 39.8552 113.101 40.0431L116.411 44H115.234L112.496 40.7809C112.266 40.5094 112.052 40.2542 111.855 40.0153C111.658 39.774 111.498 39.5304 111.375 39.2844C111.254 39.0362 111.194 38.7682 111.194 38.4805C111.194 38.1534 111.268 37.8634 111.417 37.6105C111.567 37.3553 111.777 37.1558 112.047 37.0119C112.316 36.8681 112.631 36.7962 112.993 36.7962C113.36 36.7962 113.674 36.8681 113.936 37.0119C114.201 37.1535 114.404 37.3425 114.545 37.5792C114.689 37.8135 114.761 38.0699 114.761 38.3483C114.761 38.687 114.676 38.9863 114.507 39.2462C114.34 39.5037 114.109 39.7403 113.814 39.9561L112.384 41.0106C112.106 41.2147 111.912 41.4166 111.803 41.6161C111.696 41.8133 111.643 41.9676 111.643 42.079C111.643 42.2831 111.695 42.4722 111.8 42.6462C111.906 42.8202 112.055 42.9594 112.245 43.0638C112.438 43.1683 112.663 43.2205 112.92 43.2205C113.185 43.2205 113.442 43.1636 113.693 43.0499C113.946 42.9339 114.174 42.768 114.378 42.5523C114.585 42.3365 114.748 42.0778 114.869 41.7762C114.99 41.4746 115.05 41.137 115.05 40.7635H115.99C115.99 41.2229 115.937 41.6115 115.833 41.9293C115.729 42.2449 115.602 42.5024 115.454 42.7019C115.307 42.8991 115.169 43.0534 115.039 43.1648C114.998 43.2019 114.958 43.239 114.921 43.2761C114.884 43.3133 114.845 43.3504 114.803 43.3875C114.562 43.6311 114.269 43.8109 113.926 43.9269C113.585 44.0429 113.248 44.1009 112.917 44.1009ZM119.551 37.7984V36.8727H125.067V37.7984H122.844V44H121.772V37.7984H119.551ZM127.031 44.1183C126.692 44.1183 126.386 44.0557 126.112 43.9304C125.839 43.8028 125.622 43.6183 125.462 43.3771C125.304 43.1358 125.225 42.84 125.225 42.4896C125.225 42.188 125.283 41.9398 125.399 41.7449C125.515 41.55 125.672 41.3957 125.869 41.282C126.066 41.1683 126.286 41.0825 126.53 41.0245C126.774 40.9665 127.022 40.9224 127.275 40.8923C127.595 40.8551 127.855 40.825 128.054 40.8018C128.254 40.7763 128.399 40.7357 128.489 40.68C128.58 40.6243 128.625 40.5338 128.625 40.4085V40.3842C128.625 40.0802 128.539 39.8447 128.367 39.6777C128.198 39.5107 127.945 39.4271 127.609 39.4271C127.258 39.4271 126.982 39.5049 126.781 39.6603C126.581 39.8134 126.443 39.9839 126.366 40.1719L125.388 39.9491C125.504 39.6243 125.674 39.3622 125.897 39.1626C126.122 38.9608 126.38 38.8146 126.673 38.7241C126.965 38.6313 127.272 38.5849 127.595 38.5849C127.808 38.5849 128.035 38.6105 128.273 38.6615C128.515 38.7102 128.74 38.8007 128.949 38.933C129.16 39.0652 129.333 39.2543 129.467 39.5002C129.602 39.7438 129.669 40.0605 129.669 40.4503V44H128.653V43.2692H128.611C128.544 43.4037 128.443 43.536 128.308 43.6659C128.174 43.7958 128.001 43.9037 127.79 43.9896C127.579 44.0754 127.326 44.1183 127.031 44.1183ZM127.257 43.2831C127.545 43.2831 127.791 43.2263 127.995 43.1126C128.202 42.9989 128.358 42.8504 128.465 42.6671C128.574 42.4815 128.628 42.2831 128.628 42.072V41.383C128.591 41.4201 128.519 41.4549 128.413 41.4874C128.308 41.5175 128.189 41.5442 128.054 41.5674C127.92 41.5883 127.789 41.608 127.661 41.6266C127.533 41.6428 127.427 41.6567 127.341 41.6683C127.139 41.6938 126.955 41.7368 126.787 41.7971C126.623 41.8574 126.491 41.9444 126.391 42.0581C126.293 42.1695 126.245 42.3179 126.245 42.5036C126.245 42.7611 126.34 42.956 126.53 43.0882C126.72 43.2181 126.963 43.2831 127.257 43.2831ZM131.876 38.6545L133.056 40.7357L134.246 38.6545H135.384L133.717 41.3273L135.398 44H134.26L133.056 42.0024L131.855 44H130.714L132.377 41.3273L130.735 38.6545H131.876ZM138.546 44.1079C138.019 44.1079 137.566 43.9954 137.185 43.7703C136.807 43.5429 136.515 43.2239 136.308 42.8133C136.104 42.4003 136.002 41.9166 136.002 41.3621C136.002 40.8145 136.104 40.332 136.308 39.9143C136.515 39.4967 136.802 39.1708 137.171 38.9364C137.542 38.7021 137.976 38.5849 138.473 38.5849C138.774 38.5849 139.067 38.6348 139.35 38.7346C139.633 38.8344 139.887 38.991 140.112 39.2044C140.337 39.4179 140.514 39.6951 140.644 40.0362C140.774 40.3749 140.839 40.7867 140.839 41.2716V41.6405H136.59V40.8609H139.82C139.82 40.5872 139.764 40.3447 139.653 40.1336C139.541 39.9201 139.385 39.7519 139.183 39.629C138.983 39.506 138.749 39.4445 138.48 39.4445C138.187 39.4445 137.932 39.5165 137.714 39.6603C137.498 39.8018 137.331 39.9874 137.213 40.2171C137.097 40.4445 137.039 40.6916 137.039 40.9584V41.5674C137.039 41.9247 137.102 42.2286 137.227 42.4792C137.355 42.7298 137.532 42.9212 137.759 43.0534C137.987 43.1833 138.252 43.2483 138.556 43.2483C138.754 43.2483 138.933 43.2205 139.096 43.1648C139.258 43.1068 139.399 43.0209 139.517 42.9072C139.635 42.7936 139.726 42.6532 139.788 42.4862L140.773 42.6636C140.694 42.9536 140.553 43.2077 140.349 43.4258C140.147 43.6415 139.893 43.8098 139.586 43.9304C139.283 44.0487 138.936 44.1079 138.546 44.1079ZM145.999 39.9596L145.056 40.1266C145.017 40.006 144.954 39.8911 144.868 39.7821C144.785 39.6731 144.671 39.5837 144.527 39.5141C144.384 39.4445 144.204 39.4097 143.988 39.4097C143.693 39.4097 143.447 39.4759 143.25 39.6081C143.053 39.738 142.954 39.9062 142.954 40.1127C142.954 40.2914 143.02 40.4352 143.153 40.5442C143.285 40.6533 143.498 40.7426 143.793 40.8122L144.642 41.0071C145.134 41.1208 145.501 41.296 145.742 41.5326C145.983 41.7692 146.104 42.0767 146.104 42.4548C146.104 42.775 146.011 43.0604 145.825 43.3109C145.642 43.5592 145.386 43.7541 145.056 43.8956C144.729 44.0371 144.35 44.1079 143.918 44.1079C143.32 44.1079 142.831 43.9803 142.453 43.7251C142.075 43.4675 141.843 43.1021 141.757 42.6288L142.763 42.4757C142.826 42.7379 142.954 42.9362 143.149 43.0708C143.344 43.2031 143.598 43.2692 143.911 43.2692C144.252 43.2692 144.525 43.1984 144.729 43.0569C144.933 42.913 145.035 42.7379 145.035 42.5314C145.035 42.3643 144.973 42.224 144.848 42.1103C144.725 41.9966 144.535 41.9108 144.28 41.8528L143.375 41.6544C142.877 41.5407 142.508 41.3598 142.269 41.1115C142.032 40.8633 141.914 40.5489 141.914 40.1684C141.914 39.8529 142.002 39.5768 142.178 39.3401C142.355 39.1035 142.598 38.919 142.909 38.7868C143.22 38.6522 143.576 38.5849 143.978 38.5849C144.555 38.5849 145.01 38.7102 145.342 38.9608C145.673 39.209 145.893 39.542 145.999 39.9596Z" fill="black"/>
<path d="M171.194 36.8727H172.499L174.769 42.4131H174.852L177.121 36.8727H178.426V44H177.403V38.8425H177.337L175.235 43.9896H174.386L172.284 38.839H172.218V44H171.194V36.8727ZM179.638 37.7984V36.8727H185.154V37.7984H182.93V44H181.858V37.7984H179.638ZM188.68 44H186.373V36.8727H188.753C189.452 36.8727 190.051 37.0154 190.553 37.3008C191.054 37.5838 191.438 37.991 191.705 38.5223C191.974 39.0513 192.108 39.6858 192.108 40.4259C192.108 41.1683 191.972 41.8064 191.701 42.34C191.432 42.8736 191.042 43.2843 190.532 43.5719C190.021 43.8573 189.404 44 188.68 44ZM187.448 43.0604H188.621C189.164 43.0604 189.615 42.9583 189.975 42.7541C190.334 42.5476 190.604 42.2495 190.782 41.8597C190.961 41.4676 191.05 40.9897 191.05 40.4259C191.05 39.8668 190.961 39.3923 190.782 39.0026C190.606 38.6128 190.343 38.317 189.992 38.1151C189.642 37.9133 189.207 37.8124 188.687 37.8124H187.448V43.0604ZM199.926 38.745C199.889 38.4156 199.736 38.1604 199.467 37.9794C199.198 37.7961 198.859 37.7045 198.451 37.7045C198.158 37.7045 197.905 37.7509 197.692 37.8437C197.479 37.9342 197.313 38.0594 197.194 38.2195C197.078 38.3773 197.02 38.5571 197.02 38.7589C197.02 38.9283 197.06 39.0745 197.139 39.1974C197.22 39.3204 197.325 39.4237 197.455 39.5072C197.588 39.5884 197.729 39.6568 197.88 39.7125C198.031 39.7659 198.176 39.8099 198.315 39.8447L199.011 40.0257C199.238 40.0814 199.472 40.1568 199.711 40.2519C199.949 40.347 200.171 40.4723 200.375 40.6278C200.579 40.7832 200.744 40.9758 200.869 41.2055C200.997 41.4352 201.061 41.7101 201.061 42.0303C201.061 42.4339 200.956 42.7924 200.748 43.1056C200.541 43.4188 200.241 43.6659 199.846 43.8469C199.454 44.0278 198.98 44.1183 198.423 44.1183C197.889 44.1183 197.428 44.0336 197.038 43.8643C196.648 43.6949 196.343 43.4548 196.123 43.1439C195.902 42.8307 195.78 42.4595 195.757 42.0303H196.836C196.857 42.2878 196.94 42.5024 197.086 42.6741C197.235 42.8434 197.424 42.9699 197.654 43.0534C197.886 43.1346 198.14 43.1752 198.416 43.1752C198.72 43.1752 198.99 43.1277 199.227 43.0325C199.466 42.9351 199.654 42.8005 199.791 42.6288C199.927 42.4548 199.996 42.2518 199.996 42.0198C199.996 41.8087 199.936 41.6358 199.815 41.5013C199.697 41.3667 199.535 41.2554 199.331 41.1672C199.129 41.079 198.901 41.0013 198.646 40.934L197.803 40.7043C197.233 40.5489 196.78 40.3204 196.446 40.0187C196.114 39.7171 195.948 39.3181 195.948 38.8216C195.948 38.4109 196.06 38.0525 196.283 37.7462C196.505 37.44 196.807 37.2022 197.187 37.0328C197.568 36.8611 197.997 36.7753 198.475 36.7753C198.958 36.7753 199.383 36.86 199.752 37.0293C200.123 37.1987 200.416 37.4319 200.629 37.7288C200.843 38.0235 200.954 38.3622 200.963 38.745H199.926ZM203.818 44.1183C203.479 44.1183 203.173 44.0557 202.899 43.9304C202.625 43.8028 202.408 43.6183 202.248 43.3771C202.091 43.1358 202.012 42.84 202.012 42.4896C202.012 42.188 202.07 41.9398 202.186 41.7449C202.302 41.55 202.458 41.3957 202.656 41.282C202.853 41.1683 203.073 41.0825 203.317 41.0245C203.56 40.9665 203.809 40.9224 204.062 40.8923C204.382 40.8551 204.642 40.825 204.841 40.8018C205.041 40.7763 205.186 40.7357 205.276 40.68C205.367 40.6243 205.412 40.5338 205.412 40.4085V40.3842C205.412 40.0802 205.326 39.8447 205.154 39.6777C204.985 39.5107 204.732 39.4271 204.396 39.4271C204.045 39.4271 203.769 39.5049 203.567 39.6603C203.368 39.8134 203.23 39.9839 203.153 40.1719L202.175 39.9491C202.291 39.6243 202.461 39.3622 202.683 39.1626C202.908 38.9608 203.167 38.8146 203.459 38.7241C203.752 38.6313 204.059 38.5849 204.382 38.5849C204.595 38.5849 204.821 38.6105 205.06 38.6615C205.302 38.7102 205.527 38.8007 205.735 38.933C205.947 39.0652 206.119 39.2543 206.254 39.5002C206.389 39.7438 206.456 40.0605 206.456 40.4503V44H205.44V43.2692H205.398C205.331 43.4037 205.23 43.536 205.095 43.6659C204.961 43.7958 204.788 43.9037 204.577 43.9896C204.365 44.0754 204.113 44.1183 203.818 44.1183ZM204.044 43.2831C204.332 43.2831 204.578 43.2263 204.782 43.1126C204.988 42.9989 205.145 42.8504 205.252 42.6671C205.361 42.4815 205.415 42.2831 205.415 42.072V41.383C205.378 41.4201 205.306 41.4549 205.2 41.4874C205.095 41.5175 204.976 41.5442 204.841 41.5674C204.706 41.5883 204.575 41.608 204.448 41.6266C204.32 41.6428 204.213 41.6567 204.128 41.6683C203.926 41.6938 203.741 41.7368 203.574 41.7971C203.41 41.8574 203.277 41.9444 203.178 42.0581C203.08 42.1695 203.031 42.3179 203.031 42.5036C203.031 42.7611 203.127 42.956 203.317 43.0882C203.507 43.2181 203.749 43.2831 204.044 43.2831ZM208.882 36.8727V44H207.842V36.8727H208.882ZM212.586 44.1079C212.059 44.1079 211.606 43.9954 211.225 43.7703C210.847 43.5429 210.555 43.2239 210.348 42.8133C210.144 42.4003 210.042 41.9166 210.042 41.3621C210.042 40.8145 210.144 40.332 210.348 39.9143C210.555 39.4967 210.843 39.1708 211.211 38.9364C211.583 38.7021 212.016 38.5849 212.513 38.5849C212.815 38.5849 213.107 38.6348 213.39 38.7346C213.673 38.8344 213.927 38.991 214.152 39.2044C214.377 39.4179 214.555 39.6951 214.685 40.0362C214.814 40.3749 214.879 40.7867 214.879 41.2716V41.6405H210.63V40.8609H213.86C213.86 40.5872 213.804 40.3447 213.693 40.1336C213.581 39.9201 213.425 39.7519 213.223 39.629C213.023 39.506 212.789 39.4445 212.52 39.4445C212.228 39.4445 211.972 39.5165 211.754 39.6603C211.539 39.8018 211.371 39.9874 211.253 40.2171C211.137 40.4445 211.079 40.6916 211.079 40.9584V41.5674C211.079 41.9247 211.142 42.2286 211.267 42.4792C211.395 42.7298 211.572 42.9212 211.8 43.0534C212.027 43.1833 212.293 43.2483 212.596 43.2483C212.794 43.2483 212.974 43.2205 213.136 43.1648C213.298 43.1068 213.439 43.0209 213.557 42.9072C213.675 42.7936 213.766 42.6532 213.828 42.4862L214.813 42.6636C214.734 42.9536 214.593 43.2077 214.389 43.4258C214.187 43.6415 213.933 43.8098 213.627 43.9304C213.323 44.0487 212.976 44.1079 212.586 44.1079ZM220.04 39.9596L219.096 40.1266C219.057 40.006 218.994 39.8911 218.909 39.7821C218.825 39.6731 218.711 39.5837 218.567 39.5141C218.424 39.4445 218.244 39.4097 218.028 39.4097C217.733 39.4097 217.488 39.4759 217.29 39.6081C217.093 39.738 216.994 39.9062 216.994 40.1127C216.994 40.2914 217.061 40.4352 217.193 40.5442C217.325 40.6533 217.539 40.7426 217.833 40.8122L218.682 41.0071C219.174 41.1208 219.541 41.296 219.782 41.5326C220.023 41.7692 220.144 42.0767 220.144 42.4548C220.144 42.775 220.051 43.0604 219.866 43.3109C219.682 43.5592 219.426 43.7541 219.096 43.8956C218.769 44.0371 218.39 44.1079 217.958 44.1079C217.36 44.1079 216.872 43.9803 216.493 43.7251C216.115 43.4675 215.883 43.1021 215.797 42.6288L216.803 42.4757C216.866 42.7379 216.994 42.9362 217.189 43.0708C217.384 43.2031 217.638 43.2692 217.952 43.2692C218.293 43.2692 218.565 43.1984 218.769 43.0569C218.974 42.913 219.076 42.7379 219.076 42.5314C219.076 42.3643 219.013 42.224 218.888 42.1103C218.765 41.9966 218.576 41.9108 218.32 41.8528L217.416 41.6544C216.917 41.5407 216.548 41.3598 216.309 41.1115C216.072 40.8633 215.954 40.5489 215.954 40.1684C215.954 39.8529 216.042 39.5768 216.218 39.3401C216.395 39.1035 216.638 38.919 216.949 38.7868C217.26 38.6522 217.616 38.5849 218.018 38.5849C218.595 38.5849 219.05 38.7102 219.382 38.9608C219.714 39.209 219.933 39.542 220.04 39.9596Z" fill="black"/>
<path d="M187.972 25.655C188.338 25.9257 188.807 26.061 189.377 26.061C189.753 26.061 190.078 25.9933 190.352 25.858C190.63 25.7227 190.841 25.5383 190.985 25.305C191.134 25.0717 191.208 24.808 191.208 24.514C191.208 24.2247 191.134 23.9867 190.985 23.8C190.848 23.6141 190.669 23.463 190.463 23.359C190.217 23.2317 189.961 23.1241 189.698 23.037C189.538 22.9814 189.38 22.9207 189.224 22.855C189.126 22.8093 189.035 22.7505 188.953 22.68C188.92 22.6485 188.893 22.6105 188.876 22.5684C188.858 22.5262 188.848 22.4808 188.849 22.435C188.849 22.323 188.881 22.2367 188.946 22.176C189.015 22.114 189.104 22.0813 189.197 22.085C189.262 22.0821 189.327 22.0927 189.388 22.1162C189.448 22.1397 189.504 22.1755 189.55 22.2215L189.606 22.281C189.719 22.4035 189.838 22.533 190 22.533H190.78C190.979 22.533 191.142 22.3638 191.093 22.1702C191.02 21.8654 190.844 21.5955 190.595 21.406C190.257 21.1353 189.802 21 189.231 21C188.879 21 188.563 21.0583 188.285 21.175C188.006 21.2917 187.788 21.4643 187.631 21.693C187.468 21.9317 187.386 22.216 187.394 22.505C187.394 22.8177 187.466 23.072 187.61 23.268C187.758 23.4593 187.93 23.6063 188.125 23.709C188.324 23.807 188.584 23.9097 188.904 24.017C189.206 24.115 189.424 24.2037 189.558 24.283C189.62 24.3144 189.671 24.3626 189.707 24.422C189.743 24.4813 189.761 24.5496 189.76 24.619C189.762 24.6702 189.752 24.7211 189.73 24.7674C189.708 24.8137 189.676 24.8541 189.635 24.885C189.546 24.9488 189.438 24.9809 189.329 24.976C189.204 24.9812 189.082 24.9387 188.988 24.857C188.964 24.8356 188.944 24.8113 188.926 24.7847C188.825 24.633 188.694 24.479 188.513 24.479H187.748C187.548 24.479 187.385 24.6493 187.434 24.8442C187.519 25.179 187.698 25.4497 187.972 25.655Z" fill="#F3771E"/>
<path fill-rule="evenodd" clip-rule="evenodd" d="M194.862 25.207C194.886 25.207 194.91 25.2148 194.93 25.2293C194.95 25.2438 194.965 25.2641 194.972 25.2875L195.132 25.7717C195.155 25.8415 195.199 25.9022 195.258 25.9453C195.317 25.9885 195.389 26.0118 195.462 26.012H196.155C196.211 26.012 196.266 25.9984 196.316 25.9725C196.365 25.9466 196.408 25.909 196.44 25.863C196.472 25.817 196.493 25.7639 196.5 25.7082C196.507 25.6525 196.501 25.5959 196.482 25.543L194.952 21.308C194.928 21.2404 194.884 21.1819 194.825 21.1406C194.767 21.0992 194.697 21.0771 194.625 21.077H193.541C193.469 21.077 193.4 21.099 193.341 21.1401C193.283 21.1812 193.238 21.2394 193.214 21.3069L191.679 25.5419C191.66 25.5947 191.653 25.6514 191.661 25.7071C191.668 25.7629 191.688 25.8161 191.72 25.8622C191.752 25.9083 191.795 25.946 191.844 25.9721C191.894 25.9982 191.949 26.0119 192.005 26.012H192.689C192.763 26.0123 192.834 25.9892 192.894 25.946C192.953 25.9029 192.998 25.8418 193.021 25.7717L193.18 25.2875C193.187 25.2641 193.202 25.2438 193.222 25.2293C193.242 25.2148 193.266 25.207 193.29 25.207H194.862ZM194.555 24.003C194.56 24.0206 194.562 24.0393 194.559 24.0577C194.557 24.076 194.55 24.0935 194.539 24.1085C194.528 24.1236 194.514 24.1358 194.497 24.1443C194.481 24.1527 194.463 24.1571 194.444 24.157H193.714C193.695 24.1568 193.677 24.1523 193.661 24.1439C193.645 24.1354 193.631 24.1233 193.621 24.1084C193.61 24.0935 193.603 24.0763 193.6 24.0582C193.597 24.0401 193.599 24.0216 193.604 24.0042L193.966 22.8959C193.974 22.8725 193.989 22.8522 194.009 22.8378C194.028 22.8234 194.052 22.8156 194.077 22.8156C194.101 22.8156 194.125 22.8234 194.145 22.8378C194.164 22.8522 194.179 22.8725 194.187 22.8959L194.555 24.003Z" fill="#F3771E"/>
<path d="M198.46 24.612C198.46 24.658 198.469 24.7035 198.487 24.746C198.504 24.7884 198.53 24.827 198.562 24.8595C198.595 24.892 198.633 24.9178 198.675 24.9354C198.717 24.953 198.763 24.962 198.808 24.962H199.637C199.729 24.962 199.817 24.9989 199.883 25.0645C199.948 25.1302 199.985 25.2192 199.985 25.312V25.662C199.985 25.7549 199.948 25.8439 199.883 25.9095C199.817 25.9752 199.729 26.012 199.637 26.012H197.444C197.352 26.012 197.263 25.9752 197.198 25.9095C197.133 25.8439 197.096 25.7549 197.096 25.662V21.427C197.096 21.3342 197.133 21.2452 197.198 21.1795C197.263 21.1139 197.352 21.077 197.444 21.077H198.112C198.205 21.077 198.293 21.1139 198.358 21.1795C198.424 21.2452 198.46 21.3342 198.46 21.427V24.612ZM201.879 22.4094C201.879 22.281 201.983 22.176 202.111 22.176H203.306C203.398 22.176 203.486 22.1392 203.552 22.0735C203.617 22.0079 203.654 21.9189 203.654 21.826V21.427C203.654 21.3342 203.617 21.2452 203.552 21.1795C203.486 21.1139 203.398 21.077 203.306 21.077H200.863C200.77 21.077 200.682 21.1139 200.617 21.1795C200.551 21.2452 200.515 21.3342 200.515 21.427V25.662C200.515 25.7549 200.551 25.8439 200.617 25.9095C200.682 25.9752 200.77 26.012 200.863 26.012H203.306C203.398 26.012 203.486 25.9752 203.552 25.9095C203.617 25.8439 203.654 25.7549 203.654 25.662V25.263C203.654 25.1702 203.617 25.0812 203.552 25.0155C203.486 24.9499 203.398 24.913 203.306 24.913H202.112C202.051 24.913 201.991 24.8884 201.948 24.8447C201.904 24.8009 201.88 24.7416 201.88 24.6797V24.2574C201.88 24.129 201.984 24.024 202.112 24.024H203.098C203.144 24.024 203.189 24.015 203.231 23.9974C203.273 23.9798 203.312 23.954 203.344 23.9215C203.376 23.889 203.402 23.8504 203.42 23.808C203.437 23.7655 203.446 23.72 203.446 23.674V23.331C203.446 23.2851 203.437 23.2396 203.42 23.1971C203.402 23.1546 203.376 23.116 203.344 23.0835C203.312 23.051 203.273 23.0253 203.231 23.0077C203.189 22.9901 203.144 22.981 203.098 22.981H202.112C202.051 22.981 201.991 22.9564 201.948 22.9127C201.904 22.8689 201.88 22.8096 201.88 22.7477L201.879 22.4094Z" fill="#F3771E"/>
<path fill-rule="evenodd" clip-rule="evenodd" d="M192.638 11.5651C191.145 12.6912 190.039 14.2577 189.473 16.0463C188.842 16.0455 188.212 16.0759 187.584 16.1373C186.71 16.2365 185.957 16.4476 185.312 16.9458C185.01 17.1791 184.74 17.4498 184.509 17.7531C184.014 18.4018 183.804 19.159 183.705 20.0398C183.61 20.8903 183.61 21.9566 183.61 23.2808V23.3858C183.61 24.71 183.61 25.7775 183.705 26.628C183.804 27.5076 184.014 28.2648 184.509 28.9135C184.741 29.2168 185.01 29.4886 185.312 29.7208C185.957 30.219 186.71 30.4301 187.585 30.5293C188.431 30.625 189.491 30.625 190.808 30.625H200.192C201.509 30.625 202.57 30.625 203.416 30.5293C204.291 30.4301 205.043 30.219 205.688 29.7208C205.99 29.4875 206.26 29.2168 206.491 28.9135C206.986 28.2648 207.196 27.5076 207.295 26.6268C207.39 25.7763 207.39 24.71 207.39 23.3858V23.2808C207.39 21.9566 207.39 20.8891 207.295 20.0386C207.196 19.159 206.986 18.4018 206.491 17.7531C206.26 17.4499 205.99 17.1785 205.688 16.9458C205.043 16.4476 204.291 16.2365 203.415 16.1373C202.788 16.0759 202.158 16.0456 201.527 16.0463C200.961 14.2577 199.855 12.6912 198.362 11.5651C197.536 10.9424 196.532 10.6058 195.5 10.6058C194.468 10.6058 193.464 10.9424 192.638 11.5651ZM197.318 12.9651C196.793 12.5696 196.156 12.3558 195.5 12.3558C194.845 12.3558 194.207 12.5696 193.682 12.9651C192.633 13.7565 191.818 14.82 191.324 16.0416H199.676C199.182 14.82 198.367 13.7566 197.318 12.9651ZM188.856 18.4543L189.018 17.8045C188.539 17.8161 188.133 17.836 187.779 17.8768C187.06 17.9585 186.663 18.109 186.371 18.3341C186.19 18.4741 186.029 18.6375 185.89 18.8183C185.666 19.1123 185.516 19.5113 185.435 20.2346C185.35 20.9766 185.35 21.945 185.35 23.3333C185.35 24.7216 185.351 25.69 185.435 26.432C185.516 27.1553 185.666 27.5543 185.89 27.8483C186.029 28.0303 186.191 28.1925 186.371 28.3325C186.663 28.5576 187.06 28.7081 187.779 28.7898C188.517 28.8738 189.48 28.875 190.86 28.875H200.14C201.521 28.875 202.483 28.8738 203.221 28.7898C203.94 28.7081 204.337 28.5576 204.629 28.3325C204.81 28.1925 204.972 28.0291 205.111 27.8483C205.335 27.5543 205.484 27.1553 205.565 26.432C205.649 25.69 205.65 24.7216 205.65 23.3333C205.65 21.945 205.649 20.9766 205.565 20.2346C205.484 19.5113 205.335 19.1123 205.111 18.8183C204.972 18.6365 204.81 18.4737 204.629 18.3341C204.337 18.109 203.94 17.9585 203.221 17.8768C202.809 17.8345 202.396 17.8104 201.982 17.8045L202.145 18.4543C202.201 18.6796 202.165 18.918 202.047 19.1171C201.928 19.3162 201.735 19.4596 201.511 19.516C201.287 19.5723 201.05 19.5368 200.852 19.4173C200.654 19.2979 200.512 19.1042 200.456 18.879L200.185 17.7916H190.815L190.545 18.879C190.489 19.1042 190.346 19.2979 190.148 19.4173C189.95 19.5368 189.713 19.5723 189.489 19.516C189.265 19.4596 189.072 19.3162 188.954 19.1171C188.835 18.918 188.8 18.6796 188.856 18.4543Z" fill="#7738CF"/>
<path d="M123.53 24.53L120.53 27.53C120.389 27.6705 120.199 27.7493 120 27.7493C119.801 27.7493 119.611 27.6705 119.47 27.53C119.33 27.3894 119.251 27.1988 119.251 27C119.251 26.8012 119.33 26.6106 119.47 26.47L122.47 23.47C122.612 23.3375 122.8 23.2654 122.995 23.2688C123.189 23.2723 123.374 23.351 123.512 23.4884C123.649 23.6258 123.728 23.8112 123.731 24.0055C123.735 24.1998 123.662 24.3878 123.53 24.53Z" fill="#F3771E"/>
<path d="M123.77 27C123.77 27.1989 123.691 27.3897 123.55 27.5303C123.41 27.671 123.219 27.75 123.02 27.75C122.821 27.75 122.63 27.671 122.49 27.5303C122.349 27.3897 122.27 27.1989 122.27 27C122.27 26.8028 122.348 26.6135 122.486 26.4732C122.625 26.3328 122.813 26.2526 123.01 26.25C123.21 26.25 123.402 26.3287 123.544 26.4691C123.686 26.6094 123.767 26.8002 123.77 27Z" fill="#F3771E"/>
<path fill-rule="evenodd" clip-rule="evenodd" d="M118 20.75H112C111.537 20.7474 111.093 20.5622 110.765 20.2345C110.438 19.9069 110.253 19.4633 110.25 19V16C110.253 15.5367 110.438 15.0931 110.765 14.7655C111.093 14.4378 111.537 14.2526 112 14.25H118C118.463 14.2526 118.907 14.4378 119.235 14.7655C119.562 15.0931 119.747 15.5367 119.75 16V19C119.747 19.4633 119.562 19.9069 119.235 20.2345C118.907 20.5622 118.463 20.7474 118 20.75ZM111.823 15.8232C111.776 15.8701 111.75 15.9337 111.75 16V19C111.75 19.0663 111.776 19.1299 111.823 19.1768C111.87 19.2237 111.934 19.25 112 19.25H118C118.066 19.25 118.13 19.2237 118.177 19.1768C118.224 19.1299 118.25 19.0663 118.25 19V16C118.25 15.9337 118.224 15.8701 118.177 15.8232C118.13 15.7763 118.066 15.75 118 15.75H112C111.934 15.75 111.87 15.7763 111.823 15.8232ZM122.75 13V20.42C123.995 20.7245 125.085 21.4746 125.814 22.5285C126.544 23.5825 126.861 24.8671 126.707 26.1395C126.553 27.4118 125.938 28.5836 124.979 29.4332C124.019 30.2828 122.782 30.7513 121.5 30.75H109C108.537 30.7474 108.093 30.5622 107.765 30.2345C107.438 29.9069 107.253 29.4633 107.25 29V13C107.253 12.5367 107.438 12.0931 107.765 11.7655C108.093 11.4378 108.537 11.2526 109 11.25H121C121.463 11.2526 121.907 11.4378 122.235 11.7655C122.562 12.0931 122.747 12.5367 122.75 13ZM108.823 29.1768C108.87 29.2237 108.934 29.25 109 29.25L117.84 29.28C117.399 28.8481 117.04 28.3399 116.78 27.78H111C110.801 27.78 110.61 27.701 110.47 27.5603C110.329 27.4197 110.25 27.2289 110.25 27.03C110.25 26.8311 110.329 26.6403 110.47 26.4997C110.61 26.359 110.801 26.28 111 26.28H116.33C116.283 26.0326 116.256 25.7818 116.25 25.53C116.256 25.2782 116.283 25.0274 116.33 24.78H111C110.801 24.78 110.61 24.701 110.47 24.5603C110.329 24.4197 110.25 24.2289 110.25 24.03C110.25 23.8311 110.329 23.6403 110.47 23.4997C110.61 23.359 110.801 23.28 111 23.28H116.78C117.182 22.421 117.811 21.6879 118.598 21.1593C119.386 20.6308 120.303 20.3268 121.25 20.28V13C121.25 12.9337 121.224 12.8701 121.177 12.8232C121.13 12.7763 121.066 12.75 121 12.75H109C108.934 12.75 108.87 12.7763 108.823 12.8232C108.776 12.8701 108.75 12.9337 108.75 13V29C108.75 29.0663 108.776 29.1299 108.823 29.1768ZM119.417 28.618C120.033 29.0301 120.758 29.25 121.5 29.25C122.495 29.25 123.448 28.8549 124.152 28.1517C124.855 27.4484 125.25 26.4946 125.25 25.5C125.25 24.7583 125.03 24.0333 124.618 23.4166C124.206 22.7999 123.62 22.3193 122.935 22.0355C122.25 21.7516 121.496 21.6774 120.768 21.8221C120.041 21.9667 119.373 22.3239 118.848 22.8483C118.324 23.3728 117.967 24.041 117.822 24.7684C117.677 25.4958 117.752 26.2498 118.035 26.9351C118.319 27.6203 118.8 28.206 119.417 28.618Z" fill="#7738CF"/>
<path d="M119.27 24C119.27 23.8028 119.348 23.6135 119.486 23.4732C119.625 23.3328 119.813 23.2526 120.01 23.25C120.158 23.25 120.303 23.294 120.427 23.3764C120.55 23.4588 120.646 23.5759 120.703 23.713C120.76 23.85 120.775 24.0008 120.746 24.1463C120.717 24.2918 120.645 24.4254 120.54 24.5303C120.435 24.6352 120.302 24.7066 120.156 24.7356C120.011 24.7645 119.86 24.7497 119.723 24.6929C119.586 24.6361 119.469 24.54 119.386 24.4167C119.304 24.2933 119.26 24.1483 119.26 24H119.27Z" fill="#F3771E"/>
<defs>
<clipPath id="clip0_455_721">
<rect width="25.4211" height="25.4265" fill="white" transform="translate(23.5439 4.50708)"/>
</clipPath>
</defs>
</svg>
