<svg width="222" height="55" viewBox="0 0 222 55" fill="none" xmlns="http://www.w3.org/2000/svg">
<rect width="71.951" height="54.4084" rx="8.67821" fill="white"/>
<rect x="75.9443" y="0.713989" width="70.0626" height="52.9804" rx="8.45045" fill="white"/>
<rect x="150.951" y="0.694336" width="70.0626" height="52.9804" rx="8.45045" fill="white"/>
<path d="M21.8679 36.5675V43.6943H21.0049V36.5675H21.8679ZM24.3082 40.4789V43.6943H23.4869V38.3492H24.2803V39.1844H24.3499C24.4752 38.913 24.6654 38.6949 24.9206 38.5302C25.1758 38.3631 25.5053 38.2796 25.9089 38.2796C26.2708 38.2796 26.5875 38.3539 26.8589 38.5023C27.1304 38.6485 27.3415 38.8712 27.4923 39.1705C27.6431 39.4674 27.7185 39.8433 27.7185 40.298V43.6943H26.8972V40.3536C26.8972 39.9337 26.7882 39.6066 26.5701 39.3723C26.352 39.1357 26.0528 39.0174 25.6723 39.0174C25.4101 39.0174 25.1758 39.0742 24.9694 39.1879C24.7652 39.3016 24.604 39.4674 24.4857 39.6855C24.3673 39.9036 24.3082 40.168 24.3082 40.4789ZM33.3985 38.3492L31.4219 43.6943H30.5868L28.6102 38.3492H29.501L30.9765 42.6086H31.0322L32.5077 38.3492H33.3985ZM36.4626 43.8057C35.98 43.8057 35.5566 43.6909 35.1924 43.4612C34.8305 43.2315 34.5475 42.9102 34.3433 42.4973C34.1415 42.0843 34.0406 41.6018 34.0406 41.0496C34.0406 40.4928 34.1415 40.0068 34.3433 39.5915C34.5475 39.1763 34.8305 38.8538 35.1924 38.6241C35.5566 38.3945 35.98 38.2796 36.4626 38.2796C36.9451 38.2796 37.3673 38.3945 37.7292 38.6241C38.0935 38.8538 38.3765 39.1763 38.5783 39.5915C38.7825 40.0068 38.8846 40.4928 38.8846 41.0496C38.8846 41.6018 38.7825 42.0843 38.5783 42.4973C38.3765 42.9102 38.0935 43.2315 37.7292 43.4612C37.3673 43.6909 36.9451 43.8057 36.4626 43.8057ZM36.4626 43.068C36.8291 43.068 37.1307 42.974 37.3673 42.7861C37.604 42.5982 37.7791 42.3511 37.8928 42.0449C38.0065 41.7386 38.0633 41.4069 38.0633 41.0496C38.0633 40.6924 38.0065 40.3594 37.8928 40.0509C37.7791 39.7423 37.604 39.493 37.3673 39.3027C37.1307 39.1125 36.8291 39.0174 36.4626 39.0174C36.096 39.0174 35.7944 39.1125 35.5578 39.3027C35.3212 39.493 35.146 39.7423 35.0323 40.0509C34.9186 40.3594 34.8618 40.6924 34.8618 41.0496C34.8618 41.4069 34.9186 41.7386 35.0323 42.0449C35.146 42.3511 35.3212 42.5982 35.5578 42.7861C35.7944 42.974 36.096 43.068 36.4626 43.068ZM40.1382 43.6943V38.3492H40.9594V43.6943H40.1382ZM40.5558 37.4584C40.3957 37.4584 40.2577 37.4039 40.1417 37.2948C40.028 37.1858 39.9712 37.0547 39.9712 36.9016C39.9712 36.7485 40.028 36.6174 40.1417 36.5084C40.2577 36.3993 40.3957 36.3448 40.5558 36.3448C40.7158 36.3448 40.8527 36.3993 40.9664 36.5084C41.0824 36.6174 41.1404 36.7485 41.1404 36.9016C41.1404 37.0547 41.0824 37.1858 40.9664 37.2948C40.8527 37.4039 40.7158 37.4584 40.5558 37.4584ZM44.6351 43.8057C44.134 43.8057 43.7025 43.6874 43.3406 43.4507C42.9786 43.2141 42.7003 42.8882 42.5054 42.4729C42.3105 42.0576 42.2131 41.5832 42.2131 41.0496C42.2131 40.5068 42.3128 40.0277 42.5123 39.6124C42.7142 39.1948 42.9949 38.8689 43.3545 38.6346C43.7164 38.3979 44.1386 38.2796 44.6212 38.2796C44.997 38.2796 45.3357 38.3492 45.6373 38.4884C45.9389 38.6276 46.1859 38.8225 46.3785 39.073C46.5711 39.3236 46.6905 39.6159 46.7369 39.95H45.9157C45.853 39.7064 45.7138 39.4906 45.4981 39.3027C45.2847 39.1125 44.997 39.0174 44.6351 39.0174C44.3149 39.0174 44.0342 39.1009 43.7929 39.2679C43.554 39.4326 43.3672 39.6658 43.2327 39.9674C43.1004 40.2666 43.0343 40.6181 43.0343 41.0218C43.0343 41.4347 43.0993 41.7943 43.2292 42.1005C43.3614 42.4068 43.547 42.6446 43.786 42.8139C44.0273 42.9833 44.3103 43.068 44.6351 43.068C44.8485 43.068 45.0422 43.0308 45.2162 42.9566C45.3902 42.8824 45.5375 42.7756 45.6582 42.6365C45.7788 42.4973 45.8646 42.3302 45.9157 42.1353H46.7369C46.6905 42.4509 46.5757 42.735 46.3924 42.9879C46.2115 43.2385 45.9714 43.438 45.6721 43.5865C45.3751 43.7326 45.0295 43.8057 44.6351 43.8057ZM50.1785 43.8057C49.6635 43.8057 49.2192 43.692 48.8457 43.4647C48.4745 43.235 48.188 42.9148 47.9862 42.5042C47.7867 42.0913 47.6869 41.611 47.6869 41.0635C47.6869 40.516 47.7867 40.0335 47.9862 39.6159C48.188 39.196 48.4687 38.8689 48.8283 38.6346C49.1902 38.3979 49.6125 38.2796 50.095 38.2796C50.3734 38.2796 50.6483 38.326 50.9198 38.4188C51.1912 38.5116 51.4383 38.6624 51.661 38.8712C51.8837 39.0777 52.0612 39.3514 52.1934 39.6925C52.3256 40.0335 52.3917 40.4534 52.3917 40.9522V41.3002H48.2716V40.5903H51.5566C51.5566 40.2887 51.4963 40.0196 51.3756 39.7829C51.2573 39.5463 51.0879 39.3596 50.8676 39.2227C50.6495 39.0858 50.392 39.0174 50.095 39.0174C49.7679 39.0174 49.4849 39.0986 49.2459 39.261C49.0093 39.421 48.8272 39.6298 48.6996 39.8873C48.572 40.1449 48.5082 40.4209 48.5082 40.7156V41.1888C48.5082 41.5925 48.5778 41.9347 48.717 42.2154C48.8585 42.4938 49.0545 42.706 49.3051 42.8522C49.5556 42.996 49.8468 43.068 50.1785 43.068C50.3943 43.068 50.5892 43.0378 50.7632 42.9775C50.9395 42.9148 51.0914 42.822 51.219 42.6991C51.3466 42.5738 51.4452 42.4184 51.5148 42.2328L52.3082 42.4555C52.2247 42.7246 52.0844 42.9612 51.8872 43.1654C51.69 43.3672 51.4464 43.525 51.1564 43.6387C50.8664 43.75 50.5404 43.8057 50.1785 43.8057Z" fill="black"/>
<path d="M93.0699 43.8057C92.5549 43.8057 92.1106 43.692 91.7371 43.4647C91.3659 43.235 91.0794 42.9148 90.8776 42.5042C90.6781 42.0913 90.5783 41.611 90.5783 41.0635C90.5783 40.516 90.6781 40.0335 90.8776 39.6159C91.0794 39.196 91.3601 38.8689 91.7197 38.6346C92.0816 38.3979 92.5039 38.2796 92.9864 38.2796C93.2648 38.2796 93.5397 38.326 93.8111 38.4188C94.0826 38.5116 94.3296 38.6624 94.5524 38.8712C94.7751 39.0777 94.9525 39.3514 95.0848 39.6925C95.217 40.0335 95.2831 40.4534 95.2831 40.9522V41.3002H91.1629V40.5903H94.448C94.448 40.2887 94.3876 40.0196 94.267 39.7829C94.1487 39.5463 93.9793 39.3596 93.7589 39.2227C93.5409 39.0858 93.2834 39.0174 92.9864 39.0174C92.6593 39.0174 92.3763 39.0986 92.1373 39.261C91.9007 39.421 91.7186 39.6298 91.591 39.8873C91.4634 40.1449 91.3996 40.4209 91.3996 40.7156V41.1888C91.3996 41.5925 91.4692 41.9347 91.6084 42.2154C91.7499 42.4938 91.9459 42.706 92.1965 42.8522C92.447 42.996 92.7382 43.068 93.0699 43.068C93.2857 43.068 93.4806 43.0378 93.6545 42.9775C93.8309 42.9148 93.9828 42.822 94.1104 42.6991C94.238 42.5738 94.3366 42.4184 94.4062 42.2328L95.1996 42.4555C95.1161 42.7246 94.9757 42.9612 94.7786 43.1654C94.5814 43.3672 94.3378 43.525 94.0478 43.6387C93.7578 43.75 93.4318 43.8057 93.0699 43.8057ZM99.5947 40.2562V41.0218H96.4767V40.2562H99.5947ZM102.014 36.5675V43.6943H101.151V36.5675H102.014ZM104.454 40.4789V43.6943H103.633V38.3492H104.427V39.1844H104.496C104.621 38.913 104.812 38.6949 105.067 38.5302C105.322 38.3631 105.651 38.2796 106.055 38.2796C106.417 38.2796 106.734 38.3539 107.005 38.5023C107.277 38.6485 107.488 38.8712 107.638 39.1705C107.789 39.4674 107.865 39.8433 107.865 40.298V43.6943H107.043V40.3536C107.043 39.9337 106.934 39.6066 106.716 39.3723C106.498 39.1357 106.199 39.0174 105.818 39.0174C105.556 39.0174 105.322 39.0742 105.116 39.1879C104.911 39.3016 104.75 39.4674 104.632 39.6855C104.514 39.9036 104.454 40.168 104.454 40.4789ZM113.545 38.3492L111.568 43.6943H110.733L108.756 38.3492H109.647L111.123 42.6086H111.178L112.654 38.3492H113.545ZM116.609 43.8057C116.126 43.8057 115.703 43.6909 115.339 43.4612C114.977 43.2315 114.694 42.9102 114.49 42.4973C114.288 42.0843 114.187 41.6018 114.187 41.0496C114.187 40.4928 114.288 40.0068 114.49 39.5915C114.694 39.1763 114.977 38.8538 115.339 38.6241C115.703 38.3945 116.126 38.2796 116.609 38.2796C117.091 38.2796 117.514 38.3945 117.875 38.6241C118.24 38.8538 118.523 39.1763 118.725 39.5915C118.929 40.0068 119.031 40.4928 119.031 41.0496C119.031 41.6018 118.929 42.0843 118.725 42.4973C118.523 42.9102 118.24 43.2315 117.875 43.4612C117.514 43.6909 117.091 43.8057 116.609 43.8057ZM116.609 43.068C116.975 43.068 117.277 42.974 117.514 42.7861C117.75 42.5982 117.925 42.3511 118.039 42.0449C118.153 41.7386 118.21 41.4069 118.21 41.0496C118.21 40.6924 118.153 40.3594 118.039 40.0509C117.925 39.7423 117.75 39.493 117.514 39.3027C117.277 39.1125 116.975 39.0174 116.609 39.0174C116.242 39.0174 115.941 39.1125 115.704 39.3027C115.467 39.493 115.292 39.7423 115.179 40.0509C115.065 40.3594 115.008 40.6924 115.008 41.0496C115.008 41.4069 115.065 41.7386 115.179 42.0449C115.292 42.3511 115.467 42.5982 115.704 42.7861C115.941 42.974 116.242 43.068 116.609 43.068ZM120.284 43.6943V38.3492H121.106V43.6943H120.284ZM120.702 37.4584C120.542 37.4584 120.404 37.4039 120.288 37.2948C120.174 37.1858 120.117 37.0547 120.117 36.9016C120.117 36.7485 120.174 36.6174 120.288 36.5084C120.404 36.3993 120.542 36.3448 120.702 36.3448C120.862 36.3448 120.999 36.3993 121.113 36.5084C121.229 36.6174 121.287 36.7485 121.287 36.9016C121.287 37.0547 121.229 37.1858 121.113 37.2948C120.999 37.4039 120.862 37.4584 120.702 37.4584ZM124.781 43.8057C124.28 43.8057 123.849 43.6874 123.487 43.4507C123.125 43.2141 122.846 42.8882 122.652 42.4729C122.457 42.0576 122.359 41.5832 122.359 41.0496C122.359 40.5068 122.459 40.0277 122.659 39.6124C122.86 39.1948 123.141 38.8689 123.501 38.6346C123.863 38.3979 124.285 38.2796 124.767 38.2796C125.143 38.2796 125.482 38.3492 125.783 38.4884C126.085 38.6276 126.332 38.8225 126.525 39.073C126.717 39.3236 126.837 39.6159 126.883 39.95H126.062C125.999 39.7064 125.86 39.4906 125.644 39.3027C125.431 39.1125 125.143 39.0174 124.781 39.0174C124.461 39.0174 124.18 39.1009 123.939 39.2679C123.7 39.4326 123.513 39.6658 123.379 39.9674C123.247 40.2666 123.181 40.6181 123.181 41.0218C123.181 41.4347 123.245 41.7943 123.375 42.1005C123.508 42.4068 123.693 42.6446 123.932 42.8139C124.173 42.9833 124.456 43.068 124.781 43.068C124.995 43.068 125.188 43.0308 125.362 42.9566C125.536 42.8824 125.684 42.7756 125.804 42.6365C125.925 42.4973 126.011 42.3302 126.062 42.1353H126.883C126.837 42.4509 126.722 42.735 126.539 42.9879C126.358 43.2385 126.118 43.438 125.818 43.5865C125.521 43.7326 125.176 43.8057 124.781 43.8057ZM130.325 43.8057C129.81 43.8057 129.365 43.692 128.992 43.4647C128.621 43.235 128.334 42.9148 128.132 42.5042C127.933 42.0913 127.833 41.611 127.833 41.0635C127.833 40.516 127.933 40.0335 128.132 39.6159C128.334 39.196 128.615 38.8689 128.975 38.6346C129.336 38.3979 129.759 38.2796 130.241 38.2796C130.52 38.2796 130.795 38.326 131.066 38.4188C131.337 38.5116 131.584 38.6624 131.807 38.8712C132.03 39.0777 132.207 39.3514 132.34 39.6925C132.472 40.0335 132.538 40.4534 132.538 40.9522V41.3002H128.418V40.5903H131.703C131.703 40.2887 131.642 40.0196 131.522 39.7829C131.404 39.5463 131.234 39.3596 131.014 39.2227C130.796 39.0858 130.538 39.0174 130.241 39.0174C129.914 39.0174 129.631 39.0986 129.392 39.261C129.155 39.421 128.973 39.6298 128.846 39.8873C128.718 40.1449 128.654 40.4209 128.654 40.7156V41.1888C128.654 41.5925 128.724 41.9347 128.863 42.2154C129.005 42.4938 129.201 42.706 129.451 42.8522C129.702 42.996 129.993 43.068 130.325 43.068C130.54 43.068 130.735 43.0378 130.909 42.9775C131.086 42.9148 131.238 42.822 131.365 42.6991C131.493 42.5738 131.591 42.4184 131.661 42.2328L132.454 42.4555C132.371 42.7246 132.231 42.9612 132.033 43.1654C131.836 43.3672 131.593 43.525 131.303 43.6387C131.013 43.75 130.687 43.8057 130.325 43.8057Z" fill="black"/>
<path d="M167.324 43.6943V36.5675H171.626V37.3331H168.187V39.7412H171.403V40.5068H168.187V42.9288H171.681V43.6943H167.324ZM174.281 43.6943L172.652 38.3492H173.515L174.67 42.4416H174.726L175.868 38.3492H176.744L177.872 42.4277H177.928L179.083 38.3492H179.946L178.317 43.6943H177.51L176.341 39.5881H176.257L175.088 43.6943H174.281ZM182.605 43.8196C182.266 43.8196 181.959 43.7558 181.682 43.6282C181.406 43.4983 181.187 43.3115 181.025 43.068C180.862 42.822 180.781 42.5251 180.781 42.1771C180.781 41.8709 180.841 41.6226 180.962 41.4324C181.083 41.2399 181.244 41.0891 181.446 40.98C181.648 40.871 181.87 40.7898 182.114 40.7364C182.36 40.6808 182.607 40.6367 182.855 40.6042C183.18 40.5624 183.443 40.5311 183.645 40.5102C183.849 40.487 183.998 40.4488 184.091 40.3954C184.186 40.342 184.233 40.2492 184.233 40.117V40.0892C184.233 39.7458 184.139 39.479 183.951 39.2888C183.766 39.0986 183.484 39.0034 183.106 39.0034C182.714 39.0034 182.406 39.0893 182.184 39.261C181.961 39.4326 181.804 39.6159 181.714 39.8108L180.934 39.5324C181.073 39.2076 181.259 38.9547 181.491 38.7738C181.725 38.5905 181.981 38.4629 182.257 38.391C182.535 38.3167 182.809 38.2796 183.078 38.2796C183.25 38.2796 183.447 38.3005 183.669 38.3423C183.894 38.3817 184.111 38.4641 184.32 38.5893C184.531 38.7146 184.706 38.9037 184.846 39.1566C184.985 39.4094 185.054 39.7481 185.054 40.1727V43.6943H184.233V42.9705H184.191C184.136 43.0865 184.043 43.2106 183.913 43.3429C183.783 43.4751 183.61 43.5876 183.395 43.6804C183.179 43.7732 182.915 43.8196 182.605 43.8196ZM182.73 43.0819C183.055 43.0819 183.328 43.0181 183.551 42.8905C183.776 42.7629 183.946 42.5982 184.059 42.3963C184.175 42.1945 184.233 41.9822 184.233 41.7595V41.0079C184.198 41.0496 184.122 41.0879 184.004 41.1227C183.888 41.1552 183.753 41.1842 183.6 41.2097C183.449 41.2329 183.302 41.2538 183.158 41.2723C183.016 41.2886 182.902 41.3025 182.813 41.3141C182.6 41.3419 182.4 41.3872 182.215 41.4498C182.032 41.5101 181.883 41.6018 181.769 41.7247C181.658 41.8454 181.602 42.0101 181.602 42.2189C181.602 42.5042 181.708 42.72 181.919 42.8661C182.133 43.01 182.403 43.0819 182.73 43.0819ZM186.891 45.6988C186.752 45.6988 186.628 45.6872 186.519 45.664C186.41 45.6431 186.334 45.6222 186.292 45.6013L186.501 44.8775C186.701 44.9285 186.877 44.9471 187.03 44.9332C187.183 44.9193 187.319 44.8508 187.437 44.7279C187.558 44.6072 187.668 44.4112 187.768 44.1398L187.921 43.7222L185.944 38.3492H186.835L188.311 42.6086H188.366L189.842 38.3492H190.733L188.464 44.4738C188.362 44.7499 188.235 44.9784 188.085 45.1594C187.934 45.3426 187.759 45.4784 187.559 45.5665C187.362 45.6547 187.139 45.6988 186.891 45.6988ZM194.684 43.6943V36.5675H195.505V39.1983H195.575C195.635 39.1055 195.719 38.9872 195.826 38.8434C195.935 38.6972 196.09 38.5673 196.292 38.4536C196.496 38.3376 196.772 38.2796 197.12 38.2796C197.57 38.2796 197.967 38.3921 198.31 38.6172C198.654 38.8422 198.922 39.1612 199.114 39.5741C199.307 39.9871 199.403 40.4743 199.403 41.0357C199.403 41.6018 199.307 42.0924 199.114 42.5077C198.922 42.9206 198.655 43.2408 198.314 43.4681C197.973 43.6932 197.579 43.8057 197.134 43.8057C196.791 43.8057 196.516 43.7489 196.309 43.6352C196.103 43.5192 195.944 43.3881 195.833 43.242C195.721 43.0935 195.635 42.9705 195.575 42.8731H195.478V43.6943H194.684ZM195.492 41.0218C195.492 41.4254 195.551 41.7816 195.669 42.0901C195.787 42.3963 195.96 42.6365 196.187 42.8104C196.415 42.9821 196.693 43.068 197.023 43.068C197.366 43.068 197.653 42.9775 197.882 42.7965C198.114 42.6133 198.288 42.3673 198.404 42.0588C198.522 41.7479 198.582 41.4022 198.582 41.0218C198.582 40.646 198.524 40.3072 198.408 40.0057C198.294 39.7017 198.121 39.4616 197.889 39.2853C197.659 39.1067 197.371 39.0174 197.023 39.0174C196.689 39.0174 196.408 39.102 196.181 39.2714C195.953 39.4384 195.782 39.6727 195.666 39.9743C195.55 40.2736 195.492 40.6228 195.492 41.0218ZM200.659 43.6943V38.3492H201.48V43.6943H200.659ZM201.077 37.4584C200.917 37.4584 200.779 37.4039 200.663 37.2948C200.549 37.1858 200.492 37.0547 200.492 36.9016C200.492 36.7485 200.549 36.6174 200.663 36.5084C200.779 36.3993 200.917 36.3448 201.077 36.3448C201.237 36.3448 201.374 36.3993 201.487 36.5084C201.603 36.6174 201.661 36.7485 201.661 36.9016C201.661 37.0547 201.603 37.1858 201.487 37.2948C201.374 37.4039 201.237 37.4584 201.077 37.4584ZM203.806 36.5675V43.6943H202.985V36.5675H203.806ZM206.131 36.5675V43.6943H205.31V36.5675H206.131Z" fill="black"/>
<path d="M23.3723 28.4144V25.7037C23.5509 25.19 23.9204 24.9981 24.45 25.0105C25.2628 25.0291 26.0818 25.0105 26.8947 25.0229C27.1164 25.0229 27.1656 24.9672 27.1656 24.7444C27.1595 20.2822 27.1656 15.8199 27.1656 11.3577C27.1656 10.8069 27.1656 10.2561 27.1656 9.70527C27.1656 9.48247 27.2087 9.27823 27.3504 9.10494C27.6891 8.67791 28.2248 8.65315 28.6743 9.05543C29.401 9.69908 30.1276 10.3427 30.8481 10.9926C30.9713 11.104 31.039 11.104 31.1622 10.9926C31.8765 10.3365 32.597 9.69289 33.3236 9.04305C33.7855 8.62839 34.2042 8.63458 34.6599 9.04305C35.3804 9.69289 36.107 10.3365 36.8213 10.9926C36.9507 11.1102 37.0184 11.0916 37.1354 10.9864C37.8374 10.3427 38.5517 9.70527 39.2599 9.074C39.7587 8.62839 40.1528 8.6222 40.6455 9.074C41.3536 9.71146 42.068 10.3427 42.77 10.9864C42.8931 11.104 42.9732 11.1102 43.1025 10.9864C43.8168 10.3427 44.5373 9.70527 45.2578 9.06781C45.4918 8.86357 45.7443 8.72742 46.0645 8.78931C46.5386 8.88214 46.7788 9.21634 46.7788 9.78573C46.7788 15.8199 46.7788 21.848 46.7788 27.8822C46.7788 27.9998 46.7788 28.1112 46.7726 28.2288C46.7111 29.1757 46.3724 30.0174 45.7443 30.7229C44.839 31.7379 43.6937 32.1278 42.3574 32.1216C37.4679 32.1092 32.5785 32.1154 27.6891 32.1154C27.529 32.1154 27.375 32.1154 27.2149 32.103C25.4845 31.9298 24.296 31.0262 23.6371 29.417C23.5078 29.0952 23.477 28.7548 23.3846 28.4268L23.3723 28.4144ZM28.9145 11.5805C28.8591 11.6919 28.8776 11.7848 28.8776 11.8714C28.8776 16.1603 28.8776 20.4431 28.8776 24.732C28.8776 24.9548 28.9207 25.0291 29.1608 25.0229C32.5416 25.0105 35.9223 25.0167 39.303 25.0229C39.9558 25.0229 40.2945 25.3571 40.2945 26.0069C40.2945 26.663 40.2883 27.3252 40.2945 27.9812C40.3191 29.4727 41.5692 30.5496 43.0409 30.3516C44.1801 30.1969 45.0484 29.1819 45.0546 27.9565C45.0546 22.5659 45.0546 17.1815 45.0546 11.7909C45.0546 11.7291 45.0915 11.6548 44.9991 11.6053C44.5311 12.0199 44.0631 12.4346 43.5951 12.8493C43.1518 13.2453 42.7207 13.2453 42.2712 12.8493C41.5507 12.1994 40.824 11.5558 40.1097 10.8997C39.9927 10.7945 39.925 10.776 39.7957 10.8935C39.0936 11.5372 38.3793 12.1747 37.6712 12.8121C37.16 13.2701 36.7721 13.2701 36.2671 12.8121C35.5528 12.1685 34.8323 11.531 34.1242 10.8812C34.0133 10.7821 33.9517 10.7883 33.847 10.8812C33.145 11.5186 32.443 12.1499 31.7349 12.7812C31.193 13.2701 30.8235 13.2701 30.2754 12.7874C29.8259 12.3913 29.3763 11.989 28.9145 11.5805ZM39.3338 30.3825C39.0567 29.9493 38.8596 29.5408 38.7303 29.1014C38.5271 28.4144 38.5825 27.7027 38.5825 27.0034C38.5825 26.8053 38.5333 26.7496 38.3301 26.7496C36.2056 26.7558 34.081 26.7496 31.9565 26.7496C29.7458 26.7496 27.5413 26.7496 25.3306 26.7496C25.1581 26.7496 25.0904 26.7806 25.0965 26.9724C25.115 27.3685 25.0965 27.7708 25.1089 28.1669C25.1273 28.631 25.2998 29.0457 25.5769 29.4109C26.1065 30.1102 26.8269 30.3887 27.6891 30.3887C31.4824 30.3825 35.2757 30.3887 39.069 30.3887C39.1429 30.3887 39.2168 30.3887 39.34 30.3887L39.3338 30.3825Z" fill="#8768EA"/>
<path d="M36.9693 21.6004C35.4359 21.6004 33.9087 21.6004 32.3754 21.6004C31.8212 21.6004 31.4456 21.2229 31.464 20.7092C31.4763 20.2884 31.8027 19.9356 32.2215 19.8923C32.3261 19.8799 32.437 19.8799 32.5417 19.8799C35.5037 19.8799 38.4657 19.8799 41.4276 19.8799C41.5816 19.8799 41.7355 19.8737 41.8833 19.917C42.2959 20.0346 42.5484 20.4307 42.493 20.8701C42.4376 21.2848 42.0989 21.6004 41.6617 21.6004C40.3315 21.6066 38.9952 21.6004 37.6651 21.6004C37.4373 21.6004 37.2094 21.6004 36.9816 21.6004H36.9693Z" fill="#F3771E"/>
<path d="M34.9679 17.5652C34.0873 17.5652 33.2006 17.5776 32.32 17.5652C31.7042 17.5528 31.3163 16.9773 31.5133 16.4141C31.6365 16.0613 31.9505 15.8509 32.3693 15.8509C33.2806 15.8509 34.1982 15.8509 35.1096 15.8509C35.9717 15.8509 36.8276 15.8509 37.6898 15.8571C38.1147 15.8633 38.4349 16.1975 38.4841 16.6307C38.5272 17.0268 38.2748 17.4043 37.8868 17.5281C37.7513 17.5714 37.6159 17.5652 37.4804 17.5652C36.6429 17.5652 35.8054 17.5652 34.9679 17.5652Z" fill="#F3771E"/>
<path d="M104.09 8.90112C103.865 8.98857 103.603 9.18431 103.482 9.36755C103.236 9.7382 103.252 8.97192 103.252 19.5041C103.252 29.1118 103.252 29.116 103.337 29.3451C103.437 29.6241 103.683 29.8989 103.957 30.0364L104.159 30.1405L110.938 30.153L117.716 30.1613L117.942 30.0739C118.24 29.9573 118.531 29.6616 118.643 29.3492C118.728 29.116 118.728 29.1077 118.728 22.3111V15.5061L116.04 15.4895C114.045 15.4812 113.307 15.4645 113.199 15.427C112.84 15.3021 112.473 14.9231 112.352 14.5525C112.316 14.44 112.3 13.6779 112.292 11.6164L112.276 8.83865L108.257 8.84282C104.957 8.84282 104.211 8.85531 104.09 8.90112ZM116.149 22.8316V27.496H114.859H113.569V22.8316V18.1673H114.859H116.149V22.8316ZM112.28 24.1643V27.496H110.99H109.7V24.1643V20.8327H110.99H112.28V24.1643ZM108.411 25.497V27.496H107.121H105.831V25.497V23.498H107.121H108.411V25.497Z" fill="#8768EA"/>
<path d="M113.57 11.504V14.1694H116.157H118.748L116.169 11.504C114.75 10.0381 113.586 8.83871 113.582 8.83871C113.574 8.83871 113.57 10.0381 113.57 11.504Z" fill="#F3771E"/>
<path d="M194.647 22.2553C194.647 25.5198 194.647 28.7843 194.647 32.0487C194.647 32.9516 194.097 33.6452 193.23 33.8324C192.799 33.9259 192.391 33.8599 191.995 33.6672C191.615 33.48 191.23 33.3094 190.861 33.1112C190.663 33.0066 190.499 33.0011 190.295 33.1057C189.626 33.447 188.946 33.7553 188.277 34.0966C187.631 34.4269 187.008 34.4269 186.362 34.0966C185.682 33.7498 184.985 33.425 184.299 33.0837C184.129 33.0011 183.993 33.0011 183.823 33.0837C183.12 33.436 182.412 33.7663 181.709 34.1131C181.097 34.4214 180.497 34.4159 179.885 34.1131C179.187 33.7608 178.473 33.425 177.771 33.0837C177.079 32.7369 176.728 32.1864 176.728 31.4322C176.728 25.0959 176.728 18.7541 176.728 12.4178C176.728 11.3554 177.499 10.6067 178.587 10.6067C183.319 10.6067 188.056 10.6067 192.788 10.6067C193.876 10.6067 194.647 11.3554 194.647 12.4123C194.647 15.6933 194.647 18.9743 194.647 22.2553ZM193.02 22.2278C193.02 19.0073 193.02 15.7814 193.02 12.561C193.02 12.1921 193.02 12.1866 192.635 12.1866C188.141 12.1866 183.642 12.1866 179.148 12.1866C178.972 12.1866 178.791 12.1866 178.615 12.1866C178.434 12.1811 178.354 12.2582 178.354 12.4399C178.36 12.7096 178.354 12.9849 178.354 13.2546C178.354 19.2606 178.354 25.2666 178.349 31.278C178.349 31.5203 178.428 31.6414 178.649 31.746C179.301 32.0432 179.941 32.3625 180.582 32.6818C180.735 32.7589 180.854 32.7589 181.007 32.6818C181.698 32.335 182.406 32.0157 183.092 31.6634C183.738 31.3331 184.361 31.3331 185.007 31.6634C185.699 32.0157 186.401 32.335 187.099 32.6818C187.252 32.7589 187.371 32.7589 187.524 32.6818C188.232 32.3295 188.946 31.9937 189.66 31.6414C190.261 31.3441 190.861 31.3331 191.462 31.6304C191.83 31.812 192.204 31.9937 192.573 32.1698C192.952 32.357 193.015 32.324 193.015 31.9166C193.015 28.6852 193.015 25.4537 193.015 22.2278H193.02Z" fill="#8768EA"/>
<path d="M183.069 23.4166H180.639V27.6666H183.069M183.069 23.4166V19.6389H186.472M183.069 23.4166V27.6666M186.472 19.6389V17.2778V16.3333H189.389V27.6666H186.472M186.472 19.6389V27.6666M183.069 27.6666H186.472" stroke="#F3771E"/>
</svg>
