<svg width="251" height="60" viewBox="0 0 251 60" fill="none" xmlns="http://www.w3.org/2000/svg">
<rect width="78.049" height="59.0196" rx="9.4137" fill="white"/>
<rect x="86.2651" width="78.049" height="59.0196" rx="9.4137" fill="white"/>
<rect x="172.529" width="78.049" height="59.0196" rx="9.4137" fill="white"/>
<path d="M12.8224 49.4978H10.606V42.6515H12.8926C13.5634 42.6515 14.1395 42.7885 14.6209 43.0627C15.1022 43.3345 15.4711 43.7257 15.7274 44.236C15.9859 44.7442 16.1151 45.3537 16.1151 46.0646C16.1151 46.7778 15.9848 47.3906 15.724 47.9032C15.4655 48.4158 15.0911 48.8103 14.6008 49.0866C14.1105 49.3607 13.5177 49.4978 12.8224 49.4978ZM11.639 48.5952H12.7655C13.287 48.5952 13.7205 48.4972 14.0659 48.301C14.4114 48.1027 14.6699 47.8163 14.8415 47.4419C15.0131 47.0653 15.0989 46.6062 15.0989 46.0646C15.0989 45.5275 15.0131 45.0718 14.8415 44.6974C14.6721 44.3229 14.4192 44.0388 14.0826 43.8449C13.7461 43.651 13.3283 43.5541 12.829 43.5541H11.639V48.5952ZM19.5325 49.6014C19.0266 49.6014 18.5909 49.4933 18.2254 49.2772C17.8621 49.0588 17.5813 48.7523 17.383 48.3579C17.1868 47.9612 17.0888 47.4965 17.0888 46.9639C17.0888 46.4379 17.1868 45.9744 17.383 45.5732C17.5813 45.172 17.8577 44.8589 18.212 44.6338C18.5686 44.4087 18.9853 44.2962 19.4623 44.2962C19.752 44.2962 20.0328 44.3441 20.3047 44.4399C20.5766 44.5358 20.8206 44.6862 21.0368 44.8912C21.253 45.0963 21.4234 45.3626 21.5482 45.6902C21.6731 46.0156 21.7355 46.4112 21.7355 46.8769V47.2313H17.6537V46.4825H20.756C20.756 46.2195 20.7025 45.9866 20.5955 45.7838C20.4885 45.5788 20.3381 45.4172 20.1442 45.2991C19.9526 45.181 19.7275 45.1219 19.4689 45.1219C19.1881 45.1219 18.943 45.191 18.7335 45.3292C18.5262 45.4651 18.3658 45.6434 18.2521 45.864C18.1407 46.0824 18.085 46.3198 18.085 46.5761V47.1611C18.085 47.5043 18.1451 47.7962 18.2655 48.0369C18.3881 48.2776 18.5586 48.4615 18.777 48.5885C18.9954 48.7133 19.2505 48.7757 19.5425 48.7757C19.7319 48.7757 19.9046 48.749 20.0606 48.6955C20.2166 48.6398 20.3515 48.5573 20.4651 48.4481C20.5788 48.3389 20.6657 48.2041 20.7259 48.0436L21.6719 48.2141C21.5962 48.4927 21.4602 48.7367 21.2641 48.9462C21.0702 49.1535 20.8262 49.3151 20.532 49.4309C20.24 49.5446 19.9069 49.6014 19.5325 49.6014ZM22.8445 51.4233V44.3631H23.8206V45.1954H23.9042C23.9621 45.0885 24.0457 44.9648 24.1549 44.8244C24.2641 44.684 24.4156 44.5614 24.6095 44.4567C24.8034 44.3497 25.0597 44.2962 25.3784 44.2962C25.7929 44.2962 26.1629 44.4009 26.4883 44.6104C26.8136 44.8199 27.0688 45.1219 27.2538 45.5164C27.441 45.9108 27.5346 46.3855 27.5346 46.9405C27.5346 47.4954 27.4421 47.9712 27.2571 48.3679C27.0722 48.7624 26.8181 49.0666 26.495 49.2805C26.1718 49.4922 25.803 49.5981 25.3884 49.5981C25.0764 49.5981 24.8213 49.5457 24.6229 49.441C24.4268 49.3362 24.273 49.2137 24.1616 49.0733C24.0502 48.9328 23.9644 48.808 23.9042 48.6988H23.844V51.4233H22.8445ZM23.824 46.9304C23.824 47.2915 23.8763 47.6079 23.9811 47.8798C24.0858 48.1517 24.2374 48.3645 24.4357 48.5183C24.6341 48.6699 24.877 48.7456 25.1645 48.7456C25.4631 48.7456 25.7127 48.6665 25.9133 48.5083C26.1139 48.3478 26.2654 48.1305 26.3679 47.8564C26.4727 47.5823 26.525 47.2736 26.525 46.9304C26.525 46.5917 26.4738 46.2875 26.3713 46.0178C26.271 45.7481 26.1194 45.5353 25.9166 45.3793C25.7161 45.2233 25.4653 45.1453 25.1645 45.1453C24.8747 45.1453 24.6296 45.22 24.429 45.3693C24.2307 45.5186 24.0802 45.727 23.9777 45.9944C23.8752 46.2618 23.824 46.5739 23.824 46.9304ZM28.6545 49.4978V44.3631H29.6206V45.1787H29.6741C29.7677 44.9024 29.9326 44.6851 30.1688 44.5269C30.4073 44.3664 30.677 44.2862 30.9778 44.2862C31.0402 44.2862 31.1138 44.2884 31.1985 44.2929C31.2854 44.2973 31.3534 44.3029 31.4024 44.3096V45.2656C31.3623 45.2545 31.2909 45.2422 31.1884 45.2289C31.0859 45.2133 30.9834 45.2055 30.8809 45.2055C30.6446 45.2055 30.434 45.2556 30.2491 45.3559C30.0663 45.454 29.9215 45.591 29.8145 45.7671C29.7075 45.9409 29.654 46.1393 29.654 46.3621V49.4978H28.6545ZM34.2965 49.6014C33.7906 49.6014 33.3549 49.4933 32.9894 49.2772C32.6262 49.0588 32.3454 48.7523 32.147 48.3579C31.9509 47.9612 31.8528 47.4965 31.8528 46.9639C31.8528 46.4379 31.9509 45.9744 32.147 45.5732C32.3454 45.172 32.6217 44.8589 32.9761 44.6338C33.3326 44.4087 33.7494 44.2962 34.2263 44.2962C34.516 44.2962 34.7969 44.3441 35.0687 44.4399C35.3406 44.5358 35.5847 44.6862 35.8008 44.8912C36.017 45.0963 36.1875 45.3626 36.3123 45.6902C36.4371 46.0156 36.4995 46.4112 36.4995 46.8769V47.2313H32.4178V46.4825H35.52C35.52 46.2195 35.4666 45.9866 35.3596 45.7838C35.2526 45.5788 35.1022 45.4172 34.9083 45.2991C34.7166 45.181 34.4915 45.1219 34.233 45.1219C33.9522 45.1219 33.7071 45.191 33.4976 45.3292C33.2903 45.4651 33.1298 45.6434 33.0162 45.864C32.9048 46.0824 32.849 46.3198 32.849 46.5761V47.1611C32.849 47.5043 32.9092 47.7962 33.0296 48.0369C33.1521 48.2776 33.3226 48.4615 33.541 48.5885C33.7594 48.7133 34.0146 48.7757 34.3066 48.7757C34.496 48.7757 34.6687 48.749 34.8247 48.6955C34.9807 48.6398 35.1155 48.5573 35.2292 48.4481C35.3429 48.3389 35.4298 48.2041 35.49 48.0436L36.436 48.2141C36.3602 48.4927 36.2243 48.7367 36.0282 48.9462C35.8343 49.1535 35.5902 49.3151 35.2961 49.4309C35.0041 49.5446 34.6709 49.6014 34.2965 49.6014ZM39.7714 49.6014C39.2744 49.6014 38.8465 49.4889 38.4877 49.2638C38.1311 49.0365 37.857 48.7234 37.6654 48.3244C37.4737 47.9255 37.3779 47.4686 37.3779 46.9538C37.3779 46.4323 37.4759 45.9721 37.6721 45.5732C37.8682 45.172 38.1445 44.8589 38.5011 44.6338C38.8577 44.4087 39.2778 44.2962 39.7614 44.2962C40.1514 44.2962 40.4991 44.3686 40.8044 44.5135C41.1097 44.6561 41.356 44.8567 41.5432 45.1152C41.7326 45.3737 41.8451 45.6757 41.8808 46.0212H40.908C40.8545 45.7805 40.732 45.5732 40.5403 45.3994C40.3509 45.2255 40.0968 45.1386 39.7781 45.1386C39.4995 45.1386 39.2555 45.2122 39.046 45.3593C38.8387 45.5041 38.6772 45.7114 38.5613 45.981C38.4454 46.2485 38.3874 46.5649 38.3874 46.9304C38.3874 47.3048 38.4443 47.628 38.5579 47.8999C38.6716 48.1718 38.8321 48.3824 39.0393 48.5317C39.2488 48.681 39.4951 48.7557 39.7781 48.7557C39.9675 48.7557 40.1391 48.7211 40.2929 48.652C40.4489 48.5807 40.5793 48.4793 40.684 48.3478C40.791 48.2163 40.8657 48.0581 40.908 47.8731H41.8808C41.8451 48.2052 41.7371 48.5016 41.5565 48.7624C41.376 49.0231 41.1342 49.2281 40.8311 49.3775C40.5303 49.5268 40.177 49.6014 39.7714 49.6014ZM42.9497 49.4978V44.3631H43.9492V49.4978H42.9497ZM43.4545 43.5708C43.2807 43.5708 43.1313 43.5128 43.0065 43.3969C42.884 43.2788 42.8227 43.1384 42.8227 42.9757C42.8227 42.8108 42.884 42.6704 43.0065 42.5545C43.1313 42.4364 43.2807 42.3774 43.4545 42.3774C43.6283 42.3774 43.7765 42.4364 43.8991 42.5545C44.0239 42.6704 44.0863 42.8108 44.0863 42.9757C44.0863 43.1384 44.0239 43.2788 43.8991 43.3969C43.7765 43.5128 43.6283 43.5708 43.4545 43.5708ZM46.7882 49.6115C46.4629 49.6115 46.1687 49.5513 45.9057 49.4309C45.6427 49.3084 45.4343 49.1312 45.2806 48.8994C45.129 48.6676 45.0532 48.3835 45.0532 48.047C45.0532 47.7572 45.109 47.5188 45.2204 47.3316C45.3318 47.1444 45.4823 46.9962 45.6717 46.887C45.8611 46.7778 46.0728 46.6953 46.3068 46.6396C46.5409 46.5839 46.7793 46.5415 47.0222 46.5126C47.3298 46.4769 47.5794 46.4479 47.7711 46.4256C47.9627 46.4011 48.102 46.3621 48.1889 46.3086C48.2758 46.2552 48.3193 46.1682 48.3193 46.0479V46.0245C48.3193 45.7325 48.2368 45.5063 48.0719 45.3459C47.9092 45.1854 47.6663 45.1052 47.3432 45.1052C47.0066 45.1052 46.7414 45.1798 46.5475 45.3292C46.3559 45.4763 46.2233 45.6401 46.1497 45.8206L45.2104 45.6066C45.3218 45.2946 45.4845 45.0428 45.6984 44.8511C45.9146 44.6572 46.1631 44.5168 46.4439 44.4299C46.7247 44.3408 47.02 44.2962 47.3298 44.2962C47.5348 44.2962 47.7521 44.3207 47.9817 44.3697C48.2134 44.4165 48.4296 44.5035 48.6302 44.6305C48.833 44.7575 48.999 44.9392 49.1283 45.1754C49.2575 45.4094 49.3222 45.7136 49.3222 46.088V49.4978H48.346V48.7958H48.3059C48.2413 48.925 48.1443 49.0521 48.0151 49.1769C47.8858 49.3017 47.7198 49.4053 47.517 49.4878C47.3142 49.5702 47.0713 49.6115 46.7882 49.6115ZM47.0055 48.8092C47.2819 48.8092 47.5181 48.7546 47.7142 48.6454C47.9126 48.5362 48.063 48.3935 48.1655 48.2175C48.2703 48.0392 48.3226 47.8486 48.3226 47.6458V46.9839C48.287 47.0196 48.2179 47.053 48.1154 47.0842C48.0151 47.1132 47.9003 47.1388 47.7711 47.1611C47.6418 47.1811 47.5159 47.2001 47.3933 47.2179C47.2707 47.2335 47.1682 47.2469 47.0858 47.258C46.8919 47.2826 46.7147 47.3238 46.5542 47.3817C46.396 47.4397 46.269 47.5232 46.1731 47.6324C46.0795 47.7394 46.0327 47.8821 46.0327 48.0603C46.0327 48.3077 46.1241 48.4949 46.3068 48.622C46.4896 48.7468 46.7225 48.8092 47.0055 48.8092ZM53.0504 44.3631V45.1654H50.2457V44.3631H53.0504ZM50.9978 43.1329H51.9974V47.9901C51.9974 48.184 52.0263 48.33 52.0843 48.4281C52.1422 48.5239 52.2169 48.5896 52.3082 48.6253C52.4019 48.6587 52.5033 48.6754 52.6125 48.6754C52.6927 48.6754 52.7629 48.6699 52.8231 48.6587C52.8832 48.6476 52.93 48.6387 52.9635 48.632L53.144 49.4577C53.086 49.48 53.0036 49.5023 52.8966 49.5245C52.7896 49.5491 52.6559 49.5624 52.4955 49.5647C52.2325 49.5691 51.9873 49.5223 51.76 49.4243C51.5327 49.3262 51.3488 49.1747 51.2084 48.9696C51.068 48.7646 50.9978 48.5072 50.9978 48.1974V43.1329ZM54.1561 49.4978V44.3631H55.1556V49.4978H54.1561ZM54.6608 43.5708C54.487 43.5708 54.3377 43.5128 54.2129 43.3969C54.0903 43.2788 54.029 43.1384 54.029 42.9757C54.029 42.8108 54.0903 42.6704 54.2129 42.5545C54.3377 42.4364 54.487 42.3774 54.6608 42.3774C54.8347 42.3774 54.9829 42.4364 55.1054 42.5545C55.2303 42.6704 55.2927 42.8108 55.2927 42.9757C55.2927 43.1384 55.2303 43.2788 55.1054 43.3969C54.9829 43.5128 54.8347 43.5708 54.6608 43.5708ZM58.6632 49.6014C58.1818 49.6014 57.7617 49.4911 57.4029 49.2705C57.0441 49.0498 56.7655 48.7412 56.5671 48.3445C56.3688 47.9478 56.2696 47.4842 56.2696 46.9538C56.2696 46.4212 56.3688 45.9554 56.5671 45.5565C56.7655 45.1576 57.0441 44.8478 57.4029 44.6271C57.7617 44.4065 58.1818 44.2962 58.6632 44.2962C59.1445 44.2962 59.5646 44.4065 59.9235 44.6271C60.2823 44.8478 60.5608 45.1576 60.7592 45.5565C60.9575 45.9554 61.0567 46.4212 61.0567 46.9538C61.0567 47.4842 60.9575 47.9478 60.7592 48.3445C60.5608 48.7412 60.2823 49.0498 59.9235 49.2705C59.5646 49.4911 59.1445 49.6014 58.6632 49.6014ZM58.6665 48.7624C58.9785 48.7624 59.237 48.6799 59.4421 48.515C59.6471 48.3501 59.7986 48.1305 59.8967 47.8564C59.997 47.5823 60.0471 47.2803 60.0471 46.9505C60.0471 46.6229 59.997 46.322 59.8967 46.0479C59.7986 45.7715 59.6471 45.5498 59.4421 45.3827C59.237 45.2155 58.9785 45.1319 58.6665 45.1319C58.3523 45.1319 58.0915 45.2155 57.8843 45.3827C57.6792 45.5498 57.5266 45.7715 57.4263 46.0479C57.3282 46.322 57.2792 46.6229 57.2792 46.9505C57.2792 47.2803 57.3282 47.5823 57.4263 47.8564C57.5266 48.1305 57.6792 48.3501 57.8843 48.515C58.0915 48.6799 58.3523 48.7624 58.6665 48.7624ZM63.1719 46.449V49.4978H62.1724V44.3631H63.1318V45.1988H63.1953C63.3135 44.9269 63.4984 44.7085 63.7503 44.5436C64.0043 44.3787 64.3241 44.2962 64.7097 44.2962C65.0596 44.2962 65.366 44.3697 65.629 44.5168C65.892 44.6617 66.0959 44.8779 66.2408 45.1654C66.3856 45.4529 66.4581 45.8083 66.4581 46.2318V49.4978H65.4585V46.3521C65.4585 45.9799 65.3616 45.6891 65.1677 45.4796C64.9738 45.2679 64.7075 45.162 64.3687 45.162C64.1369 45.162 63.9308 45.2122 63.7503 45.3125C63.572 45.4127 63.4305 45.5598 63.3257 45.7537C63.2232 45.9454 63.1719 46.1772 63.1719 46.449Z" fill="black"/>
<path d="M105.683 49.4978H103.467V42.6515H105.754C106.424 42.6515 107.001 42.7885 107.482 43.0627C107.963 43.3345 108.332 43.7257 108.588 44.236C108.847 44.7442 108.976 45.3537 108.976 46.0646C108.976 46.7778 108.846 47.3906 108.585 47.9032C108.327 48.4158 107.952 48.8103 107.462 49.0866C106.972 49.3607 106.379 49.4978 105.683 49.4978ZM104.5 48.5952H105.627C106.148 48.5952 106.582 48.4972 106.927 48.301C107.272 48.1027 107.531 47.8163 107.703 47.4419C107.874 47.0653 107.96 46.6062 107.96 46.0646C107.96 45.5275 107.874 45.0718 107.703 44.6974C107.533 44.3229 107.28 44.0388 106.944 43.8449C106.607 43.651 106.189 43.5541 105.69 43.5541H104.5V48.5952ZM112.394 49.6014C111.888 49.6014 111.452 49.4933 111.086 49.2772C110.723 49.0588 110.442 48.7523 110.244 48.3579C110.048 47.9612 109.95 47.4965 109.95 46.9639C109.95 46.4379 110.048 45.9744 110.244 45.5732C110.442 45.172 110.719 44.8589 111.073 44.6338C111.43 44.4087 111.846 44.2962 112.323 44.2962C112.613 44.2962 112.894 44.3441 113.166 44.4399C113.438 44.5358 113.682 44.6862 113.898 44.8912C114.114 45.0963 114.285 45.3626 114.409 45.6902C114.534 46.0156 114.597 46.4112 114.597 46.8769V47.2313H110.515V46.4825H113.617C113.617 46.2195 113.564 45.9866 113.457 45.7838C113.35 45.5788 113.199 45.4172 113.005 45.2991C112.814 45.181 112.589 45.1219 112.33 45.1219C112.049 45.1219 111.804 45.191 111.595 45.3292C111.387 45.4651 111.227 45.6434 111.113 45.864C111.002 46.0824 110.946 46.3198 110.946 46.5761V47.1611C110.946 47.5043 111.006 47.7962 111.127 48.0369C111.249 48.2776 111.42 48.4615 111.638 48.5885C111.856 48.7133 112.112 48.7757 112.404 48.7757C112.593 48.7757 112.766 48.749 112.922 48.6955C113.078 48.6398 113.213 48.5573 113.326 48.4481C113.44 48.3389 113.527 48.2041 113.587 48.0436L114.533 48.2141C114.457 48.4927 114.321 48.7367 114.125 48.9462C113.931 49.1535 113.687 49.3151 113.393 49.4309C113.101 49.5446 112.768 49.6014 112.394 49.6014ZM117.628 49.5981C117.213 49.5981 116.843 49.4922 116.518 49.2805C116.195 49.0666 115.941 48.7624 115.756 48.3679C115.573 47.9712 115.482 47.4954 115.482 46.9405C115.482 46.3855 115.574 45.9108 115.759 45.5164C115.946 45.1219 116.203 44.8199 116.528 44.6104C116.853 44.4009 117.222 44.2962 117.634 44.2962C117.953 44.2962 118.209 44.3497 118.403 44.4567C118.599 44.5614 118.751 44.684 118.858 44.8244C118.967 44.9648 119.052 45.0885 119.112 45.1954H119.172V42.6515H120.172V49.4978H119.196V48.6988H119.112C119.052 48.808 118.965 48.9328 118.851 49.0733C118.74 49.2137 118.586 49.3362 118.39 49.441C118.194 49.5457 117.94 49.5981 117.628 49.5981ZM117.848 48.7456C118.136 48.7456 118.379 48.6699 118.577 48.5183C118.778 48.3645 118.929 48.1517 119.032 47.8798C119.136 47.6079 119.189 47.2915 119.189 46.9304C119.189 46.5739 119.138 46.2618 119.035 45.9944C118.933 45.727 118.782 45.5186 118.584 45.3693C118.385 45.22 118.14 45.1453 117.848 45.1453C117.547 45.1453 117.297 45.2233 117.096 45.3793C116.896 45.5353 116.744 45.7481 116.642 46.0178C116.541 46.2875 116.491 46.5917 116.491 46.9304C116.491 47.2736 116.542 47.5823 116.645 47.8564C116.747 48.1305 116.899 48.3478 117.1 48.5083C117.302 48.6665 117.552 48.7456 117.848 48.7456ZM124.851 47.3684V44.3631H125.854V49.4978H124.871V48.6086H124.818C124.699 48.8827 124.51 49.1111 124.249 49.2939C123.991 49.4744 123.669 49.5647 123.283 49.5647C122.953 49.5647 122.661 49.4922 122.407 49.3474C122.155 49.2003 121.957 48.983 121.812 48.6955C121.67 48.408 121.598 48.0525 121.598 47.6291V44.3631H122.598V47.5088C122.598 47.8587 122.695 48.1372 122.889 48.3445C123.083 48.5518 123.334 48.6554 123.644 48.6554C123.831 48.6554 124.017 48.6086 124.202 48.515C124.39 48.4214 124.545 48.2799 124.667 48.0904C124.792 47.901 124.853 47.6603 124.851 47.3684ZM129.36 49.6014C128.863 49.6014 128.435 49.4889 128.076 49.2638C127.719 49.0365 127.445 48.7234 127.254 48.3244C127.062 47.9255 126.966 47.4686 126.966 46.9538C126.966 46.4323 127.064 45.9721 127.26 45.5732C127.457 45.172 127.733 44.8589 128.089 44.6338C128.446 44.4087 128.866 44.2962 129.35 44.2962C129.74 44.2962 130.087 44.3686 130.393 44.5135C130.698 44.6561 130.944 44.8567 131.132 45.1152C131.321 45.3737 131.433 45.6757 131.469 46.0212H130.496C130.443 45.7805 130.32 45.5732 130.129 45.3994C129.939 45.2255 129.685 45.1386 129.366 45.1386C129.088 45.1386 128.844 45.2122 128.634 45.3593C128.427 45.5041 128.265 45.7114 128.15 45.981C128.034 46.2485 127.976 46.5649 127.976 46.9304C127.976 47.3048 128.033 47.628 128.146 47.8999C128.26 48.1718 128.42 48.3824 128.628 48.5317C128.837 48.681 129.083 48.7557 129.366 48.7557C129.556 48.7557 129.727 48.7211 129.881 48.652C130.037 48.5807 130.168 48.4793 130.272 48.3478C130.379 48.2163 130.454 48.0581 130.496 47.8731H131.469C131.433 48.2052 131.325 48.5016 131.145 48.7624C130.964 49.0231 130.723 49.2281 130.419 49.3775C130.119 49.5268 129.765 49.6014 129.36 49.6014ZM134.935 44.3631V45.1654H132.13V44.3631H134.935ZM132.882 43.1329H133.882V47.9901C133.882 48.184 133.911 48.33 133.969 48.4281C134.027 48.5239 134.101 48.5896 134.193 48.6253C134.286 48.6587 134.388 48.6754 134.497 48.6754C134.577 48.6754 134.647 48.6699 134.708 48.6587C134.768 48.6476 134.815 48.6387 134.848 48.632L135.029 49.4577C134.971 49.48 134.888 49.5023 134.781 49.5245C134.674 49.5491 134.54 49.5624 134.38 49.5647C134.117 49.5691 133.872 49.5223 133.645 49.4243C133.417 49.3262 133.233 49.1747 133.093 48.9696C132.953 48.7646 132.882 48.5072 132.882 48.1974V43.1329ZM136.041 49.4978V44.3631H137.04V49.4978H136.041ZM136.545 43.5708C136.372 43.5708 136.222 43.5128 136.097 43.3969C135.975 43.2788 135.914 43.1384 135.914 42.9757C135.914 42.8108 135.975 42.6704 136.097 42.5545C136.222 42.4364 136.372 42.3774 136.545 42.3774C136.719 42.3774 136.867 42.4364 136.99 42.5545C137.115 42.6704 137.177 42.8108 137.177 42.9757C137.177 43.1384 137.115 43.2788 136.99 43.3969C136.867 43.5128 136.719 43.5708 136.545 43.5708ZM140.548 49.6014C140.066 49.6014 139.646 49.4911 139.287 49.2705C138.929 49.0498 138.65 48.7412 138.452 48.3445C138.253 47.9478 138.154 47.4842 138.154 46.9538C138.154 46.4212 138.253 45.9554 138.452 45.5565C138.65 45.1576 138.929 44.8478 139.287 44.6271C139.646 44.4065 140.066 44.2962 140.548 44.2962C141.029 44.2962 141.449 44.4065 141.808 44.6271C142.167 44.8478 142.445 45.1576 142.644 45.5565C142.842 45.9554 142.941 46.4212 142.941 46.9538C142.941 47.4842 142.842 47.9478 142.644 48.3445C142.445 48.7412 142.167 49.0498 141.808 49.2705C141.449 49.4911 141.029 49.6014 140.548 49.6014ZM140.551 48.7624C140.863 48.7624 141.122 48.6799 141.327 48.515C141.532 48.3501 141.683 48.1305 141.781 47.8564C141.882 47.5823 141.932 47.2803 141.932 46.9505C141.932 46.6229 141.882 46.322 141.781 46.0479C141.683 45.7715 141.532 45.5498 141.327 45.3827C141.122 45.2155 140.863 45.1319 140.551 45.1319C140.237 45.1319 139.976 45.2155 139.769 45.3827C139.564 45.5498 139.411 45.7715 139.311 46.0479C139.213 46.322 139.164 46.6229 139.164 46.9505C139.164 47.2803 139.213 47.5823 139.311 47.8564C139.411 48.1305 139.564 48.3501 139.769 48.515C139.976 48.6799 140.237 48.7624 140.551 48.7624ZM145.056 46.449V49.4978H144.057V44.3631H145.016V45.1988H145.08C145.198 44.9269 145.383 44.7085 145.635 44.5436C145.889 44.3787 146.209 44.2962 146.594 44.2962C146.944 44.2962 147.251 44.3697 147.514 44.5168C147.777 44.6617 147.98 44.8779 148.125 45.1654C148.27 45.4529 148.343 45.8083 148.343 46.2318V49.4978H147.343V46.3521C147.343 45.9799 147.246 45.6891 147.052 45.4796C146.858 45.2679 146.592 45.162 146.253 45.162C146.021 45.162 145.815 45.2122 145.635 45.3125C145.457 45.4127 145.315 45.5598 145.21 45.7537C145.108 45.9454 145.056 46.1772 145.056 46.449Z" fill="black"/>
<path d="M203.833 48.4978H201.801V42.222H203.897C204.512 42.222 205.04 42.3476 205.481 42.5989C205.922 42.8482 206.26 43.2067 206.495 43.6745C206.732 44.1403 206.851 44.699 206.851 45.3507C206.851 46.0044 206.731 46.5662 206.492 47.0361C206.255 47.506 205.912 47.8676 205.463 48.1209C205.013 48.3722 204.47 48.4978 203.833 48.4978ZM202.748 47.6704H203.78C204.258 47.6704 204.656 47.5805 204.972 47.4008C205.289 47.2189 205.526 46.9564 205.683 46.6132C205.841 46.268 205.919 45.8471 205.919 45.3507C205.919 44.8584 205.841 44.4406 205.683 44.0974C205.528 43.7542 205.296 43.4937 204.988 43.316C204.679 43.1382 204.296 43.0494 203.839 43.0494H202.748V47.6704ZM211.451 43.8706C211.419 43.5805 211.284 43.3558 211.047 43.1965C210.81 43.0351 210.512 42.9544 210.152 42.9544C209.895 42.9544 209.672 42.9952 209.484 43.077C209.296 43.1566 209.15 43.2669 209.046 43.4079C208.944 43.5468 208.893 43.7052 208.893 43.8829C208.893 44.032 208.927 44.1607 208.997 44.269C209.068 44.3773 209.161 44.4682 209.276 44.5417C209.392 44.6132 209.517 44.6735 209.649 44.7225C209.782 44.7695 209.91 44.8083 210.032 44.839L210.645 44.9983C210.846 45.0473 211.051 45.1137 211.261 45.1975C211.472 45.2813 211.667 45.3916 211.847 45.5284C212.026 45.6653 212.171 45.8349 212.282 46.0371C212.394 46.2394 212.45 46.4815 212.45 46.7634C212.45 47.1188 212.358 47.4345 212.174 47.7103C211.993 47.9861 211.728 48.2036 211.381 48.363C211.036 48.5223 210.618 48.602 210.127 48.602C209.658 48.602 209.251 48.5274 208.908 48.3783C208.565 48.2292 208.296 48.0177 208.102 47.744C207.908 47.4682 207.801 47.1413 207.78 46.7634H208.73C208.748 46.9901 208.822 47.1791 208.951 47.3303C209.081 47.4794 209.248 47.5908 209.45 47.6643C209.655 47.7358 209.878 47.7716 210.121 47.7716C210.389 47.7716 210.627 47.7297 210.835 47.6459C211.046 47.5601 211.211 47.4416 211.332 47.2904C211.452 47.1372 211.513 46.9585 211.513 46.7542C211.513 46.5683 211.459 46.4161 211.353 46.2976C211.249 46.1791 211.107 46.081 210.927 46.0034C210.75 45.9258 210.548 45.8573 210.324 45.7981L209.582 45.5959C209.079 45.459 208.681 45.2578 208.387 44.9922C208.095 44.7266 207.949 44.3752 207.949 43.938C207.949 43.5764 208.047 43.2608 208.243 42.9912C208.439 42.7215 208.705 42.5121 209.04 42.363C209.375 42.2118 209.753 42.1362 210.173 42.1362C210.598 42.1362 210.973 42.2108 211.298 42.3599C211.625 42.509 211.882 42.7143 212.07 42.9758C212.258 43.2353 212.356 43.5335 212.364 43.8706H211.451ZM213.582 48.4978V42.222H215.819C216.305 42.222 216.708 42.3058 217.029 42.4733C217.352 42.6408 217.593 42.8727 217.752 43.1689C217.912 43.4631 217.991 43.8032 217.991 44.1893C217.991 44.5734 217.911 44.9115 217.749 45.2036C217.59 45.4937 217.349 45.7195 217.026 45.8808C216.705 46.0422 216.302 46.1229 215.816 46.1229H214.121V45.3078H215.73C216.036 45.3078 216.286 45.2639 216.478 45.176C216.672 45.0882 216.814 44.9605 216.904 44.793C216.993 44.6255 217.038 44.4243 217.038 44.1893C217.038 43.9523 216.992 43.747 216.9 43.5734C216.811 43.3997 216.669 43.2669 216.475 43.175C216.282 43.081 216.03 43.0341 215.718 43.0341H214.529V48.4978H213.582ZM216.68 45.6663L218.23 48.4978H217.152L215.632 45.6663H216.68Z" fill="black"/>
<path d="M26.2633 13.2916C25.6721 13.4735 25.0979 14.059 24.9217 14.6559C24.8478 14.8833 24.8364 15.5996 24.8364 18.9822V23.0355L25.2798 22.7342C27.8494 20.9662 31.2547 21.2277 33.54 23.3766C33.7731 23.5926 34.0744 23.9224 34.2165 24.1156L34.4724 24.4567L35.9561 24.4624C37.366 24.4624 37.4399 24.4681 37.5593 24.5761C37.7071 24.7126 37.7241 24.9854 37.5934 25.1105C37.5479 25.1617 37.5024 25.2071 37.4967 25.2128C37.491 25.2185 36.9169 25.2413 36.2233 25.2583L34.9669 25.2867L35.1034 25.6108C35.2512 25.9576 35.4956 26.7932 35.5525 27.1457L35.5866 27.3504L36.1267 27.3731C36.6156 27.3902 36.6838 27.4015 36.7804 27.5266C36.9282 27.7028 36.9169 27.8506 36.7463 28.0155C36.6213 28.1462 36.5644 28.1576 36.121 28.1576H35.6378V28.368C35.6378 29.1013 35.3308 30.3122 34.9499 31.074L34.7339 31.5117L42.7894 31.5003L50.8449 31.4833L51.1462 31.3241C51.5726 31.1024 51.8511 30.8295 52.0729 30.4202L52.2661 30.0621V22.359V14.6559L52.0615 14.2864C51.817 13.8487 51.4191 13.4962 50.9643 13.3257L50.6403 13.2063L38.5769 13.212C28.5146 13.212 26.4737 13.229 26.2633 13.2916ZM48.4629 16.6513C48.571 16.7025 48.7131 16.8276 48.787 16.9242C48.9064 17.0948 48.912 17.1516 48.9291 18.5785C48.9405 19.977 48.9348 20.068 48.8268 20.2442C48.7642 20.3465 48.6335 20.4773 48.5312 20.5398C48.3492 20.6478 48.2412 20.6535 46.0412 20.6535C42.9599 20.6535 43.1987 20.8241 43.1987 18.6297C43.1987 16.4126 42.994 16.5604 46.0582 16.5604C47.9797 16.5604 48.2924 16.5718 48.4629 16.6513ZM42.9258 24.5306C43.1703 24.7296 43.1475 25.0707 42.8804 25.1958C42.7837 25.2356 42.238 25.2583 41.2431 25.2583C39.8162 25.2583 39.7366 25.2526 39.5945 25.1389C39.3955 24.9798 39.3955 24.741 39.5945 24.5818C39.7423 24.4681 39.8162 24.4624 41.2886 24.4624C42.4426 24.4624 42.8576 24.4795 42.9258 24.5306ZM48.7983 24.6045C48.8779 24.6784 48.9405 24.7921 48.9405 24.8604C48.9405 24.9229 48.8779 25.0423 48.7983 25.1162L48.6619 25.2583H47.0929H45.5238L45.3874 25.1162C45.3078 25.0423 45.2453 24.9229 45.2453 24.8604C45.2453 24.7921 45.3078 24.6784 45.3874 24.6045L45.5238 24.4624H47.0929H48.6619L48.7983 24.6045ZM48.8325 27.5266C48.9803 27.7028 48.9689 27.8506 48.7983 28.0155L48.6619 28.1576H46.9053C45.2112 28.1576 45.1429 28.1519 44.9951 28.0382C44.8075 27.8904 44.8019 27.6858 44.9895 27.4982L45.1316 27.356L46.928 27.3731L48.7244 27.3902L48.8325 27.5266Z" fill="#7738CF"/>
<path d="M43.9375 18.6354V19.9146H46.0409H48.1443V18.6354V17.3563H46.0409H43.9375V18.6354Z" fill="#F5883A"/>
<path d="M27.8551 22.4443C26.6499 22.7172 25.7858 23.1777 24.9387 23.9963C24.177 24.7297 23.6255 25.6677 23.347 26.6796C23.2333 27.106 23.2162 27.2879 23.2219 28.2145C23.2219 29.1923 23.2333 29.3003 23.3754 29.7779C24.0292 31.9268 25.6835 33.4617 27.821 33.9051C28.5032 34.0472 29.5265 34.0472 30.2087 33.9051C32.5963 33.4105 34.4155 31.489 34.7907 29.0673C34.8817 28.4703 34.8248 27.2765 34.677 26.7194C34.4041 25.6904 33.9152 24.8377 33.1421 24.0589C32.3974 23.3141 31.6469 22.865 30.5952 22.5523C30.1632 22.4216 29.9642 22.3989 29.157 22.3818C28.4804 22.3647 28.1166 22.3818 27.8551 22.4443ZM31.2604 27.0207C31.3229 27.0548 31.4025 27.1344 31.4366 27.1969C31.5787 27.4641 31.448 27.5721 29.7652 28.6238C28.8841 29.1753 28.0825 29.6699 27.9859 29.7267C27.6789 29.9029 27.5765 29.8234 27.0365 29.0104C26.7636 28.6068 26.5419 28.2259 26.5419 28.169C26.5419 28.0099 26.7522 27.8166 26.9342 27.8166C27.1218 27.8166 27.2241 27.9246 27.5936 28.4817C27.7414 28.7091 27.8778 28.8967 27.8835 28.8967C27.8949 28.8967 28.5998 28.459 29.4526 27.9303C30.3053 27.3959 31.033 26.9638 31.0785 26.9638C31.1182 26.9638 31.2035 26.9923 31.2604 27.0207Z" fill="#F3771E"/>
<g clip-path="url(#clip0_455_719)">
<path d="M218.25 10.5001H213.667C213.667 8.56965 212.023 7.00012 210 7.00012C207.978 7.00012 206.334 8.56965 206.334 10.5001H201.75C200.232 10.5001 199 11.6759 199 13.1251V32.3751C199 33.8243 200.232 35.0001 201.75 35.0001H218.25C219.768 35.0001 221 33.8243 221 32.3751V13.1251C221 11.6759 219.768 10.5001 218.25 10.5001ZM204.5 30.1876C203.738 30.1876 203.125 29.6025 203.125 28.8751C203.125 28.1478 203.738 27.5626 204.5 27.5626C205.262 27.5626 205.875 28.1478 205.875 28.8751C205.875 29.6025 205.262 30.1876 204.5 30.1876ZM204.5 24.9376C203.738 24.9376 203.125 24.3525 203.125 23.6251C203.125 22.8978 203.738 22.3126 204.5 22.3126C205.262 22.3126 205.875 22.8978 205.875 23.6251C205.875 24.3525 205.262 24.9376 204.5 24.9376ZM204.5 19.6876C203.738 19.6876 203.125 19.1025 203.125 18.3751C203.125 17.6478 203.738 17.0626 204.5 17.0626C205.262 17.0626 205.875 17.6478 205.875 18.3751C205.875 19.1025 205.262 19.6876 204.5 19.6876ZM210 9.18762C210.762 9.18762 211.375 9.77278 211.375 10.5001C211.375 11.2275 210.762 11.8126 210 11.8126C209.238 11.8126 208.625 11.2275 208.625 10.5001C208.625 9.77278 209.238 9.18762 210 9.18762ZM217.334 29.3126C217.334 29.5532 217.127 29.7501 216.875 29.7501H208.625C208.373 29.7501 208.167 29.5532 208.167 29.3126V28.4376C208.167 28.197 208.373 28.0001 208.625 28.0001H216.875C217.127 28.0001 217.334 28.197 217.334 28.4376V29.3126ZM217.334 24.0626C217.334 24.3032 217.127 24.5001 216.875 24.5001H208.625C208.373 24.5001 208.167 24.3032 208.167 24.0626V23.1876C208.167 22.947 208.373 22.7501 208.625 22.7501H216.875C217.127 22.7501 217.334 22.947 217.334 23.1876V24.0626ZM217.334 18.8126C217.334 19.0532 217.127 19.2501 216.875 19.2501H208.625C208.373 19.2501 208.167 19.0532 208.167 18.8126V17.9376C208.167 17.697 208.373 17.5001 208.625 17.5001H216.875C217.127 17.5001 217.334 17.697 217.334 17.9376V18.8126Z" fill="#8768EA"/>
</g>
<path d="M127.516 13.1967C127.907 12.4989 127.526 11.8593 126.735 11.8593H121.481C120.671 11.8593 120.299 12.4989 120.69 13.2064C121.159 14.069 121.628 14.9218 122.106 15.7747C122.204 15.9492 122.204 16.0267 122.038 16.1527C121.1 16.8311 120.788 18.0523 121.286 19.0893C121.374 19.2734 121.364 19.3316 121.149 19.4188C118.385 20.5915 116.608 22.6171 115.973 25.544C115.456 27.9572 114.997 30.3898 114.557 32.8128C114.137 35.1291 115.553 37.1643 117.868 37.6877C117.936 37.7071 118.024 37.6877 118.063 37.7749H122.194C122.243 37.6974 122.331 37.7071 122.389 37.678C122.731 37.4842 122.907 37.1062 122.809 36.7282C122.721 36.3599 122.389 36.108 121.979 36.108C120.856 36.0983 119.733 36.1176 118.62 36.0983C117.096 36.0692 115.924 34.6542 116.198 33.181C116.667 30.7484 117.126 28.3158 117.614 25.8929C118.21 22.9466 120.739 20.7466 123.757 20.5043C124.645 20.4267 125.514 20.543 126.374 20.795C126.803 20.9113 127.214 20.7175 127.389 20.3298C127.555 19.9422 127.419 19.4963 127.038 19.2831C126.891 19.1959 126.901 19.1377 126.96 19.0117C127.399 17.9553 127.077 16.802 126.139 16.1333C125.993 16.0267 125.993 15.9492 126.071 15.8135C126.559 14.9412 127.038 14.069 127.516 13.1967ZM125.407 13.5456C125.212 13.9042 125.026 14.2434 124.841 14.5729C124.665 14.9025 124.489 15.232 124.303 15.5518C124.206 15.7069 124.001 15.7263 123.923 15.5712C123.542 14.9121 123.18 14.2434 122.79 13.5456H125.407ZM124.782 18.7985C124.557 18.7985 124.323 18.7985 124.098 18.7985C123.874 18.7985 123.649 18.7985 123.434 18.7985C123.063 18.7791 122.78 18.5078 122.741 18.1492C122.712 17.7712 122.936 17.4223 123.317 17.3738C123.844 17.306 124.372 17.306 124.889 17.3738C125.26 17.4223 125.485 17.7615 125.466 18.1298C125.436 18.4884 125.153 18.7791 124.782 18.7985Z" fill="#7738CF"/>
<path d="M137.077 28.6453C136.433 24.1193 132.048 21.047 127.497 21.9386C123.317 22.7721 120.495 26.7845 121.139 30.981C121.637 34.218 124.118 36.8542 127.331 37.5811C127.643 37.6489 127.966 37.6489 128.268 37.7749H129.899C129.938 37.6877 130.016 37.7264 130.075 37.7168C134.597 37.1062 137.712 33.0744 137.077 28.6453ZM129.089 36.0982C125.592 36.0982 122.741 33.2683 122.731 29.7889C122.731 26.2999 125.602 23.4408 129.128 23.4602C132.624 23.4602 135.466 26.2999 135.466 29.7792C135.466 33.2586 132.604 36.1079 129.089 36.0982Z" fill="#F3771E"/>
<path d="M127.018 32.6673C126.677 32.6673 126.423 32.5026 126.266 32.1925C126.11 31.8726 126.149 31.5625 126.384 31.3008C126.628 31.0294 126.891 30.7872 127.155 30.5255C128.278 29.4012 129.411 28.2867 130.544 27.1625C130.798 26.9105 131.1 26.8039 131.442 26.9202C131.774 27.0268 131.96 27.2594 132.009 27.5986C132.048 27.8699 131.97 28.1025 131.774 28.2867C130.388 29.6629 129.001 31.0391 127.614 32.4154C127.448 32.5801 127.253 32.6577 127.018 32.6577V32.6673Z" fill="#7738CF"/>
<path d="M131.94 31.8435C131.94 32.4541 131.442 32.9581 130.827 32.9581C130.221 32.9581 129.704 32.4444 129.714 31.8435C129.714 31.2329 130.221 30.7386 130.837 30.7386C131.462 30.7386 131.95 31.2232 131.95 31.8435H131.94Z" fill="#7738CF"/>
<path d="M128.483 27.7245C128.483 28.3448 127.985 28.8294 127.37 28.8294C126.745 28.8294 126.257 28.3351 126.257 27.7245C126.257 27.1139 126.764 26.61 127.38 26.6196C127.995 26.6196 128.493 27.1236 128.493 27.7342L128.483 27.7245Z" fill="#7738CF"/>
<defs>
<clipPath id="clip0_455_719">
<rect width="22" height="28" fill="white" transform="translate(199 7)"/>
</clipPath>
</defs>
</svg>
