<svg width="67" height="67" viewBox="0 0 67 67" fill="none" xmlns="http://www.w3.org/2000/svg">
<path d="M62.5859 34.4104C62.5859 32.2604 62.393 30.1931 62.0346 28.2085H33.4785V39.9507H49.7963C49.0796 43.7269 46.9297 46.9243 43.7047 49.0743V56.7095H53.545C59.2782 51.4172 62.5859 43.6442 62.5859 34.4104Z" fill="#4285F4"/>
<path d="M33.4798 64.0411C41.6662 64.0411 48.5296 61.3398 53.5462 56.7091L43.7059 49.0739C41.0047 50.8931 37.5592 51.9957 33.4798 51.9957C25.5965 51.9957 18.8985 46.6759 16.5005 39.5093H6.41211V47.3374C11.4012 57.2328 21.6273 64.0411 33.4798 64.0411Z" fill="#34A853"/>
<path d="M16.4991 39.4816C15.8927 37.6624 15.5344 35.733 15.5344 33.7208C15.5344 31.7086 15.8927 29.7792 16.4991 27.96V20.1318H6.41073C4.34345 24.2113 3.1582 28.8144 3.1582 33.7208C3.1582 38.6272 4.34345 43.2303 6.41073 47.3098L14.2664 41.1906L16.4991 39.4816Z" fill="#FBBC05"/>
<path d="M33.4798 15.4738C37.9451 15.4738 41.9143 17.0174 45.0841 19.9943L53.7667 11.3117C48.5021 6.40533 41.6662 3.40088 33.4798 3.40088C21.6273 3.40088 11.4012 10.2091 6.41211 20.1321L16.5005 27.9602C18.8985 20.7936 25.5965 15.4738 33.4798 15.4738Z" fill="#EA4335"/>
</svg>
