<svg width="341" height="99" viewBox="0 0 341 99" fill="none" xmlns="http://www.w3.org/2000/svg">
<g clip-path="url(#clip0_232_1038)">
<rect width="341" height="99" rx="10" fill="#2527A1"/>
<g opacity="0.2">
<g opacity="0.2" filter="url(#filter0_d_232_1038)">
<path d="M138.838 -133C179.108 -133 217.728 -117.003 246.203 -88.5278C274.678 -60.0526 290.676 -21.4321 290.676 18.8378C290.676 59.1076 274.678 97.7282 246.203 126.203C217.728 154.678 179.108 170.676 138.838 170.676H5.97972C0.955256 170.676 -3.86421 168.683 -7.42206 165.135C-10.9799 161.588 -12.9858 156.774 -13 151.749L-13 18.8378C-13 -21.4321 2.99715 -60.0526 31.4722 -88.5278C59.9474 -117.003 98.5679 -133 138.838 -133Z" fill="white"/>
</g>
<g style="mix-blend-mode:soft-light">
<path d="M202.162 -70.5654C242.432 -70.5654 281.053 -54.5683 309.528 -26.0932C338.003 2.38192 354 41.0024 354 81.2723V214.184C354 219.218 352 224.045 348.441 227.605C344.882 231.164 340.054 233.164 335.02 233.164H202.162C161.885 233.164 123.258 217.164 94.7779 188.684C66.2978 160.203 50.2979 121.576 50.2979 81.2991C50.2979 41.0221 66.2978 2.39479 94.7779 -26.0853C123.258 -54.5655 161.885 -70.5654 202.162 -70.5654Z" fill="white"/>
</g>
<g style="mix-blend-mode:exclusion" opacity="0.2">
<path d="M78.6795 169.925C62.4413 147.307 52.756 120.648 50.6892 92.8816C48.6223 65.1149 54.2539 37.316 66.9645 12.543C79.6751 -12.2301 98.9722 -33.0174 122.733 -47.5324C146.494 -62.0474 173.798 -69.7277 201.641 -69.7284H202.642C227.196 -69.7644 251.388 -63.8009 273.112 -52.3563C285.331 -29.2884 291.379 -3.45308 290.667 22.6416C289.956 48.7362 282.51 74.2037 269.053 96.5718C255.595 118.94 236.583 137.449 213.862 150.301C191.141 163.154 165.483 169.914 139.379 169.925H78.6795Z" fill="#0A1C8F"/>
</g>
</g>
</g>
<defs>
<filter id="filter0_d_232_1038" x="-29" y="-137" width="335.676" height="335.676" filterUnits="userSpaceOnUse" color-interpolation-filters="sRGB">
<feFlood flood-opacity="0" result="BackgroundImageFix"/>
<feColorMatrix in="SourceAlpha" type="matrix" values="0 0 0 0 0 0 0 0 0 0 0 0 0 0 0 0 0 0 127 0" result="hardAlpha"/>
<feOffset dy="12"/>
<feGaussianBlur stdDeviation="8"/>
<feColorMatrix type="matrix" values="0 0 0 0 0.137255 0 0 0 0 0.0431373 0 0 0 0 0.627451 0 0 0 0.239 0"/>
<feBlend mode="normal" in2="BackgroundImageFix" result="effect1_dropShadow_232_1038"/>
<feBlend mode="normal" in="SourceGraphic" in2="effect1_dropShadow_232_1038" result="shape"/>
</filter>
<clipPath id="clip0_232_1038">
<rect width="341" height="99" rx="10" fill="white"/>
</clipPath>
</defs>
</svg>
