<svg width="168" height="42" viewBox="0 0 168 42" fill="none" xmlns="http://www.w3.org/2000/svg">
<g clip-path="url(#clip0_1_34)">
<path d="M58.9539 6.20112H57.3276V16.5388H56.0554V6.20112H54.2875V5.07188H56.0554C55.7899 4.47484 55.6455 3.83174 55.6305 3.17931C55.627 2.82201 55.6899 2.46714 55.8161 2.13247C55.9381 1.8132 56.1328 1.52624 56.385 1.29401C56.6677 1.04353 57.0006 0.85524 57.3618 0.74151C57.8198 0.598707 58.2981 0.53078 58.7781 0.540382C59.4839 0.538777 60.1849 0.655945 60.8512 0.886907C61.5386 1.13232 62.1944 1.45769 62.8047 1.85621C63.472 2.28901 64.1025 2.77529 64.6898 3.31017C65.3117 3.8756 65.9408 4.49111 66.5774 5.1567H65.2295C65.0854 5.01857 64.8925 4.83683 64.6507 4.61389C64.409 4.39095 64.1331 4.15346 63.8181 3.89902C63.5031 3.64458 63.1539 3.38771 62.7729 3.12843C62.3856 2.86882 61.9818 2.6341 61.5642 2.42568C61.1405 2.21557 60.6983 2.04441 60.2432 1.91437C59.7933 1.78462 59.3272 1.71854 58.8586 1.71808C58.5369 1.71017 58.2161 1.75437 57.9088 1.84894C57.6778 1.92275 57.4661 2.04601 57.2885 2.21001C57.134 2.36153 57.0184 2.5477 56.9515 2.75282C56.8841 2.96776 56.8504 3.19169 56.8514 3.41679C56.8752 3.98698 57.0043 4.54799 57.2324 5.07188H58.9417L58.9539 6.20112Z" fill="#2E2F78"/>
<path d="M68.8434 6.20114H67.2147V16.5388H65.9449V13.815H65.9131C65.7866 13.9229 65.6537 14.0233 65.5151 14.1155C65.3477 14.2246 65.1712 14.3195 64.9877 14.399C64.772 14.4918 64.548 14.564 64.3186 14.6147C64.0485 14.6743 63.7724 14.7028 63.4957 14.6995C62.9663 14.7069 62.441 14.6063 61.9524 14.4039C61.5058 14.2188 61.0995 13.9498 60.7559 13.6115C60.4253 13.2848 60.1608 12.8981 59.977 12.4725C59.7923 12.0496 59.6976 11.5934 59.6986 11.1325C59.6949 10.6791 59.7899 10.2303 59.977 9.81665C60.1567 9.41868 60.4168 9.06155 60.7413 8.76738C61.0705 8.46743 61.4531 8.23079 61.8694 8.06948C62.3065 7.9035 62.7713 7.82127 63.2393 7.82716C63.4181 7.82802 63.5966 7.83935 63.7741 7.86108C64.0002 7.88763 64.2229 7.93799 64.4383 8.01132C64.6922 8.09752 64.9374 8.20704 65.1708 8.33846C65.4386 8.49441 65.6848 8.6842 65.9034 8.90308H65.9351V6.20114H58.4117V5.0719H68.8434V6.20114ZM60.9391 11.2464C60.9391 11.5298 60.9887 11.811 61.0856 12.0776C61.1842 12.3542 61.3389 12.6078 61.54 12.8229C61.7412 13.0379 61.9846 13.2098 62.2552 13.328C62.5758 13.4647 62.9222 13.5316 63.271 13.5242C63.609 13.5261 63.9446 13.4687 64.2624 13.3546L61.7058 9.55009C61.4657 9.74722 61.2737 9.99577 61.1442 10.2771C61.0062 10.5817 60.9362 10.9124 60.9391 11.2464ZM65.9766 10.3158C65.7966 10.1236 65.6059 9.94158 65.4052 9.77061C65.2155 9.60842 65.0093 9.4663 64.7899 9.34654C64.5721 9.2297 64.342 9.13706 64.1037 9.07028C63.8522 9.00296 63.5926 8.96954 63.3321 8.97093C63.2185 8.97021 63.105 8.97831 62.9927 8.99516C62.8828 9.0097 62.7729 9.02909 62.6581 9.05574L65.1781 12.8094C65.4195 12.5973 65.619 12.3426 65.7666 12.0582C65.8995 11.811 65.9714 11.5361 65.9766 11.2561V10.3158Z" fill="#2E2F78"/>
<path d="M80.723 6.20114H79.0967V16.5388H77.8245V9.8627H75.3289V9.8942C75.3924 9.96447 75.4852 10.0735 75.6098 10.2213C75.7484 10.39 75.8726 10.57 75.9809 10.7593C76.1129 10.9905 76.2217 11.234 76.3057 11.4863C76.4006 11.7674 76.4477 12.0622 76.4449 12.3587C76.4454 12.6747 76.3917 12.9886 76.2862 13.2868C76.1828 13.5877 76.0229 13.8665 75.8149 14.1083C75.5962 14.3601 75.3245 14.5611 75.0188 14.6971C74.6682 14.853 74.287 14.9292 73.9029 14.92C73.5087 14.9245 73.1176 14.8504 72.7528 14.702C72.4055 14.5577 72.0839 14.3589 71.8005 14.1131C71.5084 13.8618 71.2492 13.5752 71.0288 13.2601C70.7998 12.9337 70.5965 12.5902 70.4208 12.2326C70.2436 11.8754 70.0879 11.508 69.9544 11.1325C69.8226 10.7625 69.7102 10.4063 69.6174 10.0638C69.5246 9.72214 69.4489 9.40955 69.3928 9.12118C69.3366 8.83281 69.2927 8.59533 69.2609 8.40631L70.4086 8.18337C70.5536 9.0057 70.7618 9.81581 71.0313 10.6066C71.2362 11.2164 71.5107 11.801 71.8493 12.349C72.0999 12.7615 72.4322 13.1192 72.826 13.4007C73.1431 13.6239 73.5214 13.7457 73.9102 13.7496C74.1382 13.7595 74.3643 13.7049 74.5622 13.5921C74.7194 13.4946 74.8522 13.3628 74.9505 13.2068C75.0407 13.0632 75.1043 12.9049 75.1385 12.7391C75.1697 12.6014 75.1869 12.461 75.1898 12.3199C75.1867 12.0898 75.1437 11.8619 75.0628 11.6462C74.9701 11.3928 74.8445 11.1525 74.6892 10.9314C74.5156 10.6782 74.3114 10.447 74.0812 10.2431C73.8253 10.0126 73.5444 9.81107 73.2436 9.64218V8.74315H77.8392V6.20114H68.3159V5.0719H80.7377L80.723 6.20114Z" fill="#2E2F78"/>
<path d="M90.3659 6.20114H88.7372V16.5388H87.4577V10.6091H83.8315C83.8315 10.9483 83.8315 11.2367 83.8315 11.479C83.8287 11.6793 83.8066 11.879 83.7656 12.0751C83.7442 12.2015 83.6885 12.3196 83.6044 12.4168C83.5635 12.4535 83.5157 12.4819 83.4638 12.5002C83.4118 12.5185 83.3567 12.5264 83.3016 12.5234C83.025 12.5206 82.7568 12.4288 82.5373 12.2617C82.2946 12.0851 82.0804 11.8726 81.9024 11.6317C81.7239 11.3954 81.577 11.1372 81.4653 10.8635C81.3679 10.6497 81.3124 10.4194 81.3017 10.185C81.2938 10.0487 81.3326 9.91381 81.4116 9.80211C81.4853 9.70751 81.5843 9.63531 81.6973 9.59371C81.828 9.54475 81.9656 9.51614 82.1051 9.50889C82.2565 9.50889 82.4103 9.49436 82.5642 9.49436H87.4699V6.20114H80.1931V5.0719H90.3781L90.3659 6.20114Z" fill="#2E2F78"/>
<path d="M88.6396 5.28756H87.5163L86.8009 3.97658C86.5606 3.51429 86.2872 3.06969 85.9828 2.64621C85.7836 2.367 85.5489 2.1145 85.2845 1.89499C85.0955 1.73976 84.8746 1.62729 84.6374 1.56543C84.4186 1.51627 84.195 1.49188 83.9707 1.49273H82.469V0.247172H83.8853C84.1589 0.244765 84.4321 0.26912 84.7009 0.319874C84.9448 0.369047 85.1791 0.457445 85.3944 0.581583C85.6326 0.723575 85.849 0.899069 86.0366 1.10259C86.2818 1.37313 86.5062 1.66149 86.7081 1.96527C86.9441 2.31745 87.2038 2.73748 87.487 3.22536C87.7678 3.71002 88.0902 4.29402 88.4638 4.96042L88.6396 5.28756Z" fill="#2E2F78"/>
<path d="M101.796 5.0719V6.20114H100.168V16.5388H98.8954V11.37H94.395C94.1016 11.5565 93.7658 11.6673 93.4183 11.6923L93.4036 11.731C93.8951 12.5 94.4471 13.2293 95.0543 13.912C95.6717 14.6011 96.3573 15.227 97.1006 15.7803L96.2704 16.7254C95.8315 16.4032 95.4131 16.0544 95.0177 15.6809C94.6221 15.3061 94.2501 14.9176 93.9018 14.5154C93.555 14.1131 93.2278 13.7036 92.925 13.2916C92.6222 12.8797 92.3414 12.4725 92.0875 12.08C91.8335 11.6874 91.5991 11.2948 91.4062 10.9217C91.2133 10.5485 91.0277 10.2068 90.8787 9.88693L91.941 9.31988C92.0237 9.51491 92.1209 9.70363 92.2315 9.8845C92.3123 10.0168 92.41 10.1382 92.5221 10.2456C92.6112 10.3298 92.7167 10.3949 92.8322 10.437C92.9435 10.4763 93.0609 10.496 93.179 10.4952C93.3362 10.5049 93.493 10.4714 93.6322 10.3982C93.7713 10.3251 93.8875 10.2153 93.9677 10.0808C94.1463 9.74478 94.2306 9.36732 94.2119 8.98789C94.2117 8.72348 94.1855 8.45971 94.1337 8.20033C94.0843 7.94753 94.0182 7.69821 93.936 7.45397C93.8554 7.21164 93.7699 6.99113 93.6771 6.7803C93.5843 6.56948 93.4964 6.38046 93.4134 6.21084H89.8239V5.08159L101.796 5.0719ZM98.8954 6.20114H94.7442C94.9569 6.65415 95.1277 7.12539 95.2546 7.60906C95.3777 8.06844 95.4409 8.54162 95.4426 9.01697C95.4428 9.22963 95.4256 9.44196 95.3913 9.65187C95.3582 9.85368 95.3025 10.0512 95.2252 10.2407L95.2399 10.2553H98.8954V6.20114Z" fill="#2E2F78"/>
<path d="M119.197 6.20114H112.648V9.23265L112.687 9.24718C112.945 8.89184 113.279 8.59663 113.664 8.38208C114.059 8.16319 114.505 8.05044 114.958 8.05494C115.316 8.05147 115.67 8.12939 115.993 8.28272C116.308 8.43219 116.589 8.64415 116.819 8.9055C117.057 9.18081 117.242 9.49808 117.363 9.84089C117.498 10.2132 117.564 10.6062 117.561 11.0016C117.566 11.4479 117.483 11.8908 117.317 12.3053C117.156 12.6926 116.942 13.0562 116.682 13.3861C116.425 13.7058 116.131 13.9938 115.805 14.244C115.501 14.4784 115.179 14.6898 114.843 14.8764L114.155 13.6939C114.257 13.6357 114.384 13.563 114.533 13.4709C114.682 13.3788 114.841 13.2698 115.002 13.1462C115.175 13.019 115.338 12.8789 115.49 12.727C115.648 12.5705 115.79 12.3993 115.915 12.2157C116.041 12.0294 116.144 11.8284 116.22 11.6171C116.299 11.397 116.339 11.165 116.338 10.9314C116.339 10.7169 116.303 10.5039 116.233 10.3013C116.167 10.1113 116.069 9.93409 115.942 9.77788C115.819 9.63088 115.667 9.51048 115.495 9.42409C115.319 9.33543 115.124 9.29053 114.926 9.29323C114.652 9.29498 114.383 9.36674 114.145 9.50162C113.89 9.64014 113.657 9.81485 113.454 10.0202C113.253 10.2201 113.077 10.444 112.931 10.6866C112.804 10.8882 112.708 11.1081 112.648 11.3385V16.5388H111.378V13.5921L111.346 13.5776C111.268 13.6454 111.171 13.7254 111.051 13.8199C110.917 13.9246 110.773 14.0163 110.621 14.0937C110.435 14.187 110.241 14.2617 110.04 14.3167C109.801 14.3798 109.555 14.4107 109.307 14.4087C108.873 14.4129 108.443 14.3236 108.047 14.147C107.67 13.9775 107.331 13.7354 107.049 13.4346C106.761 13.1278 106.536 12.7691 106.385 12.378C106.222 11.9641 106.139 11.5235 106.14 11.0792C106.136 10.6612 106.211 10.2462 106.36 9.85543C106.497 9.49638 106.702 9.16715 106.966 8.88612C107.22 8.61809 107.525 8.40307 107.864 8.25365C108.462 8.00269 109.129 7.95999 109.754 8.13248C110.184 8.25128 110.589 8.4467 110.948 8.70922C111.107 8.82311 111.239 8.92731 111.349 9.0194H111.381V6.20114H104.951V5.0719H119.197V6.20114ZM109.151 9.23265C108.881 9.22736 108.613 9.28898 108.372 9.41196C108.155 9.52683 107.964 9.68431 107.811 9.87481C107.659 10.0618 107.545 10.2756 107.474 10.5049C107.4 10.727 107.362 10.9592 107.361 11.1931C107.362 11.4412 107.406 11.6874 107.493 11.92C107.578 12.16 107.706 12.3832 107.869 12.5792C108.03 12.7774 108.228 12.9421 108.453 13.0638C108.684 13.1852 108.943 13.2469 109.205 13.2431C109.456 13.2401 109.704 13.1925 109.937 13.1026C110.201 13.0037 110.441 12.8528 110.643 12.6591C110.87 12.4419 111.05 12.1815 111.173 11.8934C111.321 11.5422 111.392 11.164 111.383 10.7835V10.4055C111.111 10.0768 110.78 9.80079 110.406 9.59129C110.214 9.4832 110.01 9.39625 109.798 9.332C109.589 9.26739 109.371 9.23391 109.151 9.23265Z" fill="#2E2F78"/>
<path d="M123.314 6.20114H121.688V16.5388H120.415V6.20114H118.65V5.0719H123.314V6.20114Z" fill="#2E2F78"/>
<path d="M138.373 6.20112H136.063V9.03876H132.18C131.905 9.01483 131.628 9.07126 131.384 9.20112C131.308 9.26423 131.248 9.34482 131.21 9.43598C131.171 9.52715 131.156 9.62617 131.165 9.72455C131.165 9.85433 131.18 9.98364 131.211 10.1098C131.243 10.2441 131.301 10.3709 131.382 10.483C131.471 10.6018 131.586 10.6988 131.719 10.7665C131.889 10.8474 132.077 10.8856 132.266 10.878H134.464C134.855 10.8672 135.245 10.9296 135.614 11.0622C135.902 11.169 136.16 11.3436 136.366 11.5711C136.557 11.7914 136.696 12.0513 136.774 12.332C136.856 12.6378 136.897 12.9532 136.896 13.2698C136.897 13.7158 136.82 14.1586 136.669 14.5783C136.519 14.9866 136.288 15.3608 135.99 15.6785C135.673 16.0063 135.291 16.2653 134.869 16.4394C134.373 16.6376 133.843 16.734 133.309 16.7229C132.672 16.7253 132.042 16.6043 131.453 16.3667C130.858 16.1259 130.308 15.7894 129.824 15.3707C129.318 14.9307 128.88 14.4197 128.522 13.8538C128.142 13.2561 127.847 12.6095 127.643 11.9321L128.72 11.5081C128.907 12.0416 129.152 12.5529 129.453 13.0323C129.742 13.5063 130.092 13.9405 130.495 14.3239C130.88 14.6904 131.321 14.9931 131.802 15.2205C132.272 15.4424 132.786 15.5567 133.306 15.5549C133.644 15.5597 133.981 15.5047 134.3 15.3926C134.58 15.2931 134.835 15.1362 135.05 14.9321C135.258 14.7266 135.419 14.4785 135.521 14.2052C135.634 13.9038 135.69 13.5841 135.684 13.2625C135.69 13.058 135.661 12.8541 135.599 12.6591C135.55 12.5123 135.456 12.3844 135.33 12.2932C135.193 12.1988 135.036 12.1374 134.871 12.1139C134.651 12.0774 134.428 12.0604 134.205 12.063H132.173C131.826 12.0736 131.484 11.9898 131.182 11.8207C130.909 11.6635 130.673 11.4514 130.488 11.1979C130.304 10.9461 130.166 10.6639 130.08 10.3643C129.995 10.0786 129.951 9.78252 129.949 9.48464C129.94 9.22388 129.991 8.96451 130.097 8.72616C130.187 8.5328 130.326 8.36584 130.5 8.24151C130.683 8.11475 130.89 8.02726 131.108 7.98464C131.359 7.93169 131.614 7.90568 131.87 7.9071H134.8V6.1987H126.488V5.06946H138.385L138.373 6.20112Z" fill="#2E2F78"/>
<path d="M137.899 0.310181C137.973 0.592967 138.065 0.870629 138.175 1.14136C138.286 1.42792 138.439 1.6972 138.627 1.94104C138.813 2.18361 139.045 2.38775 139.311 2.542C139.602 2.70766 139.934 2.79142 140.27 2.78433C140.512 2.78501 140.753 2.74738 140.983 2.67286C141.224 2.58983 141.444 2.45589 141.628 2.28029C141.851 2.06235 142.032 1.8062 142.163 1.52424C142.337 1.13808 142.46 0.730661 142.526 0.312606L143.674 0.627628C143.564 1.09856 143.4 1.55548 143.186 1.9895C143 2.37756 142.753 2.73348 142.453 3.04362C142.17 3.33645 141.831 3.57111 141.457 3.73425C141.056 3.89951 140.626 3.98197 140.192 3.97658C139.39 3.99497 138.612 3.70096 138.026 3.15751C137.435 2.60986 137.013 1.76979 136.759 0.637323L137.899 0.310181ZM142.495 6.20113H140.866V16.5388H139.596V6.20113H137.828V5.07189H142.495V6.20113Z" fill="#2E2F78"/>
<path d="M152.423 10.8926C152.304 10.8363 152.177 10.7956 152.047 10.7714C151.918 10.7454 151.786 10.7325 151.654 10.7326C151.411 10.7317 151.169 10.7744 150.941 10.8587C150.724 10.9376 150.52 11.046 150.333 11.181C150.162 11.3055 150.01 11.455 149.884 11.6244C149.769 11.7674 149.686 11.9324 149.64 12.1091V16.5388H148.37V13.5921L148.338 13.5776C148.262 13.6454 148.162 13.7254 148.045 13.8199C147.91 13.9246 147.765 14.0163 147.613 14.0937C147.427 14.1874 147.233 14.2621 147.032 14.3167C146.793 14.3799 146.546 14.4109 146.299 14.4087C145.868 14.4147 145.441 14.3279 145.046 14.1543C144.669 13.9849 144.328 13.7427 144.045 13.4419C143.759 13.135 143.534 12.7763 143.384 12.3853C143.22 11.9716 143.137 11.5308 143.139 11.0864C143.136 10.6683 143.211 10.2533 143.362 9.8627C143.497 9.50379 143.702 9.17456 143.965 8.89339C144.22 8.62535 144.526 8.41035 144.866 8.26091C145.216 8.10903 145.595 8.03224 145.977 8.03555C146.24 8.03299 146.503 8.06808 146.756 8.13975C146.983 8.20022 147.203 8.28134 147.415 8.38208C147.602 8.47621 147.78 8.58479 147.95 8.70679C148.106 8.82069 148.24 8.92489 148.348 9.01697H148.38V6.20114H141.953V5.0719H154.081V6.20114H149.647V10.185L149.686 10.202C150.238 9.75591 150.928 9.51353 151.639 9.51616C151.808 9.51687 151.976 9.53146 152.143 9.55979C152.319 9.58715 152.492 9.63767 152.655 9.71003L152.423 10.8926ZM146.16 9.23265C145.889 9.22756 145.622 9.28917 145.381 9.41196C145.165 9.52744 144.974 9.68483 144.819 9.87481C144.67 10.063 144.556 10.2764 144.482 10.5049C144.409 10.727 144.371 10.9592 144.37 11.1931C144.374 11.7014 144.554 12.193 144.878 12.5864C145.039 12.7846 145.238 12.9493 145.464 13.0711C145.696 13.1928 145.954 13.2544 146.216 13.2504C146.752 13.2419 147.264 13.0334 147.652 12.6664C147.88 12.4493 148.061 12.1889 148.184 11.9007C148.331 11.5493 148.402 11.1711 148.392 10.7908V10.4128C148.261 10.2516 148.115 10.1039 147.955 9.97174C147.786 9.8305 147.605 9.70555 147.413 9.59856C147.22 9.49134 147.016 9.40444 146.805 9.33927C146.596 9.27263 146.379 9.23671 146.16 9.23265ZM158.784 15.269C158.368 15.5151 157.92 15.7019 157.451 15.8239C156.992 15.9458 156.518 16.0077 156.042 16.0081C155.446 16.0165 154.855 15.9078 154.301 15.6882C153.8 15.488 153.346 15.1869 152.968 14.8037C152.597 14.4232 152.307 13.9724 152.116 13.4782C151.914 12.9496 151.813 12.3884 151.818 11.8231C151.807 11.3184 151.899 10.8166 152.086 10.3473C152.25 9.94841 152.5 9.59014 152.819 9.29807C153.136 9.01437 153.509 8.80047 153.915 8.67045C154.354 8.52901 154.814 8.45864 155.275 8.46205H156.787V6.20114H150.323V5.0719H160.242V6.20114H158.044V9.59371H155.546C155.201 9.5896 154.857 9.64116 154.528 9.74638C154.235 9.84149 153.966 9.99671 153.737 10.202C153.512 10.4079 153.337 10.6613 153.224 10.9435C153.098 11.2713 153.037 11.6201 153.044 11.9709C153.038 12.3678 153.111 12.7619 153.256 13.1317C153.39 13.47 153.593 13.7767 153.853 14.0321C154.114 14.2876 154.425 14.486 154.768 14.6147C155.14 14.7578 155.536 14.8286 155.935 14.8231C156.192 14.8221 156.449 14.7962 156.701 14.7456C156.957 14.6958 157.208 14.6269 157.454 14.5396C157.693 14.4528 157.927 14.3525 158.154 14.2391C158.369 14.1317 158.577 14.0111 158.777 13.878L158.784 15.269Z" fill="#2E2F78"/>
<path d="M168 6.20113H165.07C165.326 6.64021 165.54 7.10277 165.707 7.5824C165.868 8.04124 165.951 8.52371 165.951 9.00969C165.953 9.36604 165.897 9.72035 165.785 10.059C165.68 10.386 165.514 10.6909 165.297 10.958C165.078 11.2254 164.806 11.4456 164.498 11.605C164.158 11.7773 163.784 11.8732 163.402 11.8861L163.387 11.9249C163.852 12.6437 164.376 13.3236 164.953 13.958C165.563 14.6258 166.235 15.2351 166.96 15.7779L166.129 16.7229C165.691 16.3998 165.273 16.0494 164.879 15.6737C164.484 15.2956 164.11 14.9079 163.758 14.5057C163.407 14.1034 163.08 13.6939 162.782 13.2819C162.484 12.87 162.203 12.4653 161.951 12.0703C161.7 11.6753 161.478 11.2997 161.282 10.9386C161.087 10.5776 160.916 10.248 160.777 9.94992L161.839 9.38045C161.99 9.73042 162.204 10.0499 162.472 10.3231C162.577 10.4317 162.704 10.5179 162.844 10.5767C162.984 10.6354 163.135 10.6654 163.287 10.6648C163.499 10.6679 163.707 10.6098 163.885 10.4976C164.061 10.3835 164.211 10.2351 164.327 10.0614C164.447 9.88164 164.539 9.68468 164.598 9.47739C164.659 9.27347 164.69 9.06223 164.691 8.84976C164.691 8.61013 164.66 8.37152 164.598 8.13974C164.535 7.90522 164.453 7.67593 164.354 7.45396C164.254 7.23102 164.144 7.01535 164.025 6.80453L163.671 6.19629H159.698V5.06705H168V6.20113Z" fill="#2E2F78"/>
<path d="M132.161 40.0832C130.058 40.1195 130.105 40.1098 129.585 38.0573C128.396 33.3465 127.143 28.6502 125.939 23.9443C125.49 22.2068 125.609 22.0759 127.482 22.0783C129.436 22.0783 129.475 22.0783 129.87 23.8885C130.532 26.9273 131.13 29.9782 131.758 33.0242C131.831 33.3756 131.716 33.9208 132.219 33.9402C132.722 33.9596 132.696 33.4071 132.791 33.0678C133.665 29.9176 134.554 26.7819 135.365 23.6171C135.631 22.5872 136.085 22.0468 137.252 22.0541C139.472 22.0541 139.508 22.0081 139.938 23.5347C140.746 26.3821 141.506 29.2415 142.285 32.0961C142.385 32.462 142.468 32.8352 142.597 33.1914C142.705 33.4943 142.671 33.9717 143.125 33.9717C143.579 33.9717 143.535 33.4871 143.613 33.1866C143.999 31.3667 144.363 29.5517 144.736 27.7245C145.042 26.2391 145.379 24.7585 145.645 23.2657C145.789 22.4636 146.162 22.0541 147.029 22.0759C150.065 22.1074 150.148 21.8336 149.298 24.727C147.926 29.3869 146.788 34.1147 145.611 38.8255C145.366 39.773 144.964 40.1438 143.95 40.1123C140.798 40.0153 141.279 40.4564 140.478 37.5485C139.762 34.9483 139.049 32.3506 138.317 29.7552C138.202 29.3433 138.261 28.672 137.687 28.6696C137.113 28.6672 137.216 29.3336 137.101 29.748C136.266 32.8231 135.391 35.8909 134.598 38.9758C134.224 40.3837 133.13 40.0541 132.161 40.0832Z" fill="#E45325"/>
<path d="M58.3166 40.105H55.064C54.1727 40.105 53.677 39.7391 53.7454 38.7989C54.0262 34.9798 53.6135 31.1559 53.8577 27.3344C53.931 26.1688 53.7674 24.9911 53.7649 23.8183C53.7649 22.3449 54.0482 22.0687 55.5084 22.0662C57.6377 22.0662 59.7719 22.0032 61.8963 22.1002C63.9255 22.1947 65.6592 22.941 66.6799 24.8094C67.7006 26.6777 67.5199 28.1874 66.0035 29.6559C65.2588 30.3829 65.0488 30.8675 65.9718 31.6478C67.7348 33.1284 67.8838 35.0792 67.0877 37.0493C66.3552 38.8619 64.7777 39.7149 62.8389 39.9378C61.3358 40.0783 59.826 40.1341 58.3166 40.105ZM59.8989 36.933C60.5533 36.8821 61.2272 36.9112 61.8524 36.7633C62.8047 36.5428 63.5983 36.0363 63.6886 34.9725C63.7839 33.8578 63.2198 33.0606 62.1698 32.6753C61.5477 32.4662 60.9039 32.3272 60.2505 32.2609C57.5767 31.9265 57.5449 31.9653 57.4912 34.5727C57.4472 36.933 57.4472 36.933 59.8989 36.933ZM59.8281 29.3966C60.4439 29.39 61.0584 29.339 61.6668 29.244C62.6655 29.0186 63.3761 28.3595 63.3761 27.3514C63.3761 26.3433 62.6973 25.7132 61.6668 25.4782C60.9025 25.3013 60.1309 25.3546 59.3592 25.3498C57.5059 25.3376 57.5132 25.3498 57.5083 27.126C57.4936 29.5008 57.2666 29.4015 59.8256 29.4015L59.8281 29.3966Z" fill="#2E2F78"/>
<path d="M87.465 30.9935C87.465 28.4903 87.465 25.9895 87.465 23.4814C87.465 22.2455 87.697 22.0735 89.1279 22.0759C90.8372 22.0759 91.0375 22.2019 91.0497 23.4426C91.0643 24.996 91.0741 26.5517 91.0326 28.105C91.0082 28.9483 91.2768 29.3772 92.2095 29.3554C93.953 29.3166 95.699 29.3191 97.44 29.3554C98.3533 29.3724 98.6878 28.9774 98.6609 28.122C98.6268 26.5687 98.6609 25.0129 98.6219 23.4596C98.5926 22.4273 99.0639 22.059 100.087 22.0614C102.375 22.0614 102.436 22.1026 102.436 24.315C102.436 29.0161 102.436 33.7173 102.436 38.4184C102.436 39.8942 102.192 40.0977 100.412 40.0977C98.8368 40.0977 98.6243 39.9063 98.6243 38.4402C98.6243 36.8118 98.6243 35.1809 98.6512 33.5501C98.6683 32.7286 98.3264 32.3893 97.4791 32.4039C95.6965 32.4354 93.9115 32.4354 92.1314 32.4039C91.2523 32.3845 90.9862 32.7577 91.0082 33.567C91.0497 35.3094 91.0082 37.0565 91.0472 38.7989C91.0741 39.7173 90.7127 40.151 89.7677 40.105C89.4576 40.0905 89.1475 40.105 88.8373 40.0905C87.8435 40.0905 87.3991 39.6615 87.4211 38.6195C87.4992 36.0727 87.4601 33.5404 87.465 30.9935Z" fill="#E45325"/>
<path d="M153.947 31.059C153.947 28.5582 153.969 26.0549 153.935 23.5469C153.935 22.5776 154.235 22.0929 155.329 22.0929C157.263 22.0929 157.607 22.2189 157.673 23.4911C157.773 24.8151 157.739 26.1457 157.571 27.4629C157.507 27.8772 157.268 28.4952 157.815 28.6745C158.276 28.832 158.662 28.3401 158.919 27.9766C160.093 26.3191 161.556 24.9015 162.884 23.3724C163.878 22.2335 166.117 21.6276 167.524 22.1608C168.347 22.4709 167.902 22.9798 167.607 23.3215C166.584 24.5089 165.524 25.6648 164.452 26.811C163.38 27.9572 162.254 29.147 161.099 30.2787C160.611 30.7755 160.503 31.1438 161.033 31.706C163.104 33.9087 165.136 36.1478 167.177 38.3748C167.536 38.765 168.054 39.1454 167.809 39.7343C167.565 40.3231 166.947 40.0759 166.466 40.1365C164.73 40.3546 163.48 39.7488 162.384 38.3578C161.207 36.8651 159.866 35.4839 158.677 33.996C158.452 33.7125 158.213 33.2835 157.756 33.4847C157.373 33.6543 157.512 34.0905 157.512 34.4128C157.578 35.8885 157.412 37.3692 157.634 38.8425C157.761 39.6955 157.378 40.0881 156.477 40.1341C154.035 40.2601 153.932 40.1898 153.942 37.7738C153.942 35.5372 153.942 33.3005 153.942 31.0638L153.947 31.059Z" fill="#E45325"/>
<path d="M121.138 40.1001C119.402 40.1001 119.185 39.9523 118.648 38.3384C117.959 36.2908 117.959 36.2908 115.813 36.2956C114.689 36.2956 113.564 36.3295 112.44 36.2956C111.5 36.2593 110.86 36.5622 110.611 37.5072C110.553 37.7253 110.443 37.9289 110.367 38.1446C109.578 40.231 109.451 40.311 107.146 40.1389C105.989 40.0541 105.779 39.7439 106.194 38.685C107.977 34.1179 109.762 29.5501 111.549 24.9814C111.605 24.8384 111.664 24.6979 111.72 24.5573C112.619 22.2867 113.131 22.0129 115.627 22.3304C116.411 22.4297 116.618 22.9895 116.848 23.542C118.536 27.8635 120.215 32.1874 121.885 36.5137C122.149 37.185 122.418 37.8562 122.699 38.5226C123.221 39.7585 123.014 40.0686 121.622 40.1123C121.448 40.1026 121.295 40.0977 121.138 40.1001ZM114.435 33.4556H115.363C116.762 33.441 116.853 33.3199 116.34 32.0016C115.852 30.7318 115.27 29.4887 114.924 28.1656C114.858 27.9232 114.816 27.5913 114.491 27.5598C114.093 27.521 114.003 27.8821 113.905 28.1559C113.542 29.1906 113.217 30.2399 112.843 31.2722C112.05 33.4628 112.04 33.458 114.435 33.4556Z" fill="#E45325"/>
<path d="M78.9405 32.525C78.9405 34.5703 78.8965 36.6179 78.96 38.6607C78.9893 39.6519 78.5596 40.0541 77.6219 40.0856C77.3142 40.0856 77.0041 40.1123 76.694 40.1026C75.2801 40.059 75.1117 39.8918 75.1117 38.496C75.1117 34.5194 75.1117 30.5428 75.1117 26.5638C75.1117 25.2649 74.8675 25.059 73.5318 25.168C72.914 25.2165 72.2986 25.3037 71.6808 25.3158C70.3989 25.3401 70.0839 24.9596 70.0326 23.5614C69.9935 22.483 70.5087 22.0687 71.5734 22.0735C75.2118 22.0905 78.8526 22.0735 82.491 22.0735C83.7119 22.0735 83.8291 22.3158 83.8682 23.7698C83.8926 24.7706 83.624 25.4152 82.4592 25.3207C81.7267 25.2625 80.9941 25.2286 80.2615 25.1438C79.2848 25.0275 78.8477 25.3497 78.8795 26.3869C78.9429 28.4297 78.899 30.4774 78.899 32.5226L78.9405 32.525Z" fill="#2E2F78"/>
<path d="M7.01067 9.43375C7.79206 8.6268 8.85671 8.35055 9.86764 7.97979C16.2165 5.59045 22.619 5.46687 28.8311 8.22212C32.594 9.89659 35.6683 12.584 37.6218 16.2431C38.8745 18.5743 38.728 20.9491 37.5803 23.2706C37.1164 24.2157 36.7208 24.2399 36.186 23.3506C35.3729 22.0008 34.1495 21.4386 32.6087 21.4119C31.8517 21.4119 31.0947 21.4119 30.3378 21.4119C28.0033 21.4289 26.3575 22.5145 25.5175 24.5864C24.6775 26.6583 24.9706 28.5242 26.3746 29.8231C28.2182 31.5194 30.5868 32.0234 32.6355 31.059C34.3448 30.2569 35.6659 29.0113 36.7867 27.5283C39.6022 23.7916 41.2162 19.5654 42.2003 15.0678C42.6882 12.9386 42.9484 10.7642 42.9768 8.58076C42.9768 7.70112 42.6814 7.08318 41.9122 6.66153C41.7894 6.57564 41.6604 6.4987 41.5264 6.43133C37.131 4.74958 32.765 3.02422 27.9911 2.51533C24.2844 2.12277 20.6167 1.97495 16.9271 2.54441C13.8503 3.02907 10.9323 4.04926 7.96788 4.91922C6.59799 5.32148 5.28183 5.88852 3.93392 6.37317C3.16718 6.647 2.77404 7.12438 2.81555 7.95798C2.87415 9.14053 2.87659 10.3182 3.02555 11.4984C3.15008 12.4822 3.52857 12.7245 4.52729 12.5137C8.00694 11.7867 11.511 11.2342 15.0883 11.7867C15.2764 11.8158 15.4668 11.8231 15.65 11.8594C15.8722 11.9006 16.1579 11.9467 16.1579 12.2084C16.1579 12.4701 15.8673 12.4919 15.6426 12.5113C10.8078 12.9669 6.23904 14.2342 2.03904 16.6842C1.17462 17.1882 0.79369 16.9386 0.722876 15.9572C0.510434 13.0493 0.478687 10.1268 0.056245 7.23343C-0.153755 5.74797 0.222291 5.17365 1.61659 4.49756C7.99717 1.39579 14.7831 -0.0266668 21.884 -0.0121272C27.8031 -0.0121272 33.6514 0.646999 39.3165 2.44021C41.1077 3.02922 42.8419 3.77698 44.4981 4.67446C45.3235 5.10823 45.8265 5.72616 45.8216 6.70031C45.7972 12.4119 44.9181 17.9588 42.5764 23.2415C39.8634 29.3602 35.8808 34.4515 30.1229 38.1179C28.3476 39.2472 26.5626 40.3643 24.7508 41.4426C23.2319 42.3514 22.4457 42.1212 21.3859 40.752C17.8086 36.1478 17.3226 31.059 19.1296 25.7132C20.7852 20.8279 24.7459 18.4798 29.7517 18.0339C31.6148 17.8667 33.4536 17.9782 35.1629 18.8651C35.9443 19.2722 36.2251 18.9111 36.0908 18.1599C35.9718 17.4776 35.6874 16.8343 35.262 16.2855C34.8365 15.7366 34.2829 15.2988 33.6489 15.0097C32.4031 14.398 31.3293 13.4897 30.5233 12.3659C29.256 10.6696 27.4197 9.70031 25.4443 8.97333C22.138 7.73504 18.7169 7.78109 15.2666 7.99191C12.4682 8.15912 9.74799 8.75523 7.01067 9.43375Z" fill="#2E2F78"/>
<path d="M19.6057 18.0436C19.5837 18.8748 19.0904 19.4055 18.6655 19.9701C16.7536 22.5121 15.3861 25.2868 15.0589 28.4515C14.6609 32.3288 15.1761 36.0969 16.883 39.6616C17.0124 39.9281 17.154 40.1898 17.2639 40.4637C17.3235 40.5596 17.3485 40.6727 17.3347 40.7846C17.321 40.8964 17.2693 41.0003 17.1882 41.0792C17.0173 41.2149 16.8268 41.0937 16.6657 41.0065C13.3301 39.1866 10.2948 37.0347 8.29008 33.7367C8.06446 33.3923 7.98218 32.9745 8.06054 32.5711C9.29612 26.1446 12.4168 20.8958 18.0722 17.2415C18.3725 17.0452 18.668 16.6818 19.0782 16.9289C19.4885 17.1761 19.5788 17.6632 19.6057 18.0436Z" fill="#2E2F78"/>
<path d="M1.69462 21.2641C1.64089 20.7019 2.04868 20.3893 2.40764 20.0719C4.1438 18.5476 6.18764 17.4935 8.25589 16.4951C10.7297 15.2861 13.3273 14.3445 16.0039 13.6866C16.6681 13.5266 17.3787 13.4564 17.6986 14.1422C18.0648 14.9321 17.4202 15.3756 16.8 15.693C10.815 18.7657 7.16194 23.6195 5.40624 29.9273C5.32566 30.2084 5.31834 30.5743 4.94962 30.6203C4.58089 30.6664 4.44415 30.3538 4.32938 30.0703C3.20857 27.2835 2.05601 24.4968 1.73369 21.4846C1.72636 21.4241 1.70927 21.3393 1.69462 21.2641Z" fill="#2E2F78"/>
</g>
<defs>
<clipPath id="clip0_1_34">
<rect width="168" height="42" fill="white"/>
</clipPath>
</defs>
</svg>
